<?xml version="1.0" encoding="UTF-8" standalone="no"?>
<!DOCTYPE svg PUBLIC "-//W3C//DTD SVG 1.1//EN"
 "http://www.w3.org/Graphics/SVG/1.1/DTD/svg11.dtd">
<!-- Generated by graphviz version 2.40.1 (20161225.0304)
 -->
<!-- Title: coach.resources Pages: 1 -->
<svg width="384pt" height="435pt"
 viewBox="0.00 0.00 384.00 435.00" xmlns="http://www.w3.org/2000/svg" xmlns:xlink="http://www.w3.org/1999/xlink">
<g id="graph0" class="graph" transform="scale(1 1) rotate(0) translate(4 431)">
<title>coach.resources</title>
<polygon fill="#ffffff" stroke="transparent" points="-4,4 -4,-431 380,-431 380,4 -4,4"/>
<!-- coach.resources -->
<g id="node1" class="node">
<title>coach.resources</title>
<polygon fill="#efefef" stroke="transparent" points="46,-345.5 46,-380.5 330,-380.5 330,-345.5 46,-345.5"/>
<polygon fill="none" stroke="#000000" points="46,-345.5 46,-380.5 330,-380.5 330,-345.5 46,-345.5"/>
<text text-anchor="start" x="58.201" y="-358.3" font-family="Arial Bold" font-size="18.00" fill="#000000">coach.resources</text>
<text text-anchor="start" x="190.231" y="-358.3" font-family="Arial" font-size="14.00" fill="#000000">    </text>
<text text-anchor="start" x="224.4358" y="-358.3" font-family="Arial" font-size="14.00" fill="#666666">[BASE TABLE]</text>
<polygon fill="none" stroke="#000000" points="46,-315.5 46,-345.5 330,-345.5 330,-315.5 46,-315.5"/>
<text text-anchor="start" x="53" y="-326.9" font-family="Arial" font-size="14.00" fill="#000000">resource_uuid </text>
<text text-anchor="start" x="145.5792" y="-326.9" font-family="Arial" font-size="14.00" fill="#666666">[uuid]</text>
<polygon fill="none" stroke="#000000" points="46,-285.5 46,-315.5 330,-315.5 330,-285.5 46,-285.5"/>
<text text-anchor="start" x="53" y="-296.9" font-family="Arial" font-size="14.00" fill="#000000">resource_provider </text>
<text text-anchor="start" x="169.683" y="-296.9" font-family="Arial" font-size="14.00" fill="#666666">[varchar(50)]</text>
<polygon fill="none" stroke="#000000" points="46,-255.5 46,-285.5 330,-285.5 330,-255.5 46,-255.5"/>
<text text-anchor="start" x="53" y="-266.9" font-family="Arial" font-size="14.00" fill="#000000">provider_service </text>
<text text-anchor="start" x="159.5638" y="-266.9" font-family="Arial" font-size="14.00" fill="#666666">[varchar(50)]</text>
<polygon fill="none" stroke="#000000" points="46,-225.5 46,-255.5 330,-255.5 330,-225.5 46,-225.5"/>
<text text-anchor="start" x="53" y="-236.9" font-family="Arial" font-size="14.00" fill="#000000">resource_details </text>
<text text-anchor="start" x="159.5764" y="-236.9" font-family="Arial" font-size="14.00" fill="#666666">[jsonb]</text>
<polygon fill="none" stroke="#000000" points="46,-195.5 46,-225.5 330,-225.5 330,-195.5 46,-195.5"/>
<text text-anchor="start" x="53" y="-206.9" font-family="Arial" font-size="14.00" fill="#000000">resource_tags </text>
<text text-anchor="start" x="145.5806" y="-206.9" font-family="Arial" font-size="14.00" fill="#666666">[jsonb]</text>
<polygon fill="none" stroke="#000000" points="46,-165.5 46,-195.5 330,-195.5 330,-165.5 46,-165.5"/>
<text text-anchor="start" x="53" y="-176.9" font-family="Arial" font-size="14.00" fill="#000000">organization_uuid </text>
<text text-anchor="start" x="167.3702" y="-176.9" font-family="Arial" font-size="14.00" fill="#666666">[uuid]</text>
<polygon fill="none" stroke="#000000" points="46,-135.5 46,-165.5 330,-165.5 330,-135.5 46,-135.5"/>
<text text-anchor="start" x="53" y="-146.9" font-family="Arial" font-size="14.00" fill="#000000">event_uuid </text>
<text text-anchor="start" x="125.366" y="-146.9" font-family="Arial" font-size="14.00" fill="#666666">[uuid]</text>
<polygon fill="none" stroke="#000000" points="46,-105.5 46,-135.5 330,-135.5 330,-105.5 46,-105.5"/>
<text text-anchor="start" x="53" y="-116.9" font-family="Arial" font-size="14.00" fill="#000000">ts_created </text>
<text text-anchor="start" x="122.2454" y="-116.9" font-family="Arial" font-size="14.00" fill="#666666">[timestamp without time zone]</text>
<polygon fill="none" stroke="#000000" points="46,-75.5 46,-105.5 330,-105.5 330,-75.5 46,-75.5"/>
<text text-anchor="start" x="53" y="-86.9" font-family="Arial" font-size="14.00" fill="#000000">ts_modified </text>
<text text-anchor="start" x="128.4586" y="-86.9" font-family="Arial" font-size="14.00" fill="#666666">[timestamp without time zone]</text>
<polygon fill="none" stroke="#000000" points="46,-45.5 46,-75.5 330,-75.5 330,-45.5 46,-45.5"/>
<text text-anchor="start" x="52.6382" y="-56.9" font-family="Arial" font-size="14.00" fill="#000000">ts_checkedin </text>
<text text-anchor="start" x="138.2216" y="-56.9" font-family="Arial" font-size="14.00" fill="#666666">[timestamp without time zone]</text>
<polygon fill="none" stroke="#000000" stroke-width="3" points="44.5,-44.5 44.5,-382.5 331.5,-382.5 331.5,-44.5 44.5,-44.5"/>
</g>
</g>
</svg>
