<?xml version="1.0" encoding="UTF-8" standalone="no"?>
<!DOCTYPE svg PUBLIC "-//W3C//DTD SVG 1.1//EN"
 "http://www.w3.org/Graphics/SVG/1.1/DTD/svg11.dtd">
<!-- Generated by graphviz version 2.40.1 (20161225.0304)
 -->
<!-- Title: sr.amazon_marketplace_entitlement Pages: 1 -->
<svg width="1305pt" height="1439pt"
 viewBox="0.00 0.00 1305.00 1439.00" xmlns="http://www.w3.org/2000/svg" xmlns:xlink="http://www.w3.org/1999/xlink">
<g id="graph0" class="graph" transform="scale(1 1) rotate(0) translate(4 1435)">
<title>sr.amazon_marketplace_entitlement</title>
<polygon fill="#ffffff" stroke="transparent" points="-4,4 -4,-1435 1301,-1435 1301,4 -4,4"/>
<!-- sr.amazon_marketplace_entitlement -->
<g id="node1" class="node">
<title>sr.amazon_marketplace_entitlement</title>
<polygon fill="#efefef" stroke="transparent" points="471,-952.5 471,-987.5 902,-987.5 902,-952.5 471,-952.5"/>
<polygon fill="none" stroke="#000000" points="471,-952.5 471,-987.5 902,-987.5 902,-952.5 471,-952.5"/>
<text text-anchor="start" x="477.6891" y="-965.3" font-family="Arial Bold" font-size="18.00" fill="#000000">sr.amazon_marketplace_entitlement</text>
<text text-anchor="start" x="767.7429" y="-965.3" font-family="Arial" font-size="14.00" fill="#000000">    </text>
<text text-anchor="start" x="801.9477" y="-965.3" font-family="Arial" font-size="14.00" fill="#666666">[BASE TABLE]</text>
<polygon fill="none" stroke="#000000" points="471,-922.5 471,-952.5 902,-952.5 902,-922.5 471,-922.5"/>
<text text-anchor="start" x="478" y="-933.9" font-family="Arial" font-size="14.00" fill="#000000">entitlement_uuid </text>
<text text-anchor="start" x="584.5862" y="-933.9" font-family="Arial" font-size="14.00" fill="#666666">[uuid]</text>
<polygon fill="none" stroke="#000000" points="471,-892.5 471,-922.5 902,-922.5 902,-892.5 471,-892.5"/>
<text text-anchor="start" x="478" y="-903.9" font-family="Arial" font-size="14.00" fill="#000000">organization_uuid </text>
<text text-anchor="start" x="592.3702" y="-903.9" font-family="Arial" font-size="14.00" fill="#666666">[uuid]</text>
<polygon fill="none" stroke="#000000" points="471,-862.5 471,-892.5 902,-892.5 902,-862.5 471,-862.5"/>
<text text-anchor="start" x="478" y="-873.9" font-family="Arial" font-size="14.00" fill="#000000">entitlement_customer_id </text>
<text text-anchor="start" x="634.3632" y="-873.9" font-family="Arial" font-size="14.00" fill="#666666">[varchar(100)]</text>
<polygon fill="none" stroke="#000000" points="471,-832.5 471,-862.5 902,-862.5 902,-832.5 471,-832.5"/>
<text text-anchor="start" x="478" y="-843.9" font-family="Arial" font-size="14.00" fill="#000000">entitlement_customer_aws_account_id </text>
<text text-anchor="start" x="723.8386" y="-843.9" font-family="Arial" font-size="14.00" fill="#666666">[varchar(100)]</text>
<polygon fill="none" stroke="#000000" points="471,-802.5 471,-832.5 902,-832.5 902,-802.5 471,-802.5"/>
<text text-anchor="start" x="478" y="-813.9" font-family="Arial" font-size="14.00" fill="#000000">entitlement_product_code </text>
<text text-anchor="start" x="642.9438" y="-813.9" font-family="Arial" font-size="14.00" fill="#666666">[varchar(250)]</text>
<polygon fill="none" stroke="#000000" points="471,-772.5 471,-802.5 902,-802.5 902,-772.5 471,-772.5"/>
<text text-anchor="start" x="478" y="-783.9" font-family="Arial" font-size="14.00" fill="#000000">entitlement_dimension </text>
<text text-anchor="start" x="621.9186" y="-783.9" font-family="Arial" font-size="14.00" fill="#666666">[varchar(250)]</text>
<polygon fill="none" stroke="#000000" points="471,-742.5 471,-772.5 902,-772.5 902,-742.5 471,-742.5"/>
<text text-anchor="start" x="478" y="-753.9" font-family="Arial" font-size="14.00" fill="#000000">entitlement_value </text>
<text text-anchor="start" x="591.5862" y="-753.9" font-family="Arial" font-size="14.00" fill="#666666">[integer]</text>
<polygon fill="none" stroke="#000000" points="471,-712.5 471,-742.5 902,-742.5 902,-712.5 471,-712.5"/>
<text text-anchor="start" x="478" y="-723.9" font-family="Arial" font-size="14.00" fill="#000000">entitlement_value_used </text>
<text text-anchor="start" x="629.7166" y="-723.9" font-family="Arial" font-size="14.00" fill="#666666">[integer]</text>
<polygon fill="none" stroke="#000000" points="471,-682.5 471,-712.5 902,-712.5 902,-682.5 471,-682.5"/>
<text text-anchor="start" x="478" y="-693.9" font-family="Arial" font-size="14.00" fill="#000000">entitlement_expiration_date </text>
<text text-anchor="start" x="653.8302" y="-693.9" font-family="Arial" font-size="14.00" fill="#666666">[timestamp without time zone]</text>
<polygon fill="none" stroke="#000000" points="471,-652.5 471,-682.5 902,-682.5 902,-652.5 471,-652.5"/>
<text text-anchor="start" x="478" y="-663.9" font-family="Arial" font-size="14.00" fill="#000000">ts_created </text>
<text text-anchor="start" x="547.2454" y="-663.9" font-family="Arial" font-size="14.00" fill="#666666">[timestamp without time zone]</text>
<polygon fill="none" stroke="#000000" points="471,-622.5 471,-652.5 902,-652.5 902,-622.5 471,-622.5"/>
<text text-anchor="start" x="478" y="-633.9" font-family="Arial" font-size="14.00" fill="#000000">ts_modified </text>
<text text-anchor="start" x="553.4586" y="-633.9" font-family="Arial" font-size="14.00" fill="#666666">[timestamp without time zone]</text>
<polygon fill="none" stroke="#000000" stroke-width="3" points="469,-621.5 469,-989.5 903,-989.5 903,-621.5 469,-621.5"/>
</g>
<!-- sr.organization -->
<g id="node3" class="node">
<title>sr.organization</title>
<polygon fill="#efefef" stroke="transparent" points="535,-462.5 535,-497.5 839,-497.5 839,-462.5 535,-462.5"/>
<polygon fill="none" stroke="#000000" points="535,-462.5 535,-497.5 839,-497.5 839,-462.5 535,-462.5"/>
<text text-anchor="start" x="564.2057" y="-475.3" font-family="Arial Bold" font-size="18.00" fill="#000000">sr.organization</text>
<text text-anchor="start" x="682.2263" y="-475.3" font-family="Arial" font-size="14.00" fill="#000000">    </text>
<text text-anchor="start" x="716.4311" y="-475.3" font-family="Arial" font-size="14.00" fill="#666666">[BASE TABLE]</text>
<polygon fill="none" stroke="#000000" points="535,-432.5 535,-462.5 839,-462.5 839,-432.5 535,-432.5"/>
<text text-anchor="start" x="542" y="-443.9" font-family="Arial" font-size="14.00" fill="#000000">organization_uuid    </text>
<text text-anchor="start" x="686.6844" y="-443.9" font-family="Arial" font-size="14.00" fill="#666666">[uuid]</text>
<polygon fill="none" stroke="#000000" points="535,-402.5 535,-432.5 839,-432.5 839,-402.5 535,-402.5"/>
<text text-anchor="start" x="542" y="-413.9" font-family="Arial" font-size="14.00" fill="#000000">organization_name    </text>
<text text-anchor="start" x="695.2384" y="-413.9" font-family="Arial" font-size="14.00" fill="#666666">[varchar(255)]</text>
<polygon fill="none" stroke="#000000" points="535,-372.5 535,-402.5 839,-402.5 839,-372.5 535,-372.5"/>
<text text-anchor="start" x="542" y="-383.9" font-family="Arial" font-size="14.00" fill="#000000">organization_status_id    </text>
<text text-anchor="start" x="716.2482" y="-383.9" font-family="Arial" font-size="14.00" fill="#666666">[integer]</text>
<polygon fill="none" stroke="#000000" points="535,-342.5 535,-372.5 839,-372.5 839,-342.5 535,-342.5"/>
<text text-anchor="start" x="542" y="-353.9" font-family="Arial" font-size="14.00" fill="#000000">organization_domain    </text>
<text text-anchor="start" x="706.1276" y="-353.9" font-family="Arial" font-size="14.00" fill="#666666">[varchar(255)]</text>
<polygon fill="none" stroke="#000000" points="535,-312.5 535,-342.5 839,-342.5 839,-312.5 535,-312.5"/>
<text text-anchor="start" x="542" y="-323.9" font-family="Arial" font-size="14.00" fill="#000000">organization_logo_image    </text>
<text text-anchor="start" x="732.582" y="-323.9" font-family="Arial" font-size="14.00" fill="#666666">[bytea]</text>
<polygon fill="none" stroke="#000000" points="535,-282.5 535,-312.5 839,-312.5 839,-282.5 535,-282.5"/>
<text text-anchor="start" x="542" y="-293.9" font-family="Arial" font-size="14.00" fill="#000000">primary_contact_email    </text>
<text text-anchor="start" x="716.9916" y="-293.9" font-family="Arial" font-size="14.00" fill="#666666">[varchar(100)]</text>
<polygon fill="none" stroke="#000000" points="535,-252.5 535,-282.5 839,-282.5 839,-252.5 535,-252.5"/>
<text text-anchor="start" x="542" y="-263.9" font-family="Arial" font-size="14.00" fill="#000000">street_address_1    </text>
<text text-anchor="start" x="684.3506" y="-263.9" font-family="Arial" font-size="14.00" fill="#666666">[varchar(100)]</text>
<polygon fill="none" stroke="#000000" points="535,-222.5 535,-252.5 839,-252.5 839,-222.5 535,-222.5"/>
<text text-anchor="start" x="542" y="-233.9" font-family="Arial" font-size="14.00" fill="#000000">street_address_2    </text>
<text text-anchor="start" x="684.3506" y="-233.9" font-family="Arial" font-size="14.00" fill="#666666">[varchar(100)]</text>
<polygon fill="none" stroke="#000000" points="535,-192.5 535,-222.5 839,-222.5 839,-192.5 535,-192.5"/>
<text text-anchor="start" x="542" y="-203.9" font-family="Arial" font-size="14.00" fill="#000000">city    </text>
<text text-anchor="start" x="597.202" y="-203.9" font-family="Arial" font-size="14.00" fill="#666666">[varchar(100)]</text>
<polygon fill="none" stroke="#000000" points="535,-162.5 535,-192.5 839,-192.5 839,-162.5 535,-162.5"/>
<text text-anchor="start" x="542" y="-173.9" font-family="Arial" font-size="14.00" fill="#000000">state_region    </text>
<text text-anchor="start" x="653.2314" y="-173.9" font-family="Arial" font-size="14.00" fill="#666666">[varchar(100)]</text>
<polygon fill="none" stroke="#000000" points="535,-132.5 535,-162.5 839,-162.5 839,-132.5 535,-132.5"/>
<text text-anchor="start" x="542" y="-143.9" font-family="Arial" font-size="14.00" fill="#000000">postal_code    </text>
<text text-anchor="start" x="651.6802" y="-143.9" font-family="Arial" font-size="14.00" fill="#666666">[varchar(25)]</text>
<polygon fill="none" stroke="#000000" points="535,-102.5 535,-132.5 839,-132.5 839,-102.5 535,-102.5"/>
<text text-anchor="start" x="542" y="-113.9" font-family="Arial" font-size="14.00" fill="#000000">phone    </text>
<text text-anchor="start" x="615.1178" y="-113.9" font-family="Arial" font-size="14.00" fill="#666666">[varchar(20)]</text>
<polygon fill="none" stroke="#000000" points="535,-72.5 535,-102.5 839,-102.5 839,-72.5 535,-72.5"/>
<text text-anchor="start" x="542" y="-83.9" font-family="Arial" font-size="14.00" fill="#000000">ts_created    </text>
<text text-anchor="start" x="641.5596" y="-83.9" font-family="Arial" font-size="14.00" fill="#666666">[timestamp without time zone]</text>
<polygon fill="none" stroke="#000000" points="535,-42.5 535,-72.5 839,-72.5 839,-42.5 535,-42.5"/>
<text text-anchor="start" x="541.5435" y="-53.9" font-family="Arial" font-size="14.00" fill="#000000">ts_modified    </text>
<text text-anchor="start" x="647.3163" y="-53.9" font-family="Arial" font-size="14.00" fill="#666666">[timestamp without time zone]</text>
</g>
<!-- sr.amazon_marketplace_entitlement&#45;&gt;sr.organization -->
<g id="edge2" class="edge">
<title>sr.amazon_marketplace_entitlement:organization_uuid&#45;&gt;sr.organization:organization_uuid</title>
<path fill="none" stroke="#000000" d="M912.0691,-905.5832C973.0297,-881.0665 948.9242,-628.7523 902,-577 846.9558,-516.2922 590.0442,-601.7078 535,-541 507.0869,-510.2149 493.4444,-447.5 535,-447.5"/>
<polygon fill="#000000" stroke="#000000" points="911.8236,-905.6299 901.1584,-903.0794 906.9118,-906.5649 902,-907.5 902,-907.5 902,-907.5 906.9118,-906.5649 902.8416,-911.9206 911.8236,-905.6299 911.8236,-905.6299"/>
<text text-anchor="start" x="909.1415" y="-917.5" font-family="Arial" font-size="10.00" fill="#000000">FOREIGN KEY (organization_uuid) REFERENCES sr.organization(organization_uuid)</text>
</g>
<!-- sr.amazon_marketplace_metering -->
<g id="node2" class="node">
<title>sr.amazon_marketplace_metering</title>
<polygon fill="#efefef" stroke="transparent" points="480,-1352.5 480,-1387.5 893,-1387.5 893,-1352.5 480,-1352.5"/>
<polygon fill="none" stroke="#000000" points="480,-1352.5 480,-1387.5 893,-1387.5 893,-1352.5 480,-1352.5"/>
<text text-anchor="start" x="486.6954" y="-1365.3" font-family="Arial Bold" font-size="18.00" fill="#000000">sr.amazon_marketplace_metering</text>
<text text-anchor="start" x="758.7366" y="-1365.3" font-family="Arial" font-size="14.00" fill="#000000">    </text>
<text text-anchor="start" x="792.9414" y="-1365.3" font-family="Arial" font-size="14.00" fill="#666666">[BASE TABLE]</text>
<polygon fill="none" stroke="#000000" points="480,-1322.5 480,-1352.5 893,-1352.5 893,-1322.5 480,-1322.5"/>
<text text-anchor="start" x="487" y="-1333.9" font-family="Arial" font-size="14.00" fill="#000000">marketplace_metering_uuid    </text>
<text text-anchor="start" x="693.9046" y="-1333.9" font-family="Arial" font-size="14.00" fill="#666666">[uuid]</text>
<polygon fill="none" stroke="#000000" points="480,-1292.5 480,-1322.5 893,-1322.5 893,-1292.5 480,-1292.5"/>
<text text-anchor="start" x="487" y="-1303.9" font-family="Arial" font-size="14.00" fill="#000000">entitlement_uuid    </text>
<text text-anchor="start" x="623.9004" y="-1303.9" font-family="Arial" font-size="14.00" fill="#666666">[uuid]</text>
<polygon fill="none" stroke="#000000" points="480,-1262.5 480,-1292.5 893,-1292.5 893,-1262.5 480,-1262.5"/>
<text text-anchor="start" x="487" y="-1273.9" font-family="Arial" font-size="14.00" fill="#000000">dimension    </text>
<text text-anchor="start" x="584.9916" y="-1273.9" font-family="Arial" font-size="14.00" fill="#666666">[varchar(250)]</text>
<polygon fill="none" stroke="#000000" points="480,-1232.5 480,-1262.5 893,-1262.5 893,-1232.5 480,-1232.5"/>
<text text-anchor="start" x="487" y="-1243.9" font-family="Arial" font-size="14.00" fill="#000000">quantity    </text>
<text text-anchor="start" x="570.223" y="-1243.9" font-family="Arial" font-size="14.00" fill="#666666">[integer]</text>
<polygon fill="none" stroke="#000000" points="480,-1202.5 480,-1232.5 893,-1232.5 893,-1202.5 480,-1202.5"/>
<text text-anchor="start" x="487" y="-1213.9" font-family="Arial" font-size="14.00" fill="#000000">processed    </text>
<text text-anchor="start" x="585.7784" y="-1213.9" font-family="Arial" font-size="14.00" fill="#666666">[boolean]</text>
<polygon fill="none" stroke="#000000" points="480,-1172.5 480,-1202.5 893,-1202.5 893,-1172.5 480,-1172.5"/>
<text text-anchor="start" x="487" y="-1183.9" font-family="Arial" font-size="14.00" fill="#000000">ts_created    </text>
<text text-anchor="start" x="586.5596" y="-1183.9" font-family="Arial" font-size="14.00" fill="#666666">[timestamp without time zone]</text>
<polygon fill="none" stroke="#000000" points="480,-1142.5 480,-1172.5 893,-1172.5 893,-1142.5 480,-1142.5"/>
<text text-anchor="start" x="487" y="-1153.9" font-family="Arial" font-size="14.00" fill="#000000">ts_modified    </text>
<text text-anchor="start" x="592.7728" y="-1153.9" font-family="Arial" font-size="14.00" fill="#666666">[timestamp without time zone]</text>
<polygon fill="none" stroke="#000000" points="480,-1112.5 480,-1142.5 893,-1142.5 893,-1112.5 480,-1112.5"/>
<text text-anchor="start" x="487" y="-1123.9" font-family="Arial" font-size="14.00" fill="#000000">amazon_metering_record_id    </text>
<text text-anchor="start" x="699.3506" y="-1123.9" font-family="Arial" font-size="14.00" fill="#666666">[uuid]</text>
</g>
<!-- sr.amazon_marketplace_metering&#45;&gt;sr.amazon_marketplace_entitlement -->
<g id="edge1" class="edge">
<title>sr.amazon_marketplace_metering:entitlement_uuid&#45;&gt;sr.amazon_marketplace_entitlement:entitlement_uuid</title>
<path fill="none" stroke="#000000" d="M469.805,-1305.5093C397.1485,-1276.3863 392.2875,-937.5 471,-937.5"/>
<polygon fill="#000000" stroke="#000000" points="470.1854,-1305.5835 479.1376,-1311.9166 475.0927,-1306.5417 480,-1307.5 480,-1307.5 480,-1307.5 475.0927,-1306.5417 480.8624,-1303.0834 470.1854,-1305.5835 470.1854,-1305.5835"/>
<text text-anchor="start" x="6.9145" y="-1317.5" font-family="Arial" font-size="10.00" fill="#000000">FOREIGN KEY (entitlement_uuid) REFERENCES sr.amazon_marketplace_entitlement(entitlement_uuid)</text>
</g>
</g>
</svg>
