<?xml version="1.0" encoding="UTF-8" standalone="no"?>
<!DOCTYPE svg PUBLIC "-//W3C//DTD SVG 1.1//EN"
 "http://www.w3.org/Graphics/SVG/1.1/DTD/svg11.dtd">
<!-- Generated by graphviz version 2.40.1 (20161225.0304)
 -->
<!-- Title: sr.amazon_marketplace_metering Pages: 1 -->
<svg width="953pt" height="862pt"
 viewBox="0.00 0.00 952.50 862.00" xmlns="http://www.w3.org/2000/svg" xmlns:xlink="http://www.w3.org/1999/xlink">
<g id="graph0" class="graph" transform="scale(1 1) rotate(0) translate(4 858)">
<title>sr.amazon_marketplace_metering</title>
<polygon fill="#ffffff" stroke="transparent" points="-4,4 -4,-858 948.5,-858 948.5,4 -4,4"/>
<!-- sr.amazon_marketplace_metering -->
<g id="node1" class="node">
<title>sr.amazon_marketplace_metering</title>
<polygon fill="#efefef" stroke="transparent" points="480,-772.5 480,-807.5 893,-807.5 893,-772.5 480,-772.5"/>
<polygon fill="none" stroke="#000000" points="480,-772.5 480,-807.5 893,-807.5 893,-772.5 480,-772.5"/>
<text text-anchor="start" x="486.6954" y="-785.3" font-family="Arial Bold" font-size="18.00" fill="#000000">sr.amazon_marketplace_metering</text>
<text text-anchor="start" x="758.7366" y="-785.3" font-family="Arial" font-size="14.00" fill="#000000">    </text>
<text text-anchor="start" x="792.9414" y="-785.3" font-family="Arial" font-size="14.00" fill="#666666">[BASE TABLE]</text>
<polygon fill="none" stroke="#000000" points="480,-742.5 480,-772.5 893,-772.5 893,-742.5 480,-742.5"/>
<text text-anchor="start" x="487" y="-753.9" font-family="Arial" font-size="14.00" fill="#000000">marketplace_metering_uuid </text>
<text text-anchor="start" x="663.5904" y="-753.9" font-family="Arial" font-size="14.00" fill="#666666">[uuid]</text>
<polygon fill="none" stroke="#000000" points="480,-712.5 480,-742.5 893,-742.5 893,-712.5 480,-712.5"/>
<text text-anchor="start" x="487" y="-723.9" font-family="Arial" font-size="14.00" fill="#000000">entitlement_uuid </text>
<text text-anchor="start" x="593.5862" y="-723.9" font-family="Arial" font-size="14.00" fill="#666666">[uuid]</text>
<polygon fill="none" stroke="#000000" points="480,-682.5 480,-712.5 893,-712.5 893,-682.5 480,-682.5"/>
<text text-anchor="start" x="487" y="-693.9" font-family="Arial" font-size="14.00" fill="#000000">dimension </text>
<text text-anchor="start" x="554.6774" y="-693.9" font-family="Arial" font-size="14.00" fill="#666666">[varchar(250)]</text>
<polygon fill="none" stroke="#000000" points="480,-652.5 480,-682.5 893,-682.5 893,-652.5 480,-652.5"/>
<text text-anchor="start" x="487" y="-663.9" font-family="Arial" font-size="14.00" fill="#000000">quantity </text>
<text text-anchor="start" x="539.9088" y="-663.9" font-family="Arial" font-size="14.00" fill="#666666">[integer]</text>
<polygon fill="none" stroke="#000000" points="480,-622.5 480,-652.5 893,-652.5 893,-622.5 480,-622.5"/>
<text text-anchor="start" x="487" y="-633.9" font-family="Arial" font-size="14.00" fill="#000000">processed </text>
<text text-anchor="start" x="555.4642" y="-633.9" font-family="Arial" font-size="14.00" fill="#666666">[boolean]</text>
<polygon fill="none" stroke="#000000" points="480,-592.5 480,-622.5 893,-622.5 893,-592.5 480,-592.5"/>
<text text-anchor="start" x="487" y="-603.9" font-family="Arial" font-size="14.00" fill="#000000">ts_created </text>
<text text-anchor="start" x="556.2454" y="-603.9" font-family="Arial" font-size="14.00" fill="#666666">[timestamp without time zone]</text>
<polygon fill="none" stroke="#000000" points="480,-562.5 480,-592.5 893,-592.5 893,-562.5 480,-562.5"/>
<text text-anchor="start" x="487" y="-573.9" font-family="Arial" font-size="14.00" fill="#000000">ts_modified </text>
<text text-anchor="start" x="562.4586" y="-573.9" font-family="Arial" font-size="14.00" fill="#666666">[timestamp without time zone]</text>
<polygon fill="none" stroke="#000000" points="480,-532.5 480,-562.5 893,-562.5 893,-532.5 480,-532.5"/>
<text text-anchor="start" x="487" y="-543.9" font-family="Arial" font-size="14.00" fill="#000000">amazon_metering_record_id </text>
<text text-anchor="start" x="669.0364" y="-543.9" font-family="Arial" font-size="14.00" fill="#666666">[uuid]</text>
<polygon fill="none" stroke="#000000" stroke-width="3" points="478,-531.5 478,-809.5 894,-809.5 894,-531.5 478,-531.5"/>
</g>
<!-- sr.amazon_marketplace_entitlement -->
<g id="node2" class="node">
<title>sr.amazon_marketplace_entitlement</title>
<polygon fill="#efefef" stroke="transparent" points="471,-372.5 471,-407.5 902,-407.5 902,-372.5 471,-372.5"/>
<polygon fill="none" stroke="#000000" points="471,-372.5 471,-407.5 902,-407.5 902,-372.5 471,-372.5"/>
<text text-anchor="start" x="477.6891" y="-385.3" font-family="Arial Bold" font-size="18.00" fill="#000000">sr.amazon_marketplace_entitlement</text>
<text text-anchor="start" x="767.7429" y="-385.3" font-family="Arial" font-size="14.00" fill="#000000">    </text>
<text text-anchor="start" x="801.9477" y="-385.3" font-family="Arial" font-size="14.00" fill="#666666">[BASE TABLE]</text>
<polygon fill="none" stroke="#000000" points="471,-342.5 471,-372.5 902,-372.5 902,-342.5 471,-342.5"/>
<text text-anchor="start" x="478" y="-353.9" font-family="Arial" font-size="14.00" fill="#000000">entitlement_uuid    </text>
<text text-anchor="start" x="614.9004" y="-353.9" font-family="Arial" font-size="14.00" fill="#666666">[uuid]</text>
<polygon fill="none" stroke="#000000" points="471,-312.5 471,-342.5 902,-342.5 902,-312.5 471,-312.5"/>
<text text-anchor="start" x="478" y="-323.9" font-family="Arial" font-size="14.00" fill="#000000">organization_uuid    </text>
<text text-anchor="start" x="622.6844" y="-323.9" font-family="Arial" font-size="14.00" fill="#666666">[uuid]</text>
<polygon fill="none" stroke="#000000" points="471,-282.5 471,-312.5 902,-312.5 902,-282.5 471,-282.5"/>
<text text-anchor="start" x="478" y="-293.9" font-family="Arial" font-size="14.00" fill="#000000">entitlement_customer_id    </text>
<text text-anchor="start" x="664.6774" y="-293.9" font-family="Arial" font-size="14.00" fill="#666666">[varchar(100)]</text>
<polygon fill="none" stroke="#000000" points="471,-252.5 471,-282.5 902,-282.5 902,-252.5 471,-252.5"/>
<text text-anchor="start" x="478" y="-263.9" font-family="Arial" font-size="14.00" fill="#000000">entitlement_customer_aws_account_id    </text>
<text text-anchor="start" x="754.1528" y="-263.9" font-family="Arial" font-size="14.00" fill="#666666">[varchar(100)]</text>
<polygon fill="none" stroke="#000000" points="471,-222.5 471,-252.5 902,-252.5 902,-222.5 471,-222.5"/>
<text text-anchor="start" x="478" y="-233.9" font-family="Arial" font-size="14.00" fill="#000000">entitlement_product_code    </text>
<text text-anchor="start" x="673.258" y="-233.9" font-family="Arial" font-size="14.00" fill="#666666">[varchar(250)]</text>
<polygon fill="none" stroke="#000000" points="471,-192.5 471,-222.5 902,-222.5 902,-192.5 471,-192.5"/>
<text text-anchor="start" x="478" y="-203.9" font-family="Arial" font-size="14.00" fill="#000000">entitlement_dimension    </text>
<text text-anchor="start" x="652.2328" y="-203.9" font-family="Arial" font-size="14.00" fill="#666666">[varchar(250)]</text>
<polygon fill="none" stroke="#000000" points="471,-162.5 471,-192.5 902,-192.5 902,-162.5 471,-162.5"/>
<text text-anchor="start" x="478" y="-173.9" font-family="Arial" font-size="14.00" fill="#000000">entitlement_value    </text>
<text text-anchor="start" x="621.9004" y="-173.9" font-family="Arial" font-size="14.00" fill="#666666">[integer]</text>
<polygon fill="none" stroke="#000000" points="471,-132.5 471,-162.5 902,-162.5 902,-132.5 471,-132.5"/>
<text text-anchor="start" x="478" y="-143.9" font-family="Arial" font-size="14.00" fill="#000000">entitlement_value_used    </text>
<text text-anchor="start" x="660.0308" y="-143.9" font-family="Arial" font-size="14.00" fill="#666666">[integer]</text>
<polygon fill="none" stroke="#000000" points="471,-102.5 471,-132.5 902,-132.5 902,-102.5 471,-102.5"/>
<text text-anchor="start" x="478" y="-113.9" font-family="Arial" font-size="14.00" fill="#000000">entitlement_expiration_date    </text>
<text text-anchor="start" x="684.1444" y="-113.9" font-family="Arial" font-size="14.00" fill="#666666">[timestamp without time zone]</text>
<polygon fill="none" stroke="#000000" points="471,-72.5 471,-102.5 902,-102.5 902,-72.5 471,-72.5"/>
<text text-anchor="start" x="478" y="-83.9" font-family="Arial" font-size="14.00" fill="#000000">ts_created    </text>
<text text-anchor="start" x="577.5596" y="-83.9" font-family="Arial" font-size="14.00" fill="#666666">[timestamp without time zone]</text>
<polygon fill="none" stroke="#000000" points="471,-42.5 471,-72.5 902,-72.5 902,-42.5 471,-42.5"/>
<text text-anchor="start" x="478" y="-53.9" font-family="Arial" font-size="14.00" fill="#000000">ts_modified    </text>
<text text-anchor="start" x="583.7728" y="-53.9" font-family="Arial" font-size="14.00" fill="#666666">[timestamp without time zone]</text>
</g>
<!-- sr.amazon_marketplace_metering&#45;&gt;sr.amazon_marketplace_entitlement -->
<g id="edge1" class="edge">
<title>sr.amazon_marketplace_metering:entitlement_uuid&#45;&gt;sr.amazon_marketplace_entitlement:entitlement_uuid</title>
<path fill="none" stroke="#000000" d="M469.805,-725.5093C397.1485,-696.3863 392.2875,-357.5 471,-357.5"/>
<polygon fill="#000000" stroke="#000000" points="470.1854,-725.5835 479.1376,-731.9166 475.0927,-726.5417 480,-727.5 480,-727.5 480,-727.5 475.0927,-726.5417 480.8624,-723.0834 470.1854,-725.5835 470.1854,-725.5835"/>
<text text-anchor="start" x="6.9145" y="-737.5" font-family="Arial" font-size="10.00" fill="#000000">FOREIGN KEY (entitlement_uuid) REFERENCES sr.amazon_marketplace_entitlement(entitlement_uuid)</text>
</g>
</g>
</svg>
