<?xml version="1.0" encoding="UTF-8" standalone="no"?>
<!DOCTYPE svg PUBLIC "-//W3C//DTD SVG 1.1//EN"
 "http://www.w3.org/Graphics/SVG/1.1/DTD/svg11.dtd">
<!-- Generated by graphviz version 2.40.1 (20161225.0304)
 -->
<!-- Title: sr.cloud_account_group_member Pages: 1 -->
<svg width="1436pt" height="652pt"
 viewBox="0.00 0.00 1436.00 652.00" xmlns="http://www.w3.org/2000/svg" xmlns:xlink="http://www.w3.org/1999/xlink">
<g id="graph0" class="graph" transform="scale(1 1) rotate(0) translate(4 648)">
<title>sr.cloud_account_group_member</title>
<polygon fill="#ffffff" stroke="transparent" points="-4,4 -4,-648 1432,-648 1432,4 -4,4"/>
<!-- sr.cloud_account_group_member -->
<g id="node1" class="node">
<title>sr.cloud_account_group_member</title>
<polygon fill="#efefef" stroke="transparent" points="519,-562.5 519,-597.5 928,-597.5 928,-562.5 519,-562.5"/>
<polygon fill="none" stroke="#000000" points="519,-562.5 519,-597.5 928,-597.5 928,-562.5 519,-562.5"/>
<text text-anchor="start" x="525.6835" y="-575.3" font-family="Arial Bold" font-size="18.00" fill="#000000">sr.cloud_account_group_member</text>
<text text-anchor="start" x="793.7485" y="-575.3" font-family="Arial" font-size="14.00" fill="#000000">    </text>
<text text-anchor="start" x="827.9533" y="-575.3" font-family="Arial" font-size="14.00" fill="#666666">[BASE TABLE]</text>
<polygon fill="none" stroke="#000000" points="519,-532.5 519,-562.5 928,-562.5 928,-532.5 519,-532.5"/>
<text text-anchor="start" x="526" y="-543.9" font-family="Arial" font-size="14.00" fill="#000000">cloud_account_group_member_uuid </text>
<text text-anchor="start" x="757.0714" y="-543.9" font-family="Arial" font-size="14.00" fill="#666666">[uuid]</text>
<polygon fill="none" stroke="#000000" points="519,-502.5 519,-532.5 928,-532.5 928,-502.5 519,-502.5"/>
<text text-anchor="start" x="526" y="-513.9" font-family="Arial" font-size="14.00" fill="#000000">cloud_account_group_uuid </text>
<text text-anchor="start" x="697.9592" y="-513.9" font-family="Arial" font-size="14.00" fill="#666666">[uuid]</text>
<polygon fill="none" stroke="#000000" points="519,-472.5 519,-502.5 928,-502.5 928,-472.5 519,-472.5"/>
<text text-anchor="start" x="526" y="-483.9" font-family="Arial" font-size="14.00" fill="#000000">cloud_account_user_uuid </text>
<text text-anchor="start" x="689.394" y="-483.9" font-family="Arial" font-size="14.00" fill="#666666">[uuid]</text>
<polygon fill="none" stroke="#000000" points="519,-442.5 519,-472.5 928,-472.5 928,-442.5 519,-442.5"/>
<text text-anchor="start" x="526" y="-453.9" font-family="Arial" font-size="14.00" fill="#000000">ts_created </text>
<text text-anchor="start" x="595.2454" y="-453.9" font-family="Arial" font-size="14.00" fill="#666666">[timestamp without time zone]</text>
<polygon fill="none" stroke="#000000" points="519,-412.5 519,-442.5 928,-442.5 928,-412.5 519,-412.5"/>
<text text-anchor="start" x="526" y="-423.9" font-family="Arial" font-size="14.00" fill="#000000">ts_modified </text>
<text text-anchor="start" x="601.4586" y="-423.9" font-family="Arial" font-size="14.00" fill="#666666">[timestamp without time zone]</text>
<polygon fill="none" stroke="#000000" stroke-width="3" points="517,-411.5 517,-599.5 929,-599.5 929,-411.5 517,-411.5"/>
</g>
<!-- sr.cloud_account_group -->
<g id="node2" class="node">
<title>sr.cloud_account_group</title>
<polygon fill="#efefef" stroke="transparent" points="342,-252.5 342,-287.5 675,-287.5 675,-252.5 342,-252.5"/>
<polygon fill="none" stroke="#000000" points="342,-252.5 342,-287.5 675,-287.5 675,-252.5 342,-252.5"/>
<text text-anchor="start" x="348.6842" y="-265.3" font-family="Arial Bold" font-size="18.00" fill="#000000">sr.cloud_account_group</text>
<text text-anchor="start" x="540.7478" y="-265.3" font-family="Arial" font-size="14.00" fill="#000000">    </text>
<text text-anchor="start" x="574.9526" y="-265.3" font-family="Arial" font-size="14.00" fill="#666666">[BASE TABLE]</text>
<polygon fill="none" stroke="#000000" points="342,-222.5 342,-252.5 675,-252.5 675,-222.5 342,-222.5"/>
<text text-anchor="start" x="349" y="-233.9" font-family="Arial" font-size="14.00" fill="#000000">cloud_account_group_uuid    </text>
<text text-anchor="start" x="551.2734" y="-233.9" font-family="Arial" font-size="14.00" fill="#666666">[uuid]</text>
<polygon fill="none" stroke="#000000" points="342,-192.5 342,-222.5 675,-222.5 675,-192.5 342,-192.5"/>
<text text-anchor="start" x="349" y="-203.9" font-family="Arial" font-size="14.00" fill="#000000">cloud_account_group_id    </text>
<text text-anchor="start" x="535.7082" y="-203.9" font-family="Arial" font-size="14.00" fill="#666666">[varchar(250)]</text>
<polygon fill="none" stroke="#000000" points="342,-162.5 342,-192.5 675,-192.5 675,-162.5 342,-162.5"/>
<text text-anchor="start" x="349" y="-173.9" font-family="Arial" font-size="14.00" fill="#000000">cloud_account_group_name    </text>
<text text-anchor="start" x="559.8274" y="-173.9" font-family="Arial" font-size="14.00" fill="#666666">[varchar(250)]</text>
<polygon fill="none" stroke="#000000" points="342,-132.5 342,-162.5 675,-162.5 675,-132.5 342,-132.5"/>
<text text-anchor="start" x="349" y="-143.9" font-family="Arial" font-size="14.00" fill="#000000">cloud_account_uuid    </text>
<text text-anchor="start" x="507.6998" y="-143.9" font-family="Arial" font-size="14.00" fill="#666666">[uuid]</text>
<polygon fill="none" stroke="#000000" points="342,-102.5 342,-132.5 675,-132.5 675,-102.5 342,-102.5"/>
<text text-anchor="start" x="349" y="-113.9" font-family="Arial" font-size="14.00" fill="#000000">cloud_account_access_level_id    </text>
<text text-anchor="start" x="580.0434" y="-113.9" font-family="Arial" font-size="14.00" fill="#666666">[integer]</text>
<polygon fill="none" stroke="#000000" points="342,-72.5 342,-102.5 675,-102.5 675,-72.5 342,-72.5"/>
<text text-anchor="start" x="349" y="-83.9" font-family="Arial" font-size="14.00" fill="#000000">ts_created    </text>
<text text-anchor="start" x="448.5596" y="-83.9" font-family="Arial" font-size="14.00" fill="#666666">[timestamp without time zone]</text>
<polygon fill="none" stroke="#000000" points="342,-42.5 342,-72.5 675,-72.5 675,-42.5 342,-42.5"/>
<text text-anchor="start" x="349" y="-53.9" font-family="Arial" font-size="14.00" fill="#000000">ts_modified    </text>
<text text-anchor="start" x="454.7728" y="-53.9" font-family="Arial" font-size="14.00" fill="#666666">[timestamp without time zone]</text>
</g>
<!-- sr.cloud_account_group_member&#45;&gt;sr.cloud_account_group -->
<g id="edge1" class="edge">
<title>sr.cloud_account_group_member:cloud_account_group_uuid&#45;&gt;sr.cloud_account_group:cloud_account_group_uuid</title>
<path fill="none" stroke="#000000" d="M508.8403,-516.6429C454.9215,-506.9014 479.6355,-416.4832 519,-367 563.298,-311.3152 630.702,-386.6848 675,-331 700.8705,-298.4795 716.5556,-237.5 675,-237.5"/>
<polygon fill="#000000" stroke="#000000" points="509.0354,-516.6593 518.6217,-521.9841 514.0177,-517.0796 519,-517.5 519,-517.5 519,-517.5 514.0177,-517.0796 519.3783,-513.0159 509.0354,-516.6593 509.0354,-516.6593"/>
<text text-anchor="start" x="7.439" y="-527.5" font-family="Arial" font-size="10.00" fill="#000000">FOREIGN KEY (cloud_account_group_uuid) REFERENCES sr.cloud_account_group(cloud_account_group_uuid)</text>
</g>
<!-- sr.cloud_account_user -->
<g id="node3" class="node">
<title>sr.cloud_account_user</title>
<polygon fill="#efefef" stroke="transparent" points="779,-237.5 779,-272.5 1101,-272.5 1101,-237.5 779,-237.5"/>
<polygon fill="none" stroke="#000000" points="779,-237.5 779,-272.5 1101,-272.5 1101,-237.5 779,-237.5"/>
<text text-anchor="start" x="785.6904" y="-250.3" font-family="Arial Bold" font-size="18.00" fill="#000000">sr.cloud_account_user</text>
<text text-anchor="start" x="966.7416" y="-250.3" font-family="Arial" font-size="14.00" fill="#000000">    </text>
<text text-anchor="start" x="1000.9464" y="-250.3" font-family="Arial" font-size="14.00" fill="#666666">[BASE TABLE]</text>
<polygon fill="none" stroke="#000000" points="779,-207.5 779,-237.5 1101,-237.5 1101,-207.5 779,-207.5"/>
<text text-anchor="start" x="786" y="-218.9" font-family="Arial" font-size="14.00" fill="#000000">cloud_account_user_uuid    </text>
<text text-anchor="start" x="979.7082" y="-218.9" font-family="Arial" font-size="14.00" fill="#666666">[uuid]</text>
<polygon fill="none" stroke="#000000" points="779,-177.5 779,-207.5 1101,-207.5 1101,-177.5 779,-177.5"/>
<text text-anchor="start" x="786" y="-188.9" font-family="Arial" font-size="14.00" fill="#000000">user_uuid    </text>
<text text-anchor="start" x="881.6676" y="-188.9" font-family="Arial" font-size="14.00" fill="#666666">[uuid]</text>
<polygon fill="none" stroke="#000000" points="779,-147.5 779,-177.5 1101,-177.5 1101,-147.5 779,-147.5"/>
<text text-anchor="start" x="786" y="-158.9" font-family="Arial" font-size="14.00" fill="#000000">cloud_account_uuid    </text>
<text text-anchor="start" x="944.6998" y="-158.9" font-family="Arial" font-size="14.00" fill="#666666">[uuid]</text>
<polygon fill="none" stroke="#000000" points="779,-117.5 779,-147.5 1101,-147.5 1101,-117.5 779,-117.5"/>
<text text-anchor="start" x="786" y="-128.9" font-family="Arial" font-size="14.00" fill="#000000">cloud_account_user_id    </text>
<text text-anchor="start" x="964.143" y="-128.9" font-family="Arial" font-size="14.00" fill="#666666">[varchar(250)]</text>
<polygon fill="none" stroke="#000000" points="779,-87.5 779,-117.5 1101,-117.5 1101,-87.5 779,-87.5"/>
<text text-anchor="start" x="786" y="-98.9" font-family="Arial" font-size="14.00" fill="#000000">ts_created    </text>
<text text-anchor="start" x="885.5596" y="-98.9" font-family="Arial" font-size="14.00" fill="#666666">[timestamp without time zone]</text>
<polygon fill="none" stroke="#000000" points="779,-57.5 779,-87.5 1101,-87.5 1101,-57.5 779,-57.5"/>
<text text-anchor="start" x="786" y="-68.9" font-family="Arial" font-size="14.00" fill="#000000">ts_modified    </text>
<text text-anchor="start" x="891.7728" y="-68.9" font-family="Arial" font-size="14.00" fill="#666666">[timestamp without time zone]</text>
</g>
<!-- sr.cloud_account_group_member&#45;&gt;sr.cloud_account_user -->
<g id="edge2" class="edge">
<title>sr.cloud_account_group_member:cloud_account_user_uuid&#45;&gt;sr.cloud_account_user:cloud_account_user_uuid</title>
<path fill="none" stroke="#000000" d="M938.1935,-486.3974C978.3602,-476.8469 956.9502,-407.5083 928,-367 887.3022,-310.054 819.6978,-372.946 779,-316 754.8376,-282.1911 737.4444,-222.5 779,-222.5"/>
<polygon fill="#000000" stroke="#000000" points="937.942,-486.4245 927.516,-483.0261 932.971,-486.9622 928,-487.5 928,-487.5 928,-487.5 932.971,-486.9622 928.484,-491.9739 937.942,-486.4245 937.942,-486.4245"/>
<text text-anchor="start" x="934.616" y="-497.5" font-family="Arial" font-size="10.00" fill="#000000">FOREIGN KEY (cloud_account_user_uuid) REFERENCES sr.cloud_account_user(cloud_account_user_uuid)</text>
</g>
</g>
</svg>
