<?xml version="1.0" encoding="UTF-8" standalone="no"?>
<!DOCTYPE svg PUBLIC "-//W3C//DTD SVG 1.1//EN"
 "http://www.w3.org/Graphics/SVG/1.1/DTD/svg11.dtd">
<!-- Generated by graphviz version 2.40.1 (20161225.0304)
 -->
<!-- Title: sr.cloud_account_provider Pages: 1 -->
<svg width="1168pt" height="712pt"
 viewBox="0.00 0.00 1168.00 712.00" xmlns="http://www.w3.org/2000/svg" xmlns:xlink="http://www.w3.org/1999/xlink">
<g id="graph0" class="graph" transform="scale(1 1) rotate(0) translate(4 708)">
<title>sr.cloud_account_provider</title>
<polygon fill="#ffffff" stroke="transparent" points="-4,4 -4,-708 1164,-708 1164,4 -4,4"/>
<!-- sr.cloud_account_provider -->
<g id="node1" class="node">
<title>sr.cloud_account_provider</title>
<polygon fill="#efefef" stroke="transparent" points="386,-195.5 386,-230.5 738,-230.5 738,-195.5 386,-195.5"/>
<polygon fill="none" stroke="#000000" points="386,-195.5 386,-230.5 738,-230.5 738,-195.5 386,-195.5"/>
<text text-anchor="start" x="392.691" y="-208.3" font-family="Arial Bold" font-size="18.00" fill="#000000">sr.cloud_account_provider</text>
<text text-anchor="start" x="603.741" y="-208.3" font-family="Arial" font-size="14.00" fill="#000000">    </text>
<text text-anchor="start" x="637.9458" y="-208.3" font-family="Arial" font-size="14.00" fill="#666666">[BASE TABLE]</text>
<polygon fill="none" stroke="#000000" points="386,-165.5 386,-195.5 738,-195.5 738,-165.5 386,-165.5"/>
<text text-anchor="start" x="393" y="-176.9" font-family="Arial" font-size="14.00" fill="#000000">cloud_account_provider_id </text>
<text text-anchor="start" x="564.1612" y="-176.9" font-family="Arial" font-size="14.00" fill="#666666">[integer]</text>
<polygon fill="none" stroke="#000000" points="386,-135.5 386,-165.5 738,-165.5 738,-135.5 386,-135.5"/>
<text text-anchor="start" x="393" y="-146.9" font-family="Arial" font-size="14.00" fill="#000000">cloud_account_provider_name </text>
<text text-anchor="start" x="588.2804" y="-146.9" font-family="Arial" font-size="14.00" fill="#666666">[varchar(25)]</text>
<polygon fill="none" stroke="#000000" points="386,-105.5 386,-135.5 738,-135.5 738,-105.5 386,-105.5"/>
<text text-anchor="start" x="393" y="-116.9" font-family="Arial" font-size="14.00" fill="#000000">cloud_account_provider_description </text>
<text text-anchor="start" x="620.9494" y="-116.9" font-family="Arial" font-size="14.00" fill="#666666">[varchar(512)]</text>
<polygon fill="none" stroke="#000000" points="386,-75.5 386,-105.5 738,-105.5 738,-75.5 386,-75.5"/>
<text text-anchor="start" x="393" y="-86.9" font-family="Arial" font-size="14.00" fill="#000000">ts_created </text>
<text text-anchor="start" x="462.2454" y="-86.9" font-family="Arial" font-size="14.00" fill="#666666">[timestamp without time zone]</text>
<polygon fill="none" stroke="#000000" points="386,-45.5 386,-75.5 738,-75.5 738,-45.5 386,-45.5"/>
<text text-anchor="start" x="393" y="-56.9" font-family="Arial" font-size="14.00" fill="#000000">ts_modified </text>
<text text-anchor="start" x="468.4586" y="-56.9" font-family="Arial" font-size="14.00" fill="#666666">[timestamp without time zone]</text>
<polygon fill="none" stroke="#000000" stroke-width="3" points="384.5,-44.5 384.5,-232.5 739.5,-232.5 739.5,-44.5 384.5,-44.5"/>
</g>
<!-- sr.cloud_account -->
<g id="node2" class="node">
<title>sr.cloud_account</title>
<polygon fill="#efefef" stroke="transparent" points="116,-625.5 116,-660.5 528,-660.5 528,-625.5 116,-625.5"/>
<polygon fill="none" stroke="#000000" points="116,-625.5 116,-660.5 528,-660.5 528,-625.5 116,-625.5"/>
<text text-anchor="start" x="190.1958" y="-638.3" font-family="Arial Bold" font-size="18.00" fill="#000000">sr.cloud_account</text>
<text text-anchor="start" x="326.2362" y="-638.3" font-family="Arial" font-size="14.00" fill="#000000">    </text>
<text text-anchor="start" x="360.441" y="-638.3" font-family="Arial" font-size="14.00" fill="#666666">[BASE TABLE]</text>
<polygon fill="none" stroke="#000000" points="116,-595.5 116,-625.5 528,-625.5 528,-595.5 116,-595.5"/>
<text text-anchor="start" x="123" y="-606.9" font-family="Arial" font-size="14.00" fill="#000000">cloud_account_uuid    </text>
<text text-anchor="start" x="281.6998" y="-606.9" font-family="Arial" font-size="14.00" fill="#666666">[uuid]</text>
<polygon fill="none" stroke="#000000" points="116,-565.5 116,-595.5 528,-595.5 528,-565.5 116,-565.5"/>
<text text-anchor="start" x="123" y="-576.9" font-family="Arial" font-size="14.00" fill="#000000">cloud_account_cloud_id    </text>
<text text-anchor="start" x="307.3716" y="-576.9" font-family="Arial" font-size="14.00" fill="#666666">[varchar(100)]</text>
<polygon fill="none" stroke="#000000" points="116,-535.5 116,-565.5 528,-565.5 528,-535.5 116,-535.5"/>
<text text-anchor="start" x="123" y="-546.9" font-family="Arial" font-size="14.00" fill="#000000">cloud_account_provider_id    </text>
<text text-anchor="start" x="324.4754" y="-546.9" font-family="Arial" font-size="14.00" fill="#666666">[integer]</text>
<polygon fill="none" stroke="#000000" points="116,-505.5 116,-535.5 528,-535.5 528,-505.5 116,-505.5"/>
<text text-anchor="start" x="123" y="-516.9" font-family="Arial" font-size="14.00" fill="#000000">cloud_account_name    </text>
<text text-anchor="start" x="290.2538" y="-516.9" font-family="Arial" font-size="14.00" fill="#666666">[varchar(50)]</text>
<polygon fill="none" stroke="#000000" points="116,-475.5 116,-505.5 528,-505.5 528,-475.5 116,-475.5"/>
<text text-anchor="start" x="123" y="-486.9" font-family="Arial" font-size="14.00" fill="#000000">cloud_account_status_id    </text>
<text text-anchor="start" x="311.2636" y="-486.9" font-family="Arial" font-size="14.00" fill="#666666">[integer]</text>
<polygon fill="none" stroke="#000000" points="116,-445.5 116,-475.5 528,-475.5 528,-445.5 116,-445.5"/>
<text text-anchor="start" x="123" y="-456.9" font-family="Arial" font-size="14.00" fill="#000000">cloud_account_owner_uuid    </text>
<text text-anchor="start" x="327.5974" y="-456.9" font-family="Arial" font-size="14.00" fill="#666666">[uuid]</text>
<polygon fill="none" stroke="#000000" points="116,-415.5 116,-445.5 528,-445.5 528,-415.5 116,-415.5"/>
<text text-anchor="start" x="122.8374" y="-426.9" font-family="Arial" font-size="14.00" fill="#000000">cloud_account_owner_type    </text>
<text text-anchor="start" x="327.4362" y="-426.9" font-family="Arial" font-size="14.00" fill="#666666">[sr.cloud_account_owner_type]</text>
<polygon fill="none" stroke="#000000" points="116,-385.5 116,-415.5 528,-415.5 528,-385.5 116,-385.5"/>
<text text-anchor="start" x="123" y="-396.9" font-family="Arial" font-size="14.00" fill="#000000">ts_created    </text>
<text text-anchor="start" x="222.5596" y="-396.9" font-family="Arial" font-size="14.00" fill="#666666">[timestamp without time zone]</text>
<polygon fill="none" stroke="#000000" points="116,-355.5 116,-385.5 528,-385.5 528,-355.5 116,-355.5"/>
<text text-anchor="start" x="123" y="-366.9" font-family="Arial" font-size="14.00" fill="#000000">ts_modified    </text>
<text text-anchor="start" x="228.7728" y="-366.9" font-family="Arial" font-size="14.00" fill="#666666">[timestamp without time zone]</text>
</g>
<!-- sr.cloud_account&#45;&gt;sr.cloud_account_provider -->
<g id="edge1" class="edge">
<title>sr.cloud_account:cloud_account_provider_id&#45;&gt;sr.cloud_account_provider:cloud_account_provider_id</title>
<path fill="none" stroke="#000000" d="M537.8177,-547.8662C577.937,-524.4446 558.1956,-351.806 528,-313 488.0169,-261.6155 425.9831,-328.3845 386,-277 359.6617,-243.1511 343.1111,-180.5 386,-180.5"/>
<polygon fill="#000000" stroke="#000000" points="537.6585,-547.9089 526.834,-546.1537 532.8292,-549.2044 528,-550.5 528,-550.5 528,-550.5 532.8292,-549.2044 529.166,-554.8463 537.6585,-547.9089 537.6585,-547.9089"/>
<text text-anchor="start" x="6.735" y="-560.5" font-family="Arial" font-size="10.00" fill="#000000">FOREIGN KEY (cloud_account_provider_id) REFERENCES sr.cloud_account_provider(cloud_account_provider_id)</text>
</g>
<!-- sr.cloud_resource_type -->
<g id="node3" class="node">
<title>sr.cloud_resource_type</title>
<polygon fill="#efefef" stroke="transparent" points="632,-595.5 632,-630.5 972,-630.5 972,-595.5 632,-595.5"/>
<polygon fill="none" stroke="#000000" points="632,-595.5 632,-630.5 972,-630.5 972,-595.5 632,-595.5"/>
<text text-anchor="start" x="644.6943" y="-608.3" font-family="Arial Bold" font-size="18.00" fill="#000000">sr.cloud_resource_type</text>
<text text-anchor="start" x="831.7377" y="-608.3" font-family="Arial" font-size="14.00" fill="#000000">    </text>
<text text-anchor="start" x="865.9425" y="-608.3" font-family="Arial" font-size="14.00" fill="#666666">[BASE TABLE]</text>
<polygon fill="none" stroke="#000000" points="632,-565.5 632,-595.5 972,-595.5 972,-565.5 632,-565.5"/>
<text text-anchor="start" x="639" y="-576.9" font-family="Arial" font-size="14.00" fill="#000000">cloud_resource_type_id    </text>
<text text-anchor="start" x="821.8036" y="-576.9" font-family="Arial" font-size="14.00" fill="#666666">[integer]</text>
<polygon fill="none" stroke="#000000" points="632,-535.5 632,-565.5 972,-565.5 972,-535.5 632,-535.5"/>
<text text-anchor="start" x="639" y="-546.9" font-family="Arial" font-size="14.00" fill="#000000">cloud_resource_type_name    </text>
<text text-anchor="start" x="845.9228" y="-546.9" font-family="Arial" font-size="14.00" fill="#666666">[varchar(100)]</text>
<polygon fill="none" stroke="#000000" points="632,-505.5 632,-535.5 972,-535.5 972,-505.5 632,-505.5"/>
<text text-anchor="start" x="638.6445" y="-516.9" font-family="Arial" font-size="14.00" fill="#000000">cloud_resource_type_description    </text>
<text text-anchor="start" x="878.2363" y="-516.9" font-family="Arial" font-size="14.00" fill="#666666">[varchar(512)]</text>
<polygon fill="none" stroke="#000000" points="632,-475.5 632,-505.5 972,-505.5 972,-475.5 632,-475.5"/>
<text text-anchor="start" x="639" y="-486.9" font-family="Arial" font-size="14.00" fill="#000000">cloud_account_provider_id    </text>
<text text-anchor="start" x="840.4754" y="-486.9" font-family="Arial" font-size="14.00" fill="#666666">[integer]</text>
<polygon fill="none" stroke="#000000" points="632,-445.5 632,-475.5 972,-475.5 972,-445.5 632,-445.5"/>
<text text-anchor="start" x="639" y="-456.9" font-family="Arial" font-size="14.00" fill="#000000">stackcash_cost    </text>
<text text-anchor="start" x="768.899" y="-456.9" font-family="Arial" font-size="14.00" fill="#666666">[numeric(7,2)]</text>
<polygon fill="none" stroke="#000000" points="632,-415.5 632,-445.5 972,-445.5 972,-415.5 632,-415.5"/>
<text text-anchor="start" x="639" y="-426.9" font-family="Arial" font-size="14.00" fill="#000000">ts_created    </text>
<text text-anchor="start" x="738.5596" y="-426.9" font-family="Arial" font-size="14.00" fill="#666666">[timestamp without time zone]</text>
<polygon fill="none" stroke="#000000" points="632,-385.5 632,-415.5 972,-415.5 972,-385.5 632,-385.5"/>
<text text-anchor="start" x="639" y="-396.9" font-family="Arial" font-size="14.00" fill="#000000">ts_modified    </text>
<text text-anchor="start" x="744.7728" y="-396.9" font-family="Arial" font-size="14.00" fill="#666666">[timestamp without time zone]</text>
</g>
<!-- sr.cloud_resource_type&#45;&gt;sr.cloud_account_provider -->
<g id="edge2" class="edge">
<title>sr.cloud_resource_type:cloud_account_provider_id&#45;&gt;sr.cloud_account_provider:cloud_account_provider_id</title>
<path fill="none" stroke="#000000" d="M621.7978,-489.6543C570.2591,-480.3887 601.9748,-397.0646 632,-343 658.9443,-294.4829 711.0557,-325.5171 738,-277 758.823,-239.5052 780.8889,-180.5 738,-180.5"/>
<polygon fill="#000000" stroke="#000000" points="622.0342,-489.6738 631.6282,-494.9846 627.0171,-490.0869 632,-490.5 632,-490.5 632,-490.5 627.0171,-490.0869 632.3718,-486.0154 622.0342,-489.6738 622.0342,-489.6738"/>
<text text-anchor="start" x="638.735" y="-500.5" font-family="Arial" font-size="10.00" fill="#000000">FOREIGN KEY (cloud_account_provider_id) REFERENCES sr.cloud_account_provider(cloud_account_provider_id)</text>
</g>
</g>
</svg>
