<?xml version="1.0" encoding="UTF-8" standalone="no"?>
<!DOCTYPE svg PUBLIC "-//W3C//DTD SVG 1.1//EN"
 "http://www.w3.org/Graphics/SVG/1.1/DTD/svg11.dtd">
<!-- Generated by graphviz version 2.40.1 (20161225.0304)
 -->
<!-- Title: sr.coin_transaction_status Pages: 1 -->
<svg width="858pt" height="682pt"
 viewBox="0.00 0.00 858.00 682.00" xmlns="http://www.w3.org/2000/svg" xmlns:xlink="http://www.w3.org/1999/xlink">
<g id="graph0" class="graph" transform="scale(1 1) rotate(0) translate(4 678)">
<title>sr.coin_transaction_status</title>
<polygon fill="#ffffff" stroke="transparent" points="-4,4 -4,-678 854,-678 854,4 -4,4"/>
<!-- sr.coin_transaction_status -->
<g id="node1" class="node">
<title>sr.coin_transaction_status</title>
<polygon fill="#efefef" stroke="transparent" points="46,-195.5 46,-230.5 396,-230.5 396,-195.5 46,-195.5"/>
<polygon fill="none" stroke="#000000" points="46,-195.5 46,-230.5 396,-230.5 396,-195.5 46,-195.5"/>
<text text-anchor="start" x="52.69" y="-208.3" font-family="Arial Bold" font-size="18.00" fill="#000000">sr.coin_transaction_status</text>
<text text-anchor="start" x="261.742" y="-208.3" font-family="Arial" font-size="14.00" fill="#000000">    </text>
<text text-anchor="start" x="295.9468" y="-208.3" font-family="Arial" font-size="14.00" fill="#666666">[BASE TABLE]</text>
<polygon fill="none" stroke="#000000" points="46,-165.5 46,-195.5 396,-195.5 396,-165.5 46,-165.5"/>
<text text-anchor="start" x="53" y="-176.9" font-family="Arial" font-size="14.00" fill="#000000">transaction_status_id </text>
<text text-anchor="start" x="189.1528" y="-176.9" font-family="Arial" font-size="14.00" fill="#666666">[integer]</text>
<polygon fill="none" stroke="#000000" points="46,-135.5 46,-165.5 396,-165.5 396,-135.5 46,-135.5"/>
<text text-anchor="start" x="53" y="-146.9" font-family="Arial" font-size="14.00" fill="#000000">transaction_status_name </text>
<text text-anchor="start" x="213.272" y="-146.9" font-family="Arial" font-size="14.00" fill="#666666">[varchar(50)]</text>
<polygon fill="none" stroke="#000000" points="46,-105.5 46,-135.5 396,-135.5 396,-105.5 46,-105.5"/>
<text text-anchor="start" x="53" y="-116.9" font-family="Arial" font-size="14.00" fill="#000000">transaction_status_description </text>
<text text-anchor="start" x="245.941" y="-116.9" font-family="Arial" font-size="14.00" fill="#666666">[varchar(512)]</text>
<polygon fill="none" stroke="#000000" points="46,-75.5 46,-105.5 396,-105.5 396,-75.5 46,-75.5"/>
<text text-anchor="start" x="53" y="-86.9" font-family="Arial" font-size="14.00" fill="#000000">ts_created </text>
<text text-anchor="start" x="122.2454" y="-86.9" font-family="Arial" font-size="14.00" fill="#666666">[timestamp without time zone]</text>
<polygon fill="none" stroke="#000000" points="46,-45.5 46,-75.5 396,-75.5 396,-45.5 46,-45.5"/>
<text text-anchor="start" x="53" y="-56.9" font-family="Arial" font-size="14.00" fill="#000000">ts_modified </text>
<text text-anchor="start" x="128.4586" y="-56.9" font-family="Arial" font-size="14.00" fill="#666666">[timestamp without time zone]</text>
<polygon fill="none" stroke="#000000" stroke-width="3" points="44.5,-44.5 44.5,-232.5 397.5,-232.5 397.5,-44.5 44.5,-44.5"/>
</g>
<!-- sr.coin_ledger -->
<g id="node2" class="node">
<title>sr.coin_ledger</title>
<polygon fill="#efefef" stroke="transparent" points="69,-595.5 69,-630.5 373,-630.5 373,-595.5 69,-595.5"/>
<polygon fill="none" stroke="#000000" points="69,-595.5 69,-630.5 373,-630.5 373,-595.5 69,-595.5"/>
<text text-anchor="start" x="100.7068" y="-608.3" font-family="Arial Bold" font-size="18.00" fill="#000000">sr.coin_ledger</text>
<text text-anchor="start" x="213.7252" y="-608.3" font-family="Arial" font-size="14.00" fill="#000000">    </text>
<text text-anchor="start" x="247.93" y="-608.3" font-family="Arial" font-size="14.00" fill="#666666">[BASE TABLE]</text>
<polygon fill="none" stroke="#000000" points="69,-565.5 69,-595.5 373,-595.5 373,-565.5 69,-565.5"/>
<text text-anchor="start" x="76" y="-576.9" font-family="Arial" font-size="14.00" fill="#000000">transaction_uuid    </text>
<text text-anchor="start" x="212.9032" y="-576.9" font-family="Arial" font-size="14.00" fill="#666666">[uuid]</text>
<polygon fill="none" stroke="#000000" points="69,-535.5 69,-565.5 373,-565.5 373,-535.5 69,-535.5"/>
<text text-anchor="start" x="76" y="-546.9" font-family="Arial" font-size="14.00" fill="#000000">sending_entity_uuid    </text>
<text text-anchor="start" x="234.697" y="-546.9" font-family="Arial" font-size="14.00" fill="#666666">[uuid]</text>
<polygon fill="none" stroke="#000000" points="69,-505.5 69,-535.5 373,-535.5 373,-505.5 69,-505.5"/>
<text text-anchor="start" x="76" y="-516.9" font-family="Arial" font-size="14.00" fill="#000000">receiving_entity_uuid    </text>
<text text-anchor="start" x="241.6816" y="-516.9" font-family="Arial" font-size="14.00" fill="#666666">[uuid]</text>
<polygon fill="none" stroke="#000000" points="69,-475.5 69,-505.5 373,-505.5 373,-475.5 69,-475.5"/>
<text text-anchor="start" x="76" y="-486.9" font-family="Arial" font-size="14.00" fill="#000000">transaction_value    </text>
<text text-anchor="start" x="219.9032" y="-486.9" font-family="Arial" font-size="14.00" fill="#666666">[numeric(7,2)]</text>
<polygon fill="none" stroke="#000000" points="69,-445.5 69,-475.5 373,-475.5 373,-445.5 69,-445.5"/>
<text text-anchor="start" x="76" y="-456.9" font-family="Arial" font-size="14.00" fill="#000000">transaction_status_id    </text>
<text text-anchor="start" x="242.467" y="-456.9" font-family="Arial" font-size="14.00" fill="#666666">[integer]</text>
<polygon fill="none" stroke="#000000" points="69,-415.5 69,-445.5 373,-445.5 373,-415.5 69,-415.5"/>
<text text-anchor="start" x="76" y="-426.9" font-family="Arial" font-size="14.00" fill="#000000">transaction_details    </text>
<text text-anchor="start" x="226.9004" y="-426.9" font-family="Arial" font-size="14.00" fill="#666666">[jsonb]</text>
<polygon fill="none" stroke="#000000" points="69,-385.5 69,-415.5 373,-415.5 373,-385.5 69,-385.5"/>
<text text-anchor="start" x="76" y="-396.9" font-family="Arial" font-size="14.00" fill="#000000">ts_created    </text>
<text text-anchor="start" x="175.5596" y="-396.9" font-family="Arial" font-size="14.00" fill="#666666">[timestamp without time zone]</text>
<polygon fill="none" stroke="#000000" points="69,-355.5 69,-385.5 373,-385.5 373,-355.5 69,-355.5"/>
<text text-anchor="start" x="75.5435" y="-366.9" font-family="Arial" font-size="14.00" fill="#000000">ts_modified    </text>
<text text-anchor="start" x="181.3163" y="-366.9" font-family="Arial" font-size="14.00" fill="#666666">[timestamp without time zone]</text>
</g>
<!-- sr.coin_ledger&#45;&gt;sr.coin_transaction_status -->
<g id="edge1" class="edge">
<title>sr.coin_ledger:transaction_status_id&#45;&gt;sr.coin_transaction_status:transaction_status_id</title>
<path fill="none" stroke="#000000" d="M382.8814,-458.0794C437.6919,-430.7124 455.0176,-180.5 396,-180.5"/>
<polygon fill="#000000" stroke="#000000" points="382.7128,-458.1206 371.9293,-456.1292 377.8564,-459.3103 373,-460.5 373,-460.5 373,-460.5 377.8564,-459.3103 374.0707,-464.8708 382.7128,-458.1206 382.7128,-458.1206"/>
<text text-anchor="start" x="380.296" y="-470.5" font-family="Arial" font-size="10.00" fill="#000000">FOREIGN KEY (transaction_status_id) REFERENCES sr.coin_transaction_status(transaction_status_id)</text>
</g>
</g>
</svg>
