<?xml version="1.0" encoding="UTF-8" standalone="no"?>
<!DOCTYPE svg PUBLIC "-//W3C//DTD SVG 1.1//EN"
 "http://www.w3.org/Graphics/SVG/1.1/DTD/svg11.dtd">
<!-- Generated by graphviz version 2.40.1 (20161225.0304)
 -->
<!-- Title: sr.cloud_account Pages: 1 -->
<svg width="1418pt" height="1079pt"
 viewBox="0.00 0.00 1418.00 1079.00" xmlns="http://www.w3.org/2000/svg" xmlns:xlink="http://www.w3.org/1999/xlink">
<g id="graph0" class="graph" transform="scale(1 1) rotate(0) translate(4 1075)">
<title>sr.cloud_account</title>
<polygon fill="#ffffff" stroke="transparent" points="-4,4 -4,-1075 1414,-1075 1414,4 -4,4"/>
<!-- sr.cloud_account -->
<g id="node1" class="node">
<title>sr.cloud_account</title>
<polygon fill="#efefef" stroke="transparent" points="528,-622.5 528,-657.5 910,-657.5 910,-622.5 528,-622.5"/>
<polygon fill="none" stroke="#000000" points="528,-622.5 528,-657.5 910,-657.5 910,-622.5 528,-622.5"/>
<text text-anchor="start" x="587.1958" y="-635.3" font-family="Arial Bold" font-size="18.00" fill="#000000">sr.cloud_account</text>
<text text-anchor="start" x="723.2362" y="-635.3" font-family="Arial" font-size="14.00" fill="#000000">    </text>
<text text-anchor="start" x="757.441" y="-635.3" font-family="Arial" font-size="14.00" fill="#666666">[BASE TABLE]</text>
<polygon fill="none" stroke="#000000" points="528,-592.5 528,-622.5 910,-622.5 910,-592.5 528,-592.5"/>
<text text-anchor="start" x="535" y="-603.9" font-family="Arial" font-size="14.00" fill="#000000">cloud_account_uuid </text>
<text text-anchor="start" x="663.3856" y="-603.9" font-family="Arial" font-size="14.00" fill="#666666">[uuid]</text>
<polygon fill="none" stroke="#000000" points="528,-562.5 528,-592.5 910,-592.5 910,-562.5 528,-562.5"/>
<text text-anchor="start" x="535" y="-573.9" font-family="Arial" font-size="14.00" fill="#000000">cloud_account_cloud_id </text>
<text text-anchor="start" x="689.0574" y="-573.9" font-family="Arial" font-size="14.00" fill="#666666">[varchar(100)]</text>
<polygon fill="none" stroke="#000000" points="528,-532.5 528,-562.5 910,-562.5 910,-532.5 528,-532.5"/>
<text text-anchor="start" x="535" y="-543.9" font-family="Arial" font-size="14.00" fill="#000000">cloud_account_provider_id </text>
<text text-anchor="start" x="706.1612" y="-543.9" font-family="Arial" font-size="14.00" fill="#666666">[integer]</text>
<polygon fill="none" stroke="#000000" points="528,-502.5 528,-532.5 910,-532.5 910,-502.5 528,-502.5"/>
<text text-anchor="start" x="535" y="-513.9" font-family="Arial" font-size="14.00" fill="#000000">cloud_account_name </text>
<text text-anchor="start" x="671.9396" y="-513.9" font-family="Arial" font-size="14.00" fill="#666666">[varchar(50)]</text>
<polygon fill="none" stroke="#000000" points="528,-472.5 528,-502.5 910,-502.5 910,-472.5 528,-472.5"/>
<text text-anchor="start" x="535" y="-483.9" font-family="Arial" font-size="14.00" fill="#000000">cloud_account_status_id </text>
<text text-anchor="start" x="692.9494" y="-483.9" font-family="Arial" font-size="14.00" fill="#666666">[integer]</text>
<polygon fill="none" stroke="#000000" points="528,-442.5 528,-472.5 910,-472.5 910,-442.5 528,-442.5"/>
<text text-anchor="start" x="535" y="-453.9" font-family="Arial" font-size="14.00" fill="#000000">cloud_account_owner_uuid </text>
<text text-anchor="start" x="709.2832" y="-453.9" font-family="Arial" font-size="14.00" fill="#666666">[uuid]</text>
<polygon fill="none" stroke="#000000" points="528,-412.5 528,-442.5 910,-442.5 910,-412.5 528,-412.5"/>
<text text-anchor="start" x="534.9945" y="-423.9" font-family="Arial" font-size="14.00" fill="#000000">cloud_account_owner_type </text>
<text text-anchor="start" x="709.2791" y="-423.9" font-family="Arial" font-size="14.00" fill="#666666">[sr.cloud_account_owner_type]</text>
<polygon fill="none" stroke="#000000" points="528,-382.5 528,-412.5 910,-412.5 910,-382.5 528,-382.5"/>
<text text-anchor="start" x="535" y="-393.9" font-family="Arial" font-size="14.00" fill="#000000">ts_created </text>
<text text-anchor="start" x="604.2454" y="-393.9" font-family="Arial" font-size="14.00" fill="#666666">[timestamp without time zone]</text>
<polygon fill="none" stroke="#000000" points="528,-352.5 528,-382.5 910,-382.5 910,-352.5 528,-352.5"/>
<text text-anchor="start" x="535" y="-363.9" font-family="Arial" font-size="14.00" fill="#000000">ts_modified </text>
<text text-anchor="start" x="610.4586" y="-363.9" font-family="Arial" font-size="14.00" fill="#666666">[timestamp without time zone]</text>
<polygon fill="none" stroke="#000000" stroke-width="3" points="526.5,-351.5 526.5,-659.5 911.5,-659.5 911.5,-351.5 526.5,-351.5"/>
</g>
<!-- sr.cloud_account_provider -->
<g id="node4" class="node">
<title>sr.cloud_account_provider</title>
<polygon fill="#efefef" stroke="transparent" points="311,-192.5 311,-227.5 670,-227.5 670,-192.5 311,-192.5"/>
<polygon fill="none" stroke="#000000" points="311,-192.5 311,-227.5 670,-227.5 670,-192.5 311,-192.5"/>
<text text-anchor="start" x="321.191" y="-205.3" font-family="Arial Bold" font-size="18.00" fill="#000000">sr.cloud_account_provider</text>
<text text-anchor="start" x="532.241" y="-205.3" font-family="Arial" font-size="14.00" fill="#000000">    </text>
<text text-anchor="start" x="566.4458" y="-205.3" font-family="Arial" font-size="14.00" fill="#666666">[BASE TABLE]</text>
<polygon fill="none" stroke="#000000" points="311,-162.5 311,-192.5 670,-192.5 670,-162.5 311,-162.5"/>
<text text-anchor="start" x="318" y="-173.9" font-family="Arial" font-size="14.00" fill="#000000">cloud_account_provider_id    </text>
<text text-anchor="start" x="519.4754" y="-173.9" font-family="Arial" font-size="14.00" fill="#666666">[integer]</text>
<polygon fill="none" stroke="#000000" points="311,-132.5 311,-162.5 670,-162.5 670,-132.5 311,-132.5"/>
<text text-anchor="start" x="318" y="-143.9" font-family="Arial" font-size="14.00" fill="#000000">cloud_account_provider_name    </text>
<text text-anchor="start" x="543.5946" y="-143.9" font-family="Arial" font-size="14.00" fill="#666666">[varchar(25)]</text>
<polygon fill="none" stroke="#000000" points="311,-102.5 311,-132.5 670,-132.5 670,-102.5 311,-102.5"/>
<text text-anchor="start" x="317.8086" y="-113.9" font-family="Arial" font-size="14.00" fill="#000000">cloud_account_provider_description    </text>
<text text-anchor="start" x="576.0722" y="-113.9" font-family="Arial" font-size="14.00" fill="#666666">[varchar(512)]</text>
<polygon fill="none" stroke="#000000" points="311,-72.5 311,-102.5 670,-102.5 670,-72.5 311,-72.5"/>
<text text-anchor="start" x="318" y="-83.9" font-family="Arial" font-size="14.00" fill="#000000">ts_created    </text>
<text text-anchor="start" x="417.5596" y="-83.9" font-family="Arial" font-size="14.00" fill="#666666">[timestamp without time zone]</text>
<polygon fill="none" stroke="#000000" points="311,-42.5 311,-72.5 670,-72.5 670,-42.5 311,-42.5"/>
<text text-anchor="start" x="318" y="-53.9" font-family="Arial" font-size="14.00" fill="#000000">ts_modified    </text>
<text text-anchor="start" x="423.7728" y="-53.9" font-family="Arial" font-size="14.00" fill="#666666">[timestamp without time zone]</text>
</g>
<!-- sr.cloud_account&#45;&gt;sr.cloud_account_provider -->
<g id="edge3" class="edge">
<title>sr.cloud_account:cloud_account_provider_id&#45;&gt;sr.cloud_account_provider:cloud_account_provider_id</title>
<path fill="none" stroke="#000000" d="M517.8383,-546.9919C423.8771,-537.2104 464.5383,-388.5582 528,-307 567.9831,-255.6155 630.0169,-322.3845 670,-271 695.5195,-238.2034 711.5556,-177.5 670,-177.5"/>
<polygon fill="#000000" stroke="#000000" points="518.0125,-547.0005 527.7752,-551.9944 523.0062,-547.2503 528,-547.5 528,-547.5 528,-547.5 523.0062,-547.2503 528.2248,-543.0056 518.0125,-547.0005 518.0125,-547.0005"/>
<text text-anchor="start" x="6.735" y="-557.5" font-family="Arial" font-size="10.00" fill="#000000">FOREIGN KEY (cloud_account_provider_id) REFERENCES sr.cloud_account_provider(cloud_account_provider_id)</text>
</g>
<!-- sr.cloud_account_status -->
<g id="node5" class="node">
<title>sr.cloud_account_status</title>
<polygon fill="#efefef" stroke="transparent" points="774,-192.5 774,-227.5 1120,-227.5 1120,-192.5 774,-192.5"/>
<polygon fill="none" stroke="#000000" points="774,-192.5 774,-227.5 1120,-227.5 1120,-192.5 774,-192.5"/>
<text text-anchor="start" x="786.1843" y="-205.3" font-family="Arial Bold" font-size="18.00" fill="#000000">sr.cloud_account_status</text>
<text text-anchor="start" x="980.2477" y="-205.3" font-family="Arial" font-size="14.00" fill="#000000">    </text>
<text text-anchor="start" x="1014.4525" y="-205.3" font-family="Arial" font-size="14.00" fill="#666666">[BASE TABLE]</text>
<polygon fill="none" stroke="#000000" points="774,-162.5 774,-192.5 1120,-192.5 1120,-162.5 774,-162.5"/>
<text text-anchor="start" x="781" y="-173.9" font-family="Arial" font-size="14.00" fill="#000000">cloud_account_status_id    </text>
<text text-anchor="start" x="969.2636" y="-173.9" font-family="Arial" font-size="14.00" fill="#666666">[integer]</text>
<polygon fill="none" stroke="#000000" points="774,-132.5 774,-162.5 1120,-162.5 1120,-132.5 774,-132.5"/>
<text text-anchor="start" x="781" y="-143.9" font-family="Arial" font-size="14.00" fill="#000000">cloud_account_status_name    </text>
<text text-anchor="start" x="993.3828" y="-143.9" font-family="Arial" font-size="14.00" fill="#666666">[varchar(50)]</text>
<polygon fill="none" stroke="#000000" points="774,-102.5 774,-132.5 1120,-132.5 1120,-102.5 774,-102.5"/>
<text text-anchor="start" x="780.9145" y="-113.9" font-family="Arial" font-size="14.00" fill="#000000">cloud_account_status_description    </text>
<text text-anchor="start" x="1025.9663" y="-113.9" font-family="Arial" font-size="14.00" fill="#666666">[varchar(512)]</text>
<polygon fill="none" stroke="#000000" points="774,-72.5 774,-102.5 1120,-102.5 1120,-72.5 774,-72.5"/>
<text text-anchor="start" x="781" y="-83.9" font-family="Arial" font-size="14.00" fill="#000000">ts_created    </text>
<text text-anchor="start" x="880.5596" y="-83.9" font-family="Arial" font-size="14.00" fill="#666666">[timestamp without time zone]</text>
<polygon fill="none" stroke="#000000" points="774,-42.5 774,-72.5 1120,-72.5 1120,-42.5 774,-42.5"/>
<text text-anchor="start" x="781" y="-53.9" font-family="Arial" font-size="14.00" fill="#000000">ts_modified    </text>
<text text-anchor="start" x="886.7728" y="-53.9" font-family="Arial" font-size="14.00" fill="#666666">[timestamp without time zone]</text>
</g>
<!-- sr.cloud_account&#45;&gt;sr.cloud_account_status -->
<g id="edge4" class="edge">
<title>sr.cloud_account:cloud_account_status_id&#45;&gt;sr.cloud_account_status:cloud_account_status_id</title>
<path fill="none" stroke="#000000" d="M920.1446,-486.8076C987.3754,-477.1023 956.7344,-367.7148 910,-307 871.8614,-257.4523 812.1386,-320.5477 774,-271 748.6527,-238.0701 732.4444,-177.5 774,-177.5"/>
<polygon fill="#000000" stroke="#000000" points="919.9768,-486.8189 909.6935,-483.0104 914.9884,-487.1595 910,-487.5 910,-487.5 910,-487.5 914.9884,-487.1595 910.3065,-491.9896 919.9768,-486.8189 919.9768,-486.8189"/>
<text text-anchor="start" x="916.8905" y="-497.5" font-family="Arial" font-size="10.00" fill="#000000">FOREIGN KEY (cloud_account_status_id) REFERENCES sr.cloud_account_status(cloud_account_status_id)</text>
</g>
<!-- sr.cloud_account_user -->
<g id="node2" class="node">
<title>sr.cloud_account_user</title>
<polygon fill="#efefef" stroke="transparent" points="342,-977.5 342,-1012.5 664,-1012.5 664,-977.5 342,-977.5"/>
<polygon fill="none" stroke="#000000" points="342,-977.5 342,-1012.5 664,-1012.5 664,-977.5 342,-977.5"/>
<text text-anchor="start" x="348.6904" y="-990.3" font-family="Arial Bold" font-size="18.00" fill="#000000">sr.cloud_account_user</text>
<text text-anchor="start" x="529.7416" y="-990.3" font-family="Arial" font-size="14.00" fill="#000000">    </text>
<text text-anchor="start" x="563.9464" y="-990.3" font-family="Arial" font-size="14.00" fill="#666666">[BASE TABLE]</text>
<polygon fill="none" stroke="#000000" points="342,-947.5 342,-977.5 664,-977.5 664,-947.5 342,-947.5"/>
<text text-anchor="start" x="349" y="-958.9" font-family="Arial" font-size="14.00" fill="#000000">cloud_account_user_uuid    </text>
<text text-anchor="start" x="542.7082" y="-958.9" font-family="Arial" font-size="14.00" fill="#666666">[uuid]</text>
<polygon fill="none" stroke="#000000" points="342,-917.5 342,-947.5 664,-947.5 664,-917.5 342,-917.5"/>
<text text-anchor="start" x="349" y="-928.9" font-family="Arial" font-size="14.00" fill="#000000">user_uuid    </text>
<text text-anchor="start" x="444.6676" y="-928.9" font-family="Arial" font-size="14.00" fill="#666666">[uuid]</text>
<polygon fill="none" stroke="#000000" points="342,-887.5 342,-917.5 664,-917.5 664,-887.5 342,-887.5"/>
<text text-anchor="start" x="349" y="-898.9" font-family="Arial" font-size="14.00" fill="#000000">cloud_account_uuid    </text>
<text text-anchor="start" x="507.6998" y="-898.9" font-family="Arial" font-size="14.00" fill="#666666">[uuid]</text>
<polygon fill="none" stroke="#000000" points="342,-857.5 342,-887.5 664,-887.5 664,-857.5 342,-857.5"/>
<text text-anchor="start" x="349" y="-868.9" font-family="Arial" font-size="14.00" fill="#000000">cloud_account_user_id    </text>
<text text-anchor="start" x="527.143" y="-868.9" font-family="Arial" font-size="14.00" fill="#666666">[varchar(250)]</text>
<polygon fill="none" stroke="#000000" points="342,-827.5 342,-857.5 664,-857.5 664,-827.5 342,-827.5"/>
<text text-anchor="start" x="349" y="-838.9" font-family="Arial" font-size="14.00" fill="#000000">ts_created    </text>
<text text-anchor="start" x="448.5596" y="-838.9" font-family="Arial" font-size="14.00" fill="#666666">[timestamp without time zone]</text>
<polygon fill="none" stroke="#000000" points="342,-797.5 342,-827.5 664,-827.5 664,-797.5 342,-797.5"/>
<text text-anchor="start" x="349" y="-808.9" font-family="Arial" font-size="14.00" fill="#000000">ts_modified    </text>
<text text-anchor="start" x="454.7728" y="-808.9" font-family="Arial" font-size="14.00" fill="#666666">[timestamp without time zone]</text>
</g>
<!-- sr.cloud_account_user&#45;&gt;sr.cloud_account -->
<g id="edge1" class="edge">
<title>sr.cloud_account_user:cloud_account_uuid&#45;&gt;sr.cloud_account:cloud_account_uuid</title>
<path fill="none" stroke="#000000" d="M674.2522,-901.6232C726.33,-892.0223 699.2251,-805.8299 664,-755 627.23,-701.9408 564.77,-757.0592 528,-704 503.5707,-668.7485 485.1111,-607.5 528,-607.5"/>
<polygon fill="#000000" stroke="#000000" points="673.9636,-901.6478 663.6165,-898.0164 668.9818,-902.0739 664,-902.5 664,-902.5 664,-902.5 668.9818,-902.0739 664.3835,-906.9836 673.9636,-901.6478 673.9636,-901.6478"/>
<text text-anchor="start" x="246.125" y="-912.5" font-family="Arial" font-size="10.00" fill="#000000">FOREIGN KEY (cloud_account_uuid) REFERENCES sr.cloud_account(cloud_account_uuid)</text>
</g>
<!-- sr.cloud_account_group -->
<g id="node3" class="node">
<title>sr.cloud_account_group</title>
<polygon fill="#efefef" stroke="transparent" points="769,-992.5 769,-1027.5 1102,-1027.5 1102,-992.5 769,-992.5"/>
<polygon fill="none" stroke="#000000" points="769,-992.5 769,-1027.5 1102,-1027.5 1102,-992.5 769,-992.5"/>
<text text-anchor="start" x="775.6842" y="-1005.3" font-family="Arial Bold" font-size="18.00" fill="#000000">sr.cloud_account_group</text>
<text text-anchor="start" x="967.7478" y="-1005.3" font-family="Arial" font-size="14.00" fill="#000000">    </text>
<text text-anchor="start" x="1001.9526" y="-1005.3" font-family="Arial" font-size="14.00" fill="#666666">[BASE TABLE]</text>
<polygon fill="none" stroke="#000000" points="769,-962.5 769,-992.5 1102,-992.5 1102,-962.5 769,-962.5"/>
<text text-anchor="start" x="776" y="-973.9" font-family="Arial" font-size="14.00" fill="#000000">cloud_account_group_uuid    </text>
<text text-anchor="start" x="978.2734" y="-973.9" font-family="Arial" font-size="14.00" fill="#666666">[uuid]</text>
<polygon fill="none" stroke="#000000" points="769,-932.5 769,-962.5 1102,-962.5 1102,-932.5 769,-932.5"/>
<text text-anchor="start" x="776" y="-943.9" font-family="Arial" font-size="14.00" fill="#000000">cloud_account_group_id    </text>
<text text-anchor="start" x="962.7082" y="-943.9" font-family="Arial" font-size="14.00" fill="#666666">[varchar(250)]</text>
<polygon fill="none" stroke="#000000" points="769,-902.5 769,-932.5 1102,-932.5 1102,-902.5 769,-902.5"/>
<text text-anchor="start" x="776" y="-913.9" font-family="Arial" font-size="14.00" fill="#000000">cloud_account_group_name    </text>
<text text-anchor="start" x="986.8274" y="-913.9" font-family="Arial" font-size="14.00" fill="#666666">[varchar(250)]</text>
<polygon fill="none" stroke="#000000" points="769,-872.5 769,-902.5 1102,-902.5 1102,-872.5 769,-872.5"/>
<text text-anchor="start" x="776" y="-883.9" font-family="Arial" font-size="14.00" fill="#000000">cloud_account_uuid    </text>
<text text-anchor="start" x="934.6998" y="-883.9" font-family="Arial" font-size="14.00" fill="#666666">[uuid]</text>
<polygon fill="none" stroke="#000000" points="769,-842.5 769,-872.5 1102,-872.5 1102,-842.5 769,-842.5"/>
<text text-anchor="start" x="776" y="-853.9" font-family="Arial" font-size="14.00" fill="#000000">cloud_account_access_level_id    </text>
<text text-anchor="start" x="1007.0434" y="-853.9" font-family="Arial" font-size="14.00" fill="#666666">[integer]</text>
<polygon fill="none" stroke="#000000" points="769,-812.5 769,-842.5 1102,-842.5 1102,-812.5 769,-812.5"/>
<text text-anchor="start" x="776" y="-823.9" font-family="Arial" font-size="14.00" fill="#000000">ts_created    </text>
<text text-anchor="start" x="875.5596" y="-823.9" font-family="Arial" font-size="14.00" fill="#666666">[timestamp without time zone]</text>
<polygon fill="none" stroke="#000000" points="769,-782.5 769,-812.5 1102,-812.5 1102,-782.5 769,-782.5"/>
<text text-anchor="start" x="776" y="-793.9" font-family="Arial" font-size="14.00" fill="#000000">ts_modified    </text>
<text text-anchor="start" x="881.7728" y="-793.9" font-family="Arial" font-size="14.00" fill="#666666">[timestamp without time zone]</text>
</g>
<!-- sr.cloud_account_group&#45;&gt;sr.cloud_account -->
<g id="edge2" class="edge">
<title>sr.cloud_account_group:cloud_account_uuid&#45;&gt;sr.cloud_account:cloud_account_uuid</title>
<path fill="none" stroke="#000000" d="M758.7217,-886.604C706.3628,-876.7968 731.0634,-788.8395 769,-740 808.6754,-688.9219 870.3246,-755.0781 910,-704 936.3098,-670.1289 952.8889,-607.5 910,-607.5"/>
<polygon fill="#000000" stroke="#000000" points="759.0378,-886.6315 768.6092,-891.983 764.0189,-887.0658 769,-887.5 769,-887.5 769,-887.5 764.0189,-887.0658 769.3908,-883.017 759.0378,-886.6315 759.0378,-886.6315"/>
<text text-anchor="start" x="776.125" y="-897.5" font-family="Arial" font-size="10.00" fill="#000000">FOREIGN KEY (cloud_account_uuid) REFERENCES sr.cloud_account(cloud_account_uuid)</text>
</g>
</g>
</svg>
