<?xml version="1.0" encoding="UTF-8" standalone="no"?>
<!DOCTYPE svg PUBLIC "-//W3C//DTD SVG 1.1//EN"
 "http://www.w3.org/Graphics/SVG/1.1/DTD/svg11.dtd">
<!-- Generated by graphviz version 2.40.1 (20161225.0304)
 -->
<!-- Title: sr.coin_ledger Pages: 1 -->
<svg width="840pt" height="1019pt"
 viewBox="0.00 0.00 840.00 1019.00" xmlns="http://www.w3.org/2000/svg" xmlns:xlink="http://www.w3.org/1999/xlink">
<g id="graph0" class="graph" transform="scale(1 1) rotate(0) translate(4 1015)">
<title>sr.coin_ledger</title>
<polygon fill="#ffffff" stroke="transparent" points="-4,4 -4,-1015 836,-1015 836,4 -4,4"/>
<!-- sr.coin_ledger -->
<g id="node1" class="node">
<title>sr.coin_ledger</title>
<polygon fill="#efefef" stroke="transparent" points="81,-592.5 81,-627.5 355,-627.5 355,-592.5 81,-592.5"/>
<polygon fill="none" stroke="#000000" points="81,-592.5 81,-627.5 355,-627.5 355,-592.5 81,-592.5"/>
<text text-anchor="start" x="97.7068" y="-605.3" font-family="Arial Bold" font-size="18.00" fill="#000000">sr.coin_ledger</text>
<text text-anchor="start" x="210.7252" y="-605.3" font-family="Arial" font-size="14.00" fill="#000000">    </text>
<text text-anchor="start" x="244.93" y="-605.3" font-family="Arial" font-size="14.00" fill="#666666">[BASE TABLE]</text>
<polygon fill="none" stroke="#000000" points="81,-562.5 81,-592.5 355,-592.5 355,-562.5 81,-562.5"/>
<text text-anchor="start" x="88" y="-573.9" font-family="Arial" font-size="14.00" fill="#000000">transaction_uuid </text>
<text text-anchor="start" x="194.589" y="-573.9" font-family="Arial" font-size="14.00" fill="#666666">[uuid]</text>
<polygon fill="none" stroke="#000000" points="81,-532.5 81,-562.5 355,-562.5 355,-532.5 81,-532.5"/>
<text text-anchor="start" x="88" y="-543.9" font-family="Arial" font-size="14.00" fill="#000000">sending_entity_uuid </text>
<text text-anchor="start" x="216.3828" y="-543.9" font-family="Arial" font-size="14.00" fill="#666666">[uuid]</text>
<polygon fill="none" stroke="#000000" points="81,-502.5 81,-532.5 355,-532.5 355,-502.5 81,-502.5"/>
<text text-anchor="start" x="88" y="-513.9" font-family="Arial" font-size="14.00" fill="#000000">receiving_entity_uuid </text>
<text text-anchor="start" x="223.3674" y="-513.9" font-family="Arial" font-size="14.00" fill="#666666">[uuid]</text>
<polygon fill="none" stroke="#000000" points="81,-472.5 81,-502.5 355,-502.5 355,-472.5 81,-472.5"/>
<text text-anchor="start" x="88" y="-483.9" font-family="Arial" font-size="14.00" fill="#000000">transaction_value </text>
<text text-anchor="start" x="201.589" y="-483.9" font-family="Arial" font-size="14.00" fill="#666666">[numeric(7,2)]</text>
<polygon fill="none" stroke="#000000" points="81,-442.5 81,-472.5 355,-472.5 355,-442.5 81,-442.5"/>
<text text-anchor="start" x="88" y="-453.9" font-family="Arial" font-size="14.00" fill="#000000">transaction_status_id </text>
<text text-anchor="start" x="224.1528" y="-453.9" font-family="Arial" font-size="14.00" fill="#666666">[integer]</text>
<polygon fill="none" stroke="#000000" points="81,-412.5 81,-442.5 355,-442.5 355,-412.5 81,-412.5"/>
<text text-anchor="start" x="88" y="-423.9" font-family="Arial" font-size="14.00" fill="#000000">transaction_details </text>
<text text-anchor="start" x="208.5862" y="-423.9" font-family="Arial" font-size="14.00" fill="#666666">[jsonb]</text>
<polygon fill="none" stroke="#000000" points="81,-382.5 81,-412.5 355,-412.5 355,-382.5 81,-382.5"/>
<text text-anchor="start" x="88" y="-393.9" font-family="Arial" font-size="14.00" fill="#000000">ts_created </text>
<text text-anchor="start" x="157.2454" y="-393.9" font-family="Arial" font-size="14.00" fill="#666666">[timestamp without time zone]</text>
<polygon fill="none" stroke="#000000" points="81,-352.5 81,-382.5 355,-382.5 355,-352.5 81,-352.5"/>
<text text-anchor="start" x="87.7006" y="-363.9" font-family="Arial" font-size="14.00" fill="#000000">ts_modified </text>
<text text-anchor="start" x="163.1592" y="-363.9" font-family="Arial" font-size="14.00" fill="#666666">[timestamp without time zone]</text>
<polygon fill="none" stroke="#000000" stroke-width="3" points="79.5,-351.5 79.5,-629.5 356.5,-629.5 356.5,-351.5 79.5,-351.5"/>
</g>
<!-- sr.coin_transaction_status -->
<g id="node3" class="node">
<title>sr.coin_transaction_status</title>
<polygon fill="#efefef" stroke="transparent" points="43,-192.5 43,-227.5 393,-227.5 393,-192.5 43,-192.5"/>
<polygon fill="none" stroke="#000000" points="43,-192.5 43,-227.5 393,-227.5 393,-192.5 43,-192.5"/>
<text text-anchor="start" x="49.69" y="-205.3" font-family="Arial Bold" font-size="18.00" fill="#000000">sr.coin_transaction_status</text>
<text text-anchor="start" x="258.742" y="-205.3" font-family="Arial" font-size="14.00" fill="#000000">    </text>
<text text-anchor="start" x="292.9468" y="-205.3" font-family="Arial" font-size="14.00" fill="#666666">[BASE TABLE]</text>
<polygon fill="none" stroke="#000000" points="43,-162.5 43,-192.5 393,-192.5 393,-162.5 43,-162.5"/>
<text text-anchor="start" x="50" y="-173.9" font-family="Arial" font-size="14.00" fill="#000000">transaction_status_id    </text>
<text text-anchor="start" x="216.467" y="-173.9" font-family="Arial" font-size="14.00" fill="#666666">[integer]</text>
<polygon fill="none" stroke="#000000" points="43,-132.5 43,-162.5 393,-162.5 393,-132.5 43,-132.5"/>
<text text-anchor="start" x="50" y="-143.9" font-family="Arial" font-size="14.00" fill="#000000">transaction_status_name    </text>
<text text-anchor="start" x="240.5862" y="-143.9" font-family="Arial" font-size="14.00" fill="#666666">[varchar(50)]</text>
<polygon fill="none" stroke="#000000" points="43,-102.5 43,-132.5 393,-132.5 393,-102.5 43,-102.5"/>
<text text-anchor="start" x="50" y="-113.9" font-family="Arial" font-size="14.00" fill="#000000">transaction_status_description    </text>
<text text-anchor="start" x="273.2552" y="-113.9" font-family="Arial" font-size="14.00" fill="#666666">[varchar(512)]</text>
<polygon fill="none" stroke="#000000" points="43,-72.5 43,-102.5 393,-102.5 393,-72.5 43,-72.5"/>
<text text-anchor="start" x="50" y="-83.9" font-family="Arial" font-size="14.00" fill="#000000">ts_created    </text>
<text text-anchor="start" x="149.5596" y="-83.9" font-family="Arial" font-size="14.00" fill="#666666">[timestamp without time zone]</text>
<polygon fill="none" stroke="#000000" points="43,-42.5 43,-72.5 393,-72.5 393,-42.5 43,-42.5"/>
<text text-anchor="start" x="50" y="-53.9" font-family="Arial" font-size="14.00" fill="#000000">ts_modified    </text>
<text text-anchor="start" x="155.7728" y="-53.9" font-family="Arial" font-size="14.00" fill="#666666">[timestamp without time zone]</text>
</g>
<!-- sr.coin_ledger&#45;&gt;sr.coin_transaction_status -->
<g id="edge2" class="edge">
<title>sr.coin_ledger:transaction_status_id&#45;&gt;sr.coin_transaction_status:transaction_status_id</title>
<path fill="none" stroke="#000000" d="M365.067,-455.0794C421.6474,-427.7124 452.3587,-177.5 393,-177.5"/>
<polygon fill="#000000" stroke="#000000" points="364.7229,-455.1621 353.9479,-453.1247 359.8614,-456.331 355,-457.5 355,-457.5 355,-457.5 359.8614,-456.331 356.0521,-461.8753 364.7229,-455.1621 364.7229,-455.1621"/>
<text text-anchor="start" x="362.296" y="-467.5" font-family="Arial" font-size="10.00" fill="#000000">FOREIGN KEY (transaction_status_id) REFERENCES sr.coin_transaction_status(transaction_status_id)</text>
</g>
<!-- sr.coin_balance -->
<g id="node2" class="node">
<title>sr.coin_balance</title>
<polygon fill="#efefef" stroke="transparent" points="67,-932.5 67,-967.5 369,-967.5 369,-932.5 67,-932.5"/>
<polygon fill="none" stroke="#000000" points="67,-932.5 67,-967.5 369,-967.5 369,-932.5 67,-932.5"/>
<text text-anchor="start" x="91.1998" y="-945.3" font-family="Arial Bold" font-size="18.00" fill="#000000">sr.coin_balance</text>
<text text-anchor="start" x="217.2322" y="-945.3" font-family="Arial" font-size="14.00" fill="#000000">    </text>
<text text-anchor="start" x="251.437" y="-945.3" font-family="Arial" font-size="14.00" fill="#666666">[BASE TABLE]</text>
<polygon fill="none" stroke="#000000" points="67,-902.5 67,-932.5 369,-932.5 369,-902.5 67,-902.5"/>
<text text-anchor="start" x="74" y="-913.9" font-family="Arial" font-size="14.00" fill="#000000">entity_uuid    </text>
<text text-anchor="start" x="175.8948" y="-913.9" font-family="Arial" font-size="14.00" fill="#666666">[uuid]</text>
<polygon fill="none" stroke="#000000" points="67,-872.5 67,-902.5 369,-902.5 369,-872.5 67,-872.5"/>
<text text-anchor="start" x="74" y="-883.9" font-family="Arial" font-size="14.00" fill="#000000">entity_type    </text>
<text text-anchor="start" x="175.8962" y="-883.9" font-family="Arial" font-size="14.00" fill="#666666">[sr.entity_type]</text>
<polygon fill="none" stroke="#000000" points="67,-842.5 67,-872.5 369,-872.5 369,-842.5 67,-842.5"/>
<text text-anchor="start" x="74" y="-853.9" font-family="Arial" font-size="14.00" fill="#000000">balance_value    </text>
<text text-anchor="start" x="198.4614" y="-853.9" font-family="Arial" font-size="14.00" fill="#666666">[numeric(7,2)]</text>
<polygon fill="none" stroke="#000000" points="67,-812.5 67,-842.5 369,-842.5 369,-812.5 67,-812.5"/>
<text text-anchor="start" x="74" y="-823.9" font-family="Arial" font-size="14.00" fill="#000000">last_transaction_uuid    </text>
<text text-anchor="start" x="240.4656" y="-823.9" font-family="Arial" font-size="14.00" fill="#666666">[uuid]</text>
<polygon fill="none" stroke="#000000" points="67,-782.5 67,-812.5 369,-812.5 369,-782.5 67,-782.5"/>
<text text-anchor="start" x="74" y="-793.9" font-family="Arial" font-size="14.00" fill="#000000">ts_created    </text>
<text text-anchor="start" x="173.5596" y="-793.9" font-family="Arial" font-size="14.00" fill="#666666">[timestamp without time zone]</text>
<polygon fill="none" stroke="#000000" points="67,-752.5 67,-782.5 369,-782.5 369,-752.5 67,-752.5"/>
<text text-anchor="start" x="73.6978" y="-763.9" font-family="Arial" font-size="14.00" fill="#000000">ts_updated    </text>
<text text-anchor="start" x="177.162" y="-763.9" font-family="Arial" font-size="14.00" fill="#666666">[timestamp without time zone]</text>
</g>
<!-- sr.coin_balance&#45;&gt;sr.coin_ledger -->
<g id="edge1" class="edge">
<title>sr.coin_balance:last_transaction_uuid&#45;&gt;sr.coin_ledger:transaction_uuid</title>
<path fill="none" stroke="#000000" d="M379.0668,-826.7828C479.3152,-812.1191 462.8075,-577.5 355,-577.5"/>
<polygon fill="#000000" stroke="#000000" points="378.9747,-826.7893 368.6802,-823.0114 373.9874,-827.1447 369,-827.5 369,-827.5 369,-827.5 373.9874,-827.1447 369.3198,-831.9886 378.9747,-826.7893 378.9747,-826.7893"/>
<text text-anchor="start" x="375.531" y="-837.5" font-family="Arial" font-size="10.00" fill="#000000">FOREIGN KEY (last_transaction_uuid) REFERENCES sr.coin_ledger(transaction_uuid)</text>
</g>
</g>
</svg>
