<?xml version="1.0" encoding="UTF-8" standalone="no"?>
<!DOCTYPE svg PUBLIC "-//W3C//DTD SVG 1.1//EN"
 "http://www.w3.org/Graphics/SVG/1.1/DTD/svg11.dtd">
<!-- Generated by graphviz version 2.40.1 (20161225.0304)
 -->
<!-- Title: sr.cloud_resource Pages: 1 -->
<svg width="851pt" height="742pt"
 viewBox="0.00 0.00 851.00 742.00" xmlns="http://www.w3.org/2000/svg" xmlns:xlink="http://www.w3.org/1999/xlink">
<g id="graph0" class="graph" transform="scale(1 1) rotate(0) translate(4 738)">
<title>sr.cloud_resource</title>
<polygon fill="#ffffff" stroke="transparent" points="-4,4 -4,-738 847,-738 847,4 -4,4"/>
<!-- sr.cloud_resource -->
<g id="node1" class="node">
<title>sr.cloud_resource</title>
<polygon fill="#efefef" stroke="transparent" points="71,-652.5 71,-687.5 355,-687.5 355,-652.5 71,-652.5"/>
<polygon fill="none" stroke="#000000" points="71,-652.5 71,-687.5 355,-687.5 355,-652.5 71,-652.5"/>
<text text-anchor="start" x="77.7047" y="-665.3" font-family="Arial Bold" font-size="18.00" fill="#000000">sr.cloud_resource</text>
<text text-anchor="start" x="220.7273" y="-665.3" font-family="Arial" font-size="14.00" fill="#000000">    </text>
<text text-anchor="start" x="254.9321" y="-665.3" font-family="Arial" font-size="14.00" fill="#666666">[BASE TABLE]</text>
<polygon fill="none" stroke="#000000" points="71,-622.5 71,-652.5 355,-652.5 355,-622.5 71,-622.5"/>
<text text-anchor="start" x="78" y="-633.9" font-family="Arial" font-size="14.00" fill="#000000">cloud_resource_uuid </text>
<text text-anchor="start" x="211.8162" y="-633.9" font-family="Arial" font-size="14.00" fill="#666666">[uuid]</text>
<polygon fill="none" stroke="#000000" points="71,-592.5 71,-622.5 355,-622.5 355,-592.5 71,-592.5"/>
<text text-anchor="start" x="78" y="-603.9" font-family="Arial" font-size="14.00" fill="#000000">cloud_resource_type_id </text>
<text text-anchor="start" x="230.4894" y="-603.9" font-family="Arial" font-size="14.00" fill="#666666">[integer]</text>
<polygon fill="none" stroke="#000000" points="71,-562.5 71,-592.5 355,-592.5 355,-562.5 71,-562.5"/>
<text text-anchor="start" x="78" y="-573.9" font-family="Arial" font-size="14.00" fill="#000000">cloud_resource_details </text>
<text text-anchor="start" x="225.8134" y="-573.9" font-family="Arial" font-size="14.00" fill="#666666">[jsonb]</text>
<polygon fill="none" stroke="#000000" points="71,-532.5 71,-562.5 355,-562.5 355,-532.5 71,-532.5"/>
<text text-anchor="start" x="78" y="-543.9" font-family="Arial" font-size="14.00" fill="#000000">cloud_resource_tags </text>
<text text-anchor="start" x="211.8176" y="-543.9" font-family="Arial" font-size="14.00" fill="#666666">[jsonb]</text>
<polygon fill="none" stroke="#000000" points="71,-502.5 71,-532.5 355,-532.5 355,-502.5 71,-502.5"/>
<text text-anchor="start" x="78" y="-513.9" font-family="Arial" font-size="14.00" fill="#000000">cloud_account_owner_uuid </text>
<text text-anchor="start" x="252.2832" y="-513.9" font-family="Arial" font-size="14.00" fill="#666666">[uuid]</text>
<polygon fill="none" stroke="#000000" points="71,-472.5 71,-502.5 355,-502.5 355,-472.5 71,-472.5"/>
<text text-anchor="start" x="78" y="-483.9" font-family="Arial" font-size="14.00" fill="#000000">ts_created </text>
<text text-anchor="start" x="147.2454" y="-483.9" font-family="Arial" font-size="14.00" fill="#666666">[timestamp without time zone]</text>
<polygon fill="none" stroke="#000000" points="71,-442.5 71,-472.5 355,-472.5 355,-442.5 71,-442.5"/>
<text text-anchor="start" x="78" y="-453.9" font-family="Arial" font-size="14.00" fill="#000000">ts_modified </text>
<text text-anchor="start" x="153.4586" y="-453.9" font-family="Arial" font-size="14.00" fill="#666666">[timestamp without time zone]</text>
<polygon fill="none" stroke="#000000" points="71,-412.5 71,-442.5 355,-442.5 355,-412.5 71,-412.5"/>
<text text-anchor="start" x="77.6382" y="-423.9" font-family="Arial" font-size="14.00" fill="#000000">ts_checkedin </text>
<text text-anchor="start" x="163.2216" y="-423.9" font-family="Arial" font-size="14.00" fill="#666666">[timestamp without time zone]</text>
<polygon fill="none" stroke="#000000" stroke-width="3" points="69.5,-411.5 69.5,-689.5 356.5,-689.5 356.5,-411.5 69.5,-411.5"/>
</g>
<!-- sr.cloud_resource_type -->
<g id="node2" class="node">
<title>sr.cloud_resource_type</title>
<polygon fill="#efefef" stroke="transparent" points="43,-252.5 43,-287.5 383,-287.5 383,-252.5 43,-252.5"/>
<polygon fill="none" stroke="#000000" points="43,-252.5 43,-287.5 383,-287.5 383,-252.5 43,-252.5"/>
<text text-anchor="start" x="55.6943" y="-265.3" font-family="Arial Bold" font-size="18.00" fill="#000000">sr.cloud_resource_type</text>
<text text-anchor="start" x="242.7377" y="-265.3" font-family="Arial" font-size="14.00" fill="#000000">    </text>
<text text-anchor="start" x="276.9425" y="-265.3" font-family="Arial" font-size="14.00" fill="#666666">[BASE TABLE]</text>
<polygon fill="none" stroke="#000000" points="43,-222.5 43,-252.5 383,-252.5 383,-222.5 43,-222.5"/>
<text text-anchor="start" x="50" y="-233.9" font-family="Arial" font-size="14.00" fill="#000000">cloud_resource_type_id    </text>
<text text-anchor="start" x="232.8036" y="-233.9" font-family="Arial" font-size="14.00" fill="#666666">[integer]</text>
<polygon fill="none" stroke="#000000" points="43,-192.5 43,-222.5 383,-222.5 383,-192.5 43,-192.5"/>
<text text-anchor="start" x="50" y="-203.9" font-family="Arial" font-size="14.00" fill="#000000">cloud_resource_type_name    </text>
<text text-anchor="start" x="256.9228" y="-203.9" font-family="Arial" font-size="14.00" fill="#666666">[varchar(100)]</text>
<polygon fill="none" stroke="#000000" points="43,-162.5 43,-192.5 383,-192.5 383,-162.5 43,-162.5"/>
<text text-anchor="start" x="49.6445" y="-173.9" font-family="Arial" font-size="14.00" fill="#000000">cloud_resource_type_description    </text>
<text text-anchor="start" x="289.2363" y="-173.9" font-family="Arial" font-size="14.00" fill="#666666">[varchar(512)]</text>
<polygon fill="none" stroke="#000000" points="43,-132.5 43,-162.5 383,-162.5 383,-132.5 43,-132.5"/>
<text text-anchor="start" x="50" y="-143.9" font-family="Arial" font-size="14.00" fill="#000000">cloud_account_provider_id    </text>
<text text-anchor="start" x="251.4754" y="-143.9" font-family="Arial" font-size="14.00" fill="#666666">[integer]</text>
<polygon fill="none" stroke="#000000" points="43,-102.5 43,-132.5 383,-132.5 383,-102.5 43,-102.5"/>
<text text-anchor="start" x="50" y="-113.9" font-family="Arial" font-size="14.00" fill="#000000">stackcash_cost    </text>
<text text-anchor="start" x="179.899" y="-113.9" font-family="Arial" font-size="14.00" fill="#666666">[numeric(7,2)]</text>
<polygon fill="none" stroke="#000000" points="43,-72.5 43,-102.5 383,-102.5 383,-72.5 43,-72.5"/>
<text text-anchor="start" x="50" y="-83.9" font-family="Arial" font-size="14.00" fill="#000000">ts_created    </text>
<text text-anchor="start" x="149.5596" y="-83.9" font-family="Arial" font-size="14.00" fill="#666666">[timestamp without time zone]</text>
<polygon fill="none" stroke="#000000" points="43,-42.5 43,-72.5 383,-72.5 383,-42.5 43,-42.5"/>
<text text-anchor="start" x="50" y="-53.9" font-family="Arial" font-size="14.00" fill="#000000">ts_modified    </text>
<text text-anchor="start" x="155.7728" y="-53.9" font-family="Arial" font-size="14.00" fill="#666666">[timestamp without time zone]</text>
</g>
<!-- sr.cloud_resource&#45;&gt;sr.cloud_resource_type -->
<g id="edge1" class="edge">
<title>sr.cloud_resource:cloud_resource_type_id&#45;&gt;sr.cloud_resource_type:cloud_resource_type_id</title>
<path fill="none" stroke="#000000" d="M364.8674,-605.6837C439.5684,-577.7709 462.0753,-237.5 383,-237.5"/>
<polygon fill="#000000" stroke="#000000" points="364.8348,-605.6897 354.1853,-603.0743 359.9174,-606.5948 355,-607.5 355,-607.5 355,-607.5 359.9174,-606.5948 355.8147,-611.9257 364.8348,-605.6897 364.8348,-605.6897"/>
<text text-anchor="start" x="361.7405" y="-617.5" font-family="Arial" font-size="10.00" fill="#000000">FOREIGN KEY (cloud_resource_type_id) REFERENCES sr.cloud_resource_type(cloud_resource_type_id)</text>
</g>
</g>
</svg>
