<?xml version="1.0" encoding="UTF-8" standalone="no"?>
<!DOCTYPE svg PUBLIC "-//W3C//DTD SVG 1.1//EN"
 "http://www.w3.org/Graphics/SVG/1.1/DTD/svg11.dtd">
<!-- Generated by graphviz version 2.40.1 (20161225.0304)
 -->
<!-- Title: sr.cloud_account_access_level Pages: 1 -->
<svg width="1006pt" height="652pt"
 viewBox="0.00 0.00 1006.00 652.00" xmlns="http://www.w3.org/2000/svg" xmlns:xlink="http://www.w3.org/1999/xlink">
<g id="graph0" class="graph" transform="scale(1 1) rotate(0) translate(4 648)">
<title>sr.cloud_account_access_level</title>
<polygon fill="#ffffff" stroke="transparent" points="-4,4 -4,-648 1002,-648 1002,4 -4,4"/>
<!-- sr.cloud_account_access_level -->
<g id="node1" class="node">
<title>sr.cloud_account_access_level</title>
<polygon fill="#efefef" stroke="transparent" points="46,-195.5 46,-230.5 436,-230.5 436,-195.5 46,-195.5"/>
<polygon fill="none" stroke="#000000" points="46,-195.5 46,-230.5 436,-230.5 436,-195.5 46,-195.5"/>
<text text-anchor="start" x="52.683" y="-208.3" font-family="Arial Bold" font-size="18.00" fill="#000000">sr.cloud_account_access_level</text>
<text text-anchor="start" x="301.749" y="-208.3" font-family="Arial" font-size="14.00" fill="#000000">    </text>
<text text-anchor="start" x="335.9538" y="-208.3" font-family="Arial" font-size="14.00" fill="#666666">[BASE TABLE]</text>
<polygon fill="none" stroke="#000000" points="46,-165.5 46,-195.5 436,-195.5 436,-165.5 46,-165.5"/>
<text text-anchor="start" x="53" y="-176.9" font-family="Arial" font-size="14.00" fill="#000000">cloud_account_access_level_id </text>
<text text-anchor="start" x="253.7292" y="-176.9" font-family="Arial" font-size="14.00" fill="#666666">[integer]</text>
<polygon fill="none" stroke="#000000" points="46,-135.5 46,-165.5 436,-165.5 436,-135.5 46,-135.5"/>
<text text-anchor="start" x="53" y="-146.9" font-family="Arial" font-size="14.00" fill="#000000">cloud_account_access_level_name </text>
<text text-anchor="start" x="277.8484" y="-146.9" font-family="Arial" font-size="14.00" fill="#666666">[varchar(50)]</text>
<polygon fill="none" stroke="#000000" points="46,-105.5 46,-135.5 436,-135.5 436,-105.5 46,-105.5"/>
<text text-anchor="start" x="53" y="-116.9" font-family="Arial" font-size="14.00" fill="#000000">cloud_account_access_level_description </text>
<text text-anchor="start" x="310.5174" y="-116.9" font-family="Arial" font-size="14.00" fill="#666666">[varchar(512)]</text>
<polygon fill="none" stroke="#000000" points="46,-75.5 46,-105.5 436,-105.5 436,-75.5 46,-75.5"/>
<text text-anchor="start" x="53" y="-86.9" font-family="Arial" font-size="14.00" fill="#000000">ts_created </text>
<text text-anchor="start" x="122.2454" y="-86.9" font-family="Arial" font-size="14.00" fill="#666666">[timestamp without time zone]</text>
<polygon fill="none" stroke="#000000" points="46,-45.5 46,-75.5 436,-75.5 436,-45.5 46,-45.5"/>
<text text-anchor="start" x="53" y="-56.9" font-family="Arial" font-size="14.00" fill="#000000">ts_modified </text>
<text text-anchor="start" x="128.4586" y="-56.9" font-family="Arial" font-size="14.00" fill="#666666">[timestamp without time zone]</text>
<polygon fill="none" stroke="#000000" stroke-width="3" points="44.5,-44.5 44.5,-232.5 437.5,-232.5 437.5,-44.5 44.5,-44.5"/>
</g>
<!-- sr.cloud_account_group -->
<g id="node2" class="node">
<title>sr.cloud_account_group</title>
<polygon fill="#efefef" stroke="transparent" points="74,-565.5 74,-600.5 407,-600.5 407,-565.5 74,-565.5"/>
<polygon fill="none" stroke="#000000" points="74,-565.5 74,-600.5 407,-600.5 407,-565.5 74,-565.5"/>
<text text-anchor="start" x="80.6842" y="-578.3" font-family="Arial Bold" font-size="18.00" fill="#000000">sr.cloud_account_group</text>
<text text-anchor="start" x="272.7478" y="-578.3" font-family="Arial" font-size="14.00" fill="#000000">    </text>
<text text-anchor="start" x="306.9526" y="-578.3" font-family="Arial" font-size="14.00" fill="#666666">[BASE TABLE]</text>
<polygon fill="none" stroke="#000000" points="74,-535.5 74,-565.5 407,-565.5 407,-535.5 74,-535.5"/>
<text text-anchor="start" x="81" y="-546.9" font-family="Arial" font-size="14.00" fill="#000000">cloud_account_group_uuid    </text>
<text text-anchor="start" x="283.2734" y="-546.9" font-family="Arial" font-size="14.00" fill="#666666">[uuid]</text>
<polygon fill="none" stroke="#000000" points="74,-505.5 74,-535.5 407,-535.5 407,-505.5 74,-505.5"/>
<text text-anchor="start" x="81" y="-516.9" font-family="Arial" font-size="14.00" fill="#000000">cloud_account_group_id    </text>
<text text-anchor="start" x="267.7082" y="-516.9" font-family="Arial" font-size="14.00" fill="#666666">[varchar(250)]</text>
<polygon fill="none" stroke="#000000" points="74,-475.5 74,-505.5 407,-505.5 407,-475.5 74,-475.5"/>
<text text-anchor="start" x="81" y="-486.9" font-family="Arial" font-size="14.00" fill="#000000">cloud_account_group_name    </text>
<text text-anchor="start" x="291.8274" y="-486.9" font-family="Arial" font-size="14.00" fill="#666666">[varchar(250)]</text>
<polygon fill="none" stroke="#000000" points="74,-445.5 74,-475.5 407,-475.5 407,-445.5 74,-445.5"/>
<text text-anchor="start" x="81" y="-456.9" font-family="Arial" font-size="14.00" fill="#000000">cloud_account_uuid    </text>
<text text-anchor="start" x="239.6998" y="-456.9" font-family="Arial" font-size="14.00" fill="#666666">[uuid]</text>
<polygon fill="none" stroke="#000000" points="74,-415.5 74,-445.5 407,-445.5 407,-415.5 74,-415.5"/>
<text text-anchor="start" x="81" y="-426.9" font-family="Arial" font-size="14.00" fill="#000000">cloud_account_access_level_id    </text>
<text text-anchor="start" x="312.0434" y="-426.9" font-family="Arial" font-size="14.00" fill="#666666">[integer]</text>
<polygon fill="none" stroke="#000000" points="74,-385.5 74,-415.5 407,-415.5 407,-385.5 74,-385.5"/>
<text text-anchor="start" x="81" y="-396.9" font-family="Arial" font-size="14.00" fill="#000000">ts_created    </text>
<text text-anchor="start" x="180.5596" y="-396.9" font-family="Arial" font-size="14.00" fill="#666666">[timestamp without time zone]</text>
<polygon fill="none" stroke="#000000" points="74,-355.5 74,-385.5 407,-385.5 407,-355.5 74,-355.5"/>
<text text-anchor="start" x="81" y="-366.9" font-family="Arial" font-size="14.00" fill="#000000">ts_modified    </text>
<text text-anchor="start" x="186.7728" y="-366.9" font-family="Arial" font-size="14.00" fill="#666666">[timestamp without time zone]</text>
</g>
<!-- sr.cloud_account_group&#45;&gt;sr.cloud_account_access_level -->
<g id="edge1" class="edge">
<title>sr.cloud_account_group:cloud_account_access_level_id&#45;&gt;sr.cloud_account_access_level:cloud_account_access_level_id</title>
<path fill="none" stroke="#000000" d="M417.0043,-429.3728C456.7186,-419.619 439.5825,-348.9933 407,-313 352.8953,-253.2314 100.1047,-336.7686 46,-277 17.217,-245.2039 3.1111,-180.5 46,-180.5"/>
<polygon fill="#000000" stroke="#000000" points="416.9371,-429.3803 406.4961,-426.0283 411.9686,-429.9401 407,-430.5 407,-430.5 407,-430.5 411.9686,-429.9401 407.5039,-434.9717 416.9371,-429.3803 416.9371,-429.3803"/>
<text text-anchor="start" x="414.055" y="-440.5" font-family="Arial" font-size="10.00" fill="#000000">FOREIGN KEY (cloud_account_access_level_id) REFERENCES sr.cloud_account_access_level(cloud_account_access_level_id)</text>
</g>
</g>
</svg>
