<?xml version="1.0" encoding="UTF-8" standalone="no"?>
<!DOCTYPE svg PUBLIC "-//W3C//DTD SVG 1.1//EN"
 "http://www.w3.org/Graphics/SVG/1.1/DTD/svg11.dtd">
<!-- Generated by graphviz version 2.40.1 (20161225.0304)
 -->
<!-- Title: sr.cloud_account_group Pages: 1 -->
<svg width="1489pt" height="1079pt"
 viewBox="0.00 0.00 1489.00 1079.00" xmlns="http://www.w3.org/2000/svg" xmlns:xlink="http://www.w3.org/1999/xlink">
<g id="graph0" class="graph" transform="scale(1 1) rotate(0) translate(4 1075)">
<title>sr.cloud_account_group</title>
<polygon fill="#ffffff" stroke="transparent" points="-4,4 -4,-1075 1485,-1075 1485,4 -4,4"/>
<!-- sr.cloud_account_group -->
<g id="node1" class="node">
<title>sr.cloud_account_group</title>
<polygon fill="#efefef" stroke="transparent" points="557,-682.5 557,-717.5 890,-717.5 890,-682.5 557,-682.5"/>
<polygon fill="none" stroke="#000000" points="557,-682.5 557,-717.5 890,-717.5 890,-682.5 557,-682.5"/>
<text text-anchor="start" x="563.6842" y="-695.3" font-family="Arial Bold" font-size="18.00" fill="#000000">sr.cloud_account_group</text>
<text text-anchor="start" x="755.7478" y="-695.3" font-family="Arial" font-size="14.00" fill="#000000">    </text>
<text text-anchor="start" x="789.9526" y="-695.3" font-family="Arial" font-size="14.00" fill="#666666">[BASE TABLE]</text>
<polygon fill="none" stroke="#000000" points="557,-652.5 557,-682.5 890,-682.5 890,-652.5 557,-652.5"/>
<text text-anchor="start" x="564" y="-663.9" font-family="Arial" font-size="14.00" fill="#000000">cloud_account_group_uuid </text>
<text text-anchor="start" x="735.9592" y="-663.9" font-family="Arial" font-size="14.00" fill="#666666">[uuid]</text>
<polygon fill="none" stroke="#000000" points="557,-622.5 557,-652.5 890,-652.5 890,-622.5 557,-622.5"/>
<text text-anchor="start" x="564" y="-633.9" font-family="Arial" font-size="14.00" fill="#000000">cloud_account_group_id </text>
<text text-anchor="start" x="720.394" y="-633.9" font-family="Arial" font-size="14.00" fill="#666666">[varchar(250)]</text>
<polygon fill="none" stroke="#000000" points="557,-592.5 557,-622.5 890,-622.5 890,-592.5 557,-592.5"/>
<text text-anchor="start" x="564" y="-603.9" font-family="Arial" font-size="14.00" fill="#000000">cloud_account_group_name </text>
<text text-anchor="start" x="744.5132" y="-603.9" font-family="Arial" font-size="14.00" fill="#666666">[varchar(250)]</text>
<polygon fill="none" stroke="#000000" points="557,-562.5 557,-592.5 890,-592.5 890,-562.5 557,-562.5"/>
<text text-anchor="start" x="564" y="-573.9" font-family="Arial" font-size="14.00" fill="#000000">cloud_account_uuid </text>
<text text-anchor="start" x="692.3856" y="-573.9" font-family="Arial" font-size="14.00" fill="#666666">[uuid]</text>
<polygon fill="none" stroke="#000000" points="557,-532.5 557,-562.5 890,-562.5 890,-532.5 557,-532.5"/>
<text text-anchor="start" x="564" y="-543.9" font-family="Arial" font-size="14.00" fill="#000000">cloud_account_access_level_id </text>
<text text-anchor="start" x="764.7292" y="-543.9" font-family="Arial" font-size="14.00" fill="#666666">[integer]</text>
<polygon fill="none" stroke="#000000" points="557,-502.5 557,-532.5 890,-532.5 890,-502.5 557,-502.5"/>
<text text-anchor="start" x="564" y="-513.9" font-family="Arial" font-size="14.00" fill="#000000">ts_created </text>
<text text-anchor="start" x="633.2454" y="-513.9" font-family="Arial" font-size="14.00" fill="#666666">[timestamp without time zone]</text>
<polygon fill="none" stroke="#000000" points="557,-472.5 557,-502.5 890,-502.5 890,-472.5 557,-472.5"/>
<text text-anchor="start" x="564" y="-483.9" font-family="Arial" font-size="14.00" fill="#000000">ts_modified </text>
<text text-anchor="start" x="639.4586" y="-483.9" font-family="Arial" font-size="14.00" fill="#666666">[timestamp without time zone]</text>
<polygon fill="none" stroke="#000000" stroke-width="3" points="555,-471.5 555,-719.5 891,-719.5 891,-471.5 555,-471.5"/>
</g>
<!-- sr.cloud_account -->
<g id="node3" class="node">
<title>sr.cloud_account</title>
<polygon fill="#efefef" stroke="transparent" points="266,-312.5 266,-347.5 678,-347.5 678,-312.5 266,-312.5"/>
<polygon fill="none" stroke="#000000" points="266,-312.5 266,-347.5 678,-347.5 678,-312.5 266,-312.5"/>
<text text-anchor="start" x="340.1958" y="-325.3" font-family="Arial Bold" font-size="18.00" fill="#000000">sr.cloud_account</text>
<text text-anchor="start" x="476.2362" y="-325.3" font-family="Arial" font-size="14.00" fill="#000000">    </text>
<text text-anchor="start" x="510.441" y="-325.3" font-family="Arial" font-size="14.00" fill="#666666">[BASE TABLE]</text>
<polygon fill="none" stroke="#000000" points="266,-282.5 266,-312.5 678,-312.5 678,-282.5 266,-282.5"/>
<text text-anchor="start" x="273" y="-293.9" font-family="Arial" font-size="14.00" fill="#000000">cloud_account_uuid    </text>
<text text-anchor="start" x="431.6998" y="-293.9" font-family="Arial" font-size="14.00" fill="#666666">[uuid]</text>
<polygon fill="none" stroke="#000000" points="266,-252.5 266,-282.5 678,-282.5 678,-252.5 266,-252.5"/>
<text text-anchor="start" x="273" y="-263.9" font-family="Arial" font-size="14.00" fill="#000000">cloud_account_cloud_id    </text>
<text text-anchor="start" x="457.3716" y="-263.9" font-family="Arial" font-size="14.00" fill="#666666">[varchar(100)]</text>
<polygon fill="none" stroke="#000000" points="266,-222.5 266,-252.5 678,-252.5 678,-222.5 266,-222.5"/>
<text text-anchor="start" x="273" y="-233.9" font-family="Arial" font-size="14.00" fill="#000000">cloud_account_provider_id    </text>
<text text-anchor="start" x="474.4754" y="-233.9" font-family="Arial" font-size="14.00" fill="#666666">[integer]</text>
<polygon fill="none" stroke="#000000" points="266,-192.5 266,-222.5 678,-222.5 678,-192.5 266,-192.5"/>
<text text-anchor="start" x="273" y="-203.9" font-family="Arial" font-size="14.00" fill="#000000">cloud_account_name    </text>
<text text-anchor="start" x="440.2538" y="-203.9" font-family="Arial" font-size="14.00" fill="#666666">[varchar(50)]</text>
<polygon fill="none" stroke="#000000" points="266,-162.5 266,-192.5 678,-192.5 678,-162.5 266,-162.5"/>
<text text-anchor="start" x="273" y="-173.9" font-family="Arial" font-size="14.00" fill="#000000">cloud_account_status_id    </text>
<text text-anchor="start" x="461.2636" y="-173.9" font-family="Arial" font-size="14.00" fill="#666666">[integer]</text>
<polygon fill="none" stroke="#000000" points="266,-132.5 266,-162.5 678,-162.5 678,-132.5 266,-132.5"/>
<text text-anchor="start" x="273" y="-143.9" font-family="Arial" font-size="14.00" fill="#000000">cloud_account_owner_uuid    </text>
<text text-anchor="start" x="477.5974" y="-143.9" font-family="Arial" font-size="14.00" fill="#666666">[uuid]</text>
<polygon fill="none" stroke="#000000" points="266,-102.5 266,-132.5 678,-132.5 678,-102.5 266,-102.5"/>
<text text-anchor="start" x="272.8374" y="-113.9" font-family="Arial" font-size="14.00" fill="#000000">cloud_account_owner_type    </text>
<text text-anchor="start" x="477.4362" y="-113.9" font-family="Arial" font-size="14.00" fill="#666666">[sr.cloud_account_owner_type]</text>
<polygon fill="none" stroke="#000000" points="266,-72.5 266,-102.5 678,-102.5 678,-72.5 266,-72.5"/>
<text text-anchor="start" x="273" y="-83.9" font-family="Arial" font-size="14.00" fill="#000000">ts_created    </text>
<text text-anchor="start" x="372.5596" y="-83.9" font-family="Arial" font-size="14.00" fill="#666666">[timestamp without time zone]</text>
<polygon fill="none" stroke="#000000" points="266,-42.5 266,-72.5 678,-72.5 678,-42.5 266,-42.5"/>
<text text-anchor="start" x="273" y="-53.9" font-family="Arial" font-size="14.00" fill="#000000">ts_modified    </text>
<text text-anchor="start" x="378.7728" y="-53.9" font-family="Arial" font-size="14.00" fill="#666666">[timestamp without time zone]</text>
</g>
<!-- sr.cloud_account_group&#45;&gt;sr.cloud_account -->
<g id="edge2" class="edge">
<title>sr.cloud_account_group:cloud_account_uuid&#45;&gt;sr.cloud_account:cloud_account_uuid</title>
<path fill="none" stroke="#000000" d="M546.8543,-576.6537C493.0924,-567.033 519.1978,-477.6867 557,-427 590.5435,-382.0235 644.4565,-435.9765 678,-391 702.8437,-357.6885 719.5556,-297.5 678,-297.5"/>
<polygon fill="#000000" stroke="#000000" points="547.0346,-576.6686 556.6259,-581.9844 552.0173,-577.0843 557,-577.5 557,-577.5 557,-577.5 552.0173,-577.0843 557.3741,-573.0156 547.0346,-576.6686 547.0346,-576.6686"/>
<text text-anchor="start" x="139.125" y="-587.5" font-family="Arial" font-size="10.00" fill="#000000">FOREIGN KEY (cloud_account_uuid) REFERENCES sr.cloud_account(cloud_account_uuid)</text>
</g>
<!-- sr.cloud_account_access_level -->
<g id="node4" class="node">
<title>sr.cloud_account_access_level</title>
<polygon fill="#efefef" stroke="transparent" points="782,-252.5 782,-287.5 1172,-287.5 1172,-252.5 782,-252.5"/>
<polygon fill="none" stroke="#000000" points="782,-252.5 782,-287.5 1172,-287.5 1172,-252.5 782,-252.5"/>
<text text-anchor="start" x="788.683" y="-265.3" font-family="Arial Bold" font-size="18.00" fill="#000000">sr.cloud_account_access_level</text>
<text text-anchor="start" x="1037.749" y="-265.3" font-family="Arial" font-size="14.00" fill="#000000">    </text>
<text text-anchor="start" x="1071.9538" y="-265.3" font-family="Arial" font-size="14.00" fill="#666666">[BASE TABLE]</text>
<polygon fill="none" stroke="#000000" points="782,-222.5 782,-252.5 1172,-252.5 1172,-222.5 782,-222.5"/>
<text text-anchor="start" x="789" y="-233.9" font-family="Arial" font-size="14.00" fill="#000000">cloud_account_access_level_id    </text>
<text text-anchor="start" x="1020.0434" y="-233.9" font-family="Arial" font-size="14.00" fill="#666666">[integer]</text>
<polygon fill="none" stroke="#000000" points="782,-192.5 782,-222.5 1172,-222.5 1172,-192.5 782,-192.5"/>
<text text-anchor="start" x="789" y="-203.9" font-family="Arial" font-size="14.00" fill="#000000">cloud_account_access_level_name    </text>
<text text-anchor="start" x="1044.1626" y="-203.9" font-family="Arial" font-size="14.00" fill="#666666">[varchar(50)]</text>
<polygon fill="none" stroke="#000000" points="782,-162.5 782,-192.5 1172,-192.5 1172,-162.5 782,-162.5"/>
<text text-anchor="start" x="789" y="-173.9" font-family="Arial" font-size="14.00" fill="#000000">cloud_account_access_level_description    </text>
<text text-anchor="start" x="1076.8316" y="-173.9" font-family="Arial" font-size="14.00" fill="#666666">[varchar(512)]</text>
<polygon fill="none" stroke="#000000" points="782,-132.5 782,-162.5 1172,-162.5 1172,-132.5 782,-132.5"/>
<text text-anchor="start" x="789" y="-143.9" font-family="Arial" font-size="14.00" fill="#000000">ts_created    </text>
<text text-anchor="start" x="888.5596" y="-143.9" font-family="Arial" font-size="14.00" fill="#666666">[timestamp without time zone]</text>
<polygon fill="none" stroke="#000000" points="782,-102.5 782,-132.5 1172,-132.5 1172,-102.5 782,-102.5"/>
<text text-anchor="start" x="789" y="-113.9" font-family="Arial" font-size="14.00" fill="#000000">ts_modified    </text>
<text text-anchor="start" x="894.7728" y="-113.9" font-family="Arial" font-size="14.00" fill="#666666">[timestamp without time zone]</text>
</g>
<!-- sr.cloud_account_group&#45;&gt;sr.cloud_account_access_level -->
<g id="edge3" class="edge">
<title>sr.cloud_account_group:cloud_account_access_level_id&#45;&gt;sr.cloud_account_access_level:cloud_account_access_level_id</title>
<path fill="none" stroke="#000000" d="M900.0666,-546.4702C939.1574,-537.5377 910.3967,-472.4204 890,-427 863.6911,-368.4143 808.3089,-389.5857 782,-331 764.9765,-293.0914 740.4444,-237.5 782,-237.5"/>
<polygon fill="#000000" stroke="#000000" points="899.9481,-546.4823 889.542,-543.0234 894.974,-546.9911 890,-547.5 890,-547.5 890,-547.5 894.974,-546.9911 890.458,-551.9766 899.9481,-546.4823 899.9481,-546.4823"/>
<text text-anchor="start" x="897.055" y="-557.5" font-family="Arial" font-size="10.00" fill="#000000">FOREIGN KEY (cloud_account_access_level_id) REFERENCES sr.cloud_account_access_level(cloud_account_access_level_id)</text>
</g>
<!-- sr.cloud_account_group_member -->
<g id="node2" class="node">
<title>sr.cloud_account_group_member</title>
<polygon fill="#efefef" stroke="transparent" points="519,-992.5 519,-1027.5 928,-1027.5 928,-992.5 519,-992.5"/>
<polygon fill="none" stroke="#000000" points="519,-992.5 519,-1027.5 928,-1027.5 928,-992.5 519,-992.5"/>
<text text-anchor="start" x="525.6835" y="-1005.3" font-family="Arial Bold" font-size="18.00" fill="#000000">sr.cloud_account_group_member</text>
<text text-anchor="start" x="793.7485" y="-1005.3" font-family="Arial" font-size="14.00" fill="#000000">    </text>
<text text-anchor="start" x="827.9533" y="-1005.3" font-family="Arial" font-size="14.00" fill="#666666">[BASE TABLE]</text>
<polygon fill="none" stroke="#000000" points="519,-962.5 519,-992.5 928,-992.5 928,-962.5 519,-962.5"/>
<text text-anchor="start" x="526" y="-973.9" font-family="Arial" font-size="14.00" fill="#000000">cloud_account_group_member_uuid    </text>
<text text-anchor="start" x="787.3856" y="-973.9" font-family="Arial" font-size="14.00" fill="#666666">[uuid]</text>
<polygon fill="none" stroke="#000000" points="519,-932.5 519,-962.5 928,-962.5 928,-932.5 519,-932.5"/>
<text text-anchor="start" x="526" y="-943.9" font-family="Arial" font-size="14.00" fill="#000000">cloud_account_group_uuid    </text>
<text text-anchor="start" x="728.2734" y="-943.9" font-family="Arial" font-size="14.00" fill="#666666">[uuid]</text>
<polygon fill="none" stroke="#000000" points="519,-902.5 519,-932.5 928,-932.5 928,-902.5 519,-902.5"/>
<text text-anchor="start" x="526" y="-913.9" font-family="Arial" font-size="14.00" fill="#000000">cloud_account_user_uuid    </text>
<text text-anchor="start" x="719.7082" y="-913.9" font-family="Arial" font-size="14.00" fill="#666666">[uuid]</text>
<polygon fill="none" stroke="#000000" points="519,-872.5 519,-902.5 928,-902.5 928,-872.5 519,-872.5"/>
<text text-anchor="start" x="526" y="-883.9" font-family="Arial" font-size="14.00" fill="#000000">ts_created    </text>
<text text-anchor="start" x="625.5596" y="-883.9" font-family="Arial" font-size="14.00" fill="#666666">[timestamp without time zone]</text>
<polygon fill="none" stroke="#000000" points="519,-842.5 519,-872.5 928,-872.5 928,-842.5 519,-842.5"/>
<text text-anchor="start" x="526" y="-853.9" font-family="Arial" font-size="14.00" fill="#000000">ts_modified    </text>
<text text-anchor="start" x="631.7728" y="-853.9" font-family="Arial" font-size="14.00" fill="#666666">[timestamp without time zone]</text>
</g>
<!-- sr.cloud_account_group_member&#45;&gt;sr.cloud_account_group -->
<g id="edge1" class="edge">
<title>sr.cloud_account_group_member:cloud_account_group_uuid&#45;&gt;sr.cloud_account_group:cloud_account_group_uuid</title>
<path fill="none" stroke="#000000" d="M508.722,-946.839C395.6373,-931.8652 434.9714,-667.5 557,-667.5"/>
<polygon fill="#000000" stroke="#000000" points="509.0206,-946.8581 518.7112,-951.9907 514.0103,-947.1791 519,-947.5 519,-947.5 519,-947.5 514.0103,-947.1791 519.2888,-943.0093 509.0206,-946.8581 509.0206,-946.8581"/>
<text text-anchor="start" x="7.439" y="-957.5" font-family="Arial" font-size="10.00" fill="#000000">FOREIGN KEY (cloud_account_group_uuid) REFERENCES sr.cloud_account_group(cloud_account_group_uuid)</text>
</g>
</g>
</svg>
