<?xml version="1.0" encoding="UTF-8" standalone="no"?>
<!DOCTYPE svg PUBLIC "-//W3C//DTD SVG 1.1//EN"
 "http://www.w3.org/Graphics/SVG/1.1/DTD/svg11.dtd">
<!-- Generated by graphviz version 2.40.1 (20161225.0304)
 -->
<!-- Title: sr.cloud_account_user Pages: 1 -->
<svg width="1170pt" height="1229pt"
 viewBox="0.00 0.00 1170.00 1229.00" xmlns="http://www.w3.org/2000/svg" xmlns:xlink="http://www.w3.org/1999/xlink">
<g id="graph0" class="graph" transform="scale(1 1) rotate(0) translate(4 1225)">
<title>sr.cloud_account_user</title>
<polygon fill="#ffffff" stroke="transparent" points="-4,4 -4,-1225 1166,-1225 1166,4 -4,4"/>
<!-- sr.cloud_account_user -->
<g id="node1" class="node">
<title>sr.cloud_account_user</title>
<polygon fill="#efefef" stroke="transparent" points="297,-832.5 297,-867.5 619,-867.5 619,-832.5 297,-832.5"/>
<polygon fill="none" stroke="#000000" points="297,-832.5 297,-867.5 619,-867.5 619,-832.5 297,-832.5"/>
<text text-anchor="start" x="303.6904" y="-845.3" font-family="Arial Bold" font-size="18.00" fill="#000000">sr.cloud_account_user</text>
<text text-anchor="start" x="484.7416" y="-845.3" font-family="Arial" font-size="14.00" fill="#000000">    </text>
<text text-anchor="start" x="518.9464" y="-845.3" font-family="Arial" font-size="14.00" fill="#666666">[BASE TABLE]</text>
<polygon fill="none" stroke="#000000" points="297,-802.5 297,-832.5 619,-832.5 619,-802.5 297,-802.5"/>
<text text-anchor="start" x="304" y="-813.9" font-family="Arial" font-size="14.00" fill="#000000">cloud_account_user_uuid </text>
<text text-anchor="start" x="467.394" y="-813.9" font-family="Arial" font-size="14.00" fill="#666666">[uuid]</text>
<polygon fill="none" stroke="#000000" points="297,-772.5 297,-802.5 619,-802.5 619,-772.5 297,-772.5"/>
<text text-anchor="start" x="304" y="-783.9" font-family="Arial" font-size="14.00" fill="#000000">user_uuid </text>
<text text-anchor="start" x="369.3534" y="-783.9" font-family="Arial" font-size="14.00" fill="#666666">[uuid]</text>
<polygon fill="none" stroke="#000000" points="297,-742.5 297,-772.5 619,-772.5 619,-742.5 297,-742.5"/>
<text text-anchor="start" x="304" y="-753.9" font-family="Arial" font-size="14.00" fill="#000000">cloud_account_uuid </text>
<text text-anchor="start" x="432.3856" y="-753.9" font-family="Arial" font-size="14.00" fill="#666666">[uuid]</text>
<polygon fill="none" stroke="#000000" points="297,-712.5 297,-742.5 619,-742.5 619,-712.5 297,-712.5"/>
<text text-anchor="start" x="304" y="-723.9" font-family="Arial" font-size="14.00" fill="#000000">cloud_account_user_id </text>
<text text-anchor="start" x="451.8288" y="-723.9" font-family="Arial" font-size="14.00" fill="#666666">[varchar(250)]</text>
<polygon fill="none" stroke="#000000" points="297,-682.5 297,-712.5 619,-712.5 619,-682.5 297,-682.5"/>
<text text-anchor="start" x="304" y="-693.9" font-family="Arial" font-size="14.00" fill="#000000">ts_created </text>
<text text-anchor="start" x="373.2454" y="-693.9" font-family="Arial" font-size="14.00" fill="#666666">[timestamp without time zone]</text>
<polygon fill="none" stroke="#000000" points="297,-652.5 297,-682.5 619,-682.5 619,-652.5 297,-652.5"/>
<text text-anchor="start" x="304" y="-663.9" font-family="Arial" font-size="14.00" fill="#000000">ts_modified </text>
<text text-anchor="start" x="379.4586" y="-663.9" font-family="Arial" font-size="14.00" fill="#666666">[timestamp without time zone]</text>
<polygon fill="none" stroke="#000000" stroke-width="3" points="295.5,-651.5 295.5,-869.5 620.5,-869.5 620.5,-651.5 295.5,-651.5"/>
</g>
<!-- sr.user -->
<g id="node3" class="node">
<title>sr.user</title>
<polygon fill="#efefef" stroke="transparent" points="70,-492.5 70,-527.5 381,-527.5 381,-492.5 70,-492.5"/>
<polygon fill="none" stroke="#000000" points="70,-492.5 70,-527.5 381,-527.5 381,-492.5 70,-492.5"/>
<text text-anchor="start" x="134.2165" y="-505.3" font-family="Arial Bold" font-size="18.00" fill="#000000">sr.user</text>
<text text-anchor="start" x="189.2155" y="-505.3" font-family="Arial" font-size="14.00" fill="#000000">    </text>
<text text-anchor="start" x="223.4203" y="-505.3" font-family="Arial" font-size="14.00" fill="#666666">[BASE TABLE]</text>
<polygon fill="none" stroke="#000000" points="70,-462.5 70,-492.5 381,-492.5 381,-462.5 70,-462.5"/>
<text text-anchor="start" x="77" y="-473.9" font-family="Arial" font-size="14.00" fill="#000000">user_uuid    </text>
<text text-anchor="start" x="172.6676" y="-473.9" font-family="Arial" font-size="14.00" fill="#666666">[uuid]</text>
<polygon fill="none" stroke="#000000" points="70,-432.5 70,-462.5 381,-462.5 381,-432.5 70,-432.5"/>
<text text-anchor="start" x="77" y="-443.9" font-family="Arial" font-size="14.00" fill="#000000">email_address    </text>
<text text-anchor="start" x="202.2174" y="-443.9" font-family="Arial" font-size="14.00" fill="#666666">[varchar(100)]</text>
<polygon fill="none" stroke="#000000" points="70,-402.5 70,-432.5 381,-432.5 381,-402.5 70,-402.5"/>
<text text-anchor="start" x="77" y="-413.9" font-family="Arial" font-size="14.00" fill="#000000">organization_uuid    </text>
<text text-anchor="start" x="221.6844" y="-413.9" font-family="Arial" font-size="14.00" fill="#666666">[uuid]</text>
<polygon fill="none" stroke="#000000" points="70,-372.5 70,-402.5 381,-402.5 381,-372.5 70,-372.5"/>
<text text-anchor="start" x="77" y="-383.9" font-family="Arial" font-size="14.00" fill="#000000">auth_provider_id    </text>
<text text-anchor="start" x="215.4558" y="-383.9" font-family="Arial" font-size="14.00" fill="#666666">[varchar(100)]</text>
<polygon fill="none" stroke="#000000" points="70,-342.5 70,-372.5 381,-372.5 381,-342.5 70,-342.5"/>
<text text-anchor="start" x="77" y="-353.9" font-family="Arial" font-size="14.00" fill="#000000">first_name    </text>
<text text-anchor="start" x="176.5442" y="-353.9" font-family="Arial" font-size="14.00" fill="#666666">[varchar(100)]</text>
<polygon fill="none" stroke="#000000" points="70,-312.5 70,-342.5 381,-342.5 381,-312.5 70,-312.5"/>
<text text-anchor="start" x="77" y="-323.9" font-family="Arial" font-size="14.00" fill="#000000">last_name    </text>
<text text-anchor="start" x="175.7756" y="-323.9" font-family="Arial" font-size="14.00" fill="#666666">[varchar(100)]</text>
<polygon fill="none" stroke="#000000" points="70,-282.5 70,-312.5 381,-312.5 381,-282.5 70,-282.5"/>
<text text-anchor="start" x="77" y="-293.9" font-family="Arial" font-size="14.00" fill="#000000">phone    </text>
<text text-anchor="start" x="150.1178" y="-293.9" font-family="Arial" font-size="14.00" fill="#666666">[varchar(20)]</text>
<polygon fill="none" stroke="#000000" points="70,-252.5 70,-282.5 381,-282.5 381,-252.5 70,-252.5"/>
<text text-anchor="start" x="77" y="-263.9" font-family="Arial" font-size="14.00" fill="#000000">email_verified    </text>
<text text-anchor="start" x="197.5386" y="-263.9" font-family="Arial" font-size="14.00" fill="#666666">[boolean]</text>
<polygon fill="none" stroke="#000000" points="70,-222.5 70,-252.5 381,-252.5 381,-222.5 70,-222.5"/>
<text text-anchor="start" x="77" y="-233.9" font-family="Arial" font-size="14.00" fill="#000000">registered    </text>
<text text-anchor="start" x="173.4362" y="-233.9" font-family="Arial" font-size="14.00" fill="#666666">[boolean]</text>
<polygon fill="none" stroke="#000000" points="70,-192.5 70,-222.5 381,-222.5 381,-192.5 70,-192.5"/>
<text text-anchor="start" x="77" y="-203.9" font-family="Arial" font-size="14.00" fill="#000000">settings    </text>
<text text-anchor="start" x="159.4404" y="-203.9" font-family="Arial" font-size="14.00" fill="#666666">[jsonb]</text>
<polygon fill="none" stroke="#000000" points="70,-162.5 70,-192.5 381,-192.5 381,-162.5 70,-162.5"/>
<text text-anchor="start" x="77" y="-173.9" font-family="Arial" font-size="14.00" fill="#000000">ts_created    </text>
<text text-anchor="start" x="176.5596" y="-173.9" font-family="Arial" font-size="14.00" fill="#666666">[timestamp without time zone]</text>
<polygon fill="none" stroke="#000000" points="70,-132.5 70,-162.5 381,-162.5 381,-132.5 70,-132.5"/>
<text text-anchor="start" x="77" y="-143.9" font-family="Arial" font-size="14.00" fill="#000000">ts_modified    </text>
<text text-anchor="start" x="182.7728" y="-143.9" font-family="Arial" font-size="14.00" fill="#666666">[timestamp without time zone]</text>
<polygon fill="none" stroke="#000000" points="70,-102.5 70,-132.5 381,-132.5 381,-102.5 70,-102.5"/>
<text text-anchor="start" x="77" y="-113.9" font-family="Arial" font-size="14.00" fill="#000000">tags    </text>
<text text-anchor="start" x="137.6606" y="-113.9" font-family="Arial" font-size="14.00" fill="#666666">[jsonb]</text>
<polygon fill="none" stroke="#000000" points="70,-72.5 70,-102.5 381,-102.5 381,-72.5 70,-72.5"/>
<text text-anchor="start" x="77" y="-83.9" font-family="Arial" font-size="14.00" fill="#000000">job_title    </text>
<text text-anchor="start" x="159.4362" y="-83.9" font-family="Arial" font-size="14.00" fill="#666666">[varchar(50)]</text>
<polygon fill="none" stroke="#000000" points="70,-42.5 70,-72.5 381,-72.5 381,-42.5 70,-42.5"/>
<text text-anchor="start" x="76.9292" y="-53.9" font-family="Arial" font-size="14.00" fill="#000000">ts_last_login    </text>
<text text-anchor="start" x="188.9306" y="-53.9" font-family="Arial" font-size="14.00" fill="#666666">[timestamp without time zone]</text>
</g>
<!-- sr.cloud_account_user&#45;&gt;sr.user -->
<g id="edge2" class="edge">
<title>sr.cloud_account_user:user_uuid&#45;&gt;sr.user:user_uuid</title>
<path fill="none" stroke="#000000" d="M286.883,-786.8272C220.0339,-777.3942 254.8222,-670.9643 297,-607 319.3595,-573.0909 358.6405,-604.9091 381,-571 403.876,-536.3077 422.5556,-477.5 381,-477.5"/>
<polygon fill="#000000" stroke="#000000" points="287.022,-786.8364 296.7014,-791.9901 292.011,-787.1682 297,-787.5 297,-787.5 297,-787.5 292.011,-787.1682 297.2986,-783.0099 287.022,-786.8364 287.022,-786.8364"/>
<text text-anchor="start" x="7.1105" y="-797.5" font-family="Arial" font-size="10.00" fill="#000000">FOREIGN KEY (user_uuid) REFERENCES sr.&quot;user&quot;(user_uuid)</text>
</g>
<!-- sr.cloud_account -->
<g id="node4" class="node">
<title>sr.cloud_account</title>
<polygon fill="#efefef" stroke="transparent" points="485,-402.5 485,-437.5 897,-437.5 897,-402.5 485,-402.5"/>
<polygon fill="none" stroke="#000000" points="485,-402.5 485,-437.5 897,-437.5 897,-402.5 485,-402.5"/>
<text text-anchor="start" x="559.1958" y="-415.3" font-family="Arial Bold" font-size="18.00" fill="#000000">sr.cloud_account</text>
<text text-anchor="start" x="695.2362" y="-415.3" font-family="Arial" font-size="14.00" fill="#000000">    </text>
<text text-anchor="start" x="729.441" y="-415.3" font-family="Arial" font-size="14.00" fill="#666666">[BASE TABLE]</text>
<polygon fill="none" stroke="#000000" points="485,-372.5 485,-402.5 897,-402.5 897,-372.5 485,-372.5"/>
<text text-anchor="start" x="492" y="-383.9" font-family="Arial" font-size="14.00" fill="#000000">cloud_account_uuid    </text>
<text text-anchor="start" x="650.6998" y="-383.9" font-family="Arial" font-size="14.00" fill="#666666">[uuid]</text>
<polygon fill="none" stroke="#000000" points="485,-342.5 485,-372.5 897,-372.5 897,-342.5 485,-342.5"/>
<text text-anchor="start" x="492" y="-353.9" font-family="Arial" font-size="14.00" fill="#000000">cloud_account_cloud_id    </text>
<text text-anchor="start" x="676.3716" y="-353.9" font-family="Arial" font-size="14.00" fill="#666666">[varchar(100)]</text>
<polygon fill="none" stroke="#000000" points="485,-312.5 485,-342.5 897,-342.5 897,-312.5 485,-312.5"/>
<text text-anchor="start" x="492" y="-323.9" font-family="Arial" font-size="14.00" fill="#000000">cloud_account_provider_id    </text>
<text text-anchor="start" x="693.4754" y="-323.9" font-family="Arial" font-size="14.00" fill="#666666">[integer]</text>
<polygon fill="none" stroke="#000000" points="485,-282.5 485,-312.5 897,-312.5 897,-282.5 485,-282.5"/>
<text text-anchor="start" x="492" y="-293.9" font-family="Arial" font-size="14.00" fill="#000000">cloud_account_name    </text>
<text text-anchor="start" x="659.2538" y="-293.9" font-family="Arial" font-size="14.00" fill="#666666">[varchar(50)]</text>
<polygon fill="none" stroke="#000000" points="485,-252.5 485,-282.5 897,-282.5 897,-252.5 485,-252.5"/>
<text text-anchor="start" x="492" y="-263.9" font-family="Arial" font-size="14.00" fill="#000000">cloud_account_status_id    </text>
<text text-anchor="start" x="680.2636" y="-263.9" font-family="Arial" font-size="14.00" fill="#666666">[integer]</text>
<polygon fill="none" stroke="#000000" points="485,-222.5 485,-252.5 897,-252.5 897,-222.5 485,-222.5"/>
<text text-anchor="start" x="492" y="-233.9" font-family="Arial" font-size="14.00" fill="#000000">cloud_account_owner_uuid    </text>
<text text-anchor="start" x="696.5974" y="-233.9" font-family="Arial" font-size="14.00" fill="#666666">[uuid]</text>
<polygon fill="none" stroke="#000000" points="485,-192.5 485,-222.5 897,-222.5 897,-192.5 485,-192.5"/>
<text text-anchor="start" x="491.8374" y="-203.9" font-family="Arial" font-size="14.00" fill="#000000">cloud_account_owner_type    </text>
<text text-anchor="start" x="696.4362" y="-203.9" font-family="Arial" font-size="14.00" fill="#666666">[sr.cloud_account_owner_type]</text>
<polygon fill="none" stroke="#000000" points="485,-162.5 485,-192.5 897,-192.5 897,-162.5 485,-162.5"/>
<text text-anchor="start" x="492" y="-173.9" font-family="Arial" font-size="14.00" fill="#000000">ts_created    </text>
<text text-anchor="start" x="591.5596" y="-173.9" font-family="Arial" font-size="14.00" fill="#666666">[timestamp without time zone]</text>
<polygon fill="none" stroke="#000000" points="485,-132.5 485,-162.5 897,-162.5 897,-132.5 485,-132.5"/>
<text text-anchor="start" x="492" y="-143.9" font-family="Arial" font-size="14.00" fill="#000000">ts_modified    </text>
<text text-anchor="start" x="597.7728" y="-143.9" font-family="Arial" font-size="14.00" fill="#666666">[timestamp without time zone]</text>
</g>
<!-- sr.cloud_account_user&#45;&gt;sr.cloud_account -->
<g id="edge3" class="edge">
<title>sr.cloud_account_user:cloud_account_uuid&#45;&gt;sr.cloud_account:cloud_account_uuid</title>
<path fill="none" stroke="#000000" d="M629.0316,-756.7197C681.5175,-747.8371 644.093,-665.0387 619,-607 586.5583,-531.964 517.4417,-556.036 485,-481 468.5088,-442.8568 443.4444,-387.5 485,-387.5"/>
<polygon fill="#000000" stroke="#000000" points="628.9699,-756.7244 618.651,-753.0136 623.9849,-757.1122 619,-757.5 619,-757.5 619,-757.5 623.9849,-757.1122 619.349,-761.9864 628.9699,-756.7244 628.9699,-756.7244"/>
<text text-anchor="start" x="626.125" y="-767.5" font-family="Arial" font-size="10.00" fill="#000000">FOREIGN KEY (cloud_account_uuid) REFERENCES sr.cloud_account(cloud_account_uuid)</text>
</g>
<!-- sr.cloud_account_group_member -->
<g id="node2" class="node">
<title>sr.cloud_account_group_member</title>
<polygon fill="#efefef" stroke="transparent" points="253,-1142.5 253,-1177.5 662,-1177.5 662,-1142.5 253,-1142.5"/>
<polygon fill="none" stroke="#000000" points="253,-1142.5 253,-1177.5 662,-1177.5 662,-1142.5 253,-1142.5"/>
<text text-anchor="start" x="259.6835" y="-1155.3" font-family="Arial Bold" font-size="18.00" fill="#000000">sr.cloud_account_group_member</text>
<text text-anchor="start" x="527.7485" y="-1155.3" font-family="Arial" font-size="14.00" fill="#000000">    </text>
<text text-anchor="start" x="561.9533" y="-1155.3" font-family="Arial" font-size="14.00" fill="#666666">[BASE TABLE]</text>
<polygon fill="none" stroke="#000000" points="253,-1112.5 253,-1142.5 662,-1142.5 662,-1112.5 253,-1112.5"/>
<text text-anchor="start" x="260" y="-1123.9" font-family="Arial" font-size="14.00" fill="#000000">cloud_account_group_member_uuid    </text>
<text text-anchor="start" x="521.3856" y="-1123.9" font-family="Arial" font-size="14.00" fill="#666666">[uuid]</text>
<polygon fill="none" stroke="#000000" points="253,-1082.5 253,-1112.5 662,-1112.5 662,-1082.5 253,-1082.5"/>
<text text-anchor="start" x="260" y="-1093.9" font-family="Arial" font-size="14.00" fill="#000000">cloud_account_group_uuid    </text>
<text text-anchor="start" x="462.2734" y="-1093.9" font-family="Arial" font-size="14.00" fill="#666666">[uuid]</text>
<polygon fill="none" stroke="#000000" points="253,-1052.5 253,-1082.5 662,-1082.5 662,-1052.5 253,-1052.5"/>
<text text-anchor="start" x="260" y="-1063.9" font-family="Arial" font-size="14.00" fill="#000000">cloud_account_user_uuid    </text>
<text text-anchor="start" x="453.7082" y="-1063.9" font-family="Arial" font-size="14.00" fill="#666666">[uuid]</text>
<polygon fill="none" stroke="#000000" points="253,-1022.5 253,-1052.5 662,-1052.5 662,-1022.5 253,-1022.5"/>
<text text-anchor="start" x="260" y="-1033.9" font-family="Arial" font-size="14.00" fill="#000000">ts_created    </text>
<text text-anchor="start" x="359.5596" y="-1033.9" font-family="Arial" font-size="14.00" fill="#666666">[timestamp without time zone]</text>
<polygon fill="none" stroke="#000000" points="253,-992.5 253,-1022.5 662,-1022.5 662,-992.5 253,-992.5"/>
<text text-anchor="start" x="260" y="-1003.9" font-family="Arial" font-size="14.00" fill="#000000">ts_modified    </text>
<text text-anchor="start" x="365.7728" y="-1003.9" font-family="Arial" font-size="14.00" fill="#666666">[timestamp without time zone]</text>
</g>
<!-- sr.cloud_account_group_member&#45;&gt;sr.cloud_account_user -->
<g id="edge1" class="edge">
<title>sr.cloud_account_group_member:cloud_account_user_uuid&#45;&gt;sr.cloud_account_user:cloud_account_user_uuid</title>
<path fill="none" stroke="#000000" d="M672.0045,-1066.3726C711.7213,-1056.6165 694.6019,-985.9757 662,-950 607.269,-889.6053 351.731,-974.3947 297,-914 268.1998,-882.2195 254.1111,-817.5 297,-817.5"/>
<polygon fill="#000000" stroke="#000000" points="671.9371,-1066.3801 661.496,-1063.0283 666.9686,-1066.94 662,-1067.5 662,-1067.5 662,-1067.5 666.9686,-1066.94 662.504,-1071.9717 671.9371,-1066.3801 671.9371,-1066.3801"/>
<text text-anchor="start" x="668.616" y="-1077.5" font-family="Arial" font-size="10.00" fill="#000000">FOREIGN KEY (cloud_account_user_uuid) REFERENCES sr.cloud_account_user(cloud_account_user_uuid)</text>
</g>
</g>
</svg>
