<?xml version="1.0" encoding="UTF-8" standalone="no"?>
<!DOCTYPE svg PUBLIC "-//W3C//DTD SVG 1.1//EN"
 "http://www.w3.org/Graphics/SVG/1.1/DTD/svg11.dtd">
<!-- Generated by graphviz version 2.40.1 (20161225.0304)
 -->
<!-- Title: sr.coin_balance Pages: 1 -->
<svg width="741pt" height="712pt"
 viewBox="0.00 0.00 741.00 712.00" xmlns="http://www.w3.org/2000/svg" xmlns:xlink="http://www.w3.org/1999/xlink">
<g id="graph0" class="graph" transform="scale(1 1) rotate(0) translate(4 708)">
<title>sr.coin_balance</title>
<polygon fill="#ffffff" stroke="transparent" points="-4,4 -4,-708 737,-708 737,4 -4,4"/>
<!-- sr.coin_balance -->
<g id="node1" class="node">
<title>sr.coin_balance</title>
<polygon fill="#efefef" stroke="transparent" points="59,-622.5 59,-657.5 331,-657.5 331,-622.5 59,-622.5"/>
<polygon fill="none" stroke="#000000" points="59,-622.5 59,-657.5 331,-657.5 331,-622.5 59,-622.5"/>
<text text-anchor="start" x="68.1998" y="-635.3" font-family="Arial Bold" font-size="18.00" fill="#000000">sr.coin_balance</text>
<text text-anchor="start" x="194.2322" y="-635.3" font-family="Arial" font-size="14.00" fill="#000000">    </text>
<text text-anchor="start" x="228.437" y="-635.3" font-family="Arial" font-size="14.00" fill="#666666">[BASE TABLE]</text>
<polygon fill="none" stroke="#000000" points="59,-592.5 59,-622.5 331,-622.5 331,-592.5 59,-592.5"/>
<text text-anchor="start" x="66" y="-603.9" font-family="Arial" font-size="14.00" fill="#000000">entity_uuid </text>
<text text-anchor="start" x="137.5806" y="-603.9" font-family="Arial" font-size="14.00" fill="#666666">[uuid]</text>
<polygon fill="none" stroke="#000000" points="59,-562.5 59,-592.5 331,-592.5 331,-562.5 59,-562.5"/>
<text text-anchor="start" x="66" y="-573.9" font-family="Arial" font-size="14.00" fill="#000000">entity_type </text>
<text text-anchor="start" x="137.582" y="-573.9" font-family="Arial" font-size="14.00" fill="#666666">[sr.entity_type]</text>
<polygon fill="none" stroke="#000000" points="59,-532.5 59,-562.5 331,-562.5 331,-532.5 59,-532.5"/>
<text text-anchor="start" x="66" y="-543.9" font-family="Arial" font-size="14.00" fill="#000000">balance_value </text>
<text text-anchor="start" x="160.1472" y="-543.9" font-family="Arial" font-size="14.00" fill="#666666">[numeric(7,2)]</text>
<polygon fill="none" stroke="#000000" points="59,-502.5 59,-532.5 331,-532.5 331,-502.5 59,-502.5"/>
<text text-anchor="start" x="66" y="-513.9" font-family="Arial" font-size="14.00" fill="#000000">last_transaction_uuid </text>
<text text-anchor="start" x="202.1514" y="-513.9" font-family="Arial" font-size="14.00" fill="#666666">[uuid]</text>
<polygon fill="none" stroke="#000000" points="59,-472.5 59,-502.5 331,-502.5 331,-472.5 59,-472.5"/>
<text text-anchor="start" x="66" y="-483.9" font-family="Arial" font-size="14.00" fill="#000000">ts_created </text>
<text text-anchor="start" x="135.2454" y="-483.9" font-family="Arial" font-size="14.00" fill="#666666">[timestamp without time zone]</text>
<polygon fill="none" stroke="#000000" points="59,-442.5 59,-472.5 331,-472.5 331,-442.5 59,-442.5"/>
<text text-anchor="start" x="65.8549" y="-453.9" font-family="Arial" font-size="14.00" fill="#000000">ts_updated </text>
<text text-anchor="start" x="139.0049" y="-453.9" font-family="Arial" font-size="14.00" fill="#666666">[timestamp without time zone]</text>
<polygon fill="none" stroke="#000000" stroke-width="3" points="57.5,-441.5 57.5,-659.5 332.5,-659.5 332.5,-441.5 57.5,-441.5"/>
</g>
<!-- sr.coin_ledger -->
<g id="node2" class="node">
<title>sr.coin_ledger</title>
<polygon fill="#efefef" stroke="transparent" points="43,-282.5 43,-317.5 347,-317.5 347,-282.5 43,-282.5"/>
<polygon fill="none" stroke="#000000" points="43,-282.5 43,-317.5 347,-317.5 347,-282.5 43,-282.5"/>
<text text-anchor="start" x="74.7068" y="-295.3" font-family="Arial Bold" font-size="18.00" fill="#000000">sr.coin_ledger</text>
<text text-anchor="start" x="187.7252" y="-295.3" font-family="Arial" font-size="14.00" fill="#000000">    </text>
<text text-anchor="start" x="221.93" y="-295.3" font-family="Arial" font-size="14.00" fill="#666666">[BASE TABLE]</text>
<polygon fill="none" stroke="#000000" points="43,-252.5 43,-282.5 347,-282.5 347,-252.5 43,-252.5"/>
<text text-anchor="start" x="50" y="-263.9" font-family="Arial" font-size="14.00" fill="#000000">transaction_uuid    </text>
<text text-anchor="start" x="186.9032" y="-263.9" font-family="Arial" font-size="14.00" fill="#666666">[uuid]</text>
<polygon fill="none" stroke="#000000" points="43,-222.5 43,-252.5 347,-252.5 347,-222.5 43,-222.5"/>
<text text-anchor="start" x="50" y="-233.9" font-family="Arial" font-size="14.00" fill="#000000">sending_entity_uuid    </text>
<text text-anchor="start" x="208.697" y="-233.9" font-family="Arial" font-size="14.00" fill="#666666">[uuid]</text>
<polygon fill="none" stroke="#000000" points="43,-192.5 43,-222.5 347,-222.5 347,-192.5 43,-192.5"/>
<text text-anchor="start" x="50" y="-203.9" font-family="Arial" font-size="14.00" fill="#000000">receiving_entity_uuid    </text>
<text text-anchor="start" x="215.6816" y="-203.9" font-family="Arial" font-size="14.00" fill="#666666">[uuid]</text>
<polygon fill="none" stroke="#000000" points="43,-162.5 43,-192.5 347,-192.5 347,-162.5 43,-162.5"/>
<text text-anchor="start" x="50" y="-173.9" font-family="Arial" font-size="14.00" fill="#000000">transaction_value    </text>
<text text-anchor="start" x="193.9032" y="-173.9" font-family="Arial" font-size="14.00" fill="#666666">[numeric(7,2)]</text>
<polygon fill="none" stroke="#000000" points="43,-132.5 43,-162.5 347,-162.5 347,-132.5 43,-132.5"/>
<text text-anchor="start" x="50" y="-143.9" font-family="Arial" font-size="14.00" fill="#000000">transaction_status_id    </text>
<text text-anchor="start" x="216.467" y="-143.9" font-family="Arial" font-size="14.00" fill="#666666">[integer]</text>
<polygon fill="none" stroke="#000000" points="43,-102.5 43,-132.5 347,-132.5 347,-102.5 43,-102.5"/>
<text text-anchor="start" x="50" y="-113.9" font-family="Arial" font-size="14.00" fill="#000000">transaction_details    </text>
<text text-anchor="start" x="200.9004" y="-113.9" font-family="Arial" font-size="14.00" fill="#666666">[jsonb]</text>
<polygon fill="none" stroke="#000000" points="43,-72.5 43,-102.5 347,-102.5 347,-72.5 43,-72.5"/>
<text text-anchor="start" x="50" y="-83.9" font-family="Arial" font-size="14.00" fill="#000000">ts_created    </text>
<text text-anchor="start" x="149.5596" y="-83.9" font-family="Arial" font-size="14.00" fill="#666666">[timestamp without time zone]</text>
<polygon fill="none" stroke="#000000" points="43,-42.5 43,-72.5 347,-72.5 347,-42.5 43,-42.5"/>
<text text-anchor="start" x="49.5435" y="-53.9" font-family="Arial" font-size="14.00" fill="#000000">ts_modified    </text>
<text text-anchor="start" x="155.3163" y="-53.9" font-family="Arial" font-size="14.00" fill="#666666">[timestamp without time zone]</text>
</g>
<!-- sr.coin_balance&#45;&gt;sr.coin_ledger -->
<g id="edge1" class="edge">
<title>sr.coin_balance:last_transaction_uuid&#45;&gt;sr.coin_ledger:transaction_uuid</title>
<path fill="none" stroke="#000000" d="M340.6684,-514.8615C388.344,-488.143 399.2986,-267.5 347,-267.5"/>
<polygon fill="#000000" stroke="#000000" points="340.6472,-514.8672 329.8153,-513.1587 335.8236,-516.1836 331,-517.5 331,-517.5 331,-517.5 335.8236,-516.1836 332.1847,-521.8413 340.6472,-514.8672 340.6472,-514.8672"/>
<text text-anchor="start" x="337.531" y="-527.5" font-family="Arial" font-size="10.00" fill="#000000">FOREIGN KEY (last_transaction_uuid) REFERENCES sr.coin_ledger(transaction_uuid)</text>
</g>
</g>
</svg>
