<?xml version="1.0" encoding="UTF-8" standalone="no"?>
<!DOCTYPE svg PUBLIC "-//W3C//DTD SVG 1.1//EN"
 "http://www.w3.org/Graphics/SVG/1.1/DTD/svg11.dtd">
<!-- Generated by graphviz version 2.40.1 (20161225.0304)
 -->
<!-- Title: sr.cloud_account_status Pages: 1 -->
<svg width="963pt" height="712pt"
 viewBox="0.00 0.00 963.00 712.00" xmlns="http://www.w3.org/2000/svg" xmlns:xlink="http://www.w3.org/1999/xlink">
<g id="graph0" class="graph" transform="scale(1 1) rotate(0) translate(4 708)">
<title>sr.cloud_account_status</title>
<polygon fill="#ffffff" stroke="transparent" points="-4,4 -4,-708 959,-708 959,4 -4,4"/>
<!-- sr.cloud_account_status -->
<g id="node1" class="node">
<title>sr.cloud_account_status</title>
<polygon fill="#efefef" stroke="transparent" points="538,-195.5 538,-230.5 873,-230.5 873,-195.5 538,-195.5"/>
<polygon fill="none" stroke="#000000" points="538,-195.5 538,-230.5 873,-230.5 873,-195.5 538,-195.5"/>
<text text-anchor="start" x="544.6843" y="-208.3" font-family="Arial Bold" font-size="18.00" fill="#000000">sr.cloud_account_status</text>
<text text-anchor="start" x="738.7477" y="-208.3" font-family="Arial" font-size="14.00" fill="#000000">    </text>
<text text-anchor="start" x="772.9525" y="-208.3" font-family="Arial" font-size="14.00" fill="#666666">[BASE TABLE]</text>
<polygon fill="none" stroke="#000000" points="538,-165.5 538,-195.5 873,-195.5 873,-165.5 538,-165.5"/>
<text text-anchor="start" x="545" y="-176.9" font-family="Arial" font-size="14.00" fill="#000000">cloud_account_status_id </text>
<text text-anchor="start" x="702.9494" y="-176.9" font-family="Arial" font-size="14.00" fill="#666666">[integer]</text>
<polygon fill="none" stroke="#000000" points="538,-135.5 538,-165.5 873,-165.5 873,-135.5 538,-135.5"/>
<text text-anchor="start" x="545" y="-146.9" font-family="Arial" font-size="14.00" fill="#000000">cloud_account_status_name </text>
<text text-anchor="start" x="727.0686" y="-146.9" font-family="Arial" font-size="14.00" fill="#666666">[varchar(50)]</text>
<polygon fill="none" stroke="#000000" points="538,-105.5 538,-135.5 873,-135.5 873,-105.5 538,-105.5"/>
<text text-anchor="start" x="545" y="-116.9" font-family="Arial" font-size="14.00" fill="#000000">cloud_account_status_description </text>
<text text-anchor="start" x="759.7376" y="-116.9" font-family="Arial" font-size="14.00" fill="#666666">[varchar(512)]</text>
<polygon fill="none" stroke="#000000" points="538,-75.5 538,-105.5 873,-105.5 873,-75.5 538,-75.5"/>
<text text-anchor="start" x="545" y="-86.9" font-family="Arial" font-size="14.00" fill="#000000">ts_created </text>
<text text-anchor="start" x="614.2454" y="-86.9" font-family="Arial" font-size="14.00" fill="#666666">[timestamp without time zone]</text>
<polygon fill="none" stroke="#000000" points="538,-45.5 538,-75.5 873,-75.5 873,-45.5 538,-45.5"/>
<text text-anchor="start" x="545" y="-56.9" font-family="Arial" font-size="14.00" fill="#000000">ts_modified </text>
<text text-anchor="start" x="620.4586" y="-56.9" font-family="Arial" font-size="14.00" fill="#666666">[timestamp without time zone]</text>
<polygon fill="none" stroke="#000000" stroke-width="3" points="536,-44.5 536,-232.5 874,-232.5 874,-44.5 536,-44.5"/>
</g>
<!-- sr.cloud_account -->
<g id="node2" class="node">
<title>sr.cloud_account</title>
<polygon fill="#efefef" stroke="transparent" points="500,-625.5 500,-660.5 912,-660.5 912,-625.5 500,-625.5"/>
<polygon fill="none" stroke="#000000" points="500,-625.5 500,-660.5 912,-660.5 912,-625.5 500,-625.5"/>
<text text-anchor="start" x="574.1958" y="-638.3" font-family="Arial Bold" font-size="18.00" fill="#000000">sr.cloud_account</text>
<text text-anchor="start" x="710.2362" y="-638.3" font-family="Arial" font-size="14.00" fill="#000000">    </text>
<text text-anchor="start" x="744.441" y="-638.3" font-family="Arial" font-size="14.00" fill="#666666">[BASE TABLE]</text>
<polygon fill="none" stroke="#000000" points="500,-595.5 500,-625.5 912,-625.5 912,-595.5 500,-595.5"/>
<text text-anchor="start" x="507" y="-606.9" font-family="Arial" font-size="14.00" fill="#000000">cloud_account_uuid    </text>
<text text-anchor="start" x="665.6998" y="-606.9" font-family="Arial" font-size="14.00" fill="#666666">[uuid]</text>
<polygon fill="none" stroke="#000000" points="500,-565.5 500,-595.5 912,-595.5 912,-565.5 500,-565.5"/>
<text text-anchor="start" x="507" y="-576.9" font-family="Arial" font-size="14.00" fill="#000000">cloud_account_cloud_id    </text>
<text text-anchor="start" x="691.3716" y="-576.9" font-family="Arial" font-size="14.00" fill="#666666">[varchar(100)]</text>
<polygon fill="none" stroke="#000000" points="500,-535.5 500,-565.5 912,-565.5 912,-535.5 500,-535.5"/>
<text text-anchor="start" x="507" y="-546.9" font-family="Arial" font-size="14.00" fill="#000000">cloud_account_provider_id    </text>
<text text-anchor="start" x="708.4754" y="-546.9" font-family="Arial" font-size="14.00" fill="#666666">[integer]</text>
<polygon fill="none" stroke="#000000" points="500,-505.5 500,-535.5 912,-535.5 912,-505.5 500,-505.5"/>
<text text-anchor="start" x="507" y="-516.9" font-family="Arial" font-size="14.00" fill="#000000">cloud_account_name    </text>
<text text-anchor="start" x="674.2538" y="-516.9" font-family="Arial" font-size="14.00" fill="#666666">[varchar(50)]</text>
<polygon fill="none" stroke="#000000" points="500,-475.5 500,-505.5 912,-505.5 912,-475.5 500,-475.5"/>
<text text-anchor="start" x="507" y="-486.9" font-family="Arial" font-size="14.00" fill="#000000">cloud_account_status_id    </text>
<text text-anchor="start" x="695.2636" y="-486.9" font-family="Arial" font-size="14.00" fill="#666666">[integer]</text>
<polygon fill="none" stroke="#000000" points="500,-445.5 500,-475.5 912,-475.5 912,-445.5 500,-445.5"/>
<text text-anchor="start" x="507" y="-456.9" font-family="Arial" font-size="14.00" fill="#000000">cloud_account_owner_uuid    </text>
<text text-anchor="start" x="711.5974" y="-456.9" font-family="Arial" font-size="14.00" fill="#666666">[uuid]</text>
<polygon fill="none" stroke="#000000" points="500,-415.5 500,-445.5 912,-445.5 912,-415.5 500,-415.5"/>
<text text-anchor="start" x="506.8374" y="-426.9" font-family="Arial" font-size="14.00" fill="#000000">cloud_account_owner_type    </text>
<text text-anchor="start" x="711.4362" y="-426.9" font-family="Arial" font-size="14.00" fill="#666666">[sr.cloud_account_owner_type]</text>
<polygon fill="none" stroke="#000000" points="500,-385.5 500,-415.5 912,-415.5 912,-385.5 500,-385.5"/>
<text text-anchor="start" x="507" y="-396.9" font-family="Arial" font-size="14.00" fill="#000000">ts_created    </text>
<text text-anchor="start" x="606.5596" y="-396.9" font-family="Arial" font-size="14.00" fill="#666666">[timestamp without time zone]</text>
<polygon fill="none" stroke="#000000" points="500,-355.5 500,-385.5 912,-385.5 912,-355.5 500,-355.5"/>
<text text-anchor="start" x="507" y="-366.9" font-family="Arial" font-size="14.00" fill="#000000">ts_modified    </text>
<text text-anchor="start" x="612.7728" y="-366.9" font-family="Arial" font-size="14.00" fill="#666666">[timestamp without time zone]</text>
</g>
<!-- sr.cloud_account&#45;&gt;sr.cloud_account_status -->
<g id="edge1" class="edge">
<title>sr.cloud_account:cloud_account_status_id&#45;&gt;sr.cloud_account_status:cloud_account_status_id</title>
<path fill="none" stroke="#000000" d="M489.9956,-489.7953C423.4887,-479.9222 449.3467,-368.7774 500,-313 555.9838,-251.3528 817.0162,-338.6472 873,-277 901.8335,-245.2496 915.8889,-180.5 873,-180.5"/>
<polygon fill="#000000" stroke="#000000" points="490.0247,-489.7972 499.6838,-494.9889 495.0124,-490.1486 500,-490.5 500,-490.5 500,-490.5 495.0124,-490.1486 500.3162,-486.0111 490.0247,-489.7972 490.0247,-489.7972"/>
<text text-anchor="start" x="6.8905" y="-500.5" font-family="Arial" font-size="10.00" fill="#000000">FOREIGN KEY (cloud_account_status_id) REFERENCES sr.cloud_account_status(cloud_account_status_id)</text>
</g>
</g>
</svg>
