<?xml version="1.0" encoding="UTF-8" standalone="no"?>
<!DOCTYPE svg PUBLIC "-//W3C//DTD SVG 1.1//EN"
 "http://www.w3.org/Graphics/SVG/1.1/DTD/svg11.dtd">
<!-- Generated by graphviz version 2.40.1 (20161225.0304)
 -->
<!-- Title: sr.cloud_resource_type Pages: 1 -->
<svg width="1345pt" height="1049pt"
 viewBox="0.00 0.00 1345.00 1049.00" xmlns="http://www.w3.org/2000/svg" xmlns:xlink="http://www.w3.org/1999/xlink">
<g id="graph0" class="graph" transform="scale(1 1) rotate(0) translate(4 1045)">
<title>sr.cloud_resource_type</title>
<polygon fill="#ffffff" stroke="transparent" points="-4,4 -4,-1045 1341,-1045 1341,4 -4,4"/>
<!-- sr.cloud_resource_type -->
<g id="node1" class="node">
<title>sr.cloud_resource_type</title>
<polygon fill="#efefef" stroke="transparent" points="528,-562.5 528,-597.5 856,-597.5 856,-562.5 528,-562.5"/>
<polygon fill="none" stroke="#000000" points="528,-562.5 528,-597.5 856,-597.5 856,-562.5 528,-562.5"/>
<text text-anchor="start" x="534.6943" y="-575.3" font-family="Arial Bold" font-size="18.00" fill="#000000">sr.cloud_resource_type</text>
<text text-anchor="start" x="721.7377" y="-575.3" font-family="Arial" font-size="14.00" fill="#000000">    </text>
<text text-anchor="start" x="755.9425" y="-575.3" font-family="Arial" font-size="14.00" fill="#666666">[BASE TABLE]</text>
<polygon fill="none" stroke="#000000" points="528,-532.5 528,-562.5 856,-562.5 856,-532.5 528,-532.5"/>
<text text-anchor="start" x="535" y="-543.9" font-family="Arial" font-size="14.00" fill="#000000">cloud_resource_type_id </text>
<text text-anchor="start" x="687.4894" y="-543.9" font-family="Arial" font-size="14.00" fill="#666666">[integer]</text>
<polygon fill="none" stroke="#000000" points="528,-502.5 528,-532.5 856,-532.5 856,-502.5 528,-502.5"/>
<text text-anchor="start" x="535" y="-513.9" font-family="Arial" font-size="14.00" fill="#000000">cloud_resource_type_name </text>
<text text-anchor="start" x="711.6086" y="-513.9" font-family="Arial" font-size="14.00" fill="#666666">[varchar(100)]</text>
<polygon fill="none" stroke="#000000" points="528,-472.5 528,-502.5 856,-502.5 856,-472.5 528,-472.5"/>
<text text-anchor="start" x="535" y="-483.9" font-family="Arial" font-size="14.00" fill="#000000">cloud_resource_type_description </text>
<text text-anchor="start" x="744.2776" y="-483.9" font-family="Arial" font-size="14.00" fill="#666666">[varchar(512)]</text>
<polygon fill="none" stroke="#000000" points="528,-442.5 528,-472.5 856,-472.5 856,-442.5 528,-442.5"/>
<text text-anchor="start" x="535" y="-453.9" font-family="Arial" font-size="14.00" fill="#000000">cloud_account_provider_id </text>
<text text-anchor="start" x="706.1612" y="-453.9" font-family="Arial" font-size="14.00" fill="#666666">[integer]</text>
<polygon fill="none" stroke="#000000" points="528,-412.5 528,-442.5 856,-442.5 856,-412.5 528,-412.5"/>
<text text-anchor="start" x="535" y="-423.9" font-family="Arial" font-size="14.00" fill="#000000">stackcash_cost </text>
<text text-anchor="start" x="634.5848" y="-423.9" font-family="Arial" font-size="14.00" fill="#666666">[numeric(7,2)]</text>
<polygon fill="none" stroke="#000000" points="528,-382.5 528,-412.5 856,-412.5 856,-382.5 528,-382.5"/>
<text text-anchor="start" x="535" y="-393.9" font-family="Arial" font-size="14.00" fill="#000000">ts_created </text>
<text text-anchor="start" x="604.2454" y="-393.9" font-family="Arial" font-size="14.00" fill="#666666">[timestamp without time zone]</text>
<polygon fill="none" stroke="#000000" points="528,-352.5 528,-382.5 856,-382.5 856,-352.5 528,-352.5"/>
<text text-anchor="start" x="535" y="-363.9" font-family="Arial" font-size="14.00" fill="#000000">ts_modified </text>
<text text-anchor="start" x="610.4586" y="-363.9" font-family="Arial" font-size="14.00" fill="#666666">[timestamp without time zone]</text>
<polygon fill="none" stroke="#000000" stroke-width="3" points="526.5,-351.5 526.5,-599.5 857.5,-599.5 857.5,-351.5 526.5,-351.5"/>
</g>
<!-- sr.cloud_account_provider -->
<g id="node3" class="node">
<title>sr.cloud_account_provider</title>
<polygon fill="#efefef" stroke="transparent" points="512,-192.5 512,-227.5 871,-227.5 871,-192.5 512,-192.5"/>
<polygon fill="none" stroke="#000000" points="512,-192.5 512,-227.5 871,-227.5 871,-192.5 512,-192.5"/>
<text text-anchor="start" x="522.191" y="-205.3" font-family="Arial Bold" font-size="18.00" fill="#000000">sr.cloud_account_provider</text>
<text text-anchor="start" x="733.241" y="-205.3" font-family="Arial" font-size="14.00" fill="#000000">    </text>
<text text-anchor="start" x="767.4458" y="-205.3" font-family="Arial" font-size="14.00" fill="#666666">[BASE TABLE]</text>
<polygon fill="none" stroke="#000000" points="512,-162.5 512,-192.5 871,-192.5 871,-162.5 512,-162.5"/>
<text text-anchor="start" x="519" y="-173.9" font-family="Arial" font-size="14.00" fill="#000000">cloud_account_provider_id    </text>
<text text-anchor="start" x="720.4754" y="-173.9" font-family="Arial" font-size="14.00" fill="#666666">[integer]</text>
<polygon fill="none" stroke="#000000" points="512,-132.5 512,-162.5 871,-162.5 871,-132.5 512,-132.5"/>
<text text-anchor="start" x="519" y="-143.9" font-family="Arial" font-size="14.00" fill="#000000">cloud_account_provider_name    </text>
<text text-anchor="start" x="744.5946" y="-143.9" font-family="Arial" font-size="14.00" fill="#666666">[varchar(25)]</text>
<polygon fill="none" stroke="#000000" points="512,-102.5 512,-132.5 871,-132.5 871,-102.5 512,-102.5"/>
<text text-anchor="start" x="518.8086" y="-113.9" font-family="Arial" font-size="14.00" fill="#000000">cloud_account_provider_description    </text>
<text text-anchor="start" x="777.0722" y="-113.9" font-family="Arial" font-size="14.00" fill="#666666">[varchar(512)]</text>
<polygon fill="none" stroke="#000000" points="512,-72.5 512,-102.5 871,-102.5 871,-72.5 512,-72.5"/>
<text text-anchor="start" x="519" y="-83.9" font-family="Arial" font-size="14.00" fill="#000000">ts_created    </text>
<text text-anchor="start" x="618.5596" y="-83.9" font-family="Arial" font-size="14.00" fill="#666666">[timestamp without time zone]</text>
<polygon fill="none" stroke="#000000" points="512,-42.5 512,-72.5 871,-72.5 871,-42.5 512,-42.5"/>
<text text-anchor="start" x="519" y="-53.9" font-family="Arial" font-size="14.00" fill="#000000">ts_modified    </text>
<text text-anchor="start" x="624.7728" y="-53.9" font-family="Arial" font-size="14.00" fill="#666666">[timestamp without time zone]</text>
</g>
<!-- sr.cloud_resource_type&#45;&gt;sr.cloud_account_provider -->
<g id="edge2" class="edge">
<title>sr.cloud_resource_type:cloud_account_provider_id&#45;&gt;sr.cloud_account_provider:cloud_account_provider_id</title>
<path fill="none" stroke="#000000" d="M517.8139,-456.6205C463.599,-446.6283 485.6868,-353.9866 528,-307 579.2869,-250.0485 819.7131,-327.9515 871,-271 898.8084,-240.1202 912.5556,-177.5 871,-177.5"/>
<polygon fill="#000000" stroke="#000000" points="518.0371,-456.6397 527.6129,-461.9833 523.0185,-457.0698 528,-457.5 528,-457.5 528,-457.5 523.0185,-457.0698 528.3871,-453.0167 518.0371,-456.6397 518.0371,-456.6397"/>
<text text-anchor="start" x="6.735" y="-467.5" font-family="Arial" font-size="10.00" fill="#000000">FOREIGN KEY (cloud_account_provider_id) REFERENCES sr.cloud_account_provider(cloud_account_provider_id)</text>
</g>
<!-- sr.cloud_resource -->
<g id="node2" class="node">
<title>sr.cloud_resource</title>
<polygon fill="#efefef" stroke="transparent" points="534,-962.5 534,-997.5 849,-997.5 849,-962.5 534,-962.5"/>
<polygon fill="none" stroke="#000000" points="534,-962.5 534,-997.5 849,-997.5 849,-962.5 534,-962.5"/>
<text text-anchor="start" x="556.2047" y="-975.3" font-family="Arial Bold" font-size="18.00" fill="#000000">sr.cloud_resource</text>
<text text-anchor="start" x="699.2273" y="-975.3" font-family="Arial" font-size="14.00" fill="#000000">    </text>
<text text-anchor="start" x="733.4321" y="-975.3" font-family="Arial" font-size="14.00" fill="#666666">[BASE TABLE]</text>
<polygon fill="none" stroke="#000000" points="534,-932.5 534,-962.5 849,-962.5 849,-932.5 534,-932.5"/>
<text text-anchor="start" x="541" y="-943.9" font-family="Arial" font-size="14.00" fill="#000000">cloud_resource_uuid    </text>
<text text-anchor="start" x="705.1304" y="-943.9" font-family="Arial" font-size="14.00" fill="#666666">[uuid]</text>
<polygon fill="none" stroke="#000000" points="534,-902.5 534,-932.5 849,-932.5 849,-902.5 534,-902.5"/>
<text text-anchor="start" x="541" y="-913.9" font-family="Arial" font-size="14.00" fill="#000000">cloud_resource_type_id    </text>
<text text-anchor="start" x="723.8036" y="-913.9" font-family="Arial" font-size="14.00" fill="#666666">[integer]</text>
<polygon fill="none" stroke="#000000" points="534,-872.5 534,-902.5 849,-902.5 849,-872.5 534,-872.5"/>
<text text-anchor="start" x="541" y="-883.9" font-family="Arial" font-size="14.00" fill="#000000">cloud_resource_details    </text>
<text text-anchor="start" x="719.1276" y="-883.9" font-family="Arial" font-size="14.00" fill="#666666">[jsonb]</text>
<polygon fill="none" stroke="#000000" points="534,-842.5 534,-872.5 849,-872.5 849,-842.5 534,-842.5"/>
<text text-anchor="start" x="541" y="-853.9" font-family="Arial" font-size="14.00" fill="#000000">cloud_resource_tags    </text>
<text text-anchor="start" x="705.1318" y="-853.9" font-family="Arial" font-size="14.00" fill="#666666">[jsonb]</text>
<polygon fill="none" stroke="#000000" points="534,-812.5 534,-842.5 849,-842.5 849,-812.5 534,-812.5"/>
<text text-anchor="start" x="541" y="-823.9" font-family="Arial" font-size="14.00" fill="#000000">cloud_account_owner_uuid    </text>
<text text-anchor="start" x="745.5974" y="-823.9" font-family="Arial" font-size="14.00" fill="#666666">[uuid]</text>
<polygon fill="none" stroke="#000000" points="534,-782.5 534,-812.5 849,-812.5 849,-782.5 534,-782.5"/>
<text text-anchor="start" x="541" y="-793.9" font-family="Arial" font-size="14.00" fill="#000000">ts_created    </text>
<text text-anchor="start" x="640.5596" y="-793.9" font-family="Arial" font-size="14.00" fill="#666666">[timestamp without time zone]</text>
<polygon fill="none" stroke="#000000" points="534,-752.5 534,-782.5 849,-782.5 849,-752.5 534,-752.5"/>
<text text-anchor="start" x="541" y="-763.9" font-family="Arial" font-size="14.00" fill="#000000">ts_modified    </text>
<text text-anchor="start" x="646.7728" y="-763.9" font-family="Arial" font-size="14.00" fill="#666666">[timestamp without time zone]</text>
<polygon fill="none" stroke="#000000" points="534,-722.5 534,-752.5 849,-752.5 849,-722.5 534,-722.5"/>
<text text-anchor="start" x="540.9811" y="-733.9" font-family="Arial" font-size="14.00" fill="#000000">ts_checkedin    </text>
<text text-anchor="start" x="656.8787" y="-733.9" font-family="Arial" font-size="14.00" fill="#666666">[timestamp without time zone]</text>
</g>
<!-- sr.cloud_resource&#45;&gt;sr.cloud_resource_type -->
<g id="edge1" class="edge">
<title>sr.cloud_resource:cloud_resource_type_id&#45;&gt;sr.cloud_resource_type:cloud_resource_type_id</title>
<path fill="none" stroke="#000000" d="M859.0527,-916.9835C952.1794,-907.0423 917.0209,-756.0758 849,-680 753.3109,-572.9795 623.6891,-751.0205 528,-644 499.4129,-612.0276 485.1111,-547.5 528,-547.5"/>
<polygon fill="#000000" stroke="#000000" points="858.9868,-916.9868 848.7691,-913.0059 853.9934,-917.2434 849,-917.5 849,-917.5 849,-917.5 853.9934,-917.2434 849.2309,-921.9941 858.9868,-916.9868 858.9868,-916.9868"/>
<text text-anchor="start" x="855.7405" y="-927.5" font-family="Arial" font-size="10.00" fill="#000000">FOREIGN KEY (cloud_resource_type_id) REFERENCES sr.cloud_resource_type(cloud_resource_type_id)</text>
</g>
</g>
</svg>
