<?xml version="1.0" encoding="UTF-8" standalone="no"?>
<!DOCTYPE svg PUBLIC "-//W3C//DTD SVG 1.1//EN"
 "http://www.w3.org/Graphics/SVG/1.1/DTD/svg11.dtd">
<!-- Generated by graphviz version 2.40.1 (20161225.0304)
 -->
<!-- Title: sr.entity_asset_type Pages: 1 -->
<svg width="799pt" height="682pt"
 viewBox="0.00 0.00 798.50 682.00" xmlns="http://www.w3.org/2000/svg" xmlns:xlink="http://www.w3.org/1999/xlink">
<g id="graph0" class="graph" transform="scale(1 1) rotate(0) translate(4 678)">
<title>sr.entity_asset_type</title>
<polygon fill="#ffffff" stroke="transparent" points="-4,4 -4,-678 794.5,-678 794.5,4 -4,4"/>
<!-- sr.entity_asset_type -->
<g id="node1" class="node">
<title>sr.entity_asset_type</title>
<polygon fill="#efefef" stroke="transparent" points="444,-195.5 444,-230.5 745,-230.5 745,-195.5 444,-195.5"/>
<polygon fill="none" stroke="#000000" points="444,-195.5 444,-230.5 745,-230.5 745,-195.5 444,-195.5"/>
<text text-anchor="start" x="450.6925" y="-208.3" font-family="Arial Bold" font-size="18.00" fill="#000000">sr.entity_asset_type</text>
<text text-anchor="start" x="610.7395" y="-208.3" font-family="Arial" font-size="14.00" fill="#000000">    </text>
<text text-anchor="start" x="644.9443" y="-208.3" font-family="Arial" font-size="14.00" fill="#666666">[BASE TABLE]</text>
<polygon fill="none" stroke="#000000" points="444,-165.5 444,-195.5 745,-195.5 745,-165.5 444,-165.5"/>
<text text-anchor="start" x="451" y="-176.9" font-family="Arial" font-size="14.00" fill="#000000">entity_asset_type_id </text>
<text text-anchor="start" x="582.4922" y="-176.9" font-family="Arial" font-size="14.00" fill="#666666">[integer]</text>
<polygon fill="none" stroke="#000000" points="444,-135.5 444,-165.5 745,-165.5 745,-135.5 444,-135.5"/>
<text text-anchor="start" x="451" y="-146.9" font-family="Arial" font-size="14.00" fill="#000000">entity_asset_type_name </text>
<text text-anchor="start" x="606.6114" y="-146.9" font-family="Arial" font-size="14.00" fill="#666666">[varchar(50)]</text>
<polygon fill="none" stroke="#000000" points="444,-105.5 444,-135.5 745,-135.5 745,-105.5 444,-105.5"/>
<text text-anchor="start" x="451" y="-116.9" font-family="Arial" font-size="14.00" fill="#000000">entity_asset_type_description </text>
<text text-anchor="start" x="639.2804" y="-116.9" font-family="Arial" font-size="14.00" fill="#666666">[varchar(512)]</text>
<polygon fill="none" stroke="#000000" points="444,-75.5 444,-105.5 745,-105.5 745,-75.5 444,-75.5"/>
<text text-anchor="start" x="451" y="-86.9" font-family="Arial" font-size="14.00" fill="#000000">ts_created </text>
<text text-anchor="start" x="520.2454" y="-86.9" font-family="Arial" font-size="14.00" fill="#666666">[timestamp without time zone]</text>
<polygon fill="none" stroke="#000000" points="444,-45.5 444,-75.5 745,-75.5 745,-45.5 444,-45.5"/>
<text text-anchor="start" x="451" y="-56.9" font-family="Arial" font-size="14.00" fill="#000000">ts_modified </text>
<text text-anchor="start" x="526.4586" y="-56.9" font-family="Arial" font-size="14.00" fill="#666666">[timestamp without time zone]</text>
<polygon fill="none" stroke="#000000" stroke-width="3" points="442,-44.5 442,-232.5 746,-232.5 746,-44.5 442,-44.5"/>
</g>
<!-- sr.entity_asset -->
<g id="node2" class="node">
<title>sr.entity_asset</title>
<polygon fill="#efefef" stroke="transparent" points="443,-595.5 443,-630.5 747,-630.5 747,-595.5 443,-595.5"/>
<polygon fill="none" stroke="#000000" points="443,-595.5 443,-630.5 747,-630.5 747,-595.5 443,-595.5"/>
<text text-anchor="start" x="473.2029" y="-608.3" font-family="Arial Bold" font-size="18.00" fill="#000000">sr.entity_asset</text>
<text text-anchor="start" x="589.2291" y="-608.3" font-family="Arial" font-size="14.00" fill="#000000">    </text>
<text text-anchor="start" x="623.4339" y="-608.3" font-family="Arial" font-size="14.00" fill="#666666">[BASE TABLE]</text>
<polygon fill="none" stroke="#000000" points="443,-565.5 443,-595.5 747,-595.5 747,-565.5 443,-565.5"/>
<text text-anchor="start" x="450" y="-576.9" font-family="Arial" font-size="14.00" fill="#000000">entity_asset_uuid    </text>
<text text-anchor="start" x="593.1332" y="-576.9" font-family="Arial" font-size="14.00" fill="#666666">[uuid]</text>
<polygon fill="none" stroke="#000000" points="443,-535.5 443,-565.5 747,-565.5 747,-535.5 443,-535.5"/>
<text text-anchor="start" x="450" y="-546.9" font-family="Arial" font-size="14.00" fill="#000000">entity_uuid    </text>
<text text-anchor="start" x="551.8948" y="-546.9" font-family="Arial" font-size="14.00" fill="#666666">[uuid]</text>
<polygon fill="none" stroke="#000000" points="443,-505.5 443,-535.5 747,-535.5 747,-505.5 443,-505.5"/>
<text text-anchor="start" x="450" y="-516.9" font-family="Arial" font-size="14.00" fill="#000000">entity_asset_type_id    </text>
<text text-anchor="start" x="611.8064" y="-516.9" font-family="Arial" font-size="14.00" fill="#666666">[integer]</text>
<polygon fill="none" stroke="#000000" points="443,-475.5 443,-505.5 747,-505.5 747,-475.5 443,-475.5"/>
<text text-anchor="start" x="450" y="-486.9" font-family="Arial" font-size="14.00" fill="#000000">entity_asset_mime_type    </text>
<text text-anchor="start" x="635.1276" y="-486.9" font-family="Arial" font-size="14.00" fill="#666666">[varchar(512)]</text>
<polygon fill="none" stroke="#000000" points="443,-445.5 443,-475.5 747,-475.5 747,-445.5 443,-445.5"/>
<text text-anchor="start" x="450" y="-456.9" font-family="Arial" font-size="14.00" fill="#000000">entity_asset_filename    </text>
<text text-anchor="start" x="619.5736" y="-456.9" font-family="Arial" font-size="14.00" fill="#666666">[varchar(512)]</text>
<polygon fill="none" stroke="#000000" points="443,-415.5 443,-445.5 747,-445.5 747,-415.5 443,-415.5"/>
<text text-anchor="start" x="450" y="-426.9" font-family="Arial" font-size="14.00" fill="#000000">entity_asset_details    </text>
<text text-anchor="start" x="607.1304" y="-426.9" font-family="Arial" font-size="14.00" fill="#666666">[jsonb]</text>
<polygon fill="none" stroke="#000000" points="443,-385.5 443,-415.5 747,-415.5 747,-385.5 443,-385.5"/>
<text text-anchor="start" x="450" y="-396.9" font-family="Arial" font-size="14.00" fill="#000000">ts_created    </text>
<text text-anchor="start" x="549.5596" y="-396.9" font-family="Arial" font-size="14.00" fill="#666666">[timestamp without time zone]</text>
<polygon fill="none" stroke="#000000" points="443,-355.5 443,-385.5 747,-385.5 747,-355.5 443,-355.5"/>
<text text-anchor="start" x="449.5435" y="-366.9" font-family="Arial" font-size="14.00" fill="#000000">ts_modified    </text>
<text text-anchor="start" x="555.3163" y="-366.9" font-family="Arial" font-size="14.00" fill="#666666">[timestamp without time zone]</text>
</g>
<!-- sr.entity_asset&#45;&gt;sr.entity_asset_type -->
<g id="edge1" class="edge">
<title>sr.entity_asset:entity_asset_type_id&#45;&gt;sr.entity_asset_type:entity_asset_type_id</title>
<path fill="none" stroke="#000000" d="M432.7512,-519.8782C353.2452,-509.7829 384.1618,-379.2686 443,-313 532.7464,-211.9199 655.2536,-378.0801 745,-277 773.4757,-244.9283 787.8889,-180.5 745,-180.5"/>
<polygon fill="#000000" stroke="#000000" points="433.0184,-519.8943 442.7275,-524.9917 438.0092,-520.1972 443,-520.5 443,-520.5 443,-520.5 438.0092,-520.1972 443.2725,-516.0083 433.0184,-519.8943 433.0184,-519.8943"/>
<text text-anchor="start" x="7.2375" y="-530.5" font-family="Arial" font-size="10.00" fill="#000000">FOREIGN KEY (entity_asset_type_id) REFERENCES sr.entity_asset_type(entity_asset_type_id)</text>
</g>
</g>
</svg>
