<?xml version="1.0" encoding="UTF-8" standalone="no"?>
<!DOCTYPE svg PUBLIC "-//W3C//DTD SVG 1.1//EN"
 "http://www.w3.org/Graphics/SVG/1.1/DTD/svg11.dtd">
<!-- Generated by graphviz version 2.40.1 (20161225.0304)
 -->
<!-- Title: sr.event Pages: 1 -->
<svg width="1680pt" height="1499pt"
 viewBox="0.00 0.00 1680.00 1499.00" xmlns="http://www.w3.org/2000/svg" xmlns:xlink="http://www.w3.org/1999/xlink">
<g id="graph0" class="graph" transform="scale(1 1) rotate(0) translate(4 1495)">
<title>sr.event</title>
<polygon fill="#ffffff" stroke="transparent" points="-4,4 -4,-1495 1676,-1495 1676,4 -4,4"/>
<!-- sr.event -->
<g id="node1" class="node">
<title>sr.event</title>
<polygon fill="#efefef" stroke="transparent" points="662,-982.5 662,-1017.5 952,-1017.5 952,-982.5 662,-982.5"/>
<polygon fill="none" stroke="#000000" points="662,-982.5 662,-1017.5 952,-1017.5 952,-982.5 662,-982.5"/>
<text text-anchor="start" x="711.2084" y="-995.3" font-family="Arial Bold" font-size="18.00" fill="#000000">sr.event</text>
<text text-anchor="start" x="775.2236" y="-995.3" font-family="Arial" font-size="14.00" fill="#000000">    </text>
<text text-anchor="start" x="809.4284" y="-995.3" font-family="Arial" font-size="14.00" fill="#666666">[BASE TABLE]</text>
<polygon fill="none" stroke="#000000" points="662,-952.5 662,-982.5 952,-982.5 952,-952.5 662,-952.5"/>
<text text-anchor="start" x="669" y="-963.9" font-family="Arial" font-size="14.00" fill="#000000">event_uuid </text>
<text text-anchor="start" x="741.366" y="-963.9" font-family="Arial" font-size="14.00" fill="#666666">[uuid]</text>
<polygon fill="none" stroke="#000000" points="662,-922.5 662,-952.5 952,-952.5 952,-922.5 662,-922.5"/>
<text text-anchor="start" x="669" y="-933.9" font-family="Arial" font-size="14.00" fill="#000000">organization_uuid </text>
<text text-anchor="start" x="783.3702" y="-933.9" font-family="Arial" font-size="14.00" fill="#666666">[uuid]</text>
<polygon fill="none" stroke="#000000" points="662,-892.5 662,-922.5 952,-922.5 952,-892.5 662,-892.5"/>
<text text-anchor="start" x="669" y="-903.9" font-family="Arial" font-size="14.00" fill="#000000">event_status_id </text>
<text text-anchor="start" x="770.9298" y="-903.9" font-family="Arial" font-size="14.00" fill="#666666">[integer]</text>
<polygon fill="none" stroke="#000000" points="662,-862.5 662,-892.5 952,-892.5 952,-862.5 662,-862.5"/>
<text text-anchor="start" x="669" y="-873.9" font-family="Arial" font-size="14.00" fill="#000000">cloud_accounts_enabled </text>
<text text-anchor="start" x="827.7334" y="-873.9" font-family="Arial" font-size="14.00" fill="#666666">[boolean]</text>
<polygon fill="none" stroke="#000000" points="662,-832.5 662,-862.5 952,-862.5 952,-832.5 662,-832.5"/>
<text text-anchor="start" x="668.5253" y="-843.9" font-family="Arial" font-size="14.00" fill="#000000">ts_event_start </text>
<text text-anchor="start" x="760.3345" y="-843.9" font-family="Arial" font-size="14.00" fill="#666666">[timestamp without time zone]</text>
<polygon fill="none" stroke="#000000" points="662,-802.5 662,-832.5 952,-832.5 952,-802.5 662,-802.5"/>
<text text-anchor="start" x="669" y="-813.9" font-family="Arial" font-size="14.00" fill="#000000">ts_event_end </text>
<text text-anchor="start" x="756.9326" y="-813.9" font-family="Arial" font-size="14.00" fill="#666666">[timestamp without time zone]</text>
<polygon fill="none" stroke="#000000" points="662,-772.5 662,-802.5 952,-802.5 952,-772.5 662,-772.5"/>
<text text-anchor="start" x="669" y="-783.9" font-family="Arial" font-size="14.00" fill="#000000">event_details </text>
<text text-anchor="start" x="755.3632" y="-783.9" font-family="Arial" font-size="14.00" fill="#666666">[jsonb]</text>
<polygon fill="none" stroke="#000000" points="662,-742.5 662,-772.5 952,-772.5 952,-742.5 662,-742.5"/>
<text text-anchor="start" x="669" y="-753.9" font-family="Arial" font-size="14.00" fill="#000000">ts_created </text>
<text text-anchor="start" x="738.2454" y="-753.9" font-family="Arial" font-size="14.00" fill="#666666">[timestamp without time zone]</text>
<polygon fill="none" stroke="#000000" points="662,-712.5 662,-742.5 952,-742.5 952,-712.5 662,-712.5"/>
<text text-anchor="start" x="669" y="-723.9" font-family="Arial" font-size="14.00" fill="#000000">ts_modified </text>
<text text-anchor="start" x="744.4586" y="-723.9" font-family="Arial" font-size="14.00" fill="#666666">[timestamp without time zone]</text>
<polygon fill="none" stroke="#000000" points="662,-682.5 662,-712.5 952,-712.5 952,-682.5 662,-682.5"/>
<text text-anchor="start" x="669" y="-693.9" font-family="Arial" font-size="14.00" fill="#000000">event_type_id </text>
<text text-anchor="start" x="760.0392" y="-693.9" font-family="Arial" font-size="14.00" fill="#666666">[integer]</text>
<polygon fill="none" stroke="#000000" points="662,-652.5 662,-682.5 952,-682.5 952,-652.5 662,-652.5"/>
<text text-anchor="start" x="669" y="-663.9" font-family="Arial" font-size="14.00" fill="#000000">event_team_form_mode_id </text>
<text text-anchor="start" x="843.2678" y="-663.9" font-family="Arial" font-size="14.00" fill="#666666">[integer]</text>
<polygon fill="none" stroke="#000000" points="662,-622.5 662,-652.5 952,-652.5 952,-622.5 662,-622.5"/>
<text text-anchor="start" x="669" y="-633.9" font-family="Arial" font-size="14.00" fill="#000000">event_judging_minutes </text>
<text text-anchor="start" x="816.826" y="-633.9" font-family="Arial" font-size="14.00" fill="#666666">[integer]</text>
<polygon fill="none" stroke="#000000" stroke-width="3" points="660.5,-621.5 660.5,-1019.5 953.5,-1019.5 953.5,-621.5 660.5,-621.5"/>
</g>
<!-- sr.organization -->
<g id="node6" class="node">
<title>sr.organization</title>
<polygon fill="#efefef" stroke="transparent" points="43,-462.5 43,-497.5 347,-497.5 347,-462.5 43,-462.5"/>
<polygon fill="none" stroke="#000000" points="43,-462.5 43,-497.5 347,-497.5 347,-462.5 43,-462.5"/>
<text text-anchor="start" x="72.2057" y="-475.3" font-family="Arial Bold" font-size="18.00" fill="#000000">sr.organization</text>
<text text-anchor="start" x="190.2263" y="-475.3" font-family="Arial" font-size="14.00" fill="#000000">    </text>
<text text-anchor="start" x="224.4311" y="-475.3" font-family="Arial" font-size="14.00" fill="#666666">[BASE TABLE]</text>
<polygon fill="none" stroke="#000000" points="43,-432.5 43,-462.5 347,-462.5 347,-432.5 43,-432.5"/>
<text text-anchor="start" x="50" y="-443.9" font-family="Arial" font-size="14.00" fill="#000000">organization_uuid    </text>
<text text-anchor="start" x="194.6844" y="-443.9" font-family="Arial" font-size="14.00" fill="#666666">[uuid]</text>
<polygon fill="none" stroke="#000000" points="43,-402.5 43,-432.5 347,-432.5 347,-402.5 43,-402.5"/>
<text text-anchor="start" x="50" y="-413.9" font-family="Arial" font-size="14.00" fill="#000000">organization_name    </text>
<text text-anchor="start" x="203.2384" y="-413.9" font-family="Arial" font-size="14.00" fill="#666666">[varchar(255)]</text>
<polygon fill="none" stroke="#000000" points="43,-372.5 43,-402.5 347,-402.5 347,-372.5 43,-372.5"/>
<text text-anchor="start" x="50" y="-383.9" font-family="Arial" font-size="14.00" fill="#000000">organization_status_id    </text>
<text text-anchor="start" x="224.2482" y="-383.9" font-family="Arial" font-size="14.00" fill="#666666">[integer]</text>
<polygon fill="none" stroke="#000000" points="43,-342.5 43,-372.5 347,-372.5 347,-342.5 43,-342.5"/>
<text text-anchor="start" x="50" y="-353.9" font-family="Arial" font-size="14.00" fill="#000000">organization_domain    </text>
<text text-anchor="start" x="214.1276" y="-353.9" font-family="Arial" font-size="14.00" fill="#666666">[varchar(255)]</text>
<polygon fill="none" stroke="#000000" points="43,-312.5 43,-342.5 347,-342.5 347,-312.5 43,-312.5"/>
<text text-anchor="start" x="50" y="-323.9" font-family="Arial" font-size="14.00" fill="#000000">organization_logo_image    </text>
<text text-anchor="start" x="240.582" y="-323.9" font-family="Arial" font-size="14.00" fill="#666666">[bytea]</text>
<polygon fill="none" stroke="#000000" points="43,-282.5 43,-312.5 347,-312.5 347,-282.5 43,-282.5"/>
<text text-anchor="start" x="50" y="-293.9" font-family="Arial" font-size="14.00" fill="#000000">primary_contact_email    </text>
<text text-anchor="start" x="224.9916" y="-293.9" font-family="Arial" font-size="14.00" fill="#666666">[varchar(100)]</text>
<polygon fill="none" stroke="#000000" points="43,-252.5 43,-282.5 347,-282.5 347,-252.5 43,-252.5"/>
<text text-anchor="start" x="50" y="-263.9" font-family="Arial" font-size="14.00" fill="#000000">street_address_1    </text>
<text text-anchor="start" x="192.3506" y="-263.9" font-family="Arial" font-size="14.00" fill="#666666">[varchar(100)]</text>
<polygon fill="none" stroke="#000000" points="43,-222.5 43,-252.5 347,-252.5 347,-222.5 43,-222.5"/>
<text text-anchor="start" x="50" y="-233.9" font-family="Arial" font-size="14.00" fill="#000000">street_address_2    </text>
<text text-anchor="start" x="192.3506" y="-233.9" font-family="Arial" font-size="14.00" fill="#666666">[varchar(100)]</text>
<polygon fill="none" stroke="#000000" points="43,-192.5 43,-222.5 347,-222.5 347,-192.5 43,-192.5"/>
<text text-anchor="start" x="50" y="-203.9" font-family="Arial" font-size="14.00" fill="#000000">city    </text>
<text text-anchor="start" x="105.202" y="-203.9" font-family="Arial" font-size="14.00" fill="#666666">[varchar(100)]</text>
<polygon fill="none" stroke="#000000" points="43,-162.5 43,-192.5 347,-192.5 347,-162.5 43,-162.5"/>
<text text-anchor="start" x="50" y="-173.9" font-family="Arial" font-size="14.00" fill="#000000">state_region    </text>
<text text-anchor="start" x="161.2314" y="-173.9" font-family="Arial" font-size="14.00" fill="#666666">[varchar(100)]</text>
<polygon fill="none" stroke="#000000" points="43,-132.5 43,-162.5 347,-162.5 347,-132.5 43,-132.5"/>
<text text-anchor="start" x="50" y="-143.9" font-family="Arial" font-size="14.00" fill="#000000">postal_code    </text>
<text text-anchor="start" x="159.6802" y="-143.9" font-family="Arial" font-size="14.00" fill="#666666">[varchar(25)]</text>
<polygon fill="none" stroke="#000000" points="43,-102.5 43,-132.5 347,-132.5 347,-102.5 43,-102.5"/>
<text text-anchor="start" x="50" y="-113.9" font-family="Arial" font-size="14.00" fill="#000000">phone    </text>
<text text-anchor="start" x="123.1178" y="-113.9" font-family="Arial" font-size="14.00" fill="#666666">[varchar(20)]</text>
<polygon fill="none" stroke="#000000" points="43,-72.5 43,-102.5 347,-102.5 347,-72.5 43,-72.5"/>
<text text-anchor="start" x="50" y="-83.9" font-family="Arial" font-size="14.00" fill="#000000">ts_created    </text>
<text text-anchor="start" x="149.5596" y="-83.9" font-family="Arial" font-size="14.00" fill="#666666">[timestamp without time zone]</text>
<polygon fill="none" stroke="#000000" points="43,-42.5 43,-72.5 347,-72.5 347,-42.5 43,-42.5"/>
<text text-anchor="start" x="49.5435" y="-53.9" font-family="Arial" font-size="14.00" fill="#000000">ts_modified    </text>
<text text-anchor="start" x="155.3163" y="-53.9" font-family="Arial" font-size="14.00" fill="#666666">[timestamp without time zone]</text>
</g>
<!-- sr.event&#45;&gt;sr.organization -->
<g id="edge5" class="edge">
<title>sr.event:organization_uuid&#45;&gt;sr.organization:organization_uuid</title>
<path fill="none" stroke="#000000" d="M651.9862,-937.3329C452.3732,-930.5531 507.1472,-718.7413 399,-541 374.2838,-500.3786 394.5498,-447.5 347,-447.5"/>
<polygon fill="#000000" stroke="#000000" points="652.0014,-937.3331 661.9249,-941.9994 657.0007,-937.4165 662,-937.5 662,-937.5 662,-937.5 657.0007,-937.4165 662.0751,-933.0006 652.0014,-937.3331 652.0014,-937.3331"/>
<text text-anchor="start" x="274.1415" y="-947.5" font-family="Arial" font-size="10.00" fill="#000000">FOREIGN KEY (organization_uuid) REFERENCES sr.organization(organization_uuid)</text>
</g>
<!-- sr.event_status -->
<g id="node7" class="node">
<title>sr.event_status</title>
<polygon fill="#efefef" stroke="transparent" points="451,-327.5 451,-362.5 755,-362.5 755,-327.5 451,-327.5"/>
<polygon fill="none" stroke="#000000" points="451,-327.5 451,-362.5 755,-362.5 755,-327.5 451,-327.5"/>
<text text-anchor="start" x="478.1969" y="-340.3" font-family="Arial Bold" font-size="18.00" fill="#000000">sr.event_status</text>
<text text-anchor="start" x="600.2351" y="-340.3" font-family="Arial" font-size="14.00" fill="#000000">    </text>
<text text-anchor="start" x="634.4399" y="-340.3" font-family="Arial" font-size="14.00" fill="#666666">[BASE TABLE]</text>
<polygon fill="none" stroke="#000000" points="451,-297.5 451,-327.5 755,-327.5 755,-297.5 451,-297.5"/>
<text text-anchor="start" x="458" y="-308.9" font-family="Arial" font-size="14.00" fill="#000000">event_status_id    </text>
<text text-anchor="start" x="590.244" y="-308.9" font-family="Arial" font-size="14.00" fill="#666666">[integer]</text>
<polygon fill="none" stroke="#000000" points="451,-267.5 451,-297.5 755,-297.5 755,-267.5 451,-267.5"/>
<text text-anchor="start" x="458" y="-278.9" font-family="Arial" font-size="14.00" fill="#000000">event_status_name    </text>
<text text-anchor="start" x="614.3632" y="-278.9" font-family="Arial" font-size="14.00" fill="#666666">[varchar(50)]</text>
<polygon fill="none" stroke="#000000" points="451,-237.5 451,-267.5 755,-267.5 755,-237.5 451,-237.5"/>
<text text-anchor="start" x="458" y="-248.9" font-family="Arial" font-size="14.00" fill="#000000">event_status_description    </text>
<text text-anchor="start" x="647.0322" y="-248.9" font-family="Arial" font-size="14.00" fill="#666666">[varchar(512)]</text>
<polygon fill="none" stroke="#000000" points="451,-207.5 451,-237.5 755,-237.5 755,-207.5 451,-207.5"/>
<text text-anchor="start" x="458" y="-218.9" font-family="Arial" font-size="14.00" fill="#000000">ts_created    </text>
<text text-anchor="start" x="557.5596" y="-218.9" font-family="Arial" font-size="14.00" fill="#666666">[timestamp without time zone]</text>
<polygon fill="none" stroke="#000000" points="451,-177.5 451,-207.5 755,-207.5 755,-177.5 451,-177.5"/>
<text text-anchor="start" x="457.5435" y="-188.9" font-family="Arial" font-size="14.00" fill="#000000">ts_modified    </text>
<text text-anchor="start" x="563.3163" y="-188.9" font-family="Arial" font-size="14.00" fill="#666666">[timestamp without time zone]</text>
</g>
<!-- sr.event&#45;&gt;sr.event_status -->
<g id="edge6" class="edge">
<title>sr.event:event_status_id&#45;&gt;sr.event_status:event_status_id</title>
<path fill="none" stroke="#000000" d="M651.6973,-907.167C520.4711,-898.3406 626.6771,-715.8811 662,-577 683.3246,-493.1567 733.6754,-489.8433 755,-406 765.2431,-365.7266 796.5556,-312.5 755,-312.5"/>
<polygon fill="#000000" stroke="#000000" points="652.0052,-907.1768 661.8546,-911.9977 657.0026,-907.3384 662,-907.5 662,-907.5 662,-907.5 657.0026,-907.3384 662.1454,-903.0023 652.0052,-907.1768 652.0052,-907.1768"/>
<text text-anchor="start" x="288.9115" y="-917.5" font-family="Arial" font-size="10.00" fill="#000000">FOREIGN KEY (event_status_id) REFERENCES sr.event_status(event_status_id)</text>
</g>
<!-- sr.event_type -->
<g id="node8" class="node">
<title>sr.event_type</title>
<polygon fill="#efefef" stroke="transparent" points="859,-327.5 859,-362.5 1163,-362.5 1163,-327.5 859,-327.5"/>
<polygon fill="none" stroke="#000000" points="859,-327.5 859,-362.5 1163,-362.5 1163,-327.5 859,-327.5"/>
<text text-anchor="start" x="893.198" y="-340.3" font-family="Arial Bold" font-size="18.00" fill="#000000">sr.event_type</text>
<text text-anchor="start" x="1001.234" y="-340.3" font-family="Arial" font-size="14.00" fill="#000000">    </text>
<text text-anchor="start" x="1035.4388" y="-340.3" font-family="Arial" font-size="14.00" fill="#666666">[BASE TABLE]</text>
<polygon fill="none" stroke="#000000" points="859,-297.5 859,-327.5 1163,-327.5 1163,-297.5 859,-297.5"/>
<text text-anchor="start" x="866" y="-308.9" font-family="Arial" font-size="14.00" fill="#000000">event_type_id    </text>
<text text-anchor="start" x="987.3534" y="-308.9" font-family="Arial" font-size="14.00" fill="#666666">[integer]</text>
<polygon fill="none" stroke="#000000" points="859,-267.5 859,-297.5 1163,-297.5 1163,-267.5 859,-267.5"/>
<text text-anchor="start" x="866" y="-278.9" font-family="Arial" font-size="14.00" fill="#000000">event_type_name    </text>
<text text-anchor="start" x="1011.4726" y="-278.9" font-family="Arial" font-size="14.00" fill="#666666">[varchar(50)]</text>
<polygon fill="none" stroke="#000000" points="859,-237.5 859,-267.5 1163,-267.5 1163,-237.5 859,-237.5"/>
<text text-anchor="start" x="866" y="-248.9" font-family="Arial" font-size="14.00" fill="#000000">event_type_description    </text>
<text text-anchor="start" x="1044.1416" y="-248.9" font-family="Arial" font-size="14.00" fill="#666666">[varchar(512)]</text>
<polygon fill="none" stroke="#000000" points="859,-207.5 859,-237.5 1163,-237.5 1163,-207.5 859,-207.5"/>
<text text-anchor="start" x="866" y="-218.9" font-family="Arial" font-size="14.00" fill="#000000">ts_created    </text>
<text text-anchor="start" x="965.5596" y="-218.9" font-family="Arial" font-size="14.00" fill="#666666">[timestamp without time zone]</text>
<polygon fill="none" stroke="#000000" points="859,-177.5 859,-207.5 1163,-207.5 1163,-177.5 859,-177.5"/>
<text text-anchor="start" x="865.5435" y="-188.9" font-family="Arial" font-size="14.00" fill="#000000">ts_modified    </text>
<text text-anchor="start" x="971.3163" y="-188.9" font-family="Arial" font-size="14.00" fill="#666666">[timestamp without time zone]</text>
</g>
<!-- sr.event&#45;&gt;sr.event_type -->
<g id="edge7" class="edge">
<title>sr.event:event_type_id&#45;&gt;sr.event_type:event_type_id</title>
<path fill="none" stroke="#000000" d="M962.0572,-697.0209C1110.0391,-681.8709 686.5775,-312.5 859,-312.5"/>
<polygon fill="#000000" stroke="#000000" points="961.9887,-697.0241 951.7858,-693.0051 956.9943,-697.262 952,-697.5 952,-697.5 952,-697.5 956.9943,-697.262 952.2142,-701.9949 961.9887,-697.0241 961.9887,-697.0241"/>
<text text-anchor="start" x="958.58" y="-707.5" font-family="Arial" font-size="10.00" fill="#000000">FOREIGN KEY (event_type_id) REFERENCES sr.event_type(event_type_id)</text>
</g>
<!-- sr.event_team_form_mode -->
<g id="node9" class="node">
<title>sr.event_team_form_mode</title>
<polygon fill="#efefef" stroke="transparent" points="1267,-342.5 1267,-377.5 1629,-377.5 1629,-342.5 1267,-342.5"/>
<polygon fill="none" stroke="#000000" points="1267,-342.5 1267,-377.5 1629,-377.5 1629,-342.5 1267,-342.5"/>
<text text-anchor="start" x="1276.6939" y="-355.3" font-family="Arial Bold" font-size="18.00" fill="#000000">sr.event_team_form_mode</text>
<text text-anchor="start" x="1491.7381" y="-355.3" font-family="Arial" font-size="14.00" fill="#000000">    </text>
<text text-anchor="start" x="1525.9429" y="-355.3" font-family="Arial" font-size="14.00" fill="#666666">[BASE TABLE]</text>
<polygon fill="none" stroke="#000000" points="1267,-312.5 1267,-342.5 1629,-342.5 1629,-312.5 1267,-312.5"/>
<text text-anchor="start" x="1274" y="-323.9" font-family="Arial" font-size="14.00" fill="#000000">event_team_form_mode_id    </text>
<text text-anchor="start" x="1478.582" y="-323.9" font-family="Arial" font-size="14.00" fill="#666666">[integer]</text>
<polygon fill="none" stroke="#000000" points="1267,-282.5 1267,-312.5 1629,-312.5 1629,-282.5 1267,-282.5"/>
<text text-anchor="start" x="1274" y="-293.9" font-family="Arial" font-size="14.00" fill="#000000">event_team_form_mode_name    </text>
<text text-anchor="start" x="1502.7012" y="-293.9" font-family="Arial" font-size="14.00" fill="#666666">[varchar(50)]</text>
<polygon fill="none" stroke="#000000" points="1267,-252.5 1267,-282.5 1629,-282.5 1629,-252.5 1267,-252.5"/>
<text text-anchor="start" x="1273.7553" y="-263.9" font-family="Arial" font-size="14.00" fill="#000000">event_team_form_mode_description    </text>
<text text-anchor="start" x="1535.1255" y="-263.9" font-family="Arial" font-size="14.00" fill="#666666">[varchar(512)]</text>
<polygon fill="none" stroke="#000000" points="1267,-222.5 1267,-252.5 1629,-252.5 1629,-222.5 1267,-222.5"/>
<text text-anchor="start" x="1274" y="-233.9" font-family="Arial" font-size="14.00" fill="#000000">ts_created    </text>
<text text-anchor="start" x="1373.5596" y="-233.9" font-family="Arial" font-size="14.00" fill="#666666">[timestamp without time zone]</text>
<polygon fill="none" stroke="#000000" points="1267,-192.5 1267,-222.5 1629,-222.5 1629,-192.5 1267,-192.5"/>
<text text-anchor="start" x="1274" y="-203.9" font-family="Arial" font-size="14.00" fill="#000000">ts_modified    </text>
<text text-anchor="start" x="1379.7728" y="-203.9" font-family="Arial" font-size="14.00" fill="#666666">[timestamp without time zone]</text>
<polygon fill="none" stroke="#000000" points="1267,-162.5 1267,-192.5 1629,-192.5 1629,-162.5 1267,-162.5"/>
<text text-anchor="start" x="1274" y="-173.9" font-family="Arial" font-size="14.00" fill="#000000">event_team_form_mode_enabled    </text>
<text text-anchor="start" x="1517.495" y="-173.9" font-family="Arial" font-size="14.00" fill="#666666">[boolean]</text>
</g>
<!-- sr.event&#45;&gt;sr.event_team_form_mode -->
<g id="edge8" class="edge">
<title>sr.event:event_team_form_mode_id&#45;&gt;sr.event_team_form_mode:event_team_form_mode_id</title>
<path fill="none" stroke="#000000" d="M962.0992,-667.4455C1084.4525,-666.0925 1135.5237,-639.1426 1215,-541 1276.4621,-465.1025 1169.3372,-327.5 1267,-327.5"/>
<polygon fill="#000000" stroke="#000000" points="961.9999,-667.4459 951.9757,-663.0001 956.9999,-667.473 952,-667.5 952,-667.5 952,-667.5 956.9999,-667.473 952.0243,-671.9999 961.9999,-667.4459 961.9999,-667.4459"/>
<text text-anchor="start" x="959.4065" y="-677.5" font-family="Arial" font-size="10.00" fill="#000000">FOREIGN KEY (event_team_form_mode_id) REFERENCES sr.event_team_form_mode(event_team_form_mode_id)</text>
</g>
<!-- sr.participant -->
<g id="node2" class="node">
<title>sr.participant</title>
<polygon fill="#efefef" stroke="transparent" points="43,-1382.5 43,-1417.5 347,-1417.5 347,-1382.5 43,-1382.5"/>
<polygon fill="none" stroke="#000000" points="43,-1382.5 43,-1417.5 347,-1417.5 347,-1382.5 43,-1382.5"/>
<text text-anchor="start" x="79.7108" y="-1395.3" font-family="Arial Bold" font-size="18.00" fill="#000000">sr.participant</text>
<text text-anchor="start" x="182.7212" y="-1395.3" font-family="Arial" font-size="14.00" fill="#000000">    </text>
<text text-anchor="start" x="216.926" y="-1395.3" font-family="Arial" font-size="14.00" fill="#666666">[BASE TABLE]</text>
<polygon fill="none" stroke="#000000" points="43,-1352.5 43,-1382.5 347,-1382.5 347,-1352.5 43,-1352.5"/>
<text text-anchor="start" x="50" y="-1363.9" font-family="Arial" font-size="14.00" fill="#000000">participant_uuid    </text>
<text text-anchor="start" x="183.0098" y="-1363.9" font-family="Arial" font-size="14.00" fill="#666666">[uuid]</text>
<polygon fill="none" stroke="#000000" points="43,-1322.5 43,-1352.5 347,-1352.5 347,-1322.5 43,-1322.5"/>
<text text-anchor="start" x="50" y="-1333.9" font-family="Arial" font-size="14.00" fill="#000000">user_uuid    </text>
<text text-anchor="start" x="145.6676" y="-1333.9" font-family="Arial" font-size="14.00" fill="#666666">[uuid]</text>
<polygon fill="none" stroke="#000000" points="43,-1292.5 43,-1322.5 347,-1322.5 347,-1292.5 43,-1292.5"/>
<text text-anchor="start" x="50" y="-1303.9" font-family="Arial" font-size="14.00" fill="#000000">event_uuid    </text>
<text text-anchor="start" x="152.6802" y="-1303.9" font-family="Arial" font-size="14.00" fill="#666666">[uuid]</text>
<polygon fill="none" stroke="#000000" points="43,-1262.5 43,-1292.5 347,-1292.5 347,-1262.5 43,-1262.5"/>
<text text-anchor="start" x="50" y="-1273.9" font-family="Arial" font-size="14.00" fill="#000000">is_active    </text>
<text text-anchor="start" x="138.6564" y="-1273.9" font-family="Arial" font-size="14.00" fill="#666666">[boolean]</text>
<polygon fill="none" stroke="#000000" points="43,-1232.5 43,-1262.5 347,-1262.5 347,-1232.5 43,-1232.5"/>
<text text-anchor="start" x="50" y="-1243.9" font-family="Arial" font-size="14.00" fill="#000000">ts_created    </text>
<text text-anchor="start" x="149.5596" y="-1243.9" font-family="Arial" font-size="14.00" fill="#666666">[timestamp without time zone]</text>
<polygon fill="none" stroke="#000000" points="43,-1202.5 43,-1232.5 347,-1232.5 347,-1202.5 43,-1202.5"/>
<text text-anchor="start" x="49.5435" y="-1213.9" font-family="Arial" font-size="14.00" fill="#000000">ts_modified    </text>
<text text-anchor="start" x="155.3163" y="-1213.9" font-family="Arial" font-size="14.00" fill="#666666">[timestamp without time zone]</text>
<polygon fill="none" stroke="#000000" points="43,-1172.5 43,-1202.5 347,-1202.5 347,-1172.5 43,-1172.5"/>
<text text-anchor="start" x="50" y="-1183.9" font-family="Arial" font-size="14.00" fill="#000000">tags    </text>
<text text-anchor="start" x="110.6606" y="-1183.9" font-family="Arial" font-size="14.00" fill="#666666">[jsonb]</text>
</g>
<!-- sr.participant&#45;&gt;sr.event -->
<g id="edge1" class="edge">
<title>sr.participant:event_uuid&#45;&gt;sr.event:event_uuid</title>
<path fill="none" stroke="#000000" d="M357.2586,-1306.9014C434.3153,-1297.1788 341.9215,-1171.3353 399,-1100 480.7722,-997.8031 531.1149,-967.5 662,-967.5"/>
<polygon fill="#000000" stroke="#000000" points="356.983,-1306.9174 346.7378,-1303.0076 351.9915,-1307.2087 347,-1307.5 347,-1307.5 347,-1307.5 351.9915,-1307.2087 347.2622,-1311.9924 356.983,-1306.9174 356.983,-1306.9174"/>
<text text-anchor="start" x="201.646" y="-1291.5" font-family="Arial" font-size="10.00" fill="#000000">FOREIGN KEY (event_uuid) REFERENCES sr.event(event_uuid)</text>
</g>
<!-- sr.team -->
<g id="node3" class="node">
<title>sr.team</title>
<polygon fill="#efefef" stroke="transparent" points="451,-1367.5 451,-1402.5 755,-1402.5 755,-1367.5 451,-1367.5"/>
<polygon fill="none" stroke="#000000" points="451,-1367.5 451,-1402.5 755,-1402.5 755,-1367.5 451,-1367.5"/>
<text text-anchor="start" x="509.2154" y="-1380.3" font-family="Arial Bold" font-size="18.00" fill="#000000">sr.team</text>
<text text-anchor="start" x="569.2166" y="-1380.3" font-family="Arial" font-size="14.00" fill="#000000">    </text>
<text text-anchor="start" x="603.4214" y="-1380.3" font-family="Arial" font-size="14.00" fill="#666666">[BASE TABLE]</text>
<polygon fill="none" stroke="#000000" points="451,-1337.5 451,-1367.5 755,-1367.5 755,-1337.5 451,-1337.5"/>
<text text-anchor="start" x="458" y="-1348.9" font-family="Arial" font-size="14.00" fill="#000000">team_uuid    </text>
<text text-anchor="start" x="557.5582" y="-1348.9" font-family="Arial" font-size="14.00" fill="#666666">[uuid]</text>
<polygon fill="none" stroke="#000000" points="451,-1307.5 451,-1337.5 755,-1337.5 755,-1307.5 451,-1307.5"/>
<text text-anchor="start" x="458" y="-1318.9" font-family="Arial" font-size="14.00" fill="#000000">event_uuid    </text>
<text text-anchor="start" x="560.6802" y="-1318.9" font-family="Arial" font-size="14.00" fill="#666666">[uuid]</text>
<polygon fill="none" stroke="#000000" points="451,-1277.5 451,-1307.5 755,-1307.5 755,-1277.5 451,-1277.5"/>
<text text-anchor="start" x="458" y="-1288.9" font-family="Arial" font-size="14.00" fill="#000000">team_status_id    </text>
<text text-anchor="start" x="587.122" y="-1288.9" font-family="Arial" font-size="14.00" fill="#666666">[integer]</text>
<polygon fill="none" stroke="#000000" points="451,-1247.5 451,-1277.5 755,-1277.5 755,-1247.5 451,-1247.5"/>
<text text-anchor="start" x="458" y="-1258.9" font-family="Arial" font-size="14.00" fill="#000000">team_details    </text>
<text text-anchor="start" x="571.5554" y="-1258.9" font-family="Arial" font-size="14.00" fill="#666666">[jsonb]</text>
<polygon fill="none" stroke="#000000" points="451,-1217.5 451,-1247.5 755,-1247.5 755,-1217.5 451,-1217.5"/>
<text text-anchor="start" x="458" y="-1228.9" font-family="Arial" font-size="14.00" fill="#000000">ts_created    </text>
<text text-anchor="start" x="557.5596" y="-1228.9" font-family="Arial" font-size="14.00" fill="#666666">[timestamp without time zone]</text>
<polygon fill="none" stroke="#000000" points="451,-1187.5 451,-1217.5 755,-1217.5 755,-1187.5 451,-1187.5"/>
<text text-anchor="start" x="457.5435" y="-1198.9" font-family="Arial" font-size="14.00" fill="#000000">ts_modified    </text>
<text text-anchor="start" x="563.3163" y="-1198.9" font-family="Arial" font-size="14.00" fill="#666666">[timestamp without time zone]</text>
</g>
<!-- sr.team&#45;&gt;sr.event -->
<g id="edge2" class="edge">
<title>sr.team:event_uuid&#45;&gt;sr.event:event_uuid</title>
<path fill="none" stroke="#000000" d="M765.2834,-1321.8176C829.5866,-1312.6652 786.1485,-1213.4358 755,-1145 732.2934,-1095.1116 684.7066,-1113.8884 662,-1064 644.2329,-1024.9643 619.1111,-967.5 662,-967.5"/>
<polygon fill="#000000" stroke="#000000" points="764.9781,-1321.8378 754.702,-1318.0099 759.989,-1322.1689 755,-1322.5 755,-1322.5 755,-1322.5 759.989,-1322.1689 755.298,-1326.9901 764.9781,-1321.8378 764.9781,-1321.8378"/>
<text text-anchor="start" x="762.146" y="-1332.5" font-family="Arial" font-size="10.00" fill="#000000">FOREIGN KEY (event_uuid) REFERENCES sr.event(event_uuid)</text>
</g>
<!-- sr.judging_criterion -->
<g id="node4" class="node">
<title>sr.judging_criterion</title>
<polygon fill="#efefef" stroke="transparent" points="859,-1412.5 859,-1447.5 1163,-1447.5 1163,-1412.5 859,-1412.5"/>
<polygon fill="none" stroke="#000000" points="859,-1412.5 859,-1447.5 1163,-1447.5 1163,-1412.5 859,-1412.5"/>
<text text-anchor="start" x="871.2092" y="-1425.3" font-family="Arial Bold" font-size="18.00" fill="#000000">sr.judging_criterion</text>
<text text-anchor="start" x="1023.2228" y="-1425.3" font-family="Arial" font-size="14.00" fill="#000000">    </text>
<text text-anchor="start" x="1057.4276" y="-1425.3" font-family="Arial" font-size="14.00" fill="#666666">[BASE TABLE]</text>
<polygon fill="none" stroke="#000000" points="859,-1382.5 859,-1412.5 1163,-1412.5 1163,-1382.5 859,-1382.5"/>
<text text-anchor="start" x="866" y="-1393.9" font-family="Arial" font-size="14.00" fill="#000000">judging_criterion_uuid    </text>
<text text-anchor="start" x="1037.1234" y="-1393.9" font-family="Arial" font-size="14.00" fill="#666666">[uuid]</text>
<polygon fill="none" stroke="#000000" points="859,-1352.5 859,-1382.5 1163,-1382.5 1163,-1352.5 859,-1352.5"/>
<text text-anchor="start" x="866" y="-1363.9" font-family="Arial" font-size="14.00" fill="#000000">organization_uuid    </text>
<text text-anchor="start" x="1010.6844" y="-1363.9" font-family="Arial" font-size="14.00" fill="#666666">[uuid]</text>
<polygon fill="none" stroke="#000000" points="859,-1322.5 859,-1352.5 1163,-1352.5 1163,-1322.5 859,-1322.5"/>
<text text-anchor="start" x="866" y="-1333.9" font-family="Arial" font-size="14.00" fill="#000000">event_uuid    </text>
<text text-anchor="start" x="968.6802" y="-1333.9" font-family="Arial" font-size="14.00" fill="#666666">[uuid]</text>
<polygon fill="none" stroke="#000000" points="859,-1292.5 859,-1322.5 1163,-1322.5 1163,-1292.5 859,-1292.5"/>
<text text-anchor="start" x="866" y="-1303.9" font-family="Arial" font-size="14.00" fill="#000000">judging_criterion_status_id    </text>
<text text-anchor="start" x="1066.6872" y="-1303.9" font-family="Arial" font-size="14.00" fill="#666666">[integer]</text>
<polygon fill="none" stroke="#000000" points="859,-1262.5 859,-1292.5 1163,-1292.5 1163,-1262.5 859,-1262.5"/>
<text text-anchor="start" x="866" y="-1273.9" font-family="Arial" font-size="14.00" fill="#000000">judging_criterion_category_id    </text>
<text text-anchor="start" x="1083.0224" y="-1273.9" font-family="Arial" font-size="14.00" fill="#666666">[integer]</text>
<polygon fill="none" stroke="#000000" points="859,-1232.5 859,-1262.5 1163,-1262.5 1163,-1232.5 859,-1232.5"/>
<text text-anchor="start" x="866" y="-1243.9" font-family="Arial" font-size="14.00" fill="#000000">criterion_weight    </text>
<text text-anchor="start" x="998.2118" y="-1243.9" font-family="Arial" font-size="14.00" fill="#666666">[integer]</text>
<polygon fill="none" stroke="#000000" points="859,-1202.5 859,-1232.5 1163,-1232.5 1163,-1202.5 859,-1202.5"/>
<text text-anchor="start" x="866" y="-1213.9" font-family="Arial" font-size="14.00" fill="#000000">criterion_details    </text>
<text text-anchor="start" x="998.2118" y="-1213.9" font-family="Arial" font-size="14.00" fill="#666666">[jsonb]</text>
<polygon fill="none" stroke="#000000" points="859,-1172.5 859,-1202.5 1163,-1202.5 1163,-1172.5 859,-1172.5"/>
<text text-anchor="start" x="866" y="-1183.9" font-family="Arial" font-size="14.00" fill="#000000">ts_created    </text>
<text text-anchor="start" x="965.5596" y="-1183.9" font-family="Arial" font-size="14.00" fill="#666666">[timestamp without time zone]</text>
<polygon fill="none" stroke="#000000" points="859,-1142.5 859,-1172.5 1163,-1172.5 1163,-1142.5 859,-1142.5"/>
<text text-anchor="start" x="865.5435" y="-1153.9" font-family="Arial" font-size="14.00" fill="#000000">ts_modified    </text>
<text text-anchor="start" x="971.3163" y="-1153.9" font-family="Arial" font-size="14.00" fill="#666666">[timestamp without time zone]</text>
</g>
<!-- sr.judging_criterion&#45;&gt;sr.event -->
<g id="edge3" class="edge">
<title>sr.judging_criterion:event_uuid&#45;&gt;sr.event:event_uuid</title>
<path fill="none" stroke="#000000" d="M849.216,-1334.8909C809.3915,-1311.6846 831.2069,-1140.5614 859,-1100 884.0529,-1063.4377 926.9471,-1100.5623 952,-1064 976.2428,-1028.62 994.8889,-967.5 952,-967.5"/>
<polygon fill="#000000" stroke="#000000" points="849.3377,-1334.9232 857.8405,-1341.848 854.1688,-1336.2116 859,-1337.5 859,-1337.5 859,-1337.5 854.1688,-1336.2116 860.1595,-1333.152 849.3377,-1334.9232 849.3377,-1334.9232"/>
<text text-anchor="start" x="866.146" y="-1347.5" font-family="Arial" font-size="10.00" fill="#000000">FOREIGN KEY (event_uuid) REFERENCES sr.event(event_uuid)</text>
</g>
<!-- sr.team_event_feedback -->
<g id="node5" class="node">
<title>sr.team_event_feedback</title>
<polygon fill="#efefef" stroke="transparent" points="1267,-1382.5 1267,-1417.5 1605,-1417.5 1605,-1382.5 1267,-1382.5"/>
<polygon fill="none" stroke="#000000" points="1267,-1382.5 1267,-1417.5 1605,-1417.5 1605,-1382.5 1267,-1382.5"/>
<text text-anchor="start" x="1273.6822" y="-1395.3" font-family="Arial Bold" font-size="18.00" fill="#000000">sr.team_event_feedback</text>
<text text-anchor="start" x="1470.7498" y="-1395.3" font-family="Arial" font-size="14.00" fill="#000000">    </text>
<text text-anchor="start" x="1504.9546" y="-1395.3" font-family="Arial" font-size="14.00" fill="#666666">[BASE TABLE]</text>
<polygon fill="none" stroke="#000000" points="1267,-1352.5 1267,-1382.5 1605,-1382.5 1605,-1352.5 1267,-1352.5"/>
<text text-anchor="start" x="1274" y="-1363.9" font-family="Arial" font-size="14.00" fill="#000000">team_event_feedback_uuid    </text>
<text text-anchor="start" x="1480.1654" y="-1363.9" font-family="Arial" font-size="14.00" fill="#666666">[uuid]</text>
<polygon fill="none" stroke="#000000" points="1267,-1322.5 1267,-1352.5 1605,-1352.5 1605,-1322.5 1267,-1322.5"/>
<text text-anchor="start" x="1274" y="-1333.9" font-family="Arial" font-size="14.00" fill="#000000">participant_uuid    </text>
<text text-anchor="start" x="1407.0098" y="-1333.9" font-family="Arial" font-size="14.00" fill="#666666">[uuid]</text>
<polygon fill="none" stroke="#000000" points="1267,-1292.5 1267,-1322.5 1605,-1322.5 1605,-1292.5 1267,-1292.5"/>
<text text-anchor="start" x="1274" y="-1303.9" font-family="Arial" font-size="14.00" fill="#000000">event_uuid    </text>
<text text-anchor="start" x="1376.6802" y="-1303.9" font-family="Arial" font-size="14.00" fill="#666666">[uuid]</text>
<polygon fill="none" stroke="#000000" points="1267,-1262.5 1267,-1292.5 1605,-1292.5 1605,-1262.5 1267,-1262.5"/>
<text text-anchor="start" x="1274" y="-1273.9" font-family="Arial" font-size="14.00" fill="#000000">team_uuid    </text>
<text text-anchor="start" x="1373.5582" y="-1273.9" font-family="Arial" font-size="14.00" fill="#666666">[uuid]</text>
<polygon fill="none" stroke="#000000" points="1267,-1232.5 1267,-1262.5 1605,-1262.5 1605,-1232.5 1267,-1232.5"/>
<text text-anchor="start" x="1274" y="-1243.9" font-family="Arial" font-size="14.00" fill="#000000">feedback_text    </text>
<text text-anchor="start" x="1395.3548" y="-1243.9" font-family="Arial" font-size="14.00" fill="#666666">[varchar(2500)]</text>
<polygon fill="none" stroke="#000000" points="1267,-1202.5 1267,-1232.5 1605,-1232.5 1605,-1202.5 1267,-1202.5"/>
<text text-anchor="start" x="1274" y="-1213.9" font-family="Arial" font-size="14.00" fill="#000000">ts_created    </text>
<text text-anchor="start" x="1373.5596" y="-1213.9" font-family="Arial" font-size="14.00" fill="#666666">[timestamp without time zone]</text>
<polygon fill="none" stroke="#000000" points="1267,-1172.5 1267,-1202.5 1605,-1202.5 1605,-1172.5 1267,-1172.5"/>
<text text-anchor="start" x="1274" y="-1183.9" font-family="Arial" font-size="14.00" fill="#000000">ts_modified    </text>
<text text-anchor="start" x="1379.7728" y="-1183.9" font-family="Arial" font-size="14.00" fill="#666666">[timestamp without time zone]</text>
</g>
<!-- sr.team_event_feedback&#45;&gt;sr.event -->
<g id="edge4" class="edge">
<title>sr.team_event_feedback:event_uuid&#45;&gt;sr.event:event_uuid</title>
<path fill="none" stroke="#000000" d="M1256.7414,-1306.9014C1179.6847,-1297.1788 1272.0785,-1171.3353 1215,-1100 1133.2278,-997.8031 1082.8851,-967.5 952,-967.5"/>
<polygon fill="#000000" stroke="#000000" points="1257.017,-1306.9174 1266.7378,-1311.9924 1262.0085,-1307.2087 1267,-1307.5 1267,-1307.5 1267,-1307.5 1262.0085,-1307.2087 1267.2622,-1303.0076 1257.017,-1306.9174 1257.017,-1306.9174"/>
<text text-anchor="start" x="1045.396" y="-1291.5" font-family="Arial" font-size="10.00" fill="#000000">FOREIGN KEY (event_uuid) REFERENCES sr.event(event_uuid)</text>
</g>
</g>
</svg>
