<?xml version="1.0" encoding="UTF-8" standalone="no"?>
<!DOCTYPE svg PUBLIC "-//W3C//DTD SVG 1.1//EN"
 "http://www.w3.org/Graphics/SVG/1.1/DTD/svg11.dtd">
<!-- Generated by graphviz version 2.40.1 (20161225.0304)
 -->
<!-- Title: sr.event_type Pages: 1 -->
<svg width="729pt" height="802pt"
 viewBox="0.00 0.00 728.50 802.00" xmlns="http://www.w3.org/2000/svg" xmlns:xlink="http://www.w3.org/1999/xlink">
<g id="graph0" class="graph" transform="scale(1 1) rotate(0) translate(4 798)">
<title>sr.event_type</title>
<polygon fill="#ffffff" stroke="transparent" points="-4,4 -4,-798 724.5,-798 724.5,4 -4,4"/>
<!-- sr.event_type -->
<g id="node1" class="node">
<title>sr.event_type</title>
<polygon fill="#efefef" stroke="transparent" points="67.5,-195.5 67.5,-230.5 341.5,-230.5 341.5,-195.5 67.5,-195.5"/>
<polygon fill="none" stroke="#000000" points="67.5,-195.5 67.5,-230.5 341.5,-230.5 341.5,-195.5 67.5,-195.5"/>
<text text-anchor="start" x="86.698" y="-208.3" font-family="Arial Bold" font-size="18.00" fill="#000000">sr.event_type</text>
<text text-anchor="start" x="194.734" y="-208.3" font-family="Arial" font-size="14.00" fill="#000000">    </text>
<text text-anchor="start" x="228.9388" y="-208.3" font-family="Arial" font-size="14.00" fill="#666666">[BASE TABLE]</text>
<polygon fill="none" stroke="#000000" points="67.5,-165.5 67.5,-195.5 341.5,-195.5 341.5,-165.5 67.5,-165.5"/>
<text text-anchor="start" x="74.5" y="-176.9" font-family="Arial" font-size="14.00" fill="#000000">event_type_id </text>
<text text-anchor="start" x="165.5392" y="-176.9" font-family="Arial" font-size="14.00" fill="#666666">[integer]</text>
<polygon fill="none" stroke="#000000" points="67.5,-135.5 67.5,-165.5 341.5,-165.5 341.5,-135.5 67.5,-135.5"/>
<text text-anchor="start" x="74.5" y="-146.9" font-family="Arial" font-size="14.00" fill="#000000">event_type_name </text>
<text text-anchor="start" x="189.6584" y="-146.9" font-family="Arial" font-size="14.00" fill="#666666">[varchar(50)]</text>
<polygon fill="none" stroke="#000000" points="67.5,-105.5 67.5,-135.5 341.5,-135.5 341.5,-105.5 67.5,-105.5"/>
<text text-anchor="start" x="74.5" y="-116.9" font-family="Arial" font-size="14.00" fill="#000000">event_type_description </text>
<text text-anchor="start" x="222.3274" y="-116.9" font-family="Arial" font-size="14.00" fill="#666666">[varchar(512)]</text>
<polygon fill="none" stroke="#000000" points="67.5,-75.5 67.5,-105.5 341.5,-105.5 341.5,-75.5 67.5,-75.5"/>
<text text-anchor="start" x="74.5" y="-86.9" font-family="Arial" font-size="14.00" fill="#000000">ts_created </text>
<text text-anchor="start" x="143.7454" y="-86.9" font-family="Arial" font-size="14.00" fill="#666666">[timestamp without time zone]</text>
<polygon fill="none" stroke="#000000" points="67.5,-45.5 67.5,-75.5 341.5,-75.5 341.5,-45.5 67.5,-45.5"/>
<text text-anchor="start" x="74.2006" y="-56.9" font-family="Arial" font-size="14.00" fill="#000000">ts_modified </text>
<text text-anchor="start" x="149.6592" y="-56.9" font-family="Arial" font-size="14.00" fill="#666666">[timestamp without time zone]</text>
<polygon fill="none" stroke="#000000" stroke-width="3" points="66,-44.5 66,-232.5 343,-232.5 343,-44.5 66,-44.5"/>
</g>
<!-- sr.event -->
<g id="node2" class="node">
<title>sr.event</title>
<polygon fill="#efefef" stroke="transparent" points="43.5,-715.5 43.5,-750.5 364.5,-750.5 364.5,-715.5 43.5,-715.5"/>
<polygon fill="none" stroke="#000000" points="43.5,-715.5 43.5,-750.5 364.5,-750.5 364.5,-715.5 43.5,-715.5"/>
<text text-anchor="start" x="108.2084" y="-728.3" font-family="Arial Bold" font-size="18.00" fill="#000000">sr.event</text>
<text text-anchor="start" x="172.2236" y="-728.3" font-family="Arial" font-size="14.00" fill="#000000">    </text>
<text text-anchor="start" x="206.4284" y="-728.3" font-family="Arial" font-size="14.00" fill="#666666">[BASE TABLE]</text>
<polygon fill="none" stroke="#000000" points="43.5,-685.5 43.5,-715.5 364.5,-715.5 364.5,-685.5 43.5,-685.5"/>
<text text-anchor="start" x="50.5" y="-696.9" font-family="Arial" font-size="14.00" fill="#000000">event_uuid    </text>
<text text-anchor="start" x="153.1802" y="-696.9" font-family="Arial" font-size="14.00" fill="#666666">[uuid]</text>
<polygon fill="none" stroke="#000000" points="43.5,-655.5 43.5,-685.5 364.5,-685.5 364.5,-655.5 43.5,-655.5"/>
<text text-anchor="start" x="50.5" y="-666.9" font-family="Arial" font-size="14.00" fill="#000000">organization_uuid    </text>
<text text-anchor="start" x="195.1844" y="-666.9" font-family="Arial" font-size="14.00" fill="#666666">[uuid]</text>
<polygon fill="none" stroke="#000000" points="43.5,-625.5 43.5,-655.5 364.5,-655.5 364.5,-625.5 43.5,-625.5"/>
<text text-anchor="start" x="50.5" y="-636.9" font-family="Arial" font-size="14.00" fill="#000000">event_status_id    </text>
<text text-anchor="start" x="182.744" y="-636.9" font-family="Arial" font-size="14.00" fill="#666666">[integer]</text>
<polygon fill="none" stroke="#000000" points="43.5,-595.5 43.5,-625.5 364.5,-625.5 364.5,-595.5 43.5,-595.5"/>
<text text-anchor="start" x="50.5" y="-606.9" font-family="Arial" font-size="14.00" fill="#000000">cloud_accounts_enabled    </text>
<text text-anchor="start" x="239.5476" y="-606.9" font-family="Arial" font-size="14.00" fill="#666666">[boolean]</text>
<polygon fill="none" stroke="#000000" points="43.5,-565.5 43.5,-595.5 364.5,-595.5 364.5,-565.5 43.5,-565.5"/>
<text text-anchor="start" x="50.3682" y="-576.9" font-family="Arial" font-size="14.00" fill="#000000">ts_event_start    </text>
<text text-anchor="start" x="172.4916" y="-576.9" font-family="Arial" font-size="14.00" fill="#666666">[timestamp without time zone]</text>
<polygon fill="none" stroke="#000000" points="43.5,-535.5 43.5,-565.5 364.5,-565.5 364.5,-535.5 43.5,-535.5"/>
<text text-anchor="start" x="50.5" y="-546.9" font-family="Arial" font-size="14.00" fill="#000000">ts_event_end    </text>
<text text-anchor="start" x="168.7468" y="-546.9" font-family="Arial" font-size="14.00" fill="#666666">[timestamp without time zone]</text>
<polygon fill="none" stroke="#000000" points="43.5,-505.5 43.5,-535.5 364.5,-535.5 364.5,-505.5 43.5,-505.5"/>
<text text-anchor="start" x="50.5" y="-516.9" font-family="Arial" font-size="14.00" fill="#000000">event_details    </text>
<text text-anchor="start" x="167.1774" y="-516.9" font-family="Arial" font-size="14.00" fill="#666666">[jsonb]</text>
<polygon fill="none" stroke="#000000" points="43.5,-475.5 43.5,-505.5 364.5,-505.5 364.5,-475.5 43.5,-475.5"/>
<text text-anchor="start" x="50.5" y="-486.9" font-family="Arial" font-size="14.00" fill="#000000">ts_created    </text>
<text text-anchor="start" x="150.0596" y="-486.9" font-family="Arial" font-size="14.00" fill="#666666">[timestamp without time zone]</text>
<polygon fill="none" stroke="#000000" points="43.5,-445.5 43.5,-475.5 364.5,-475.5 364.5,-445.5 43.5,-445.5"/>
<text text-anchor="start" x="50.5" y="-456.9" font-family="Arial" font-size="14.00" fill="#000000">ts_modified    </text>
<text text-anchor="start" x="156.2728" y="-456.9" font-family="Arial" font-size="14.00" fill="#666666">[timestamp without time zone]</text>
<polygon fill="none" stroke="#000000" points="43.5,-415.5 43.5,-445.5 364.5,-445.5 364.5,-415.5 43.5,-415.5"/>
<text text-anchor="start" x="50.5" y="-426.9" font-family="Arial" font-size="14.00" fill="#000000">event_type_id    </text>
<text text-anchor="start" x="171.8534" y="-426.9" font-family="Arial" font-size="14.00" fill="#666666">[integer]</text>
<polygon fill="none" stroke="#000000" points="43.5,-385.5 43.5,-415.5 364.5,-415.5 364.5,-385.5 43.5,-385.5"/>
<text text-anchor="start" x="50.5" y="-396.9" font-family="Arial" font-size="14.00" fill="#000000">event_team_form_mode_id    </text>
<text text-anchor="start" x="255.082" y="-396.9" font-family="Arial" font-size="14.00" fill="#666666">[integer]</text>
<polygon fill="none" stroke="#000000" points="43.5,-355.5 43.5,-385.5 364.5,-385.5 364.5,-355.5 43.5,-355.5"/>
<text text-anchor="start" x="50.5" y="-366.9" font-family="Arial" font-size="14.00" fill="#000000">event_judging_minutes    </text>
<text text-anchor="start" x="228.6402" y="-366.9" font-family="Arial" font-size="14.00" fill="#666666">[integer]</text>
</g>
<!-- sr.event&#45;&gt;sr.event_type -->
<g id="edge1" class="edge">
<title>sr.event:event_type_id&#45;&gt;sr.event_type:event_type_id</title>
<path fill="none" stroke="#000000" d="M374.4986,-429.3779C414.1646,-419.6674 396.6986,-349.3371 364.5,-313 276.3168,-213.4825 155.6832,-376.5175 67.5,-277 39.0561,-244.9001 24.6111,-180.5 67.5,-180.5"/>
<polygon fill="#000000" stroke="#000000" points="374.4376,-429.3847 363.9981,-426.0281 369.4688,-429.9423 364.5,-430.5 364.5,-430.5 364.5,-430.5 369.4688,-429.9423 365.0019,-434.9719 374.4376,-429.3847 374.4376,-429.3847"/>
<text text-anchor="start" x="371.08" y="-440.5" font-family="Arial" font-size="10.00" fill="#000000">FOREIGN KEY (event_type_id) REFERENCES sr.event_type(event_type_id)</text>
</g>
</g>
</svg>
