<?xml version="1.0" encoding="UTF-8" standalone="no"?>
<!DOCTYPE svg PUBLIC "-//W3C//DTD SVG 1.1//EN"
 "http://www.w3.org/Graphics/SVG/1.1/DTD/svg11.dtd">
<!-- Generated by graphviz version 2.40.1 (20161225.0304)
 -->
<!-- Title: sr.entity_asset Pages: 1 -->
<svg width="790pt" height="682pt"
 viewBox="0.00 0.00 789.50 682.00" xmlns="http://www.w3.org/2000/svg" xmlns:xlink="http://www.w3.org/1999/xlink">
<g id="graph0" class="graph" transform="scale(1 1) rotate(0) translate(4 678)">
<title>sr.entity_asset</title>
<polygon fill="#ffffff" stroke="transparent" points="-4,4 -4,-678 785.5,-678 785.5,4 -4,4"/>
<!-- sr.entity_asset -->
<g id="node1" class="node">
<title>sr.entity_asset</title>
<polygon fill="#efefef" stroke="transparent" points="443,-592.5 443,-627.5 717,-627.5 717,-592.5 443,-592.5"/>
<polygon fill="none" stroke="#000000" points="443,-592.5 443,-627.5 717,-627.5 717,-592.5 443,-592.5"/>
<text text-anchor="start" x="458.2029" y="-605.3" font-family="Arial Bold" font-size="18.00" fill="#000000">sr.entity_asset</text>
<text text-anchor="start" x="574.2291" y="-605.3" font-family="Arial" font-size="14.00" fill="#000000">    </text>
<text text-anchor="start" x="608.4339" y="-605.3" font-family="Arial" font-size="14.00" fill="#666666">[BASE TABLE]</text>
<polygon fill="none" stroke="#000000" points="443,-562.5 443,-592.5 717,-592.5 717,-562.5 443,-562.5"/>
<text text-anchor="start" x="450" y="-573.9" font-family="Arial" font-size="14.00" fill="#000000">entity_asset_uuid </text>
<text text-anchor="start" x="562.819" y="-573.9" font-family="Arial" font-size="14.00" fill="#666666">[uuid]</text>
<polygon fill="none" stroke="#000000" points="443,-532.5 443,-562.5 717,-562.5 717,-532.5 443,-532.5"/>
<text text-anchor="start" x="450" y="-543.9" font-family="Arial" font-size="14.00" fill="#000000">entity_uuid </text>
<text text-anchor="start" x="521.5806" y="-543.9" font-family="Arial" font-size="14.00" fill="#666666">[uuid]</text>
<polygon fill="none" stroke="#000000" points="443,-502.5 443,-532.5 717,-532.5 717,-502.5 443,-502.5"/>
<text text-anchor="start" x="450" y="-513.9" font-family="Arial" font-size="14.00" fill="#000000">entity_asset_type_id </text>
<text text-anchor="start" x="581.4922" y="-513.9" font-family="Arial" font-size="14.00" fill="#666666">[integer]</text>
<polygon fill="none" stroke="#000000" points="443,-472.5 443,-502.5 717,-502.5 717,-472.5 443,-472.5"/>
<text text-anchor="start" x="450" y="-483.9" font-family="Arial" font-size="14.00" fill="#000000">entity_asset_mime_type </text>
<text text-anchor="start" x="604.8134" y="-483.9" font-family="Arial" font-size="14.00" fill="#666666">[varchar(512)]</text>
<polygon fill="none" stroke="#000000" points="443,-442.5 443,-472.5 717,-472.5 717,-442.5 443,-442.5"/>
<text text-anchor="start" x="450" y="-453.9" font-family="Arial" font-size="14.00" fill="#000000">entity_asset_filename </text>
<text text-anchor="start" x="589.2594" y="-453.9" font-family="Arial" font-size="14.00" fill="#666666">[varchar(512)]</text>
<polygon fill="none" stroke="#000000" points="443,-412.5 443,-442.5 717,-442.5 717,-412.5 443,-412.5"/>
<text text-anchor="start" x="450" y="-423.9" font-family="Arial" font-size="14.00" fill="#000000">entity_asset_details </text>
<text text-anchor="start" x="576.8162" y="-423.9" font-family="Arial" font-size="14.00" fill="#666666">[jsonb]</text>
<polygon fill="none" stroke="#000000" points="443,-382.5 443,-412.5 717,-412.5 717,-382.5 443,-382.5"/>
<text text-anchor="start" x="450" y="-393.9" font-family="Arial" font-size="14.00" fill="#000000">ts_created </text>
<text text-anchor="start" x="519.2454" y="-393.9" font-family="Arial" font-size="14.00" fill="#666666">[timestamp without time zone]</text>
<polygon fill="none" stroke="#000000" points="443,-352.5 443,-382.5 717,-382.5 717,-352.5 443,-352.5"/>
<text text-anchor="start" x="449.7006" y="-363.9" font-family="Arial" font-size="14.00" fill="#000000">ts_modified </text>
<text text-anchor="start" x="525.1592" y="-363.9" font-family="Arial" font-size="14.00" fill="#666666">[timestamp without time zone]</text>
<polygon fill="none" stroke="#000000" stroke-width="3" points="441.5,-351.5 441.5,-629.5 718.5,-629.5 718.5,-351.5 441.5,-351.5"/>
</g>
<!-- sr.entity_asset_type -->
<g id="node2" class="node">
<title>sr.entity_asset_type</title>
<polygon fill="#efefef" stroke="transparent" points="420,-192.5 420,-227.5 739,-227.5 739,-192.5 420,-192.5"/>
<polygon fill="none" stroke="#000000" points="420,-192.5 420,-227.5 739,-227.5 739,-192.5 420,-192.5"/>
<text text-anchor="start" x="435.6925" y="-205.3" font-family="Arial Bold" font-size="18.00" fill="#000000">sr.entity_asset_type</text>
<text text-anchor="start" x="595.7395" y="-205.3" font-family="Arial" font-size="14.00" fill="#000000">    </text>
<text text-anchor="start" x="629.9443" y="-205.3" font-family="Arial" font-size="14.00" fill="#666666">[BASE TABLE]</text>
<polygon fill="none" stroke="#000000" points="420,-162.5 420,-192.5 739,-192.5 739,-162.5 420,-162.5"/>
<text text-anchor="start" x="427" y="-173.9" font-family="Arial" font-size="14.00" fill="#000000">entity_asset_type_id    </text>
<text text-anchor="start" x="588.8064" y="-173.9" font-family="Arial" font-size="14.00" fill="#666666">[integer]</text>
<polygon fill="none" stroke="#000000" points="420,-132.5 420,-162.5 739,-162.5 739,-132.5 420,-132.5"/>
<text text-anchor="start" x="427" y="-143.9" font-family="Arial" font-size="14.00" fill="#000000">entity_asset_type_name    </text>
<text text-anchor="start" x="612.9256" y="-143.9" font-family="Arial" font-size="14.00" fill="#666666">[varchar(50)]</text>
<polygon fill="none" stroke="#000000" points="420,-102.5 420,-132.5 739,-132.5 739,-102.5 420,-102.5"/>
<text text-anchor="start" x="426.6431" y="-113.9" font-family="Arial" font-size="14.00" fill="#000000">entity_asset_type_description    </text>
<text text-anchor="start" x="645.2377" y="-113.9" font-family="Arial" font-size="14.00" fill="#666666">[varchar(512)]</text>
<polygon fill="none" stroke="#000000" points="420,-72.5 420,-102.5 739,-102.5 739,-72.5 420,-72.5"/>
<text text-anchor="start" x="427" y="-83.9" font-family="Arial" font-size="14.00" fill="#000000">ts_created    </text>
<text text-anchor="start" x="526.5596" y="-83.9" font-family="Arial" font-size="14.00" fill="#666666">[timestamp without time zone]</text>
<polygon fill="none" stroke="#000000" points="420,-42.5 420,-72.5 739,-72.5 739,-42.5 420,-42.5"/>
<text text-anchor="start" x="427" y="-53.9" font-family="Arial" font-size="14.00" fill="#000000">ts_modified    </text>
<text text-anchor="start" x="532.7728" y="-53.9" font-family="Arial" font-size="14.00" fill="#666666">[timestamp without time zone]</text>
</g>
<!-- sr.entity_asset&#45;&gt;sr.entity_asset_type -->
<g id="edge1" class="edge">
<title>sr.entity_asset:entity_asset_type_id&#45;&gt;sr.entity_asset_type:entity_asset_type_id</title>
<path fill="none" stroke="#000000" d="M432.6034,-516.8696C351.9538,-506.6335 383.3912,-374.2978 443,-307 530.8705,-207.795 651.1295,-370.205 739,-271 766.5534,-239.8925 780.5556,-177.5 739,-177.5"/>
<polygon fill="#000000" stroke="#000000" points="433.0183,-516.8946 442.7276,-521.9917 438.0092,-517.1973 443,-517.5 443,-517.5 443,-517.5 438.0092,-517.1973 443.2724,-513.0083 433.0183,-516.8946 433.0183,-516.8946"/>
<text text-anchor="start" x="7.2375" y="-527.5" font-family="Arial" font-size="10.00" fill="#000000">FOREIGN KEY (entity_asset_type_id) REFERENCES sr.entity_asset_type(entity_asset_type_id)</text>
</g>
</g>
</svg>
