<?xml version="1.0" encoding="UTF-8" standalone="no"?>
<!DOCTYPE svg PUBLIC "-//W3C//DTD SVG 1.1//EN"
 "http://www.w3.org/Graphics/SVG/1.1/DTD/svg11.dtd">
<!-- Generated by graphviz version 2.40.1 (20161225.0304)
 -->
<!-- Title: sr.external_link_type Pages: 1 -->
<svg width="814pt" height="682pt"
 viewBox="0.00 0.00 814.00 682.00" xmlns="http://www.w3.org/2000/svg" xmlns:xlink="http://www.w3.org/1999/xlink">
<g id="graph0" class="graph" transform="scale(1 1) rotate(0) translate(4 678)">
<title>sr.external_link_type</title>
<polygon fill="#ffffff" stroke="transparent" points="-4,4 -4,-678 810,-678 810,4 -4,4"/>
<!-- sr.external_link_type -->
<g id="node1" class="node">
<title>sr.external_link_type</title>
<polygon fill="#efefef" stroke="transparent" points="46,-195.5 46,-230.5 352,-230.5 352,-195.5 46,-195.5"/>
<polygon fill="none" stroke="#000000" points="46,-195.5 46,-230.5 352,-230.5 352,-195.5 46,-195.5"/>
<text text-anchor="start" x="52.7013" y="-208.3" font-family="Arial Bold" font-size="18.00" fill="#000000">sr.external_link_type</text>
<text text-anchor="start" x="217.7307" y="-208.3" font-family="Arial" font-size="14.00" fill="#000000">    </text>
<text text-anchor="start" x="251.9355" y="-208.3" font-family="Arial" font-size="14.00" fill="#666666">[BASE TABLE]</text>
<polygon fill="none" stroke="#000000" points="46,-165.5 46,-195.5 352,-195.5 352,-165.5 46,-165.5"/>
<text text-anchor="start" x="53" y="-176.9" font-family="Arial" font-size="14.00" fill="#000000">external_link_type_id </text>
<text text-anchor="start" x="188.3674" y="-176.9" font-family="Arial" font-size="14.00" fill="#666666">[integer]</text>
<polygon fill="none" stroke="#000000" points="46,-135.5 46,-165.5 352,-165.5 352,-135.5 46,-135.5"/>
<text text-anchor="start" x="53" y="-146.9" font-family="Arial" font-size="14.00" fill="#000000">external_link_type_name </text>
<text text-anchor="start" x="212.4866" y="-146.9" font-family="Arial" font-size="14.00" fill="#666666">[varchar(100)]</text>
<polygon fill="none" stroke="#000000" points="46,-105.5 46,-135.5 352,-135.5 352,-105.5 46,-105.5"/>
<text text-anchor="start" x="53" y="-116.9" font-family="Arial" font-size="14.00" fill="#000000">external_link_type_description </text>
<text text-anchor="start" x="245.1556" y="-116.9" font-family="Arial" font-size="14.00" fill="#666666">[varchar(512)]</text>
<polygon fill="none" stroke="#000000" points="46,-75.5 46,-105.5 352,-105.5 352,-75.5 46,-75.5"/>
<text text-anchor="start" x="53" y="-86.9" font-family="Arial" font-size="14.00" fill="#000000">ts_created </text>
<text text-anchor="start" x="122.2454" y="-86.9" font-family="Arial" font-size="14.00" fill="#666666">[timestamp without time zone]</text>
<polygon fill="none" stroke="#000000" points="46,-45.5 46,-75.5 352,-75.5 352,-45.5 46,-45.5"/>
<text text-anchor="start" x="53" y="-56.9" font-family="Arial" font-size="14.00" fill="#000000">ts_modified </text>
<text text-anchor="start" x="128.4586" y="-56.9" font-family="Arial" font-size="14.00" fill="#666666">[timestamp without time zone]</text>
<polygon fill="none" stroke="#000000" stroke-width="3" points="44.5,-44.5 44.5,-232.5 353.5,-232.5 353.5,-44.5 44.5,-44.5"/>
</g>
<!-- sr.team_external_link -->
<g id="node2" class="node">
<title>sr.team_external_link</title>
<polygon fill="#efefef" stroke="transparent" points="43,-595.5 43,-630.5 355,-630.5 355,-595.5 43,-595.5"/>
<polygon fill="none" stroke="#000000" points="43,-595.5 43,-630.5 355,-630.5 355,-595.5 43,-595.5"/>
<text text-anchor="start" x="49.7052" y="-608.3" font-family="Arial Bold" font-size="18.00" fill="#000000">sr.team_external_link</text>
<text text-anchor="start" x="220.7268" y="-608.3" font-family="Arial" font-size="14.00" fill="#000000">    </text>
<text text-anchor="start" x="254.9316" y="-608.3" font-family="Arial" font-size="14.00" fill="#666666">[BASE TABLE]</text>
<polygon fill="none" stroke="#000000" points="43,-565.5 43,-595.5 355,-595.5 355,-565.5 43,-565.5"/>
<text text-anchor="start" x="50" y="-576.9" font-family="Arial" font-size="14.00" fill="#000000">team_external_link_uuid    </text>
<text text-anchor="start" x="235.9074" y="-576.9" font-family="Arial" font-size="14.00" fill="#666666">[uuid]</text>
<polygon fill="none" stroke="#000000" points="43,-535.5 43,-565.5 355,-565.5 355,-535.5 43,-535.5"/>
<text text-anchor="start" x="50" y="-546.9" font-family="Arial" font-size="14.00" fill="#000000">team_uuid    </text>
<text text-anchor="start" x="149.5582" y="-546.9" font-family="Arial" font-size="14.00" fill="#666666">[uuid]</text>
<polygon fill="none" stroke="#000000" points="43,-505.5 43,-535.5 355,-535.5 355,-505.5 43,-505.5"/>
<text text-anchor="start" x="50" y="-516.9" font-family="Arial" font-size="14.00" fill="#000000">external_link_type_id    </text>
<text text-anchor="start" x="215.6816" y="-516.9" font-family="Arial" font-size="14.00" fill="#666666">[integer]</text>
<polygon fill="none" stroke="#000000" points="43,-475.5 43,-505.5 355,-505.5 355,-475.5 43,-475.5"/>
<text text-anchor="start" x="50" y="-486.9" font-family="Arial" font-size="14.00" fill="#000000">team_external_link_name    </text>
<text text-anchor="start" x="244.4614" y="-486.9" font-family="Arial" font-size="14.00" fill="#666666">[varchar(50)]</text>
<polygon fill="none" stroke="#000000" points="43,-445.5 43,-475.5 355,-475.5 355,-445.5 43,-445.5"/>
<text text-anchor="start" x="50" y="-456.9" font-family="Arial" font-size="14.00" fill="#000000">team_external_link_url    </text>
<text text-anchor="start" x="225.0028" y="-456.9" font-family="Arial" font-size="14.00" fill="#666666">[varchar(1000)]</text>
<polygon fill="none" stroke="#000000" points="43,-415.5 43,-445.5 355,-445.5 355,-415.5 43,-415.5"/>
<text text-anchor="start" x="50" y="-426.9" font-family="Arial" font-size="14.00" fill="#000000">team_private    </text>
<text text-anchor="start" x="165.1094" y="-426.9" font-family="Arial" font-size="14.00" fill="#666666">[boolean]</text>
<polygon fill="none" stroke="#000000" points="43,-385.5 43,-415.5 355,-415.5 355,-385.5 43,-385.5"/>
<text text-anchor="start" x="50" y="-396.9" font-family="Arial" font-size="14.00" fill="#000000">ts_created    </text>
<text text-anchor="start" x="149.5596" y="-396.9" font-family="Arial" font-size="14.00" fill="#666666">[timestamp without time zone]</text>
<polygon fill="none" stroke="#000000" points="43,-355.5 43,-385.5 355,-385.5 355,-355.5 43,-355.5"/>
<text text-anchor="start" x="50" y="-366.9" font-family="Arial" font-size="14.00" fill="#000000">ts_modified    </text>
<text text-anchor="start" x="155.7728" y="-366.9" font-family="Arial" font-size="14.00" fill="#666666">[timestamp without time zone]</text>
</g>
<!-- sr.team_external_link&#45;&gt;sr.external_link_type -->
<g id="edge1" class="edge">
<title>sr.team_external_link:external_link_type_id&#45;&gt;sr.external_link_type:external_link_type_id</title>
<path fill="none" stroke="#000000" d="M365.1082,-518.3288C430.1178,-489.3721 424.0167,-180.5 352,-180.5"/>
<polygon fill="#000000" stroke="#000000" points="364.777,-518.3999 354.0549,-516.1003 359.8885,-519.4499 355,-520.5 355,-520.5 355,-520.5 359.8885,-519.4499 355.9451,-524.8997 364.777,-518.3999 364.777,-518.3999"/>
<text text-anchor="start" x="362.0855" y="-530.5" font-family="Arial" font-size="10.00" fill="#000000">FOREIGN KEY (external_link_type_id) REFERENCES sr.external_link_type(external_link_type_id)</text>
</g>
</g>
</svg>
