<?xml version="1.0" encoding="UTF-8" standalone="no"?>
<!DOCTYPE svg PUBLIC "-//W3C//DTD SVG 1.1//EN"
 "http://www.w3.org/Graphics/SVG/1.1/DTD/svg11.dtd">
<!-- Generated by graphviz version 2.40.1 (20161225.0304)
 -->
<!-- Title: sr.event_team_form_mode Pages: 1 -->
<svg width="927pt" height="832pt"
 viewBox="0.00 0.00 927.00 832.00" xmlns="http://www.w3.org/2000/svg" xmlns:xlink="http://www.w3.org/1999/xlink">
<g id="graph0" class="graph" transform="scale(1 1) rotate(0) translate(4 828)">
<title>sr.event_team_form_mode</title>
<polygon fill="#ffffff" stroke="transparent" points="-4,4 -4,-828 923,-828 923,4 -4,4"/>
<!-- sr.event_team_form_mode -->
<g id="node1" class="node">
<title>sr.event_team_form_mode</title>
<polygon fill="#efefef" stroke="transparent" points="46,-225.5 46,-260.5 402,-260.5 402,-225.5 46,-225.5"/>
<polygon fill="none" stroke="#000000" points="46,-225.5 46,-260.5 402,-260.5 402,-225.5 46,-225.5"/>
<text text-anchor="start" x="52.6939" y="-238.3" font-family="Arial Bold" font-size="18.00" fill="#000000">sr.event_team_form_mode</text>
<text text-anchor="start" x="267.7381" y="-238.3" font-family="Arial" font-size="14.00" fill="#000000">    </text>
<text text-anchor="start" x="301.9429" y="-238.3" font-family="Arial" font-size="14.00" fill="#666666">[BASE TABLE]</text>
<polygon fill="none" stroke="#000000" points="46,-195.5 46,-225.5 402,-225.5 402,-195.5 46,-195.5"/>
<text text-anchor="start" x="53" y="-206.9" font-family="Arial" font-size="14.00" fill="#000000">event_team_form_mode_id </text>
<text text-anchor="start" x="227.2678" y="-206.9" font-family="Arial" font-size="14.00" fill="#666666">[integer]</text>
<polygon fill="none" stroke="#000000" points="46,-165.5 46,-195.5 402,-195.5 402,-165.5 46,-165.5"/>
<text text-anchor="start" x="53" y="-176.9" font-family="Arial" font-size="14.00" fill="#000000">event_team_form_mode_name </text>
<text text-anchor="start" x="251.387" y="-176.9" font-family="Arial" font-size="14.00" fill="#666666">[varchar(50)]</text>
<polygon fill="none" stroke="#000000" points="46,-135.5 46,-165.5 402,-165.5 402,-135.5 46,-135.5"/>
<text text-anchor="start" x="53" y="-146.9" font-family="Arial" font-size="14.00" fill="#000000">event_team_form_mode_description </text>
<text text-anchor="start" x="284.056" y="-146.9" font-family="Arial" font-size="14.00" fill="#666666">[varchar(512)]</text>
<polygon fill="none" stroke="#000000" points="46,-105.5 46,-135.5 402,-135.5 402,-105.5 46,-105.5"/>
<text text-anchor="start" x="53" y="-116.9" font-family="Arial" font-size="14.00" fill="#000000">ts_created </text>
<text text-anchor="start" x="122.2454" y="-116.9" font-family="Arial" font-size="14.00" fill="#666666">[timestamp without time zone]</text>
<polygon fill="none" stroke="#000000" points="46,-75.5 46,-105.5 402,-105.5 402,-75.5 46,-75.5"/>
<text text-anchor="start" x="53" y="-86.9" font-family="Arial" font-size="14.00" fill="#000000">ts_modified </text>
<text text-anchor="start" x="128.4586" y="-86.9" font-family="Arial" font-size="14.00" fill="#666666">[timestamp without time zone]</text>
<polygon fill="none" stroke="#000000" points="46,-45.5 46,-75.5 402,-75.5 402,-45.5 46,-45.5"/>
<text text-anchor="start" x="53" y="-56.9" font-family="Arial" font-size="14.00" fill="#000000">event_team_form_mode_enabled </text>
<text text-anchor="start" x="266.1808" y="-56.9" font-family="Arial" font-size="14.00" fill="#666666">[boolean]</text>
<polygon fill="none" stroke="#000000" stroke-width="3" points="44.5,-44.5 44.5,-262.5 403.5,-262.5 403.5,-44.5 44.5,-44.5"/>
</g>
<!-- sr.event -->
<g id="node2" class="node">
<title>sr.event</title>
<polygon fill="#efefef" stroke="transparent" points="63,-745.5 63,-780.5 384,-780.5 384,-745.5 63,-745.5"/>
<polygon fill="none" stroke="#000000" points="63,-745.5 63,-780.5 384,-780.5 384,-745.5 63,-745.5"/>
<text text-anchor="start" x="127.7084" y="-758.3" font-family="Arial Bold" font-size="18.00" fill="#000000">sr.event</text>
<text text-anchor="start" x="191.7236" y="-758.3" font-family="Arial" font-size="14.00" fill="#000000">    </text>
<text text-anchor="start" x="225.9284" y="-758.3" font-family="Arial" font-size="14.00" fill="#666666">[BASE TABLE]</text>
<polygon fill="none" stroke="#000000" points="63,-715.5 63,-745.5 384,-745.5 384,-715.5 63,-715.5"/>
<text text-anchor="start" x="70" y="-726.9" font-family="Arial" font-size="14.00" fill="#000000">event_uuid    </text>
<text text-anchor="start" x="172.6802" y="-726.9" font-family="Arial" font-size="14.00" fill="#666666">[uuid]</text>
<polygon fill="none" stroke="#000000" points="63,-685.5 63,-715.5 384,-715.5 384,-685.5 63,-685.5"/>
<text text-anchor="start" x="70" y="-696.9" font-family="Arial" font-size="14.00" fill="#000000">organization_uuid    </text>
<text text-anchor="start" x="214.6844" y="-696.9" font-family="Arial" font-size="14.00" fill="#666666">[uuid]</text>
<polygon fill="none" stroke="#000000" points="63,-655.5 63,-685.5 384,-685.5 384,-655.5 63,-655.5"/>
<text text-anchor="start" x="70" y="-666.9" font-family="Arial" font-size="14.00" fill="#000000">event_status_id    </text>
<text text-anchor="start" x="202.244" y="-666.9" font-family="Arial" font-size="14.00" fill="#666666">[integer]</text>
<polygon fill="none" stroke="#000000" points="63,-625.5 63,-655.5 384,-655.5 384,-625.5 63,-625.5"/>
<text text-anchor="start" x="70" y="-636.9" font-family="Arial" font-size="14.00" fill="#000000">cloud_accounts_enabled    </text>
<text text-anchor="start" x="259.0476" y="-636.9" font-family="Arial" font-size="14.00" fill="#666666">[boolean]</text>
<polygon fill="none" stroke="#000000" points="63,-595.5 63,-625.5 384,-625.5 384,-595.5 63,-595.5"/>
<text text-anchor="start" x="69.8682" y="-606.9" font-family="Arial" font-size="14.00" fill="#000000">ts_event_start    </text>
<text text-anchor="start" x="191.9916" y="-606.9" font-family="Arial" font-size="14.00" fill="#666666">[timestamp without time zone]</text>
<polygon fill="none" stroke="#000000" points="63,-565.5 63,-595.5 384,-595.5 384,-565.5 63,-565.5"/>
<text text-anchor="start" x="70" y="-576.9" font-family="Arial" font-size="14.00" fill="#000000">ts_event_end    </text>
<text text-anchor="start" x="188.2468" y="-576.9" font-family="Arial" font-size="14.00" fill="#666666">[timestamp without time zone]</text>
<polygon fill="none" stroke="#000000" points="63,-535.5 63,-565.5 384,-565.5 384,-535.5 63,-535.5"/>
<text text-anchor="start" x="70" y="-546.9" font-family="Arial" font-size="14.00" fill="#000000">event_details    </text>
<text text-anchor="start" x="186.6774" y="-546.9" font-family="Arial" font-size="14.00" fill="#666666">[jsonb]</text>
<polygon fill="none" stroke="#000000" points="63,-505.5 63,-535.5 384,-535.5 384,-505.5 63,-505.5"/>
<text text-anchor="start" x="70" y="-516.9" font-family="Arial" font-size="14.00" fill="#000000">ts_created    </text>
<text text-anchor="start" x="169.5596" y="-516.9" font-family="Arial" font-size="14.00" fill="#666666">[timestamp without time zone]</text>
<polygon fill="none" stroke="#000000" points="63,-475.5 63,-505.5 384,-505.5 384,-475.5 63,-475.5"/>
<text text-anchor="start" x="70" y="-486.9" font-family="Arial" font-size="14.00" fill="#000000">ts_modified    </text>
<text text-anchor="start" x="175.7728" y="-486.9" font-family="Arial" font-size="14.00" fill="#666666">[timestamp without time zone]</text>
<polygon fill="none" stroke="#000000" points="63,-445.5 63,-475.5 384,-475.5 384,-445.5 63,-445.5"/>
<text text-anchor="start" x="70" y="-456.9" font-family="Arial" font-size="14.00" fill="#000000">event_type_id    </text>
<text text-anchor="start" x="191.3534" y="-456.9" font-family="Arial" font-size="14.00" fill="#666666">[integer]</text>
<polygon fill="none" stroke="#000000" points="63,-415.5 63,-445.5 384,-445.5 384,-415.5 63,-415.5"/>
<text text-anchor="start" x="70" y="-426.9" font-family="Arial" font-size="14.00" fill="#000000">event_team_form_mode_id    </text>
<text text-anchor="start" x="274.582" y="-426.9" font-family="Arial" font-size="14.00" fill="#666666">[integer]</text>
<polygon fill="none" stroke="#000000" points="63,-385.5 63,-415.5 384,-415.5 384,-385.5 63,-385.5"/>
<text text-anchor="start" x="70" y="-396.9" font-family="Arial" font-size="14.00" fill="#000000">event_judging_minutes    </text>
<text text-anchor="start" x="248.1402" y="-396.9" font-family="Arial" font-size="14.00" fill="#666666">[integer]</text>
</g>
<!-- sr.event&#45;&gt;sr.event_team_form_mode -->
<g id="edge1" class="edge">
<title>sr.event:event_team_form_mode_id&#45;&gt;sr.event_team_form_mode:event_team_form_mode_id</title>
<path fill="none" stroke="#000000" d="M393.9479,-428.9061C420.2468,-419.3411 407.4624,-369.0941 384,-343 333.4956,-286.8308 96.5044,-363.1692 46,-307 17.3239,-275.1074 3.1111,-210.5 46,-210.5"/>
<polygon fill="#000000" stroke="#000000" points="393.8741,-428.9179 383.2881,-426.0567 388.937,-429.7089 384,-430.5 384,-430.5 384,-430.5 388.937,-429.7089 384.7119,-434.9433 393.8741,-428.9179 393.8741,-428.9179"/>
<text text-anchor="start" x="391.4065" y="-440.5" font-family="Arial" font-size="10.00" fill="#000000">FOREIGN KEY (event_team_form_mode_id) REFERENCES sr.event_team_form_mode(event_team_form_mode_id)</text>
</g>
</g>
</svg>
