<?xml version="1.0" encoding="UTF-8" standalone="no"?>
<!DOCTYPE svg PUBLIC "-//W3C//DTD SVG 1.1//EN"
 "http://www.w3.org/Graphics/SVG/1.1/DTD/svg11.dtd">
<!-- Generated by graphviz version 2.40.1 (20161225.0304)
 -->
<!-- Title: sr.judging_criterion Pages: 1 -->
<svg width="1764pt" height="1379pt"
 viewBox="0.00 0.00 1764.00 1379.00" xmlns="http://www.w3.org/2000/svg" xmlns:xlink="http://www.w3.org/1999/xlink">
<g id="graph0" class="graph" transform="scale(1 1) rotate(0) translate(4 1375)">
<title>sr.judging_criterion</title>
<polygon fill="#ffffff" stroke="transparent" points="-4,4 -4,-1375 1760,-1375 1760,4 -4,4"/>
<!-- sr.judging_criterion -->
<g id="node1" class="node">
<title>sr.judging_criterion</title>
<polygon fill="#efefef" stroke="transparent" points="687,-892.5 687,-927.5 980,-927.5 980,-892.5 687,-892.5"/>
<polygon fill="none" stroke="#000000" points="687,-892.5 687,-927.5 980,-927.5 980,-892.5 687,-892.5"/>
<text text-anchor="start" x="693.7092" y="-905.3" font-family="Arial Bold" font-size="18.00" fill="#000000">sr.judging_criterion</text>
<text text-anchor="start" x="845.7228" y="-905.3" font-family="Arial" font-size="14.00" fill="#000000">    </text>
<text text-anchor="start" x="879.9276" y="-905.3" font-family="Arial" font-size="14.00" fill="#666666">[BASE TABLE]</text>
<polygon fill="none" stroke="#000000" points="687,-862.5 687,-892.5 980,-892.5 980,-862.5 687,-862.5"/>
<text text-anchor="start" x="694" y="-873.9" font-family="Arial" font-size="14.00" fill="#000000">judging_criterion_uuid </text>
<text text-anchor="start" x="834.8092" y="-873.9" font-family="Arial" font-size="14.00" fill="#666666">[uuid]</text>
<polygon fill="none" stroke="#000000" points="687,-832.5 687,-862.5 980,-862.5 980,-832.5 687,-832.5"/>
<text text-anchor="start" x="694" y="-843.9" font-family="Arial" font-size="14.00" fill="#000000">organization_uuid </text>
<text text-anchor="start" x="808.3702" y="-843.9" font-family="Arial" font-size="14.00" fill="#666666">[uuid]</text>
<polygon fill="none" stroke="#000000" points="687,-802.5 687,-832.5 980,-832.5 980,-802.5 687,-802.5"/>
<text text-anchor="start" x="694" y="-813.9" font-family="Arial" font-size="14.00" fill="#000000">event_uuid </text>
<text text-anchor="start" x="766.366" y="-813.9" font-family="Arial" font-size="14.00" fill="#666666">[uuid]</text>
<polygon fill="none" stroke="#000000" points="687,-772.5 687,-802.5 980,-802.5 980,-772.5 687,-772.5"/>
<text text-anchor="start" x="694" y="-783.9" font-family="Arial" font-size="14.00" fill="#000000">judging_criterion_status_id </text>
<text text-anchor="start" x="864.373" y="-783.9" font-family="Arial" font-size="14.00" fill="#666666">[integer]</text>
<polygon fill="none" stroke="#000000" points="687,-742.5 687,-772.5 980,-772.5 980,-742.5 687,-742.5"/>
<text text-anchor="start" x="694" y="-753.9" font-family="Arial" font-size="14.00" fill="#000000">judging_criterion_category_id </text>
<text text-anchor="start" x="880.7082" y="-753.9" font-family="Arial" font-size="14.00" fill="#666666">[integer]</text>
<polygon fill="none" stroke="#000000" points="687,-712.5 687,-742.5 980,-742.5 980,-712.5 687,-712.5"/>
<text text-anchor="start" x="694" y="-723.9" font-family="Arial" font-size="14.00" fill="#000000">criterion_weight </text>
<text text-anchor="start" x="795.8976" y="-723.9" font-family="Arial" font-size="14.00" fill="#666666">[integer]</text>
<polygon fill="none" stroke="#000000" points="687,-682.5 687,-712.5 980,-712.5 980,-682.5 687,-682.5"/>
<text text-anchor="start" x="694" y="-693.9" font-family="Arial" font-size="14.00" fill="#000000">criterion_details </text>
<text text-anchor="start" x="795.8976" y="-693.9" font-family="Arial" font-size="14.00" fill="#666666">[jsonb]</text>
<polygon fill="none" stroke="#000000" points="687,-652.5 687,-682.5 980,-682.5 980,-652.5 687,-652.5"/>
<text text-anchor="start" x="694" y="-663.9" font-family="Arial" font-size="14.00" fill="#000000">ts_created </text>
<text text-anchor="start" x="763.2454" y="-663.9" font-family="Arial" font-size="14.00" fill="#666666">[timestamp without time zone]</text>
<polygon fill="none" stroke="#000000" points="687,-622.5 687,-652.5 980,-652.5 980,-622.5 687,-622.5"/>
<text text-anchor="start" x="694" y="-633.9" font-family="Arial" font-size="14.00" fill="#000000">ts_modified </text>
<text text-anchor="start" x="769.4586" y="-633.9" font-family="Arial" font-size="14.00" fill="#666666">[timestamp without time zone]</text>
<polygon fill="none" stroke="#000000" stroke-width="3" points="685,-621.5 685,-929.5 981,-929.5 981,-621.5 685,-621.5"/>
</g>
<!-- sr.organization -->
<g id="node3" class="node">
<title>sr.organization</title>
<polygon fill="#efefef" stroke="transparent" points="43,-462.5 43,-497.5 347,-497.5 347,-462.5 43,-462.5"/>
<polygon fill="none" stroke="#000000" points="43,-462.5 43,-497.5 347,-497.5 347,-462.5 43,-462.5"/>
<text text-anchor="start" x="72.2057" y="-475.3" font-family="Arial Bold" font-size="18.00" fill="#000000">sr.organization</text>
<text text-anchor="start" x="190.2263" y="-475.3" font-family="Arial" font-size="14.00" fill="#000000">    </text>
<text text-anchor="start" x="224.4311" y="-475.3" font-family="Arial" font-size="14.00" fill="#666666">[BASE TABLE]</text>
<polygon fill="none" stroke="#000000" points="43,-432.5 43,-462.5 347,-462.5 347,-432.5 43,-432.5"/>
<text text-anchor="start" x="50" y="-443.9" font-family="Arial" font-size="14.00" fill="#000000">organization_uuid    </text>
<text text-anchor="start" x="194.6844" y="-443.9" font-family="Arial" font-size="14.00" fill="#666666">[uuid]</text>
<polygon fill="none" stroke="#000000" points="43,-402.5 43,-432.5 347,-432.5 347,-402.5 43,-402.5"/>
<text text-anchor="start" x="50" y="-413.9" font-family="Arial" font-size="14.00" fill="#000000">organization_name    </text>
<text text-anchor="start" x="203.2384" y="-413.9" font-family="Arial" font-size="14.00" fill="#666666">[varchar(255)]</text>
<polygon fill="none" stroke="#000000" points="43,-372.5 43,-402.5 347,-402.5 347,-372.5 43,-372.5"/>
<text text-anchor="start" x="50" y="-383.9" font-family="Arial" font-size="14.00" fill="#000000">organization_status_id    </text>
<text text-anchor="start" x="224.2482" y="-383.9" font-family="Arial" font-size="14.00" fill="#666666">[integer]</text>
<polygon fill="none" stroke="#000000" points="43,-342.5 43,-372.5 347,-372.5 347,-342.5 43,-342.5"/>
<text text-anchor="start" x="50" y="-353.9" font-family="Arial" font-size="14.00" fill="#000000">organization_domain    </text>
<text text-anchor="start" x="214.1276" y="-353.9" font-family="Arial" font-size="14.00" fill="#666666">[varchar(255)]</text>
<polygon fill="none" stroke="#000000" points="43,-312.5 43,-342.5 347,-342.5 347,-312.5 43,-312.5"/>
<text text-anchor="start" x="50" y="-323.9" font-family="Arial" font-size="14.00" fill="#000000">organization_logo_image    </text>
<text text-anchor="start" x="240.582" y="-323.9" font-family="Arial" font-size="14.00" fill="#666666">[bytea]</text>
<polygon fill="none" stroke="#000000" points="43,-282.5 43,-312.5 347,-312.5 347,-282.5 43,-282.5"/>
<text text-anchor="start" x="50" y="-293.9" font-family="Arial" font-size="14.00" fill="#000000">primary_contact_email    </text>
<text text-anchor="start" x="224.9916" y="-293.9" font-family="Arial" font-size="14.00" fill="#666666">[varchar(100)]</text>
<polygon fill="none" stroke="#000000" points="43,-252.5 43,-282.5 347,-282.5 347,-252.5 43,-252.5"/>
<text text-anchor="start" x="50" y="-263.9" font-family="Arial" font-size="14.00" fill="#000000">street_address_1    </text>
<text text-anchor="start" x="192.3506" y="-263.9" font-family="Arial" font-size="14.00" fill="#666666">[varchar(100)]</text>
<polygon fill="none" stroke="#000000" points="43,-222.5 43,-252.5 347,-252.5 347,-222.5 43,-222.5"/>
<text text-anchor="start" x="50" y="-233.9" font-family="Arial" font-size="14.00" fill="#000000">street_address_2    </text>
<text text-anchor="start" x="192.3506" y="-233.9" font-family="Arial" font-size="14.00" fill="#666666">[varchar(100)]</text>
<polygon fill="none" stroke="#000000" points="43,-192.5 43,-222.5 347,-222.5 347,-192.5 43,-192.5"/>
<text text-anchor="start" x="50" y="-203.9" font-family="Arial" font-size="14.00" fill="#000000">city    </text>
<text text-anchor="start" x="105.202" y="-203.9" font-family="Arial" font-size="14.00" fill="#666666">[varchar(100)]</text>
<polygon fill="none" stroke="#000000" points="43,-162.5 43,-192.5 347,-192.5 347,-162.5 43,-162.5"/>
<text text-anchor="start" x="50" y="-173.9" font-family="Arial" font-size="14.00" fill="#000000">state_region    </text>
<text text-anchor="start" x="161.2314" y="-173.9" font-family="Arial" font-size="14.00" fill="#666666">[varchar(100)]</text>
<polygon fill="none" stroke="#000000" points="43,-132.5 43,-162.5 347,-162.5 347,-132.5 43,-132.5"/>
<text text-anchor="start" x="50" y="-143.9" font-family="Arial" font-size="14.00" fill="#000000">postal_code    </text>
<text text-anchor="start" x="159.6802" y="-143.9" font-family="Arial" font-size="14.00" fill="#666666">[varchar(25)]</text>
<polygon fill="none" stroke="#000000" points="43,-102.5 43,-132.5 347,-132.5 347,-102.5 43,-102.5"/>
<text text-anchor="start" x="50" y="-113.9" font-family="Arial" font-size="14.00" fill="#000000">phone    </text>
<text text-anchor="start" x="123.1178" y="-113.9" font-family="Arial" font-size="14.00" fill="#666666">[varchar(20)]</text>
<polygon fill="none" stroke="#000000" points="43,-72.5 43,-102.5 347,-102.5 347,-72.5 43,-72.5"/>
<text text-anchor="start" x="50" y="-83.9" font-family="Arial" font-size="14.00" fill="#000000">ts_created    </text>
<text text-anchor="start" x="149.5596" y="-83.9" font-family="Arial" font-size="14.00" fill="#666666">[timestamp without time zone]</text>
<polygon fill="none" stroke="#000000" points="43,-42.5 43,-72.5 347,-72.5 347,-42.5 43,-42.5"/>
<text text-anchor="start" x="49.5435" y="-53.9" font-family="Arial" font-size="14.00" fill="#000000">ts_modified    </text>
<text text-anchor="start" x="155.3163" y="-53.9" font-family="Arial" font-size="14.00" fill="#666666">[timestamp without time zone]</text>
</g>
<!-- sr.judging_criterion&#45;&gt;sr.organization -->
<g id="edge2" class="edge">
<title>sr.judging_criterion:organization_uuid&#45;&gt;sr.organization:organization_uuid</title>
<path fill="none" stroke="#000000" d="M676.7956,-847.3404C500.3761,-841.7288 507.2183,-689.1374 399,-541 370.9509,-502.6042 394.5498,-447.5 347,-447.5"/>
<polygon fill="#000000" stroke="#000000" points="677.0012,-847.3435 686.9296,-851.9994 682.0006,-847.4217 687,-847.5 687,-847.5 687,-847.5 682.0006,-847.4217 687.0704,-843.0006 677.0012,-847.3435 677.0012,-847.3435"/>
<text text-anchor="start" x="299.1415" y="-857.5" font-family="Arial" font-size="10.00" fill="#000000">FOREIGN KEY (organization_uuid) REFERENCES sr.organization(organization_uuid)</text>
</g>
<!-- sr.event -->
<g id="node4" class="node">
<title>sr.event</title>
<polygon fill="#efefef" stroke="transparent" points="452,-432.5 452,-467.5 773,-467.5 773,-432.5 452,-432.5"/>
<polygon fill="none" stroke="#000000" points="452,-432.5 452,-467.5 773,-467.5 773,-432.5 452,-432.5"/>
<text text-anchor="start" x="516.7084" y="-445.3" font-family="Arial Bold" font-size="18.00" fill="#000000">sr.event</text>
<text text-anchor="start" x="580.7236" y="-445.3" font-family="Arial" font-size="14.00" fill="#000000">    </text>
<text text-anchor="start" x="614.9284" y="-445.3" font-family="Arial" font-size="14.00" fill="#666666">[BASE TABLE]</text>
<polygon fill="none" stroke="#000000" points="452,-402.5 452,-432.5 773,-432.5 773,-402.5 452,-402.5"/>
<text text-anchor="start" x="459" y="-413.9" font-family="Arial" font-size="14.00" fill="#000000">event_uuid    </text>
<text text-anchor="start" x="561.6802" y="-413.9" font-family="Arial" font-size="14.00" fill="#666666">[uuid]</text>
<polygon fill="none" stroke="#000000" points="452,-372.5 452,-402.5 773,-402.5 773,-372.5 452,-372.5"/>
<text text-anchor="start" x="459" y="-383.9" font-family="Arial" font-size="14.00" fill="#000000">organization_uuid    </text>
<text text-anchor="start" x="603.6844" y="-383.9" font-family="Arial" font-size="14.00" fill="#666666">[uuid]</text>
<polygon fill="none" stroke="#000000" points="452,-342.5 452,-372.5 773,-372.5 773,-342.5 452,-342.5"/>
<text text-anchor="start" x="459" y="-353.9" font-family="Arial" font-size="14.00" fill="#000000">event_status_id    </text>
<text text-anchor="start" x="591.244" y="-353.9" font-family="Arial" font-size="14.00" fill="#666666">[integer]</text>
<polygon fill="none" stroke="#000000" points="452,-312.5 452,-342.5 773,-342.5 773,-312.5 452,-312.5"/>
<text text-anchor="start" x="459" y="-323.9" font-family="Arial" font-size="14.00" fill="#000000">cloud_accounts_enabled    </text>
<text text-anchor="start" x="648.0476" y="-323.9" font-family="Arial" font-size="14.00" fill="#666666">[boolean]</text>
<polygon fill="none" stroke="#000000" points="452,-282.5 452,-312.5 773,-312.5 773,-282.5 452,-282.5"/>
<text text-anchor="start" x="458.8682" y="-293.9" font-family="Arial" font-size="14.00" fill="#000000">ts_event_start    </text>
<text text-anchor="start" x="580.9916" y="-293.9" font-family="Arial" font-size="14.00" fill="#666666">[timestamp without time zone]</text>
<polygon fill="none" stroke="#000000" points="452,-252.5 452,-282.5 773,-282.5 773,-252.5 452,-252.5"/>
<text text-anchor="start" x="459" y="-263.9" font-family="Arial" font-size="14.00" fill="#000000">ts_event_end    </text>
<text text-anchor="start" x="577.2468" y="-263.9" font-family="Arial" font-size="14.00" fill="#666666">[timestamp without time zone]</text>
<polygon fill="none" stroke="#000000" points="452,-222.5 452,-252.5 773,-252.5 773,-222.5 452,-222.5"/>
<text text-anchor="start" x="459" y="-233.9" font-family="Arial" font-size="14.00" fill="#000000">event_details    </text>
<text text-anchor="start" x="575.6774" y="-233.9" font-family="Arial" font-size="14.00" fill="#666666">[jsonb]</text>
<polygon fill="none" stroke="#000000" points="452,-192.5 452,-222.5 773,-222.5 773,-192.5 452,-192.5"/>
<text text-anchor="start" x="459" y="-203.9" font-family="Arial" font-size="14.00" fill="#000000">ts_created    </text>
<text text-anchor="start" x="558.5596" y="-203.9" font-family="Arial" font-size="14.00" fill="#666666">[timestamp without time zone]</text>
<polygon fill="none" stroke="#000000" points="452,-162.5 452,-192.5 773,-192.5 773,-162.5 452,-162.5"/>
<text text-anchor="start" x="459" y="-173.9" font-family="Arial" font-size="14.00" fill="#000000">ts_modified    </text>
<text text-anchor="start" x="564.7728" y="-173.9" font-family="Arial" font-size="14.00" fill="#666666">[timestamp without time zone]</text>
<polygon fill="none" stroke="#000000" points="452,-132.5 452,-162.5 773,-162.5 773,-132.5 452,-132.5"/>
<text text-anchor="start" x="459" y="-143.9" font-family="Arial" font-size="14.00" fill="#000000">event_type_id    </text>
<text text-anchor="start" x="580.3534" y="-143.9" font-family="Arial" font-size="14.00" fill="#666666">[integer]</text>
<polygon fill="none" stroke="#000000" points="452,-102.5 452,-132.5 773,-132.5 773,-102.5 452,-102.5"/>
<text text-anchor="start" x="459" y="-113.9" font-family="Arial" font-size="14.00" fill="#000000">event_team_form_mode_id    </text>
<text text-anchor="start" x="663.582" y="-113.9" font-family="Arial" font-size="14.00" fill="#666666">[integer]</text>
<polygon fill="none" stroke="#000000" points="452,-72.5 452,-102.5 773,-102.5 773,-72.5 452,-72.5"/>
<text text-anchor="start" x="459" y="-83.9" font-family="Arial" font-size="14.00" fill="#000000">event_judging_minutes    </text>
<text text-anchor="start" x="637.1402" y="-83.9" font-family="Arial" font-size="14.00" fill="#666666">[integer]</text>
</g>
<!-- sr.judging_criterion&#45;&gt;sr.event -->
<g id="edge3" class="edge">
<title>sr.judging_criterion:event_uuid&#45;&gt;sr.event:event_uuid</title>
<path fill="none" stroke="#000000" d="M676.897,-817.0287C584.0564,-807.9493 641.2973,-669.6843 687,-577 708.3082,-533.7872 751.6918,-554.2128 773,-511 791.3782,-473.7293 814.5556,-417.5 773,-417.5"/>
<polygon fill="#000000" stroke="#000000" points="677.0109,-817.0339 686.7903,-821.9951 682.0054,-817.267 687,-817.5 687,-817.5 687,-817.5 682.0054,-817.267 687.2097,-813.0049 677.0109,-817.0339 677.0109,-817.0339"/>
<text text-anchor="start" x="389.146" y="-827.5" font-family="Arial" font-size="10.00" fill="#000000">FOREIGN KEY (event_uuid) REFERENCES sr.event(event_uuid)</text>
</g>
<!-- sr.judging_criterion_status -->
<g id="node5" class="node">
<title>sr.judging_criterion_status</title>
<polygon fill="#efefef" stroke="transparent" points="877,-327.5 877,-362.5 1235,-362.5 1235,-327.5 877,-327.5"/>
<polygon fill="none" stroke="#000000" points="877,-327.5 877,-362.5 1235,-362.5 1235,-327.5 877,-327.5"/>
<text text-anchor="start" x="887.1977" y="-340.3" font-family="Arial Bold" font-size="18.00" fill="#000000">sr.judging_criterion_status</text>
<text text-anchor="start" x="1097.2343" y="-340.3" font-family="Arial" font-size="14.00" fill="#000000">    </text>
<text text-anchor="start" x="1131.4391" y="-340.3" font-family="Arial" font-size="14.00" fill="#666666">[BASE TABLE]</text>
<polygon fill="none" stroke="#000000" points="877,-297.5 877,-327.5 1235,-327.5 1235,-297.5 877,-297.5"/>
<text text-anchor="start" x="884" y="-308.9" font-family="Arial" font-size="14.00" fill="#000000">judging_criterion_status_id    </text>
<text text-anchor="start" x="1084.6872" y="-308.9" font-family="Arial" font-size="14.00" fill="#666666">[integer]</text>
<polygon fill="none" stroke="#000000" points="877,-267.5 877,-297.5 1235,-297.5 1235,-267.5 877,-267.5"/>
<text text-anchor="start" x="884" y="-278.9" font-family="Arial" font-size="14.00" fill="#000000">judging_criterion_status_name    </text>
<text text-anchor="start" x="1108.8064" y="-278.9" font-family="Arial" font-size="14.00" fill="#666666">[varchar(50)]</text>
<polygon fill="none" stroke="#000000" points="877,-237.5 877,-267.5 1235,-267.5 1235,-237.5 877,-237.5"/>
<text text-anchor="start" x="883.7027" y="-248.9" font-family="Arial" font-size="14.00" fill="#000000">judging_criterion_status_description    </text>
<text text-anchor="start" x="1141.1781" y="-248.9" font-family="Arial" font-size="14.00" fill="#666666">[varchar(512)]</text>
<polygon fill="none" stroke="#000000" points="877,-207.5 877,-237.5 1235,-237.5 1235,-207.5 877,-207.5"/>
<text text-anchor="start" x="884" y="-218.9" font-family="Arial" font-size="14.00" fill="#000000">ts_created    </text>
<text text-anchor="start" x="983.5596" y="-218.9" font-family="Arial" font-size="14.00" fill="#666666">[timestamp without time zone]</text>
<polygon fill="none" stroke="#000000" points="877,-177.5 877,-207.5 1235,-207.5 1235,-177.5 877,-177.5"/>
<text text-anchor="start" x="884" y="-188.9" font-family="Arial" font-size="14.00" fill="#000000">ts_modified    </text>
<text text-anchor="start" x="989.7728" y="-188.9" font-family="Arial" font-size="14.00" fill="#666666">[timestamp without time zone]</text>
</g>
<!-- sr.judging_criterion&#45;&gt;sr.judging_criterion_status -->
<g id="edge4" class="edge">
<title>sr.judging_criterion:judging_criterion_status_id&#45;&gt;sr.judging_criterion_status:judging_criterion_status_id</title>
<path fill="none" stroke="#000000" d="M990.2272,-787.2059C1177.9249,-775.9884 888.5175,-447.4435 877,-406 865.873,-365.9618 835.4444,-312.5 877,-312.5"/>
<polygon fill="#000000" stroke="#000000" points="989.9959,-787.2124 979.8706,-783.0019 984.9979,-787.3562 980,-787.5 980,-787.5 980,-787.5 984.9979,-787.3562 980.1294,-791.9981 989.9959,-787.2124 989.9959,-787.2124"/>
<text text-anchor="start" x="986.5795" y="-797.5" font-family="Arial" font-size="10.00" fill="#000000">FOREIGN KEY (judging_criterion_status_id) REFERENCES sr.judging_criterion_status(judging_criterion_status_id)</text>
</g>
<!-- sr.judging_criterion_category -->
<g id="node6" class="node">
<title>sr.judging_criterion_category</title>
<polygon fill="#efefef" stroke="transparent" points="1339,-342.5 1339,-377.5 1713,-377.5 1713,-342.5 1339,-342.5"/>
<polygon fill="none" stroke="#000000" points="1339,-342.5 1339,-377.5 1713,-377.5 1713,-342.5 1339,-342.5"/>
<text text-anchor="start" x="1346.6965" y="-355.3" font-family="Arial Bold" font-size="18.00" fill="#000000">sr.judging_criterion_category</text>
<text text-anchor="start" x="1577.7355" y="-355.3" font-family="Arial" font-size="14.00" fill="#000000">    </text>
<text text-anchor="start" x="1611.9403" y="-355.3" font-family="Arial" font-size="14.00" fill="#666666">[BASE TABLE]</text>
<polygon fill="none" stroke="#000000" points="1339,-312.5 1339,-342.5 1713,-342.5 1713,-312.5 1339,-312.5"/>
<text text-anchor="start" x="1346" y="-323.9" font-family="Arial" font-size="14.00" fill="#000000">judging_criterion_category_id    </text>
<text text-anchor="start" x="1563.0224" y="-323.9" font-family="Arial" font-size="14.00" fill="#666666">[integer]</text>
<polygon fill="none" stroke="#000000" points="1339,-282.5 1339,-312.5 1713,-312.5 1713,-282.5 1339,-282.5"/>
<text text-anchor="start" x="1346" y="-293.9" font-family="Arial" font-size="14.00" fill="#000000">judging_criterion_category_name    </text>
<text text-anchor="start" x="1587.1416" y="-293.9" font-family="Arial" font-size="14.00" fill="#666666">[varchar(50)]</text>
<polygon fill="none" stroke="#000000" points="1339,-252.5 1339,-282.5 1713,-282.5 1713,-252.5 1339,-252.5"/>
<text text-anchor="start" x="1346" y="-263.9" font-family="Arial" font-size="14.00" fill="#000000">judging_criterion_category_icon    </text>
<text text-anchor="start" x="1577.805" y="-263.9" font-family="Arial" font-size="14.00" fill="#666666">[varchar(50)]</text>
<polygon fill="none" stroke="#000000" points="1339,-222.5 1339,-252.5 1713,-252.5 1713,-222.5 1339,-222.5"/>
<text text-anchor="start" x="1345.5351" y="-233.9" font-family="Arial" font-size="14.00" fill="#000000">judging_criterion_category_description    </text>
<text text-anchor="start" x="1619.3457" y="-233.9" font-family="Arial" font-size="14.00" fill="#666666">[varchar(512)]</text>
<polygon fill="none" stroke="#000000" points="1339,-192.5 1339,-222.5 1713,-222.5 1713,-192.5 1339,-192.5"/>
<text text-anchor="start" x="1346" y="-203.9" font-family="Arial" font-size="14.00" fill="#000000">ts_created    </text>
<text text-anchor="start" x="1445.5596" y="-203.9" font-family="Arial" font-size="14.00" fill="#666666">[timestamp without time zone]</text>
<polygon fill="none" stroke="#000000" points="1339,-162.5 1339,-192.5 1713,-192.5 1713,-162.5 1339,-162.5"/>
<text text-anchor="start" x="1346" y="-173.9" font-family="Arial" font-size="14.00" fill="#000000">ts_modified    </text>
<text text-anchor="start" x="1451.7728" y="-173.9" font-family="Arial" font-size="14.00" fill="#666666">[timestamp without time zone]</text>
</g>
<!-- sr.judging_criterion&#45;&gt;sr.judging_criterion_category -->
<g id="edge5" class="edge">
<title>sr.judging_criterion:judging_criterion_category_id&#45;&gt;sr.judging_criterion_category:judging_criterion_category_id</title>
<path fill="none" stroke="#000000" d="M990.1209,-757.4011C1148.8705,-754.2557 1194.965,-676.1804 1287,-541 1341.9626,-460.2712 1241.3372,-327.5 1339,-327.5"/>
<polygon fill="#000000" stroke="#000000" points="989.9995,-757.4022 979.956,-753.0002 984.9998,-757.4511 980,-757.5 980,-757.5 980,-757.5 984.9998,-757.4511 980.044,-761.9998 989.9995,-757.4022 989.9995,-757.4022"/>
<text text-anchor="start" x="987.0775" y="-767.5" font-family="Arial" font-size="10.00" fill="#000000">FOREIGN KEY (judging_criterion_category_id) REFERENCES sr.judging_criterion_category(judging_criterion_category_id)</text>
</g>
<!-- sr.team_score_item -->
<g id="node2" class="node">
<title>sr.team_score_item</title>
<polygon fill="#efefef" stroke="transparent" points="682,-1292.5 682,-1327.5 986,-1327.5 986,-1292.5 682,-1292.5"/>
<polygon fill="none" stroke="#000000" points="682,-1292.5 682,-1327.5 986,-1327.5 986,-1292.5 682,-1292.5"/>
<text text-anchor="start" x="691.2095" y="-1305.3" font-family="Arial Bold" font-size="18.00" fill="#000000">sr.team_score_item</text>
<text text-anchor="start" x="849.2225" y="-1305.3" font-family="Arial" font-size="14.00" fill="#000000">    </text>
<text text-anchor="start" x="883.4273" y="-1305.3" font-family="Arial" font-size="14.00" fill="#666666">[BASE TABLE]</text>
<polygon fill="none" stroke="#000000" points="682,-1262.5 682,-1292.5 986,-1292.5 986,-1262.5 682,-1262.5"/>
<text text-anchor="start" x="689" y="-1273.9" font-family="Arial" font-size="14.00" fill="#000000">team_score_item_uuid    </text>
<text text-anchor="start" x="864.7896" y="-1273.9" font-family="Arial" font-size="14.00" fill="#666666">[uuid]</text>
<polygon fill="none" stroke="#000000" points="682,-1232.5 682,-1262.5 986,-1262.5 986,-1232.5 682,-1232.5"/>
<text text-anchor="start" x="689" y="-1243.9" font-family="Arial" font-size="14.00" fill="#000000">team_uuid    </text>
<text text-anchor="start" x="788.5582" y="-1243.9" font-family="Arial" font-size="14.00" fill="#666666">[uuid]</text>
<polygon fill="none" stroke="#000000" points="682,-1202.5 682,-1232.5 986,-1232.5 986,-1202.5 682,-1202.5"/>
<text text-anchor="start" x="689" y="-1213.9" font-family="Arial" font-size="14.00" fill="#000000">judge_uuid    </text>
<text text-anchor="start" x="791.6788" y="-1213.9" font-family="Arial" font-size="14.00" fill="#666666">[uuid]</text>
<polygon fill="none" stroke="#000000" points="682,-1172.5 682,-1202.5 986,-1202.5 986,-1172.5 682,-1172.5"/>
<text text-anchor="start" x="689" y="-1183.9" font-family="Arial" font-size="14.00" fill="#000000">judging_criterion_uuid    </text>
<text text-anchor="start" x="860.1234" y="-1183.9" font-family="Arial" font-size="14.00" fill="#666666">[uuid]</text>
<polygon fill="none" stroke="#000000" points="682,-1142.5 682,-1172.5 986,-1172.5 986,-1142.5 682,-1142.5"/>
<text text-anchor="start" x="689" y="-1153.9" font-family="Arial" font-size="14.00" fill="#000000">team_score_item_value    </text>
<text text-anchor="start" x="871.7896" y="-1153.9" font-family="Arial" font-size="14.00" fill="#666666">[numeric(2,1)]</text>
<polygon fill="none" stroke="#000000" points="682,-1112.5 682,-1142.5 986,-1142.5 986,-1112.5 682,-1112.5"/>
<text text-anchor="start" x="689" y="-1123.9" font-family="Arial" font-size="14.00" fill="#000000">team_score_item_details    </text>
<text text-anchor="start" x="878.7868" y="-1123.9" font-family="Arial" font-size="14.00" fill="#666666">[jsonb]</text>
<polygon fill="none" stroke="#000000" points="682,-1082.5 682,-1112.5 986,-1112.5 986,-1082.5 682,-1082.5"/>
<text text-anchor="start" x="689" y="-1093.9" font-family="Arial" font-size="14.00" fill="#000000">ts_created    </text>
<text text-anchor="start" x="788.5596" y="-1093.9" font-family="Arial" font-size="14.00" fill="#666666">[timestamp without time zone]</text>
<polygon fill="none" stroke="#000000" points="682,-1052.5 682,-1082.5 986,-1082.5 986,-1052.5 682,-1052.5"/>
<text text-anchor="start" x="688.5435" y="-1063.9" font-family="Arial" font-size="14.00" fill="#000000">ts_modified    </text>
<text text-anchor="start" x="794.3163" y="-1063.9" font-family="Arial" font-size="14.00" fill="#666666">[timestamp without time zone]</text>
</g>
<!-- sr.team_score_item&#45;&gt;sr.judging_criterion -->
<g id="edge1" class="edge">
<title>sr.team_score_item:judging_criterion_uuid&#45;&gt;sr.judging_criterion:judging_criterion_uuid</title>
<path fill="none" stroke="#000000" d="M671.9996,-1186.7989C605.5492,-1176.9764 632.0199,-1066.3814 682,-1010 770.4958,-910.17 891.5042,-1073.83 980,-974 1008.4503,-941.9058 1022.8889,-877.5 980,-877.5"/>
<polygon fill="#000000" stroke="#000000" points="672.0245,-1186.8006 681.6853,-1191.989 677.0122,-1187.1503 682,-1187.5 682,-1187.5 682,-1187.5 677.0122,-1187.1503 682.3147,-1183.011 672.0245,-1186.8006 672.0245,-1186.8006"/>
<text text-anchor="start" x="236.814" y="-1197.5" font-family="Arial" font-size="10.00" fill="#000000">FOREIGN KEY (judging_criterion_uuid) REFERENCES sr.judging_criterion(judging_criterion_uuid)</text>
</g>
</g>
</svg>
