<?xml version="1.0" encoding="UTF-8" standalone="no"?>
<!DOCTYPE svg PUBLIC "-//W3C//DTD SVG 1.1//EN"
 "http://www.w3.org/Graphics/SVG/1.1/DTD/svg11.dtd">
<!-- Generated by graphviz version 2.40.1 (20161225.0304)
 -->
<!-- Title: sr.judging_criterion_category Pages: 1 -->
<svg width="953pt" height="742pt"
 viewBox="0.00 0.00 953.00 742.00" xmlns="http://www.w3.org/2000/svg" xmlns:xlink="http://www.w3.org/1999/xlink">
<g id="graph0" class="graph" transform="scale(1 1) rotate(0) translate(4 738)">
<title>sr.judging_criterion_category</title>
<polygon fill="#ffffff" stroke="transparent" points="-4,4 -4,-738 949,-738 949,4 -4,4"/>
<!-- sr.judging_criterion_category -->
<g id="node1" class="node">
<title>sr.judging_criterion_category</title>
<polygon fill="#efefef" stroke="transparent" points="46,-225.5 46,-260.5 418,-260.5 418,-225.5 46,-225.5"/>
<polygon fill="none" stroke="#000000" points="46,-225.5 46,-260.5 418,-260.5 418,-225.5 46,-225.5"/>
<text text-anchor="start" x="52.6965" y="-238.3" font-family="Arial Bold" font-size="18.00" fill="#000000">sr.judging_criterion_category</text>
<text text-anchor="start" x="283.7355" y="-238.3" font-family="Arial" font-size="14.00" fill="#000000">    </text>
<text text-anchor="start" x="317.9403" y="-238.3" font-family="Arial" font-size="14.00" fill="#666666">[BASE TABLE]</text>
<polygon fill="none" stroke="#000000" points="46,-195.5 46,-225.5 418,-225.5 418,-195.5 46,-195.5"/>
<text text-anchor="start" x="53" y="-206.9" font-family="Arial" font-size="14.00" fill="#000000">judging_criterion_category_id </text>
<text text-anchor="start" x="239.7082" y="-206.9" font-family="Arial" font-size="14.00" fill="#666666">[integer]</text>
<polygon fill="none" stroke="#000000" points="46,-165.5 46,-195.5 418,-195.5 418,-165.5 46,-165.5"/>
<text text-anchor="start" x="53" y="-176.9" font-family="Arial" font-size="14.00" fill="#000000">judging_criterion_category_name </text>
<text text-anchor="start" x="263.8274" y="-176.9" font-family="Arial" font-size="14.00" fill="#666666">[varchar(50)]</text>
<polygon fill="none" stroke="#000000" points="46,-135.5 46,-165.5 418,-165.5 418,-135.5 46,-135.5"/>
<text text-anchor="start" x="53" y="-146.9" font-family="Arial" font-size="14.00" fill="#000000">judging_criterion_category_icon </text>
<text text-anchor="start" x="254.4908" y="-146.9" font-family="Arial" font-size="14.00" fill="#666666">[varchar(50)]</text>
<polygon fill="none" stroke="#000000" points="46,-105.5 46,-135.5 418,-135.5 418,-105.5 46,-105.5"/>
<text text-anchor="start" x="53" y="-116.9" font-family="Arial" font-size="14.00" fill="#000000">judging_criterion_category_description </text>
<text text-anchor="start" x="296.4964" y="-116.9" font-family="Arial" font-size="14.00" fill="#666666">[varchar(512)]</text>
<polygon fill="none" stroke="#000000" points="46,-75.5 46,-105.5 418,-105.5 418,-75.5 46,-75.5"/>
<text text-anchor="start" x="53" y="-86.9" font-family="Arial" font-size="14.00" fill="#000000">ts_created </text>
<text text-anchor="start" x="122.2454" y="-86.9" font-family="Arial" font-size="14.00" fill="#666666">[timestamp without time zone]</text>
<polygon fill="none" stroke="#000000" points="46,-45.5 46,-75.5 418,-75.5 418,-45.5 46,-45.5"/>
<text text-anchor="start" x="53" y="-56.9" font-family="Arial" font-size="14.00" fill="#000000">ts_modified </text>
<text text-anchor="start" x="128.4586" y="-56.9" font-family="Arial" font-size="14.00" fill="#666666">[timestamp without time zone]</text>
<polygon fill="none" stroke="#000000" stroke-width="3" points="44.5,-44.5 44.5,-262.5 419.5,-262.5 419.5,-44.5 44.5,-44.5"/>
</g>
<!-- sr.judging_criterion -->
<g id="node2" class="node">
<title>sr.judging_criterion</title>
<polygon fill="#efefef" stroke="transparent" points="80,-655.5 80,-690.5 384,-690.5 384,-655.5 80,-655.5"/>
<polygon fill="none" stroke="#000000" points="80,-655.5 80,-690.5 384,-690.5 384,-655.5 80,-655.5"/>
<text text-anchor="start" x="92.2092" y="-668.3" font-family="Arial Bold" font-size="18.00" fill="#000000">sr.judging_criterion</text>
<text text-anchor="start" x="244.2228" y="-668.3" font-family="Arial" font-size="14.00" fill="#000000">    </text>
<text text-anchor="start" x="278.4276" y="-668.3" font-family="Arial" font-size="14.00" fill="#666666">[BASE TABLE]</text>
<polygon fill="none" stroke="#000000" points="80,-625.5 80,-655.5 384,-655.5 384,-625.5 80,-625.5"/>
<text text-anchor="start" x="87" y="-636.9" font-family="Arial" font-size="14.00" fill="#000000">judging_criterion_uuid    </text>
<text text-anchor="start" x="258.1234" y="-636.9" font-family="Arial" font-size="14.00" fill="#666666">[uuid]</text>
<polygon fill="none" stroke="#000000" points="80,-595.5 80,-625.5 384,-625.5 384,-595.5 80,-595.5"/>
<text text-anchor="start" x="87" y="-606.9" font-family="Arial" font-size="14.00" fill="#000000">organization_uuid    </text>
<text text-anchor="start" x="231.6844" y="-606.9" font-family="Arial" font-size="14.00" fill="#666666">[uuid]</text>
<polygon fill="none" stroke="#000000" points="80,-565.5 80,-595.5 384,-595.5 384,-565.5 80,-565.5"/>
<text text-anchor="start" x="87" y="-576.9" font-family="Arial" font-size="14.00" fill="#000000">event_uuid    </text>
<text text-anchor="start" x="189.6802" y="-576.9" font-family="Arial" font-size="14.00" fill="#666666">[uuid]</text>
<polygon fill="none" stroke="#000000" points="80,-535.5 80,-565.5 384,-565.5 384,-535.5 80,-535.5"/>
<text text-anchor="start" x="87" y="-546.9" font-family="Arial" font-size="14.00" fill="#000000">judging_criterion_status_id    </text>
<text text-anchor="start" x="287.6872" y="-546.9" font-family="Arial" font-size="14.00" fill="#666666">[integer]</text>
<polygon fill="none" stroke="#000000" points="80,-505.5 80,-535.5 384,-535.5 384,-505.5 80,-505.5"/>
<text text-anchor="start" x="87" y="-516.9" font-family="Arial" font-size="14.00" fill="#000000">judging_criterion_category_id    </text>
<text text-anchor="start" x="304.0224" y="-516.9" font-family="Arial" font-size="14.00" fill="#666666">[integer]</text>
<polygon fill="none" stroke="#000000" points="80,-475.5 80,-505.5 384,-505.5 384,-475.5 80,-475.5"/>
<text text-anchor="start" x="87" y="-486.9" font-family="Arial" font-size="14.00" fill="#000000">criterion_weight    </text>
<text text-anchor="start" x="219.2118" y="-486.9" font-family="Arial" font-size="14.00" fill="#666666">[integer]</text>
<polygon fill="none" stroke="#000000" points="80,-445.5 80,-475.5 384,-475.5 384,-445.5 80,-445.5"/>
<text text-anchor="start" x="87" y="-456.9" font-family="Arial" font-size="14.00" fill="#000000">criterion_details    </text>
<text text-anchor="start" x="219.2118" y="-456.9" font-family="Arial" font-size="14.00" fill="#666666">[jsonb]</text>
<polygon fill="none" stroke="#000000" points="80,-415.5 80,-445.5 384,-445.5 384,-415.5 80,-415.5"/>
<text text-anchor="start" x="87" y="-426.9" font-family="Arial" font-size="14.00" fill="#000000">ts_created    </text>
<text text-anchor="start" x="186.5596" y="-426.9" font-family="Arial" font-size="14.00" fill="#666666">[timestamp without time zone]</text>
<polygon fill="none" stroke="#000000" points="80,-385.5 80,-415.5 384,-415.5 384,-385.5 80,-385.5"/>
<text text-anchor="start" x="86.5435" y="-396.9" font-family="Arial" font-size="14.00" fill="#000000">ts_modified    </text>
<text text-anchor="start" x="192.3163" y="-396.9" font-family="Arial" font-size="14.00" fill="#666666">[timestamp without time zone]</text>
</g>
<!-- sr.judging_criterion&#45;&gt;sr.judging_criterion_category -->
<g id="edge1" class="edge">
<title>sr.judging_criterion:judging_criterion_category_id&#45;&gt;sr.judging_criterion_category:judging_criterion_category_id</title>
<path fill="none" stroke="#000000" d="M393.8912,-518.3549C456.376,-490.9657 483.9181,-210.5 418,-210.5"/>
<polygon fill="#000000" stroke="#000000" points="393.7728,-518.3805 383.0462,-516.1022 388.8864,-519.4402 384,-520.5 384,-520.5 384,-520.5 388.8864,-519.4402 384.9538,-524.8978 393.7728,-518.3805 393.7728,-518.3805"/>
<text text-anchor="start" x="391.0775" y="-530.5" font-family="Arial" font-size="10.00" fill="#000000">FOREIGN KEY (judging_criterion_category_id) REFERENCES sr.judging_criterion_category(judging_criterion_category_id)</text>
</g>
</g>
</svg>
