<?xml version="1.0" encoding="UTF-8" standalone="no"?>
<!DOCTYPE svg PUBLIC "-//W3C//DTD SVG 1.1//EN"
 "http://www.w3.org/Graphics/SVG/1.1/DTD/svg11.dtd">
<!-- Generated by graphviz version 2.40.1 (20161225.0304)
 -->
<!-- Title: sr.judging_criterion_status Pages: 1 -->
<svg width="907pt" height="712pt"
 viewBox="0.00 0.00 906.50 712.00" xmlns="http://www.w3.org/2000/svg" xmlns:xlink="http://www.w3.org/1999/xlink">
<g id="graph0" class="graph" transform="scale(1 1) rotate(0) translate(4 708)">
<title>sr.judging_criterion_status</title>
<polygon fill="#ffffff" stroke="transparent" points="-4,4 -4,-708 902.5,-708 902.5,4 -4,4"/>
<!-- sr.judging_criterion_status -->
<g id="node1" class="node">
<title>sr.judging_criterion_status</title>
<polygon fill="#efefef" stroke="transparent" points="502,-195.5 502,-230.5 853,-230.5 853,-195.5 502,-195.5"/>
<polygon fill="none" stroke="#000000" points="502,-195.5 502,-230.5 853,-230.5 853,-195.5 502,-195.5"/>
<text text-anchor="start" x="508.6977" y="-208.3" font-family="Arial Bold" font-size="18.00" fill="#000000">sr.judging_criterion_status</text>
<text text-anchor="start" x="718.7343" y="-208.3" font-family="Arial" font-size="14.00" fill="#000000">    </text>
<text text-anchor="start" x="752.9391" y="-208.3" font-family="Arial" font-size="14.00" fill="#666666">[BASE TABLE]</text>
<polygon fill="none" stroke="#000000" points="502,-165.5 502,-195.5 853,-195.5 853,-165.5 502,-165.5"/>
<text text-anchor="start" x="509" y="-176.9" font-family="Arial" font-size="14.00" fill="#000000">judging_criterion_status_id </text>
<text text-anchor="start" x="679.373" y="-176.9" font-family="Arial" font-size="14.00" fill="#666666">[integer]</text>
<polygon fill="none" stroke="#000000" points="502,-135.5 502,-165.5 853,-165.5 853,-135.5 502,-135.5"/>
<text text-anchor="start" x="509" y="-146.9" font-family="Arial" font-size="14.00" fill="#000000">judging_criterion_status_name </text>
<text text-anchor="start" x="703.4922" y="-146.9" font-family="Arial" font-size="14.00" fill="#666666">[varchar(50)]</text>
<polygon fill="none" stroke="#000000" points="502,-105.5 502,-135.5 853,-135.5 853,-105.5 502,-105.5"/>
<text text-anchor="start" x="509" y="-116.9" font-family="Arial" font-size="14.00" fill="#000000">judging_criterion_status_description </text>
<text text-anchor="start" x="736.1612" y="-116.9" font-family="Arial" font-size="14.00" fill="#666666">[varchar(512)]</text>
<polygon fill="none" stroke="#000000" points="502,-75.5 502,-105.5 853,-105.5 853,-75.5 502,-75.5"/>
<text text-anchor="start" x="509" y="-86.9" font-family="Arial" font-size="14.00" fill="#000000">ts_created </text>
<text text-anchor="start" x="578.2454" y="-86.9" font-family="Arial" font-size="14.00" fill="#666666">[timestamp without time zone]</text>
<polygon fill="none" stroke="#000000" points="502,-45.5 502,-75.5 853,-75.5 853,-45.5 502,-45.5"/>
<text text-anchor="start" x="509" y="-56.9" font-family="Arial" font-size="14.00" fill="#000000">ts_modified </text>
<text text-anchor="start" x="584.4586" y="-56.9" font-family="Arial" font-size="14.00" fill="#666666">[timestamp without time zone]</text>
<polygon fill="none" stroke="#000000" stroke-width="3" points="500,-44.5 500,-232.5 854,-232.5 854,-44.5 500,-44.5"/>
</g>
<!-- sr.judging_criterion -->
<g id="node2" class="node">
<title>sr.judging_criterion</title>
<polygon fill="#efefef" stroke="transparent" points="526,-625.5 526,-660.5 830,-660.5 830,-625.5 526,-625.5"/>
<polygon fill="none" stroke="#000000" points="526,-625.5 526,-660.5 830,-660.5 830,-625.5 526,-625.5"/>
<text text-anchor="start" x="538.2092" y="-638.3" font-family="Arial Bold" font-size="18.00" fill="#000000">sr.judging_criterion</text>
<text text-anchor="start" x="690.2228" y="-638.3" font-family="Arial" font-size="14.00" fill="#000000">    </text>
<text text-anchor="start" x="724.4276" y="-638.3" font-family="Arial" font-size="14.00" fill="#666666">[BASE TABLE]</text>
<polygon fill="none" stroke="#000000" points="526,-595.5 526,-625.5 830,-625.5 830,-595.5 526,-595.5"/>
<text text-anchor="start" x="533" y="-606.9" font-family="Arial" font-size="14.00" fill="#000000">judging_criterion_uuid    </text>
<text text-anchor="start" x="704.1234" y="-606.9" font-family="Arial" font-size="14.00" fill="#666666">[uuid]</text>
<polygon fill="none" stroke="#000000" points="526,-565.5 526,-595.5 830,-595.5 830,-565.5 526,-565.5"/>
<text text-anchor="start" x="533" y="-576.9" font-family="Arial" font-size="14.00" fill="#000000">organization_uuid    </text>
<text text-anchor="start" x="677.6844" y="-576.9" font-family="Arial" font-size="14.00" fill="#666666">[uuid]</text>
<polygon fill="none" stroke="#000000" points="526,-535.5 526,-565.5 830,-565.5 830,-535.5 526,-535.5"/>
<text text-anchor="start" x="533" y="-546.9" font-family="Arial" font-size="14.00" fill="#000000">event_uuid    </text>
<text text-anchor="start" x="635.6802" y="-546.9" font-family="Arial" font-size="14.00" fill="#666666">[uuid]</text>
<polygon fill="none" stroke="#000000" points="526,-505.5 526,-535.5 830,-535.5 830,-505.5 526,-505.5"/>
<text text-anchor="start" x="533" y="-516.9" font-family="Arial" font-size="14.00" fill="#000000">judging_criterion_status_id    </text>
<text text-anchor="start" x="733.6872" y="-516.9" font-family="Arial" font-size="14.00" fill="#666666">[integer]</text>
<polygon fill="none" stroke="#000000" points="526,-475.5 526,-505.5 830,-505.5 830,-475.5 526,-475.5"/>
<text text-anchor="start" x="533" y="-486.9" font-family="Arial" font-size="14.00" fill="#000000">judging_criterion_category_id    </text>
<text text-anchor="start" x="750.0224" y="-486.9" font-family="Arial" font-size="14.00" fill="#666666">[integer]</text>
<polygon fill="none" stroke="#000000" points="526,-445.5 526,-475.5 830,-475.5 830,-445.5 526,-445.5"/>
<text text-anchor="start" x="533" y="-456.9" font-family="Arial" font-size="14.00" fill="#000000">criterion_weight    </text>
<text text-anchor="start" x="665.2118" y="-456.9" font-family="Arial" font-size="14.00" fill="#666666">[integer]</text>
<polygon fill="none" stroke="#000000" points="526,-415.5 526,-445.5 830,-445.5 830,-415.5 526,-415.5"/>
<text text-anchor="start" x="533" y="-426.9" font-family="Arial" font-size="14.00" fill="#000000">criterion_details    </text>
<text text-anchor="start" x="665.2118" y="-426.9" font-family="Arial" font-size="14.00" fill="#666666">[jsonb]</text>
<polygon fill="none" stroke="#000000" points="526,-385.5 526,-415.5 830,-415.5 830,-385.5 526,-385.5"/>
<text text-anchor="start" x="533" y="-396.9" font-family="Arial" font-size="14.00" fill="#000000">ts_created    </text>
<text text-anchor="start" x="632.5596" y="-396.9" font-family="Arial" font-size="14.00" fill="#666666">[timestamp without time zone]</text>
<polygon fill="none" stroke="#000000" points="526,-355.5 526,-385.5 830,-385.5 830,-355.5 526,-355.5"/>
<text text-anchor="start" x="532.5435" y="-366.9" font-family="Arial" font-size="14.00" fill="#000000">ts_modified    </text>
<text text-anchor="start" x="638.3163" y="-366.9" font-family="Arial" font-size="14.00" fill="#666666">[timestamp without time zone]</text>
</g>
<!-- sr.judging_criterion&#45;&gt;sr.judging_criterion_status -->
<g id="edge1" class="edge">
<title>sr.judging_criterion:judging_criterion_status_id&#45;&gt;sr.judging_criterion_status:judging_criterion_status_id</title>
<path fill="none" stroke="#000000" d="M515.7498,-519.877C436.2219,-509.7622 466.8643,-379.0033 526,-313 574.7832,-258.5514 804.2168,-331.4486 853,-277 881.6196,-245.0567 895.8889,-180.5 853,-180.5"/>
<polygon fill="#000000" stroke="#000000" points="516.0184,-519.8932 525.727,-524.9917 521.0092,-520.1966 526,-520.5 526,-520.5 526,-520.5 521.0092,-520.1966 526.273,-516.0083 516.0184,-519.8932 516.0184,-519.8932"/>
<text text-anchor="start" x="6.5795" y="-530.5" font-family="Arial" font-size="10.00" fill="#000000">FOREIGN KEY (judging_criterion_status_id) REFERENCES sr.judging_criterion_status(judging_criterion_status_id)</text>
</g>
</g>
</svg>
