<?xml version="1.0" encoding="UTF-8" standalone="no"?>
<!DOCTYPE svg PUBLIC "-//W3C//DTD SVG 1.1//EN"
 "http://www.w3.org/Graphics/SVG/1.1/DTD/svg11.dtd">
<!-- Generated by graphviz version 2.40.1 (20161225.0304)
 -->
<!-- Title: sr.kanban_item_status Pages: 1 -->
<svg width="845pt" height="712pt"
 viewBox="0.00 0.00 845.00 712.00" xmlns="http://www.w3.org/2000/svg" xmlns:xlink="http://www.w3.org/1999/xlink">
<g id="graph0" class="graph" transform="scale(1 1) rotate(0) translate(4 708)">
<title>sr.kanban_item_status</title>
<polygon fill="#ffffff" stroke="transparent" points="-4,4 -4,-708 841,-708 841,4 -4,4"/>
<!-- sr.kanban_item_status -->
<g id="node1" class="node">
<title>sr.kanban_item_status</title>
<polygon fill="#efefef" stroke="transparent" points="46,-195.5 46,-230.5 368,-230.5 368,-195.5 46,-195.5"/>
<polygon fill="none" stroke="#000000" points="46,-195.5 46,-230.5 368,-230.5 368,-195.5 46,-195.5"/>
<text text-anchor="start" x="52.6913" y="-208.3" font-family="Arial Bold" font-size="18.00" fill="#000000">sr.kanban_item_status</text>
<text text-anchor="start" x="233.7407" y="-208.3" font-family="Arial" font-size="14.00" fill="#000000">    </text>
<text text-anchor="start" x="267.9455" y="-208.3" font-family="Arial" font-size="14.00" fill="#666666">[BASE TABLE]</text>
<polygon fill="none" stroke="#000000" points="46,-165.5 46,-195.5 368,-195.5 368,-165.5 46,-165.5"/>
<text text-anchor="start" x="53" y="-176.9" font-family="Arial" font-size="14.00" fill="#000000">kanban_item_status_id </text>
<text text-anchor="start" x="200.8274" y="-176.9" font-family="Arial" font-size="14.00" fill="#666666">[integer]</text>
<polygon fill="none" stroke="#000000" points="46,-135.5 46,-165.5 368,-165.5 368,-135.5 46,-135.5"/>
<text text-anchor="start" x="53" y="-146.9" font-family="Arial" font-size="14.00" fill="#000000">kanban_item_status_name </text>
<text text-anchor="start" x="224.9466" y="-146.9" font-family="Arial" font-size="14.00" fill="#666666">[varchar(50)]</text>
<polygon fill="none" stroke="#000000" points="46,-105.5 46,-135.5 368,-135.5 368,-105.5 46,-105.5"/>
<text text-anchor="start" x="53" y="-116.9" font-family="Arial" font-size="14.00" fill="#000000">kanban_item_status_description </text>
<text text-anchor="start" x="257.6156" y="-116.9" font-family="Arial" font-size="14.00" fill="#666666">[varchar(512)]</text>
<polygon fill="none" stroke="#000000" points="46,-75.5 46,-105.5 368,-105.5 368,-75.5 46,-75.5"/>
<text text-anchor="start" x="53" y="-86.9" font-family="Arial" font-size="14.00" fill="#000000">ts_created </text>
<text text-anchor="start" x="122.2454" y="-86.9" font-family="Arial" font-size="14.00" fill="#666666">[timestamp without time zone]</text>
<polygon fill="none" stroke="#000000" points="46,-45.5 46,-75.5 368,-75.5 368,-45.5 46,-45.5"/>
<text text-anchor="start" x="53" y="-56.9" font-family="Arial" font-size="14.00" fill="#000000">ts_modified </text>
<text text-anchor="start" x="128.4586" y="-56.9" font-family="Arial" font-size="14.00" fill="#666666">[timestamp without time zone]</text>
<polygon fill="none" stroke="#000000" stroke-width="3" points="44.5,-44.5 44.5,-232.5 369.5,-232.5 369.5,-44.5 44.5,-44.5"/>
</g>
<!-- sr.kanban_item -->
<g id="node2" class="node">
<title>sr.kanban_item</title>
<polygon fill="#efefef" stroke="transparent" points="55,-625.5 55,-660.5 359,-660.5 359,-625.5 55,-625.5"/>
<polygon fill="none" stroke="#000000" points="55,-625.5 55,-660.5 359,-660.5 359,-625.5 55,-625.5"/>
<text text-anchor="start" x="81.7028" y="-638.3" font-family="Arial Bold" font-size="18.00" fill="#000000">sr.kanban_item</text>
<text text-anchor="start" x="204.7292" y="-638.3" font-family="Arial" font-size="14.00" fill="#000000">    </text>
<text text-anchor="start" x="238.934" y="-638.3" font-family="Arial" font-size="14.00" fill="#666666">[BASE TABLE]</text>
<polygon fill="none" stroke="#000000" points="55,-595.5 55,-625.5 359,-625.5 359,-595.5 55,-595.5"/>
<text text-anchor="start" x="62" y="-606.9" font-family="Arial" font-size="14.00" fill="#000000">kanban_item_uuid    </text>
<text text-anchor="start" x="210.5778" y="-606.9" font-family="Arial" font-size="14.00" fill="#666666">[uuid]</text>
<polygon fill="none" stroke="#000000" points="55,-565.5 55,-595.5 359,-595.5 359,-565.5 55,-565.5"/>
<text text-anchor="start" x="62" y="-576.9" font-family="Arial" font-size="14.00" fill="#000000">team_uuid    </text>
<text text-anchor="start" x="161.5582" y="-576.9" font-family="Arial" font-size="14.00" fill="#666666">[uuid]</text>
<polygon fill="none" stroke="#000000" points="55,-535.5 55,-565.5 359,-565.5 359,-535.5 55,-535.5"/>
<text text-anchor="start" x="62" y="-546.9" font-family="Arial" font-size="14.00" fill="#000000">kanban_item_status_id    </text>
<text text-anchor="start" x="240.1416" y="-546.9" font-family="Arial" font-size="14.00" fill="#666666">[integer]</text>
<polygon fill="none" stroke="#000000" points="55,-505.5 55,-535.5 359,-535.5 359,-505.5 55,-505.5"/>
<text text-anchor="start" x="62" y="-516.9" font-family="Arial" font-size="14.00" fill="#000000">kanban_item_priority    </text>
<text text-anchor="start" x="226.1136" y="-516.9" font-family="Arial" font-size="14.00" fill="#666666">[integer]</text>
<polygon fill="none" stroke="#000000" points="55,-475.5 55,-505.5 359,-505.5 359,-475.5 55,-475.5"/>
<text text-anchor="start" x="62" y="-486.9" font-family="Arial" font-size="14.00" fill="#000000">kanban_item_issuer_uuid    </text>
<text text-anchor="start" x="255.6928" y="-486.9" font-family="Arial" font-size="14.00" fill="#666666">[uuid]</text>
<polygon fill="none" stroke="#000000" points="55,-445.5 55,-475.5 359,-475.5 359,-445.5 55,-445.5"/>
<text text-anchor="start" x="62" y="-456.9" font-family="Arial" font-size="14.00" fill="#000000">kanban_item_owner_uuid    </text>
<text text-anchor="start" x="256.4754" y="-456.9" font-family="Arial" font-size="14.00" fill="#666666">[uuid]</text>
<polygon fill="none" stroke="#000000" points="55,-415.5 55,-445.5 359,-445.5 359,-415.5 55,-415.5"/>
<text text-anchor="start" x="62" y="-426.9" font-family="Arial" font-size="14.00" fill="#000000">kanban_item_details    </text>
<text text-anchor="start" x="224.575" y="-426.9" font-family="Arial" font-size="14.00" fill="#666666">[jsonb]</text>
<polygon fill="none" stroke="#000000" points="55,-385.5 55,-415.5 359,-415.5 359,-385.5 55,-385.5"/>
<text text-anchor="start" x="62" y="-396.9" font-family="Arial" font-size="14.00" fill="#000000">ts_created    </text>
<text text-anchor="start" x="161.5596" y="-396.9" font-family="Arial" font-size="14.00" fill="#666666">[timestamp without time zone]</text>
<polygon fill="none" stroke="#000000" points="55,-355.5 55,-385.5 359,-385.5 359,-355.5 55,-355.5"/>
<text text-anchor="start" x="61.5435" y="-366.9" font-family="Arial" font-size="14.00" fill="#000000">ts_modified    </text>
<text text-anchor="start" x="167.3163" y="-366.9" font-family="Arial" font-size="14.00" fill="#666666">[timestamp without time zone]</text>
</g>
<!-- sr.kanban_item&#45;&gt;sr.kanban_item_status -->
<g id="edge1" class="edge">
<title>sr.kanban_item:kanban_item_status_id&#45;&gt;sr.kanban_item_status:kanban_item_status_id</title>
<path fill="none" stroke="#000000" d="M369.195,-548.5093C441.8515,-519.3863 446.7125,-180.5 368,-180.5"/>
<polygon fill="#000000" stroke="#000000" points="368.8146,-548.5835 358.1376,-546.0834 363.9073,-549.5417 359,-550.5 359,-550.5 359,-550.5 363.9073,-549.5417 359.8624,-554.9166 368.8146,-548.5835 368.8146,-548.5835"/>
<text text-anchor="start" x="365.7355" y="-560.5" font-family="Arial" font-size="10.00" fill="#000000">FOREIGN KEY (kanban_item_status_id) REFERENCES sr.kanban_item_status(kanban_item_status_id)</text>
</g>
</g>
</svg>
