<?xml version="1.0" encoding="UTF-8" standalone="no"?>
<!DOCTYPE svg PUBLIC "-//W3C//DTD SVG 1.1//EN"
 "http://www.w3.org/Graphics/SVG/1.1/DTD/svg11.dtd">
<!-- Generated by graphviz version 2.40.1 (20161225.0304)
 -->
<!-- Title: sr.kanban_item Pages: 1 -->
<svg width="1231pt" height="742pt"
 viewBox="0.00 0.00 1231.00 742.00" xmlns="http://www.w3.org/2000/svg" xmlns:xlink="http://www.w3.org/1999/xlink">
<g id="graph0" class="graph" transform="scale(1 1) rotate(0) translate(4 738)">
<title>sr.kanban_item</title>
<polygon fill="#ffffff" stroke="transparent" points="-4,4 -4,-738 1227,-738 1227,4 -4,4"/>
<!-- sr.kanban_item -->
<g id="node1" class="node">
<title>sr.kanban_item</title>
<polygon fill="#efefef" stroke="transparent" points="498,-652.5 498,-687.5 772,-687.5 772,-652.5 498,-652.5"/>
<polygon fill="none" stroke="#000000" points="498,-652.5 498,-687.5 772,-687.5 772,-652.5 498,-652.5"/>
<text text-anchor="start" x="509.7028" y="-665.3" font-family="Arial Bold" font-size="18.00" fill="#000000">sr.kanban_item</text>
<text text-anchor="start" x="632.7292" y="-665.3" font-family="Arial" font-size="14.00" fill="#000000">    </text>
<text text-anchor="start" x="666.934" y="-665.3" font-family="Arial" font-size="14.00" fill="#666666">[BASE TABLE]</text>
<polygon fill="none" stroke="#000000" points="498,-622.5 498,-652.5 772,-652.5 772,-622.5 498,-622.5"/>
<text text-anchor="start" x="505" y="-633.9" font-family="Arial" font-size="14.00" fill="#000000">kanban_item_uuid </text>
<text text-anchor="start" x="623.2636" y="-633.9" font-family="Arial" font-size="14.00" fill="#666666">[uuid]</text>
<polygon fill="none" stroke="#000000" points="498,-592.5 498,-622.5 772,-622.5 772,-592.5 498,-592.5"/>
<text text-anchor="start" x="505" y="-603.9" font-family="Arial" font-size="14.00" fill="#000000">team_uuid </text>
<text text-anchor="start" x="574.244" y="-603.9" font-family="Arial" font-size="14.00" fill="#666666">[uuid]</text>
<polygon fill="none" stroke="#000000" points="498,-562.5 498,-592.5 772,-592.5 772,-562.5 498,-562.5"/>
<text text-anchor="start" x="505" y="-573.9" font-family="Arial" font-size="14.00" fill="#000000">kanban_item_status_id </text>
<text text-anchor="start" x="652.8274" y="-573.9" font-family="Arial" font-size="14.00" fill="#666666">[integer]</text>
<polygon fill="none" stroke="#000000" points="498,-532.5 498,-562.5 772,-562.5 772,-532.5 498,-532.5"/>
<text text-anchor="start" x="505" y="-543.9" font-family="Arial" font-size="14.00" fill="#000000">kanban_item_priority </text>
<text text-anchor="start" x="638.7994" y="-543.9" font-family="Arial" font-size="14.00" fill="#666666">[integer]</text>
<polygon fill="none" stroke="#000000" points="498,-502.5 498,-532.5 772,-532.5 772,-502.5 498,-502.5"/>
<text text-anchor="start" x="505" y="-513.9" font-family="Arial" font-size="14.00" fill="#000000">kanban_item_issuer_uuid </text>
<text text-anchor="start" x="668.3786" y="-513.9" font-family="Arial" font-size="14.00" fill="#666666">[uuid]</text>
<polygon fill="none" stroke="#000000" points="498,-472.5 498,-502.5 772,-502.5 772,-472.5 498,-472.5"/>
<text text-anchor="start" x="505" y="-483.9" font-family="Arial" font-size="14.00" fill="#000000">kanban_item_owner_uuid </text>
<text text-anchor="start" x="669.1612" y="-483.9" font-family="Arial" font-size="14.00" fill="#666666">[uuid]</text>
<polygon fill="none" stroke="#000000" points="498,-442.5 498,-472.5 772,-472.5 772,-442.5 498,-442.5"/>
<text text-anchor="start" x="505" y="-453.9" font-family="Arial" font-size="14.00" fill="#000000">kanban_item_details </text>
<text text-anchor="start" x="637.2608" y="-453.9" font-family="Arial" font-size="14.00" fill="#666666">[jsonb]</text>
<polygon fill="none" stroke="#000000" points="498,-412.5 498,-442.5 772,-442.5 772,-412.5 498,-412.5"/>
<text text-anchor="start" x="505" y="-423.9" font-family="Arial" font-size="14.00" fill="#000000">ts_created </text>
<text text-anchor="start" x="574.2454" y="-423.9" font-family="Arial" font-size="14.00" fill="#666666">[timestamp without time zone]</text>
<polygon fill="none" stroke="#000000" points="498,-382.5 498,-412.5 772,-412.5 772,-382.5 498,-382.5"/>
<text text-anchor="start" x="504.7006" y="-393.9" font-family="Arial" font-size="14.00" fill="#000000">ts_modified </text>
<text text-anchor="start" x="580.1592" y="-393.9" font-family="Arial" font-size="14.00" fill="#666666">[timestamp without time zone]</text>
<polygon fill="none" stroke="#000000" stroke-width="3" points="496.5,-381.5 496.5,-689.5 773.5,-689.5 773.5,-381.5 496.5,-381.5"/>
</g>
<!-- sr.kanban_item_status -->
<g id="node2" class="node">
<title>sr.kanban_item_status</title>
<polygon fill="#efefef" stroke="transparent" points="43,-207.5 43,-242.5 379,-242.5 379,-207.5 43,-207.5"/>
<polygon fill="none" stroke="#000000" points="43,-207.5 43,-242.5 379,-242.5 379,-207.5 43,-207.5"/>
<text text-anchor="start" x="56.6913" y="-220.3" font-family="Arial Bold" font-size="18.00" fill="#000000">sr.kanban_item_status</text>
<text text-anchor="start" x="237.7407" y="-220.3" font-family="Arial" font-size="14.00" fill="#000000">    </text>
<text text-anchor="start" x="271.9455" y="-220.3" font-family="Arial" font-size="14.00" fill="#666666">[BASE TABLE]</text>
<polygon fill="none" stroke="#000000" points="43,-177.5 43,-207.5 379,-207.5 379,-177.5 43,-177.5"/>
<text text-anchor="start" x="50" y="-188.9" font-family="Arial" font-size="14.00" fill="#000000">kanban_item_status_id    </text>
<text text-anchor="start" x="228.1416" y="-188.9" font-family="Arial" font-size="14.00" fill="#666666">[integer]</text>
<polygon fill="none" stroke="#000000" points="43,-147.5 43,-177.5 379,-177.5 379,-147.5 43,-147.5"/>
<text text-anchor="start" x="50" y="-158.9" font-family="Arial" font-size="14.00" fill="#000000">kanban_item_status_name    </text>
<text text-anchor="start" x="252.2608" y="-158.9" font-family="Arial" font-size="14.00" fill="#666666">[varchar(50)]</text>
<polygon fill="none" stroke="#000000" points="43,-117.5 43,-147.5 379,-147.5 379,-117.5 43,-117.5"/>
<text text-anchor="start" x="49.9755" y="-128.9" font-family="Arial" font-size="14.00" fill="#000000">kanban_item_status_description    </text>
<text text-anchor="start" x="284.9053" y="-128.9" font-family="Arial" font-size="14.00" fill="#666666">[varchar(512)]</text>
<polygon fill="none" stroke="#000000" points="43,-87.5 43,-117.5 379,-117.5 379,-87.5 43,-87.5"/>
<text text-anchor="start" x="50" y="-98.9" font-family="Arial" font-size="14.00" fill="#000000">ts_created    </text>
<text text-anchor="start" x="149.5596" y="-98.9" font-family="Arial" font-size="14.00" fill="#666666">[timestamp without time zone]</text>
<polygon fill="none" stroke="#000000" points="43,-57.5 43,-87.5 379,-87.5 379,-57.5 43,-57.5"/>
<text text-anchor="start" x="50" y="-68.9" font-family="Arial" font-size="14.00" fill="#000000">ts_modified    </text>
<text text-anchor="start" x="155.7728" y="-68.9" font-family="Arial" font-size="14.00" fill="#666666">[timestamp without time zone]</text>
</g>
<!-- sr.kanban_item&#45;&gt;sr.kanban_item_status -->
<g id="edge1" class="edge">
<title>sr.kanban_item:kanban_item_status_id&#45;&gt;sr.kanban_item_status:kanban_item_status_id</title>
<path fill="none" stroke="#000000" d="M487.7158,-575.6101C413.129,-546.5656 464.8763,-192.5 379,-192.5"/>
<polygon fill="#000000" stroke="#000000" points="488.1647,-575.6925 497.1866,-581.9259 493.0823,-576.5963 498,-577.5 498,-577.5 498,-577.5 493.0823,-576.5963 498.8134,-573.0741 488.1647,-575.6925 488.1647,-575.6925"/>
<text text-anchor="start" x="26.7355" y="-587.5" font-family="Arial" font-size="10.00" fill="#000000">FOREIGN KEY (kanban_item_status_id) REFERENCES sr.kanban_item_status(kanban_item_status_id)</text>
</g>
<!-- sr.team_member -->
<g id="node3" class="node">
<title>sr.team_member</title>
<polygon fill="#efefef" stroke="transparent" points="483,-222.5 483,-257.5 787,-257.5 787,-222.5 483,-222.5"/>
<polygon fill="none" stroke="#000000" points="483,-222.5 483,-257.5 787,-257.5 787,-222.5 483,-222.5"/>
<text text-anchor="start" x="503.2147" y="-235.3" font-family="Arial Bold" font-size="18.00" fill="#000000">sr.team_member</text>
<text text-anchor="start" x="639.2173" y="-235.3" font-family="Arial" font-size="14.00" fill="#000000">    </text>
<text text-anchor="start" x="673.4221" y="-235.3" font-family="Arial" font-size="14.00" fill="#666666">[BASE TABLE]</text>
<polygon fill="none" stroke="#000000" points="483,-192.5 483,-222.5 787,-222.5 787,-192.5 483,-192.5"/>
<text text-anchor="start" x="490" y="-203.9" font-family="Arial" font-size="14.00" fill="#000000">team_member_uuid    </text>
<text text-anchor="start" x="648.6704" y="-203.9" font-family="Arial" font-size="14.00" fill="#666666">[uuid]</text>
<polygon fill="none" stroke="#000000" points="483,-162.5 483,-192.5 787,-192.5 787,-162.5 483,-162.5"/>
<text text-anchor="start" x="490" y="-173.9" font-family="Arial" font-size="14.00" fill="#000000">team_uuid    </text>
<text text-anchor="start" x="589.5582" y="-173.9" font-family="Arial" font-size="14.00" fill="#666666">[uuid]</text>
<polygon fill="none" stroke="#000000" points="483,-132.5 483,-162.5 787,-162.5 787,-132.5 483,-132.5"/>
<text text-anchor="start" x="490" y="-143.9" font-family="Arial" font-size="14.00" fill="#000000">participant_uuid    </text>
<text text-anchor="start" x="623.0098" y="-143.9" font-family="Arial" font-size="14.00" fill="#666666">[uuid]</text>
<polygon fill="none" stroke="#000000" points="483,-102.5 483,-132.5 787,-132.5 787,-102.5 483,-102.5"/>
<text text-anchor="start" x="490" y="-113.9" font-family="Arial" font-size="14.00" fill="#000000">ts_created    </text>
<text text-anchor="start" x="589.5596" y="-113.9" font-family="Arial" font-size="14.00" fill="#666666">[timestamp without time zone]</text>
<polygon fill="none" stroke="#000000" points="483,-72.5 483,-102.5 787,-102.5 787,-72.5 483,-72.5"/>
<text text-anchor="start" x="489.5435" y="-83.9" font-family="Arial" font-size="14.00" fill="#000000">ts_modified    </text>
<text text-anchor="start" x="595.3163" y="-83.9" font-family="Arial" font-size="14.00" fill="#666666">[timestamp without time zone]</text>
<polygon fill="none" stroke="#000000" points="483,-42.5 483,-72.5 787,-72.5 787,-42.5 483,-42.5"/>
<text text-anchor="start" x="490" y="-53.9" font-family="Arial" font-size="14.00" fill="#000000">tags    </text>
<text text-anchor="start" x="550.6606" y="-53.9" font-family="Arial" font-size="14.00" fill="#666666">[jsonb]</text>
</g>
<!-- sr.kanban_item&#45;&gt;sr.team_member -->
<g id="edge2" class="edge">
<title>sr.kanban_item:kanban_item_issuer_uuid&#45;&gt;sr.team_member:team_member_uuid</title>
<path fill="none" stroke="#000000" d="M782.0856,-515.183C842.2764,-486.815 852.4671,-207.5 787,-207.5"/>
<polygon fill="#000000" stroke="#000000" points="781.7461,-515.2609 770.9924,-513.1142 776.8731,-516.3804 772,-517.5 772,-517.5 772,-517.5 776.8731,-516.3804 773.0076,-521.8858 781.7461,-515.2609 781.7461,-515.2609"/>
<text text-anchor="start" x="778.6485" y="-527.5" font-family="Arial" font-size="10.00" fill="#000000">FOREIGN KEY (kanban_item_issuer_uuid) REFERENCES sr.team_member(team_member_uuid)</text>
</g>
<!-- sr.kanban_item&#45;&gt;sr.team_member -->
<g id="edge3" class="edge">
<title>sr.kanban_item:kanban_item_owner_uuid&#45;&gt;sr.team_member:team_member_uuid</title>
<path fill="none" stroke="#000000" d="M781.7936,-485.0794C835.7209,-457.7124 845.9038,-207.5 787,-207.5"/>
<polygon fill="#000000" stroke="#000000" points="781.7079,-485.1005 770.9202,-483.1315 776.8539,-486.3002 772,-487.5 772,-487.5 772,-487.5 776.8539,-486.3002 773.0798,-491.8685 781.7079,-485.1005 781.7079,-485.1005"/>
<text text-anchor="start" x="779.369" y="-497.5" font-family="Arial" font-size="10.00" fill="#000000">FOREIGN KEY (kanban_item_owner_uuid) REFERENCES sr.team_member(team_member_uuid)</text>
</g>
</g>
</svg>
