<?xml version="1.0" encoding="UTF-8" standalone="no"?>
<!DOCTYPE svg PUBLIC "-//W3C//DTD SVG 1.1//EN"
 "http://www.w3.org/Graphics/SVG/1.1/DTD/svg11.dtd">
<!-- Generated by graphviz version 2.40.1 (20161225.0304)
 -->
<!-- Title: sr.marketplace_item_type Pages: 1 -->
<svg width="908pt" height="682pt"
 viewBox="0.00 0.00 907.50 682.00" xmlns="http://www.w3.org/2000/svg" xmlns:xlink="http://www.w3.org/1999/xlink">
<g id="graph0" class="graph" transform="scale(1 1) rotate(0) translate(4 678)">
<title>sr.marketplace_item_type</title>
<polygon fill="#ffffff" stroke="transparent" points="-4,4 -4,-678 903.5,-678 903.5,4 -4,4"/>
<!-- sr.marketplace_item_type -->
<g id="node1" class="node">
<title>sr.marketplace_item_type</title>
<polygon fill="#efefef" stroke="transparent" points="507,-225.5 507,-260.5 854,-260.5 854,-225.5 507,-225.5"/>
<polygon fill="none" stroke="#000000" points="507,-225.5 507,-260.5 854,-260.5 854,-225.5 507,-225.5"/>
<text text-anchor="start" x="513.702" y="-238.3" font-family="Arial Bold" font-size="18.00" fill="#000000">sr.marketplace_item_type</text>
<text text-anchor="start" x="719.73" y="-238.3" font-family="Arial" font-size="14.00" fill="#000000">    </text>
<text text-anchor="start" x="753.9348" y="-238.3" font-family="Arial" font-size="14.00" fill="#666666">[BASE TABLE]</text>
<polygon fill="none" stroke="#000000" points="507,-195.5 507,-225.5 854,-225.5 854,-195.5 507,-195.5"/>
<text text-anchor="start" x="514" y="-206.9" font-family="Arial" font-size="14.00" fill="#000000">marketplace_item_type_id </text>
<text text-anchor="start" x="681.2552" y="-206.9" font-family="Arial" font-size="14.00" fill="#666666">[integer]</text>
<polygon fill="none" stroke="#000000" points="507,-165.5 507,-195.5 854,-195.5 854,-165.5 507,-165.5"/>
<text text-anchor="start" x="514" y="-176.9" font-family="Arial" font-size="14.00" fill="#000000">marketplace_item_type_name </text>
<text text-anchor="start" x="705.3744" y="-176.9" font-family="Arial" font-size="14.00" fill="#666666">[varchar(100)]</text>
<polygon fill="none" stroke="#000000" points="507,-135.5 507,-165.5 854,-165.5 854,-135.5 507,-135.5"/>
<text text-anchor="start" x="514" y="-146.9" font-family="Arial" font-size="14.00" fill="#000000">marketplace_item_type_description </text>
<text text-anchor="start" x="738.0434" y="-146.9" font-family="Arial" font-size="14.00" fill="#666666">[varchar(512)]</text>
<polygon fill="none" stroke="#000000" points="507,-105.5 507,-135.5 854,-135.5 854,-105.5 507,-105.5"/>
<text text-anchor="start" x="514" y="-116.9" font-family="Arial" font-size="14.00" fill="#000000">stackcash_cost </text>
<text text-anchor="start" x="613.5848" y="-116.9" font-family="Arial" font-size="14.00" fill="#666666">[numeric(7,2)]</text>
<polygon fill="none" stroke="#000000" points="507,-75.5 507,-105.5 854,-105.5 854,-75.5 507,-75.5"/>
<text text-anchor="start" x="514" y="-86.9" font-family="Arial" font-size="14.00" fill="#000000">ts_created </text>
<text text-anchor="start" x="583.2454" y="-86.9" font-family="Arial" font-size="14.00" fill="#666666">[timestamp without time zone]</text>
<polygon fill="none" stroke="#000000" points="507,-45.5 507,-75.5 854,-75.5 854,-45.5 507,-45.5"/>
<text text-anchor="start" x="514" y="-56.9" font-family="Arial" font-size="14.00" fill="#000000">ts_modified </text>
<text text-anchor="start" x="589.4586" y="-56.9" font-family="Arial" font-size="14.00" fill="#666666">[timestamp without time zone]</text>
<polygon fill="none" stroke="#000000" stroke-width="3" points="505,-44.5 505,-262.5 855,-262.5 855,-44.5 505,-44.5"/>
</g>
<!-- sr.marketplace_item -->
<g id="node2" class="node">
<title>sr.marketplace_item</title>
<polygon fill="#efefef" stroke="transparent" points="520,-595.5 520,-630.5 841,-630.5 841,-595.5 520,-595.5"/>
<polygon fill="none" stroke="#000000" points="520,-595.5 520,-630.5 841,-630.5 841,-595.5 520,-595.5"/>
<text text-anchor="start" x="535.7124" y="-608.3" font-family="Arial Bold" font-size="18.00" fill="#000000">sr.marketplace_item</text>
<text text-anchor="start" x="697.7196" y="-608.3" font-family="Arial" font-size="14.00" fill="#000000">    </text>
<text text-anchor="start" x="731.9244" y="-608.3" font-family="Arial" font-size="14.00" fill="#666666">[BASE TABLE]</text>
<polygon fill="none" stroke="#000000" points="520,-565.5 520,-595.5 841,-595.5 841,-565.5 520,-565.5"/>
<text text-anchor="start" x="527" y="-576.9" font-family="Arial" font-size="14.00" fill="#000000">marketplace_item_id    </text>
<text text-anchor="start" x="690.331" y="-576.9" font-family="Arial" font-size="14.00" fill="#666666">[integer]</text>
<polygon fill="none" stroke="#000000" points="520,-535.5 520,-565.5 841,-565.5 841,-535.5 520,-535.5"/>
<text text-anchor="start" x="527" y="-546.9" font-family="Arial" font-size="14.00" fill="#000000">marketplace_item_name    </text>
<text text-anchor="start" x="714.4502" y="-546.9" font-family="Arial" font-size="14.00" fill="#666666">[varchar(100)]</text>
<polygon fill="none" stroke="#000000" points="520,-505.5 520,-535.5 841,-535.5 841,-505.5 520,-505.5"/>
<text text-anchor="start" x="526.8808" y="-516.9" font-family="Arial" font-size="14.00" fill="#000000">marketplace_item_description    </text>
<text text-anchor="start" x="747" y="-516.9" font-family="Arial" font-size="14.00" fill="#666666">[varchar(512)]</text>
<polygon fill="none" stroke="#000000" points="520,-475.5 520,-505.5 841,-505.5 841,-475.5 520,-475.5"/>
<text text-anchor="start" x="527" y="-486.9" font-family="Arial" font-size="14.00" fill="#000000">marketplace_item_type_id    </text>
<text text-anchor="start" x="724.5694" y="-486.9" font-family="Arial" font-size="14.00" fill="#666666">[integer]</text>
<polygon fill="none" stroke="#000000" points="520,-445.5 520,-475.5 841,-475.5 841,-445.5 520,-445.5"/>
<text text-anchor="start" x="527" y="-456.9" font-family="Arial" font-size="14.00" fill="#000000">stackcash_cost    </text>
<text text-anchor="start" x="656.899" y="-456.9" font-family="Arial" font-size="14.00" fill="#666666">[numeric(7,2)]</text>
<polygon fill="none" stroke="#000000" points="520,-415.5 520,-445.5 841,-445.5 841,-415.5 520,-415.5"/>
<text text-anchor="start" x="527" y="-426.9" font-family="Arial" font-size="14.00" fill="#000000">ts_created    </text>
<text text-anchor="start" x="626.5596" y="-426.9" font-family="Arial" font-size="14.00" fill="#666666">[timestamp without time zone]</text>
<polygon fill="none" stroke="#000000" points="520,-385.5 520,-415.5 841,-415.5 841,-385.5 520,-385.5"/>
<text text-anchor="start" x="527" y="-396.9" font-family="Arial" font-size="14.00" fill="#000000">ts_modified    </text>
<text text-anchor="start" x="632.7728" y="-396.9" font-family="Arial" font-size="14.00" fill="#666666">[timestamp without time zone]</text>
</g>
<!-- sr.marketplace_item&#45;&gt;sr.marketplace_item_type -->
<g id="edge1" class="edge">
<title>sr.marketplace_item:marketplace_item_type_id&#45;&gt;sr.marketplace_item_type:marketplace_item_type_id</title>
<path fill="none" stroke="#000000" d="M510.2272,-488.0794C456.514,-460.7124 448.1172,-210.5 507,-210.5"/>
<polygon fill="#000000" stroke="#000000" points="510.2933,-488.0957 518.9181,-494.868 515.1467,-489.2978 520,-490.5 520,-490.5 520,-490.5 515.1467,-489.2978 521.0819,-486.132 510.2933,-488.0957 510.2933,-488.0957"/>
<text text-anchor="start" x="6.92" y="-500.5" font-family="Arial" font-size="10.00" fill="#000000">FOREIGN KEY (marketplace_item_type_id) REFERENCES sr.marketplace_item_type(marketplace_item_type_id)</text>
</g>
</g>
</svg>
