<?xml version="1.0" encoding="UTF-8" standalone="no"?>
<!DOCTYPE svg PUBLIC "-//W3C//DTD SVG 1.1//EN"
 "http://www.w3.org/Graphics/SVG/1.1/DTD/svg11.dtd">
<!-- Generated by graphviz version 2.40.1 (20161225.0304)
 -->
<!-- Title: sr.marketplace_item Pages: 1 -->
<svg width="900pt" height="682pt"
 viewBox="0.00 0.00 899.50 682.00" xmlns="http://www.w3.org/2000/svg" xmlns:xlink="http://www.w3.org/1999/xlink">
<g id="graph0" class="graph" transform="scale(1 1) rotate(0) translate(4 678)">
<title>sr.marketplace_item</title>
<polygon fill="#ffffff" stroke="transparent" points="-4,4 -4,-678 895.5,-678 895.5,4 -4,4"/>
<!-- sr.marketplace_item -->
<g id="node1" class="node">
<title>sr.marketplace_item</title>
<polygon fill="#efefef" stroke="transparent" points="520,-592.5 520,-627.5 823,-627.5 823,-592.5 520,-592.5"/>
<polygon fill="none" stroke="#000000" points="520,-592.5 520,-627.5 823,-627.5 823,-592.5 520,-592.5"/>
<text text-anchor="start" x="526.7124" y="-605.3" font-family="Arial Bold" font-size="18.00" fill="#000000">sr.marketplace_item</text>
<text text-anchor="start" x="688.7196" y="-605.3" font-family="Arial" font-size="14.00" fill="#000000">    </text>
<text text-anchor="start" x="722.9244" y="-605.3" font-family="Arial" font-size="14.00" fill="#666666">[BASE TABLE]</text>
<polygon fill="none" stroke="#000000" points="520,-562.5 520,-592.5 823,-592.5 823,-562.5 520,-562.5"/>
<text text-anchor="start" x="527" y="-573.9" font-family="Arial" font-size="14.00" fill="#000000">marketplace_item_id </text>
<text text-anchor="start" x="660.0168" y="-573.9" font-family="Arial" font-size="14.00" fill="#666666">[integer]</text>
<polygon fill="none" stroke="#000000" points="520,-532.5 520,-562.5 823,-562.5 823,-532.5 520,-532.5"/>
<text text-anchor="start" x="527" y="-543.9" font-family="Arial" font-size="14.00" fill="#000000">marketplace_item_name </text>
<text text-anchor="start" x="684.136" y="-543.9" font-family="Arial" font-size="14.00" fill="#666666">[varchar(100)]</text>
<polygon fill="none" stroke="#000000" points="520,-502.5 520,-532.5 823,-532.5 823,-502.5 520,-502.5"/>
<text text-anchor="start" x="527" y="-513.9" font-family="Arial" font-size="14.00" fill="#000000">marketplace_item_description </text>
<text text-anchor="start" x="716.805" y="-513.9" font-family="Arial" font-size="14.00" fill="#666666">[varchar(512)]</text>
<polygon fill="none" stroke="#000000" points="520,-472.5 520,-502.5 823,-502.5 823,-472.5 520,-472.5"/>
<text text-anchor="start" x="527" y="-483.9" font-family="Arial" font-size="14.00" fill="#000000">marketplace_item_type_id </text>
<text text-anchor="start" x="694.2552" y="-483.9" font-family="Arial" font-size="14.00" fill="#666666">[integer]</text>
<polygon fill="none" stroke="#000000" points="520,-442.5 520,-472.5 823,-472.5 823,-442.5 520,-442.5"/>
<text text-anchor="start" x="527" y="-453.9" font-family="Arial" font-size="14.00" fill="#000000">stackcash_cost </text>
<text text-anchor="start" x="626.5848" y="-453.9" font-family="Arial" font-size="14.00" fill="#666666">[numeric(7,2)]</text>
<polygon fill="none" stroke="#000000" points="520,-412.5 520,-442.5 823,-442.5 823,-412.5 520,-412.5"/>
<text text-anchor="start" x="527" y="-423.9" font-family="Arial" font-size="14.00" fill="#000000">ts_created </text>
<text text-anchor="start" x="596.2454" y="-423.9" font-family="Arial" font-size="14.00" fill="#666666">[timestamp without time zone]</text>
<polygon fill="none" stroke="#000000" points="520,-382.5 520,-412.5 823,-412.5 823,-382.5 520,-382.5"/>
<text text-anchor="start" x="527" y="-393.9" font-family="Arial" font-size="14.00" fill="#000000">ts_modified </text>
<text text-anchor="start" x="602.4586" y="-393.9" font-family="Arial" font-size="14.00" fill="#666666">[timestamp without time zone]</text>
<polygon fill="none" stroke="#000000" stroke-width="3" points="518,-381.5 518,-629.5 824,-629.5 824,-381.5 518,-381.5"/>
</g>
<!-- sr.marketplace_item_type -->
<g id="node2" class="node">
<title>sr.marketplace_item_type</title>
<polygon fill="#efefef" stroke="transparent" points="494,-222.5 494,-257.5 849,-257.5 849,-222.5 494,-222.5"/>
<polygon fill="none" stroke="#000000" points="494,-222.5 494,-257.5 849,-257.5 849,-222.5 494,-222.5"/>
<text text-anchor="start" x="504.702" y="-235.3" font-family="Arial Bold" font-size="18.00" fill="#000000">sr.marketplace_item_type</text>
<text text-anchor="start" x="710.73" y="-235.3" font-family="Arial" font-size="14.00" fill="#000000">    </text>
<text text-anchor="start" x="744.9348" y="-235.3" font-family="Arial" font-size="14.00" fill="#666666">[BASE TABLE]</text>
<polygon fill="none" stroke="#000000" points="494,-192.5 494,-222.5 849,-222.5 849,-192.5 494,-192.5"/>
<text text-anchor="start" x="501" y="-203.9" font-family="Arial" font-size="14.00" fill="#000000">marketplace_item_type_id    </text>
<text text-anchor="start" x="698.5694" y="-203.9" font-family="Arial" font-size="14.00" fill="#666666">[integer]</text>
<polygon fill="none" stroke="#000000" points="494,-162.5 494,-192.5 849,-192.5 849,-162.5 494,-162.5"/>
<text text-anchor="start" x="501" y="-173.9" font-family="Arial" font-size="14.00" fill="#000000">marketplace_item_type_name    </text>
<text text-anchor="start" x="722.6886" y="-173.9" font-family="Arial" font-size="14.00" fill="#666666">[varchar(100)]</text>
<polygon fill="none" stroke="#000000" points="494,-132.5 494,-162.5 849,-162.5 849,-132.5 494,-132.5"/>
<text text-anchor="start" x="500.7616" y="-143.9" font-family="Arial" font-size="14.00" fill="#000000">marketplace_item_type_description    </text>
<text text-anchor="start" x="755.1192" y="-143.9" font-family="Arial" font-size="14.00" fill="#666666">[varchar(512)]</text>
<polygon fill="none" stroke="#000000" points="494,-102.5 494,-132.5 849,-132.5 849,-102.5 494,-102.5"/>
<text text-anchor="start" x="501" y="-113.9" font-family="Arial" font-size="14.00" fill="#000000">stackcash_cost    </text>
<text text-anchor="start" x="630.899" y="-113.9" font-family="Arial" font-size="14.00" fill="#666666">[numeric(7,2)]</text>
<polygon fill="none" stroke="#000000" points="494,-72.5 494,-102.5 849,-102.5 849,-72.5 494,-72.5"/>
<text text-anchor="start" x="501" y="-83.9" font-family="Arial" font-size="14.00" fill="#000000">ts_created    </text>
<text text-anchor="start" x="600.5596" y="-83.9" font-family="Arial" font-size="14.00" fill="#666666">[timestamp without time zone]</text>
<polygon fill="none" stroke="#000000" points="494,-42.5 494,-72.5 849,-72.5 849,-42.5 494,-42.5"/>
<text text-anchor="start" x="501" y="-53.9" font-family="Arial" font-size="14.00" fill="#000000">ts_modified    </text>
<text text-anchor="start" x="606.7728" y="-53.9" font-family="Arial" font-size="14.00" fill="#666666">[timestamp without time zone]</text>
</g>
<!-- sr.marketplace_item&#45;&gt;sr.marketplace_item_type -->
<g id="edge1" class="edge">
<title>sr.marketplace_item:marketplace_item_type_id&#45;&gt;sr.marketplace_item_type:marketplace_item_type_id</title>
<path fill="none" stroke="#000000" d="M510.0836,-485.0794C454.931,-457.7124 434.9275,-207.5 494,-207.5"/>
<polygon fill="#000000" stroke="#000000" points="510.2852,-485.1285 518.9328,-491.8716 515.1426,-486.3143 520,-487.5 520,-487.5 520,-487.5 515.1426,-486.3143 521.0672,-483.1284 510.2852,-485.1285 510.2852,-485.1285"/>
<text text-anchor="start" x="6.92" y="-497.5" font-family="Arial" font-size="10.00" fill="#000000">FOREIGN KEY (marketplace_item_type_id) REFERENCES sr.marketplace_item_type(marketplace_item_type_id)</text>
</g>
</g>
</svg>
