<?xml version="1.0" encoding="UTF-8" standalone="no"?>
<!DOCTYPE svg PUBLIC "-//W3C//DTD SVG 1.1//EN"
 "http://www.w3.org/Graphics/SVG/1.1/DTD/svg11.dtd">
<!-- Generated by graphviz version 2.40.1 (20161225.0304)
 -->
<!-- Title: sr.organization_invitation Pages: 1 -->
<svg width="1025pt" height="802pt"
 viewBox="0.00 0.00 1025.00 802.00" xmlns="http://www.w3.org/2000/svg" xmlns:xlink="http://www.w3.org/1999/xlink">
<g id="graph0" class="graph" transform="scale(1 1) rotate(0) translate(4 798)">
<title>sr.organization_invitation</title>
<polygon fill="#ffffff" stroke="transparent" points="-4,4 -4,-798 1021,-798 1021,4 -4,4"/>
<!-- sr.organization_invitation -->
<g id="node1" class="node">
<title>sr.organization_invitation</title>
<polygon fill="#efefef" stroke="transparent" points="72,-712.5 72,-747.5 412,-747.5 412,-712.5 72,-712.5"/>
<polygon fill="none" stroke="#000000" points="72,-712.5 72,-747.5 412,-747.5 412,-712.5 72,-712.5"/>
<text text-anchor="start" x="78.6967" y="-725.3" font-family="Arial Bold" font-size="18.00" fill="#000000">sr.organization_invitation</text>
<text text-anchor="start" x="277.7353" y="-725.3" font-family="Arial" font-size="14.00" fill="#000000">    </text>
<text text-anchor="start" x="311.9401" y="-725.3" font-family="Arial" font-size="14.00" fill="#666666">[BASE TABLE]</text>
<polygon fill="none" stroke="#000000" points="72,-682.5 72,-712.5 412,-712.5 412,-682.5 72,-682.5"/>
<text text-anchor="start" x="79" y="-693.9" font-family="Arial" font-size="14.00" fill="#000000">organization_invitation_uuid </text>
<text text-anchor="start" x="256.3842" y="-693.9" font-family="Arial" font-size="14.00" fill="#666666">[uuid]</text>
<polygon fill="none" stroke="#000000" points="72,-652.5 72,-682.5 412,-682.5 412,-652.5 72,-652.5"/>
<text text-anchor="start" x="79" y="-663.9" font-family="Arial" font-size="14.00" fill="#000000">organization_uuid </text>
<text text-anchor="start" x="193.3702" y="-663.9" font-family="Arial" font-size="14.00" fill="#666666">[uuid]</text>
<polygon fill="none" stroke="#000000" points="72,-622.5 72,-652.5 412,-652.5 412,-622.5 72,-622.5"/>
<text text-anchor="start" x="79" y="-633.9" font-family="Arial" font-size="14.00" fill="#000000">invitation_email </text>
<text text-anchor="start" x="179.3436" y="-633.9" font-family="Arial" font-size="14.00" fill="#666666">[varchar(100)]</text>
<polygon fill="none" stroke="#000000" points="72,-592.5 72,-622.5 412,-622.5 412,-592.5 72,-592.5"/>
<text text-anchor="start" x="79" y="-603.9" font-family="Arial" font-size="14.00" fill="#000000">invitation_code </text>
<text text-anchor="start" x="176.2524" y="-603.9" font-family="Arial" font-size="14.00" fill="#666666">[varchar(25)]</text>
<polygon fill="none" stroke="#000000" points="72,-562.5 72,-592.5 412,-592.5 412,-562.5 72,-562.5"/>
<text text-anchor="start" x="79" y="-573.9" font-family="Arial" font-size="14.00" fill="#000000">creator_user_uuid </text>
<text text-anchor="start" x="195.6956" y="-573.9" font-family="Arial" font-size="14.00" fill="#666666">[uuid]</text>
<polygon fill="none" stroke="#000000" points="72,-532.5 72,-562.5 412,-562.5 412,-532.5 72,-532.5"/>
<text text-anchor="start" x="79" y="-543.9" font-family="Arial" font-size="14.00" fill="#000000">claiming_user_uuid </text>
<text text-anchor="start" x="203.4642" y="-543.9" font-family="Arial" font-size="14.00" fill="#666666">[uuid]</text>
<polygon fill="none" stroke="#000000" points="72,-502.5 72,-532.5 412,-532.5 412,-502.5 72,-502.5"/>
<text text-anchor="start" x="79" y="-513.9" font-family="Arial" font-size="14.00" fill="#000000">organization_invitation_status_id </text>
<text text-anchor="start" x="285.948" y="-513.9" font-family="Arial" font-size="14.00" fill="#666666">[integer]</text>
<polygon fill="none" stroke="#000000" points="72,-472.5 72,-502.5 412,-502.5 412,-472.5 72,-472.5"/>
<text text-anchor="start" x="79" y="-483.9" font-family="Arial" font-size="14.00" fill="#000000">send_count </text>
<text text-anchor="start" x="155.2594" y="-483.9" font-family="Arial" font-size="14.00" fill="#666666">[integer]</text>
<polygon fill="none" stroke="#000000" points="72,-442.5 72,-472.5 412,-472.5 412,-442.5 72,-442.5"/>
<text text-anchor="start" x="79" y="-453.9" font-family="Arial" font-size="14.00" fill="#000000">ts_claimed </text>
<text text-anchor="start" x="149.7854" y="-453.9" font-family="Arial" font-size="14.00" fill="#666666">[timestamp without time zone]</text>
<polygon fill="none" stroke="#000000" points="72,-412.5 72,-442.5 412,-442.5 412,-412.5 72,-412.5"/>
<text text-anchor="start" x="79" y="-423.9" font-family="Arial" font-size="14.00" fill="#000000">ts_expires </text>
<text text-anchor="start" x="146.6788" y="-423.9" font-family="Arial" font-size="14.00" fill="#666666">[timestamp without time zone]</text>
<polygon fill="none" stroke="#000000" points="72,-382.5 72,-412.5 412,-412.5 412,-382.5 72,-382.5"/>
<text text-anchor="start" x="79" y="-393.9" font-family="Arial" font-size="14.00" fill="#000000">ts_created </text>
<text text-anchor="start" x="148.2454" y="-393.9" font-family="Arial" font-size="14.00" fill="#666666">[timestamp without time zone]</text>
<polygon fill="none" stroke="#000000" points="72,-352.5 72,-382.5 412,-382.5 412,-352.5 72,-352.5"/>
<text text-anchor="start" x="79" y="-363.9" font-family="Arial" font-size="14.00" fill="#000000">ts_modified </text>
<text text-anchor="start" x="154.4586" y="-363.9" font-family="Arial" font-size="14.00" fill="#666666">[timestamp without time zone]</text>
<polygon fill="none" stroke="#000000" stroke-width="3" points="70.5,-351.5 70.5,-749.5 413.5,-749.5 413.5,-351.5 70.5,-351.5"/>
</g>
<!-- sr.organization_invitation_status -->
<g id="node2" class="node">
<title>sr.organization_invitation_status</title>
<polygon fill="#efefef" stroke="transparent" points="43,-192.5 43,-227.5 441,-227.5 441,-192.5 43,-192.5"/>
<polygon fill="none" stroke="#000000" points="43,-192.5 43,-227.5 441,-227.5 441,-192.5 43,-192.5"/>
<text text-anchor="start" x="49.6852" y="-205.3" font-family="Arial Bold" font-size="18.00" fill="#000000">sr.organization_invitation_status</text>
<text text-anchor="start" x="306.7468" y="-205.3" font-family="Arial" font-size="14.00" fill="#000000">    </text>
<text text-anchor="start" x="340.9516" y="-205.3" font-family="Arial" font-size="14.00" fill="#666666">[BASE TABLE]</text>
<polygon fill="none" stroke="#000000" points="43,-162.5 43,-192.5 441,-192.5 441,-162.5 43,-162.5"/>
<text text-anchor="start" x="50" y="-173.9" font-family="Arial" font-size="14.00" fill="#000000">organization_invitation_status_id    </text>
<text text-anchor="start" x="287.2622" y="-173.9" font-family="Arial" font-size="14.00" fill="#666666">[integer]</text>
<polygon fill="none" stroke="#000000" points="43,-132.5 43,-162.5 441,-162.5 441,-132.5 43,-132.5"/>
<text text-anchor="start" x="50" y="-143.9" font-family="Arial" font-size="14.00" fill="#000000">organization_invitation_status_name    </text>
<text text-anchor="start" x="311.3814" y="-143.9" font-family="Arial" font-size="14.00" fill="#666666">[varchar(50)]</text>
<polygon fill="none" stroke="#000000" points="43,-102.5 43,-132.5 441,-132.5 441,-102.5 43,-102.5"/>
<text text-anchor="start" x="50" y="-113.9" font-family="Arial" font-size="14.00" fill="#000000">organization_invitation_status_description    </text>
<text text-anchor="start" x="344.0504" y="-113.9" font-family="Arial" font-size="14.00" fill="#666666">[varchar(512)]</text>
<polygon fill="none" stroke="#000000" points="43,-72.5 43,-102.5 441,-102.5 441,-72.5 43,-72.5"/>
<text text-anchor="start" x="50" y="-83.9" font-family="Arial" font-size="14.00" fill="#000000">ts_created    </text>
<text text-anchor="start" x="149.5596" y="-83.9" font-family="Arial" font-size="14.00" fill="#666666">[timestamp without time zone]</text>
<polygon fill="none" stroke="#000000" points="43,-42.5 43,-72.5 441,-72.5 441,-42.5 43,-42.5"/>
<text text-anchor="start" x="50" y="-53.9" font-family="Arial" font-size="14.00" fill="#000000">ts_modified    </text>
<text text-anchor="start" x="155.7728" y="-53.9" font-family="Arial" font-size="14.00" fill="#666666">[timestamp without time zone]</text>
</g>
<!-- sr.organization_invitation&#45;&gt;sr.organization_invitation_status -->
<g id="edge1" class="edge">
<title>sr.organization_invitation:organization_invitation_status_id&#45;&gt;sr.organization_invitation_status:organization_invitation_status_id</title>
<path fill="none" stroke="#000000" d="M421.9305,-515.5033C490.2238,-487.6392 513.4235,-177.5 441,-177.5"/>
<polygon fill="#000000" stroke="#000000" points="421.8038,-515.5287 411.1129,-513.0883 416.9019,-516.5144 412,-517.5 412,-517.5 412,-517.5 416.9019,-516.5144 412.8871,-521.9117 421.8038,-515.5287 421.8038,-515.5287"/>
<text text-anchor="start" x="419.392" y="-527.5" font-family="Arial" font-size="10.00" fill="#000000">FOREIGN KEY (organization_invitation_status_id) REFERENCES sr.organization_invitation_status(organization_invitation_status_id)</text>
</g>
</g>
</svg>
