<?xml version="1.0" encoding="UTF-8" standalone="no"?>
<!DOCTYPE svg PUBLIC "-//W3C//DTD SVG 1.1//EN"
 "http://www.w3.org/Graphics/SVG/1.1/DTD/svg11.dtd">
<!-- Generated by graphviz version 2.40.1 (20161225.0304)
 -->
<!-- Title: sr.organization Pages: 1 -->
<svg width="2688pt" height="1469pt"
 viewBox="0.00 0.00 2688.00 1469.00" xmlns="http://www.w3.org/2000/svg" xmlns:xlink="http://www.w3.org/1999/xlink">
<g id="graph0" class="graph" transform="scale(1 1) rotate(0) translate(4 1465)">
<title>sr.organization</title>
<polygon fill="#ffffff" stroke="transparent" points="-4,4 -4,-1465 2684,-1465 2684,4 -4,4"/>
<!-- sr.organization -->
<g id="node1" class="node">
<title>sr.organization</title>
<polygon fill="#efefef" stroke="transparent" points="1148,-772.5 1148,-807.5 1422,-807.5 1422,-772.5 1148,-772.5"/>
<polygon fill="none" stroke="#000000" points="1148,-772.5 1148,-807.5 1422,-807.5 1422,-772.5 1148,-772.5"/>
<text text-anchor="start" x="1162.2057" y="-785.3" font-family="Arial Bold" font-size="18.00" fill="#000000">sr.organization</text>
<text text-anchor="start" x="1280.2263" y="-785.3" font-family="Arial" font-size="14.00" fill="#000000">    </text>
<text text-anchor="start" x="1314.4311" y="-785.3" font-family="Arial" font-size="14.00" fill="#666666">[BASE TABLE]</text>
<polygon fill="none" stroke="#000000" points="1148,-742.5 1148,-772.5 1422,-772.5 1422,-742.5 1148,-742.5"/>
<text text-anchor="start" x="1155" y="-753.9" font-family="Arial" font-size="14.00" fill="#000000">organization_uuid </text>
<text text-anchor="start" x="1269.3702" y="-753.9" font-family="Arial" font-size="14.00" fill="#666666">[uuid]</text>
<polygon fill="none" stroke="#000000" points="1148,-712.5 1148,-742.5 1422,-742.5 1422,-712.5 1148,-712.5"/>
<text text-anchor="start" x="1155" y="-723.9" font-family="Arial" font-size="14.00" fill="#000000">organization_name </text>
<text text-anchor="start" x="1277.9242" y="-723.9" font-family="Arial" font-size="14.00" fill="#666666">[varchar(255)]</text>
<polygon fill="none" stroke="#000000" points="1148,-682.5 1148,-712.5 1422,-712.5 1422,-682.5 1148,-682.5"/>
<text text-anchor="start" x="1155" y="-693.9" font-family="Arial" font-size="14.00" fill="#000000">organization_status_id </text>
<text text-anchor="start" x="1298.934" y="-693.9" font-family="Arial" font-size="14.00" fill="#666666">[integer]</text>
<polygon fill="none" stroke="#000000" points="1148,-652.5 1148,-682.5 1422,-682.5 1422,-652.5 1148,-652.5"/>
<text text-anchor="start" x="1155" y="-663.9" font-family="Arial" font-size="14.00" fill="#000000">organization_domain </text>
<text text-anchor="start" x="1288.8134" y="-663.9" font-family="Arial" font-size="14.00" fill="#666666">[varchar(255)]</text>
<polygon fill="none" stroke="#000000" points="1148,-622.5 1148,-652.5 1422,-652.5 1422,-622.5 1148,-622.5"/>
<text text-anchor="start" x="1155" y="-633.9" font-family="Arial" font-size="14.00" fill="#000000">organization_logo_image </text>
<text text-anchor="start" x="1315.2678" y="-633.9" font-family="Arial" font-size="14.00" fill="#666666">[bytea]</text>
<polygon fill="none" stroke="#000000" points="1148,-592.5 1148,-622.5 1422,-622.5 1422,-592.5 1148,-592.5"/>
<text text-anchor="start" x="1155" y="-603.9" font-family="Arial" font-size="14.00" fill="#000000">primary_contact_email </text>
<text text-anchor="start" x="1299.6774" y="-603.9" font-family="Arial" font-size="14.00" fill="#666666">[varchar(100)]</text>
<polygon fill="none" stroke="#000000" points="1148,-562.5 1148,-592.5 1422,-592.5 1422,-562.5 1148,-562.5"/>
<text text-anchor="start" x="1155" y="-573.9" font-family="Arial" font-size="14.00" fill="#000000">street_address_1 </text>
<text text-anchor="start" x="1267.0364" y="-573.9" font-family="Arial" font-size="14.00" fill="#666666">[varchar(100)]</text>
<polygon fill="none" stroke="#000000" points="1148,-532.5 1148,-562.5 1422,-562.5 1422,-532.5 1148,-532.5"/>
<text text-anchor="start" x="1155" y="-543.9" font-family="Arial" font-size="14.00" fill="#000000">street_address_2 </text>
<text text-anchor="start" x="1267.0364" y="-543.9" font-family="Arial" font-size="14.00" fill="#666666">[varchar(100)]</text>
<polygon fill="none" stroke="#000000" points="1148,-502.5 1148,-532.5 1422,-532.5 1422,-502.5 1148,-502.5"/>
<text text-anchor="start" x="1155" y="-513.9" font-family="Arial" font-size="14.00" fill="#000000">city </text>
<text text-anchor="start" x="1179.8878" y="-513.9" font-family="Arial" font-size="14.00" fill="#666666">[varchar(100)]</text>
<polygon fill="none" stroke="#000000" points="1148,-472.5 1148,-502.5 1422,-502.5 1422,-472.5 1148,-472.5"/>
<text text-anchor="start" x="1155" y="-483.9" font-family="Arial" font-size="14.00" fill="#000000">state_region </text>
<text text-anchor="start" x="1235.9172" y="-483.9" font-family="Arial" font-size="14.00" fill="#666666">[varchar(100)]</text>
<polygon fill="none" stroke="#000000" points="1148,-442.5 1148,-472.5 1422,-472.5 1422,-442.5 1148,-442.5"/>
<text text-anchor="start" x="1155" y="-453.9" font-family="Arial" font-size="14.00" fill="#000000">postal_code </text>
<text text-anchor="start" x="1234.366" y="-453.9" font-family="Arial" font-size="14.00" fill="#666666">[varchar(25)]</text>
<polygon fill="none" stroke="#000000" points="1148,-412.5 1148,-442.5 1422,-442.5 1422,-412.5 1148,-412.5"/>
<text text-anchor="start" x="1155" y="-423.9" font-family="Arial" font-size="14.00" fill="#000000">phone </text>
<text text-anchor="start" x="1197.8036" y="-423.9" font-family="Arial" font-size="14.00" fill="#666666">[varchar(20)]</text>
<polygon fill="none" stroke="#000000" points="1148,-382.5 1148,-412.5 1422,-412.5 1422,-382.5 1148,-382.5"/>
<text text-anchor="start" x="1155" y="-393.9" font-family="Arial" font-size="14.00" fill="#000000">ts_created </text>
<text text-anchor="start" x="1224.2454" y="-393.9" font-family="Arial" font-size="14.00" fill="#666666">[timestamp without time zone]</text>
<polygon fill="none" stroke="#000000" points="1148,-352.5 1148,-382.5 1422,-382.5 1422,-352.5 1148,-352.5"/>
<text text-anchor="start" x="1154.7006" y="-363.9" font-family="Arial" font-size="14.00" fill="#000000">ts_modified </text>
<text text-anchor="start" x="1230.1592" y="-363.9" font-family="Arial" font-size="14.00" fill="#666666">[timestamp without time zone]</text>
<polygon fill="none" stroke="#000000" stroke-width="3" points="1146.5,-351.5 1146.5,-809.5 1423.5,-809.5 1423.5,-351.5 1146.5,-351.5"/>
</g>
<!-- sr.organization_status -->
<g id="node8" class="node">
<title>sr.organization_status</title>
<polygon fill="#efefef" stroke="transparent" points="1119,-192.5 1119,-227.5 1451,-227.5 1451,-192.5 1119,-192.5"/>
<polygon fill="none" stroke="#000000" points="1119,-192.5 1119,-227.5 1451,-227.5 1451,-192.5 1119,-192.5"/>
<text text-anchor="start" x="1133.1942" y="-205.3" font-family="Arial Bold" font-size="18.00" fill="#000000">sr.organization_status</text>
<text text-anchor="start" x="1309.2378" y="-205.3" font-family="Arial" font-size="14.00" fill="#000000">    </text>
<text text-anchor="start" x="1343.4426" y="-205.3" font-family="Arial" font-size="14.00" fill="#666666">[BASE TABLE]</text>
<polygon fill="none" stroke="#000000" points="1119,-162.5 1119,-192.5 1451,-192.5 1451,-162.5 1119,-162.5"/>
<text text-anchor="start" x="1126" y="-173.9" font-family="Arial" font-size="14.00" fill="#000000">organization_status_id    </text>
<text text-anchor="start" x="1300.2482" y="-173.9" font-family="Arial" font-size="14.00" fill="#666666">[integer]</text>
<polygon fill="none" stroke="#000000" points="1119,-132.5 1119,-162.5 1451,-162.5 1451,-132.5 1119,-132.5"/>
<text text-anchor="start" x="1126" y="-143.9" font-family="Arial" font-size="14.00" fill="#000000">organization_status_name    </text>
<text text-anchor="start" x="1324.3674" y="-143.9" font-family="Arial" font-size="14.00" fill="#666666">[varchar(50)]</text>
<polygon fill="none" stroke="#000000" points="1119,-102.5 1119,-132.5 1451,-132.5 1451,-102.5 1119,-102.5"/>
<text text-anchor="start" x="1125.9222" y="-113.9" font-family="Arial" font-size="14.00" fill="#000000">organization_status_description    </text>
<text text-anchor="start" x="1356.9586" y="-113.9" font-family="Arial" font-size="14.00" fill="#666666">[varchar(512)]</text>
<polygon fill="none" stroke="#000000" points="1119,-72.5 1119,-102.5 1451,-102.5 1451,-72.5 1119,-72.5"/>
<text text-anchor="start" x="1126" y="-83.9" font-family="Arial" font-size="14.00" fill="#000000">ts_created    </text>
<text text-anchor="start" x="1225.5596" y="-83.9" font-family="Arial" font-size="14.00" fill="#666666">[timestamp without time zone]</text>
<polygon fill="none" stroke="#000000" points="1119,-42.5 1119,-72.5 1451,-72.5 1451,-42.5 1119,-42.5"/>
<text text-anchor="start" x="1126" y="-53.9" font-family="Arial" font-size="14.00" fill="#000000">ts_modified    </text>
<text text-anchor="start" x="1231.7728" y="-53.9" font-family="Arial" font-size="14.00" fill="#666666">[timestamp without time zone]</text>
</g>
<!-- sr.organization&#45;&gt;sr.organization_status -->
<g id="edge7" class="edge">
<title>sr.organization:organization_status_id&#45;&gt;sr.organization_status:organization_status_id</title>
<path fill="none" stroke="#000000" d="M1432.0415,-697.1685C1654.264,-682.3772 1679.0796,-177.5 1451,-177.5"/>
<polygon fill="#000000" stroke="#000000" points="1431.9946,-697.17 1421.8515,-693.0024 1426.9973,-697.335 1422,-697.5 1422,-697.5 1422,-697.5 1426.9973,-697.335 1422.1485,-701.9976 1431.9946,-697.17 1431.9946,-697.17"/>
<text text-anchor="start" x="1428.907" y="-707.5" font-family="Arial" font-size="10.00" fill="#000000">FOREIGN KEY (organization_status_id) REFERENCES sr.organization_status(organization_status_id)</text>
</g>
<!-- sr.user -->
<g id="node2" class="node">
<title>sr.user</title>
<polygon fill="#efefef" stroke="transparent" points="84,-1382.5 84,-1417.5 395,-1417.5 395,-1382.5 84,-1382.5"/>
<polygon fill="none" stroke="#000000" points="84,-1382.5 84,-1417.5 395,-1417.5 395,-1382.5 84,-1382.5"/>
<text text-anchor="start" x="148.2165" y="-1395.3" font-family="Arial Bold" font-size="18.00" fill="#000000">sr.user</text>
<text text-anchor="start" x="203.2155" y="-1395.3" font-family="Arial" font-size="14.00" fill="#000000">    </text>
<text text-anchor="start" x="237.4203" y="-1395.3" font-family="Arial" font-size="14.00" fill="#666666">[BASE TABLE]</text>
<polygon fill="none" stroke="#000000" points="84,-1352.5 84,-1382.5 395,-1382.5 395,-1352.5 84,-1352.5"/>
<text text-anchor="start" x="91" y="-1363.9" font-family="Arial" font-size="14.00" fill="#000000">user_uuid    </text>
<text text-anchor="start" x="186.6676" y="-1363.9" font-family="Arial" font-size="14.00" fill="#666666">[uuid]</text>
<polygon fill="none" stroke="#000000" points="84,-1322.5 84,-1352.5 395,-1352.5 395,-1322.5 84,-1322.5"/>
<text text-anchor="start" x="91" y="-1333.9" font-family="Arial" font-size="14.00" fill="#000000">email_address    </text>
<text text-anchor="start" x="216.2174" y="-1333.9" font-family="Arial" font-size="14.00" fill="#666666">[varchar(100)]</text>
<polygon fill="none" stroke="#000000" points="84,-1292.5 84,-1322.5 395,-1322.5 395,-1292.5 84,-1292.5"/>
<text text-anchor="start" x="91" y="-1303.9" font-family="Arial" font-size="14.00" fill="#000000">organization_uuid    </text>
<text text-anchor="start" x="235.6844" y="-1303.9" font-family="Arial" font-size="14.00" fill="#666666">[uuid]</text>
<polygon fill="none" stroke="#000000" points="84,-1262.5 84,-1292.5 395,-1292.5 395,-1262.5 84,-1262.5"/>
<text text-anchor="start" x="91" y="-1273.9" font-family="Arial" font-size="14.00" fill="#000000">auth_provider_id    </text>
<text text-anchor="start" x="229.4558" y="-1273.9" font-family="Arial" font-size="14.00" fill="#666666">[varchar(100)]</text>
<polygon fill="none" stroke="#000000" points="84,-1232.5 84,-1262.5 395,-1262.5 395,-1232.5 84,-1232.5"/>
<text text-anchor="start" x="91" y="-1243.9" font-family="Arial" font-size="14.00" fill="#000000">first_name    </text>
<text text-anchor="start" x="190.5442" y="-1243.9" font-family="Arial" font-size="14.00" fill="#666666">[varchar(100)]</text>
<polygon fill="none" stroke="#000000" points="84,-1202.5 84,-1232.5 395,-1232.5 395,-1202.5 84,-1202.5"/>
<text text-anchor="start" x="91" y="-1213.9" font-family="Arial" font-size="14.00" fill="#000000">last_name    </text>
<text text-anchor="start" x="189.7756" y="-1213.9" font-family="Arial" font-size="14.00" fill="#666666">[varchar(100)]</text>
<polygon fill="none" stroke="#000000" points="84,-1172.5 84,-1202.5 395,-1202.5 395,-1172.5 84,-1172.5"/>
<text text-anchor="start" x="91" y="-1183.9" font-family="Arial" font-size="14.00" fill="#000000">phone    </text>
<text text-anchor="start" x="164.1178" y="-1183.9" font-family="Arial" font-size="14.00" fill="#666666">[varchar(20)]</text>
<polygon fill="none" stroke="#000000" points="84,-1142.5 84,-1172.5 395,-1172.5 395,-1142.5 84,-1142.5"/>
<text text-anchor="start" x="91" y="-1153.9" font-family="Arial" font-size="14.00" fill="#000000">email_verified    </text>
<text text-anchor="start" x="211.5386" y="-1153.9" font-family="Arial" font-size="14.00" fill="#666666">[boolean]</text>
<polygon fill="none" stroke="#000000" points="84,-1112.5 84,-1142.5 395,-1142.5 395,-1112.5 84,-1112.5"/>
<text text-anchor="start" x="91" y="-1123.9" font-family="Arial" font-size="14.00" fill="#000000">registered    </text>
<text text-anchor="start" x="187.4362" y="-1123.9" font-family="Arial" font-size="14.00" fill="#666666">[boolean]</text>
<polygon fill="none" stroke="#000000" points="84,-1082.5 84,-1112.5 395,-1112.5 395,-1082.5 84,-1082.5"/>
<text text-anchor="start" x="91" y="-1093.9" font-family="Arial" font-size="14.00" fill="#000000">settings    </text>
<text text-anchor="start" x="173.4404" y="-1093.9" font-family="Arial" font-size="14.00" fill="#666666">[jsonb]</text>
<polygon fill="none" stroke="#000000" points="84,-1052.5 84,-1082.5 395,-1082.5 395,-1052.5 84,-1052.5"/>
<text text-anchor="start" x="91" y="-1063.9" font-family="Arial" font-size="14.00" fill="#000000">ts_created    </text>
<text text-anchor="start" x="190.5596" y="-1063.9" font-family="Arial" font-size="14.00" fill="#666666">[timestamp without time zone]</text>
<polygon fill="none" stroke="#000000" points="84,-1022.5 84,-1052.5 395,-1052.5 395,-1022.5 84,-1022.5"/>
<text text-anchor="start" x="91" y="-1033.9" font-family="Arial" font-size="14.00" fill="#000000">ts_modified    </text>
<text text-anchor="start" x="196.7728" y="-1033.9" font-family="Arial" font-size="14.00" fill="#666666">[timestamp without time zone]</text>
<polygon fill="none" stroke="#000000" points="84,-992.5 84,-1022.5 395,-1022.5 395,-992.5 84,-992.5"/>
<text text-anchor="start" x="91" y="-1003.9" font-family="Arial" font-size="14.00" fill="#000000">tags    </text>
<text text-anchor="start" x="151.6606" y="-1003.9" font-family="Arial" font-size="14.00" fill="#666666">[jsonb]</text>
<polygon fill="none" stroke="#000000" points="84,-962.5 84,-992.5 395,-992.5 395,-962.5 84,-962.5"/>
<text text-anchor="start" x="91" y="-973.9" font-family="Arial" font-size="14.00" fill="#000000">job_title    </text>
<text text-anchor="start" x="173.4362" y="-973.9" font-family="Arial" font-size="14.00" fill="#666666">[varchar(50)]</text>
<polygon fill="none" stroke="#000000" points="84,-932.5 84,-962.5 395,-962.5 395,-932.5 84,-932.5"/>
<text text-anchor="start" x="90.9292" y="-943.9" font-family="Arial" font-size="14.00" fill="#000000">ts_last_login    </text>
<text text-anchor="start" x="202.9306" y="-943.9" font-family="Arial" font-size="14.00" fill="#666666">[timestamp without time zone]</text>
</g>
<!-- sr.user&#45;&gt;sr.organization -->
<g id="edge1" class="edge">
<title>sr.user:organization_uuid&#45;&gt;sr.organization:organization_uuid</title>
<path fill="none" stroke="#000000" d="M405.0675,-1305.9384C480.5116,-1280.6366 385.5008,-955.4944 447,-890 555.5215,-774.4285 989.4639,-757.5 1148,-757.5"/>
<polygon fill="#000000" stroke="#000000" points="404.8818,-1305.9671 394.3102,-1303.0532 399.9409,-1306.7336 395,-1307.5 395,-1307.5 395,-1307.5 399.9409,-1306.7336 395.6898,-1311.9468 404.8818,-1305.9671 404.8818,-1305.9671"/>
<text text-anchor="start" x="7.1415" y="-1317.5" font-family="Arial" font-size="10.00" fill="#000000">FOREIGN KEY (organization_uuid) REFERENCES sr.organization(organization_uuid)</text>
</g>
<!-- sr.user_role_member -->
<g id="node3" class="node">
<title>sr.user_role_member</title>
<polygon fill="#efefef" stroke="transparent" points="499,-1247.5 499,-1282.5 811,-1282.5 811,-1247.5 499,-1247.5"/>
<polygon fill="none" stroke="#000000" points="499,-1247.5 499,-1282.5 811,-1282.5 811,-1247.5 499,-1247.5"/>
<text text-anchor="start" x="505.7133" y="-1260.3" font-family="Arial Bold" font-size="18.00" fill="#000000">sr.user_role_member</text>
<text text-anchor="start" x="676.7187" y="-1260.3" font-family="Arial" font-size="14.00" fill="#000000">    </text>
<text text-anchor="start" x="710.9235" y="-1260.3" font-family="Arial" font-size="14.00" fill="#666666">[BASE TABLE]</text>
<polygon fill="none" stroke="#000000" points="499,-1217.5 499,-1247.5 811,-1247.5 811,-1217.5 499,-1217.5"/>
<text text-anchor="start" x="506" y="-1228.9" font-family="Arial" font-size="14.00" fill="#000000">user_role_member_uuid    </text>
<text text-anchor="start" x="691.8948" y="-1228.9" font-family="Arial" font-size="14.00" fill="#666666">[uuid]</text>
<polygon fill="none" stroke="#000000" points="499,-1187.5 499,-1217.5 811,-1217.5 811,-1187.5 499,-1187.5"/>
<text text-anchor="start" x="506" y="-1198.9" font-family="Arial" font-size="14.00" fill="#000000">user_uuid    </text>
<text text-anchor="start" x="601.6676" y="-1198.9" font-family="Arial" font-size="14.00" fill="#666666">[uuid]</text>
<polygon fill="none" stroke="#000000" points="499,-1157.5 499,-1187.5 811,-1187.5 811,-1157.5 499,-1157.5"/>
<text text-anchor="start" x="506" y="-1168.9" font-family="Arial" font-size="14.00" fill="#000000">organization_uuid    </text>
<text text-anchor="start" x="650.6844" y="-1168.9" font-family="Arial" font-size="14.00" fill="#666666">[uuid]</text>
<polygon fill="none" stroke="#000000" points="499,-1127.5 499,-1157.5 811,-1157.5 811,-1127.5 499,-1127.5"/>
<text text-anchor="start" x="506" y="-1138.9" font-family="Arial" font-size="14.00" fill="#000000">user_role_id    </text>
<text text-anchor="start" x="617.2174" y="-1138.9" font-family="Arial" font-size="14.00" fill="#666666">[integer]</text>
<polygon fill="none" stroke="#000000" points="499,-1097.5 499,-1127.5 811,-1127.5 811,-1097.5 499,-1097.5"/>
<text text-anchor="start" x="506" y="-1108.9" font-family="Arial" font-size="14.00" fill="#000000">ts_created    </text>
<text text-anchor="start" x="605.5596" y="-1108.9" font-family="Arial" font-size="14.00" fill="#666666">[timestamp without time zone]</text>
<polygon fill="none" stroke="#000000" points="499,-1067.5 499,-1097.5 811,-1097.5 811,-1067.5 499,-1067.5"/>
<text text-anchor="start" x="506" y="-1078.9" font-family="Arial" font-size="14.00" fill="#000000">ts_modified    </text>
<text text-anchor="start" x="611.7728" y="-1078.9" font-family="Arial" font-size="14.00" fill="#666666">[timestamp without time zone]</text>
</g>
<!-- sr.user_role_member&#45;&gt;sr.organization -->
<g id="edge2" class="edge">
<title>sr.user_role_member:organization_uuid&#45;&gt;sr.organization:organization_uuid</title>
<path fill="none" stroke="#000000" d="M820.7794,-1170.342C869.354,-1146.7982 826.1361,-937.6144 863,-890 948.5142,-779.5479 1008.3134,-757.5 1148,-757.5"/>
<polygon fill="#000000" stroke="#000000" points="820.7651,-1170.3451 810.0303,-1168.1057 815.8825,-1171.4225 811,-1172.5 811,-1172.5 811,-1172.5 815.8825,-1171.4225 811.9697,-1176.8943 820.7651,-1170.3451 820.7651,-1170.3451"/>
<text text-anchor="start" x="620.6415" y="-1156.5" font-family="Arial" font-size="10.00" fill="#000000">FOREIGN KEY (organization_uuid) REFERENCES sr.organization(organization_uuid)</text>
</g>
<!-- sr.event -->
<g id="node4" class="node">
<title>sr.event</title>
<polygon fill="#efefef" stroke="transparent" points="916,-1337.5 916,-1372.5 1237,-1372.5 1237,-1337.5 916,-1337.5"/>
<polygon fill="none" stroke="#000000" points="916,-1337.5 916,-1372.5 1237,-1372.5 1237,-1337.5 916,-1337.5"/>
<text text-anchor="start" x="980.7084" y="-1350.3" font-family="Arial Bold" font-size="18.00" fill="#000000">sr.event</text>
<text text-anchor="start" x="1044.7236" y="-1350.3" font-family="Arial" font-size="14.00" fill="#000000">    </text>
<text text-anchor="start" x="1078.9284" y="-1350.3" font-family="Arial" font-size="14.00" fill="#666666">[BASE TABLE]</text>
<polygon fill="none" stroke="#000000" points="916,-1307.5 916,-1337.5 1237,-1337.5 1237,-1307.5 916,-1307.5"/>
<text text-anchor="start" x="923" y="-1318.9" font-family="Arial" font-size="14.00" fill="#000000">event_uuid    </text>
<text text-anchor="start" x="1025.6802" y="-1318.9" font-family="Arial" font-size="14.00" fill="#666666">[uuid]</text>
<polygon fill="none" stroke="#000000" points="916,-1277.5 916,-1307.5 1237,-1307.5 1237,-1277.5 916,-1277.5"/>
<text text-anchor="start" x="923" y="-1288.9" font-family="Arial" font-size="14.00" fill="#000000">organization_uuid    </text>
<text text-anchor="start" x="1067.6844" y="-1288.9" font-family="Arial" font-size="14.00" fill="#666666">[uuid]</text>
<polygon fill="none" stroke="#000000" points="916,-1247.5 916,-1277.5 1237,-1277.5 1237,-1247.5 916,-1247.5"/>
<text text-anchor="start" x="923" y="-1258.9" font-family="Arial" font-size="14.00" fill="#000000">event_status_id    </text>
<text text-anchor="start" x="1055.244" y="-1258.9" font-family="Arial" font-size="14.00" fill="#666666">[integer]</text>
<polygon fill="none" stroke="#000000" points="916,-1217.5 916,-1247.5 1237,-1247.5 1237,-1217.5 916,-1217.5"/>
<text text-anchor="start" x="923" y="-1228.9" font-family="Arial" font-size="14.00" fill="#000000">cloud_accounts_enabled    </text>
<text text-anchor="start" x="1112.0476" y="-1228.9" font-family="Arial" font-size="14.00" fill="#666666">[boolean]</text>
<polygon fill="none" stroke="#000000" points="916,-1187.5 916,-1217.5 1237,-1217.5 1237,-1187.5 916,-1187.5"/>
<text text-anchor="start" x="922.8682" y="-1198.9" font-family="Arial" font-size="14.00" fill="#000000">ts_event_start    </text>
<text text-anchor="start" x="1044.9916" y="-1198.9" font-family="Arial" font-size="14.00" fill="#666666">[timestamp without time zone]</text>
<polygon fill="none" stroke="#000000" points="916,-1157.5 916,-1187.5 1237,-1187.5 1237,-1157.5 916,-1157.5"/>
<text text-anchor="start" x="923" y="-1168.9" font-family="Arial" font-size="14.00" fill="#000000">ts_event_end    </text>
<text text-anchor="start" x="1041.2468" y="-1168.9" font-family="Arial" font-size="14.00" fill="#666666">[timestamp without time zone]</text>
<polygon fill="none" stroke="#000000" points="916,-1127.5 916,-1157.5 1237,-1157.5 1237,-1127.5 916,-1127.5"/>
<text text-anchor="start" x="923" y="-1138.9" font-family="Arial" font-size="14.00" fill="#000000">event_details    </text>
<text text-anchor="start" x="1039.6774" y="-1138.9" font-family="Arial" font-size="14.00" fill="#666666">[jsonb]</text>
<polygon fill="none" stroke="#000000" points="916,-1097.5 916,-1127.5 1237,-1127.5 1237,-1097.5 916,-1097.5"/>
<text text-anchor="start" x="923" y="-1108.9" font-family="Arial" font-size="14.00" fill="#000000">ts_created    </text>
<text text-anchor="start" x="1022.5596" y="-1108.9" font-family="Arial" font-size="14.00" fill="#666666">[timestamp without time zone]</text>
<polygon fill="none" stroke="#000000" points="916,-1067.5 916,-1097.5 1237,-1097.5 1237,-1067.5 916,-1067.5"/>
<text text-anchor="start" x="923" y="-1078.9" font-family="Arial" font-size="14.00" fill="#000000">ts_modified    </text>
<text text-anchor="start" x="1028.7728" y="-1078.9" font-family="Arial" font-size="14.00" fill="#666666">[timestamp without time zone]</text>
<polygon fill="none" stroke="#000000" points="916,-1037.5 916,-1067.5 1237,-1067.5 1237,-1037.5 916,-1037.5"/>
<text text-anchor="start" x="923" y="-1048.9" font-family="Arial" font-size="14.00" fill="#000000">event_type_id    </text>
<text text-anchor="start" x="1044.3534" y="-1048.9" font-family="Arial" font-size="14.00" fill="#666666">[integer]</text>
<polygon fill="none" stroke="#000000" points="916,-1007.5 916,-1037.5 1237,-1037.5 1237,-1007.5 916,-1007.5"/>
<text text-anchor="start" x="923" y="-1018.9" font-family="Arial" font-size="14.00" fill="#000000">event_team_form_mode_id    </text>
<text text-anchor="start" x="1127.582" y="-1018.9" font-family="Arial" font-size="14.00" fill="#666666">[integer]</text>
<polygon fill="none" stroke="#000000" points="916,-977.5 916,-1007.5 1237,-1007.5 1237,-977.5 916,-977.5"/>
<text text-anchor="start" x="923" y="-988.9" font-family="Arial" font-size="14.00" fill="#000000">event_judging_minutes    </text>
<text text-anchor="start" x="1101.1402" y="-988.9" font-family="Arial" font-size="14.00" fill="#666666">[integer]</text>
</g>
<!-- sr.event&#45;&gt;sr.organization -->
<g id="edge3" class="edge">
<title>sr.event:organization_uuid&#45;&gt;sr.organization:organization_uuid</title>
<path fill="none" stroke="#000000" d="M1246.9518,-1290.8207C1312.2233,-1267.3373 1267.6764,-1004.3979 1237,-935 1215.3761,-886.0812 1169.6239,-902.9188 1148,-854 1130.6601,-814.7727 1105.1111,-757.5 1148,-757.5"/>
<polygon fill="#000000" stroke="#000000" points="1246.8606,-1290.836 1236.2512,-1288.0627 1241.9303,-1291.668 1237,-1292.5 1237,-1292.5 1237,-1292.5 1241.9303,-1291.668 1237.7488,-1296.9373 1246.8606,-1290.836 1246.8606,-1290.836"/>
<text text-anchor="start" x="1244.1415" y="-1302.5" font-family="Arial" font-size="10.00" fill="#000000">FOREIGN KEY (organization_uuid) REFERENCES sr.organization(organization_uuid)</text>
</g>
<!-- sr.judging_criterion -->
<g id="node5" class="node">
<title>sr.judging_criterion</title>
<polygon fill="#efefef" stroke="transparent" points="1341,-1292.5 1341,-1327.5 1645,-1327.5 1645,-1292.5 1341,-1292.5"/>
<polygon fill="none" stroke="#000000" points="1341,-1292.5 1341,-1327.5 1645,-1327.5 1645,-1292.5 1341,-1292.5"/>
<text text-anchor="start" x="1353.2092" y="-1305.3" font-family="Arial Bold" font-size="18.00" fill="#000000">sr.judging_criterion</text>
<text text-anchor="start" x="1505.2228" y="-1305.3" font-family="Arial" font-size="14.00" fill="#000000">    </text>
<text text-anchor="start" x="1539.4276" y="-1305.3" font-family="Arial" font-size="14.00" fill="#666666">[BASE TABLE]</text>
<polygon fill="none" stroke="#000000" points="1341,-1262.5 1341,-1292.5 1645,-1292.5 1645,-1262.5 1341,-1262.5"/>
<text text-anchor="start" x="1348" y="-1273.9" font-family="Arial" font-size="14.00" fill="#000000">judging_criterion_uuid    </text>
<text text-anchor="start" x="1519.1234" y="-1273.9" font-family="Arial" font-size="14.00" fill="#666666">[uuid]</text>
<polygon fill="none" stroke="#000000" points="1341,-1232.5 1341,-1262.5 1645,-1262.5 1645,-1232.5 1341,-1232.5"/>
<text text-anchor="start" x="1348" y="-1243.9" font-family="Arial" font-size="14.00" fill="#000000">organization_uuid    </text>
<text text-anchor="start" x="1492.6844" y="-1243.9" font-family="Arial" font-size="14.00" fill="#666666">[uuid]</text>
<polygon fill="none" stroke="#000000" points="1341,-1202.5 1341,-1232.5 1645,-1232.5 1645,-1202.5 1341,-1202.5"/>
<text text-anchor="start" x="1348" y="-1213.9" font-family="Arial" font-size="14.00" fill="#000000">event_uuid    </text>
<text text-anchor="start" x="1450.6802" y="-1213.9" font-family="Arial" font-size="14.00" fill="#666666">[uuid]</text>
<polygon fill="none" stroke="#000000" points="1341,-1172.5 1341,-1202.5 1645,-1202.5 1645,-1172.5 1341,-1172.5"/>
<text text-anchor="start" x="1348" y="-1183.9" font-family="Arial" font-size="14.00" fill="#000000">judging_criterion_status_id    </text>
<text text-anchor="start" x="1548.6872" y="-1183.9" font-family="Arial" font-size="14.00" fill="#666666">[integer]</text>
<polygon fill="none" stroke="#000000" points="1341,-1142.5 1341,-1172.5 1645,-1172.5 1645,-1142.5 1341,-1142.5"/>
<text text-anchor="start" x="1348" y="-1153.9" font-family="Arial" font-size="14.00" fill="#000000">judging_criterion_category_id    </text>
<text text-anchor="start" x="1565.0224" y="-1153.9" font-family="Arial" font-size="14.00" fill="#666666">[integer]</text>
<polygon fill="none" stroke="#000000" points="1341,-1112.5 1341,-1142.5 1645,-1142.5 1645,-1112.5 1341,-1112.5"/>
<text text-anchor="start" x="1348" y="-1123.9" font-family="Arial" font-size="14.00" fill="#000000">criterion_weight    </text>
<text text-anchor="start" x="1480.2118" y="-1123.9" font-family="Arial" font-size="14.00" fill="#666666">[integer]</text>
<polygon fill="none" stroke="#000000" points="1341,-1082.5 1341,-1112.5 1645,-1112.5 1645,-1082.5 1341,-1082.5"/>
<text text-anchor="start" x="1348" y="-1093.9" font-family="Arial" font-size="14.00" fill="#000000">criterion_details    </text>
<text text-anchor="start" x="1480.2118" y="-1093.9" font-family="Arial" font-size="14.00" fill="#666666">[jsonb]</text>
<polygon fill="none" stroke="#000000" points="1341,-1052.5 1341,-1082.5 1645,-1082.5 1645,-1052.5 1341,-1052.5"/>
<text text-anchor="start" x="1348" y="-1063.9" font-family="Arial" font-size="14.00" fill="#000000">ts_created    </text>
<text text-anchor="start" x="1447.5596" y="-1063.9" font-family="Arial" font-size="14.00" fill="#666666">[timestamp without time zone]</text>
<polygon fill="none" stroke="#000000" points="1341,-1022.5 1341,-1052.5 1645,-1052.5 1645,-1022.5 1341,-1022.5"/>
<text text-anchor="start" x="1347.5435" y="-1033.9" font-family="Arial" font-size="14.00" fill="#000000">ts_modified    </text>
<text text-anchor="start" x="1453.3163" y="-1033.9" font-family="Arial" font-size="14.00" fill="#666666">[timestamp without time zone]</text>
</g>
<!-- sr.judging_criterion&#45;&gt;sr.organization -->
<g id="edge4" class="edge">
<title>sr.judging_criterion:organization_uuid&#45;&gt;sr.organization:organization_uuid</title>
<path fill="none" stroke="#000000" d="M1331.0198,-1245.1225C1286.7909,-1221.7913 1325.2956,-1033.4707 1341,-980 1359.7603,-916.1247 1403.2397,-917.8753 1422,-854 1434.0861,-812.8493 1464.8889,-757.5 1422,-757.5"/>
<polygon fill="#000000" stroke="#000000" points="1331.2722,-1245.1825 1339.9571,-1251.8775 1336.1361,-1246.3413 1341,-1247.5 1341,-1247.5 1341,-1247.5 1336.1361,-1246.3413 1342.0429,-1243.1225 1331.2722,-1245.1825 1331.2722,-1245.1825"/>
<text text-anchor="start" x="1348.1415" y="-1257.5" font-family="Arial" font-size="10.00" fill="#000000">FOREIGN KEY (organization_uuid) REFERENCES sr.organization(organization_uuid)</text>
</g>
<!-- sr.amazon_marketplace_entitlement -->
<g id="node6" class="node">
<title>sr.amazon_marketplace_entitlement</title>
<polygon fill="#efefef" stroke="transparent" points="1750,-1322.5 1750,-1357.5 2181,-1357.5 2181,-1322.5 1750,-1322.5"/>
<polygon fill="none" stroke="#000000" points="1750,-1322.5 1750,-1357.5 2181,-1357.5 2181,-1322.5 1750,-1322.5"/>
<text text-anchor="start" x="1756.6891" y="-1335.3" font-family="Arial Bold" font-size="18.00" fill="#000000">sr.amazon_marketplace_entitlement</text>
<text text-anchor="start" x="2046.7429" y="-1335.3" font-family="Arial" font-size="14.00" fill="#000000">    </text>
<text text-anchor="start" x="2080.9477" y="-1335.3" font-family="Arial" font-size="14.00" fill="#666666">[BASE TABLE]</text>
<polygon fill="none" stroke="#000000" points="1750,-1292.5 1750,-1322.5 2181,-1322.5 2181,-1292.5 1750,-1292.5"/>
<text text-anchor="start" x="1757" y="-1303.9" font-family="Arial" font-size="14.00" fill="#000000">entitlement_uuid    </text>
<text text-anchor="start" x="1893.9004" y="-1303.9" font-family="Arial" font-size="14.00" fill="#666666">[uuid]</text>
<polygon fill="none" stroke="#000000" points="1750,-1262.5 1750,-1292.5 2181,-1292.5 2181,-1262.5 1750,-1262.5"/>
<text text-anchor="start" x="1757" y="-1273.9" font-family="Arial" font-size="14.00" fill="#000000">organization_uuid    </text>
<text text-anchor="start" x="1901.6844" y="-1273.9" font-family="Arial" font-size="14.00" fill="#666666">[uuid]</text>
<polygon fill="none" stroke="#000000" points="1750,-1232.5 1750,-1262.5 2181,-1262.5 2181,-1232.5 1750,-1232.5"/>
<text text-anchor="start" x="1757" y="-1243.9" font-family="Arial" font-size="14.00" fill="#000000">entitlement_customer_id    </text>
<text text-anchor="start" x="1943.6774" y="-1243.9" font-family="Arial" font-size="14.00" fill="#666666">[varchar(100)]</text>
<polygon fill="none" stroke="#000000" points="1750,-1202.5 1750,-1232.5 2181,-1232.5 2181,-1202.5 1750,-1202.5"/>
<text text-anchor="start" x="1757" y="-1213.9" font-family="Arial" font-size="14.00" fill="#000000">entitlement_customer_aws_account_id    </text>
<text text-anchor="start" x="2033.1528" y="-1213.9" font-family="Arial" font-size="14.00" fill="#666666">[varchar(100)]</text>
<polygon fill="none" stroke="#000000" points="1750,-1172.5 1750,-1202.5 2181,-1202.5 2181,-1172.5 1750,-1172.5"/>
<text text-anchor="start" x="1757" y="-1183.9" font-family="Arial" font-size="14.00" fill="#000000">entitlement_product_code    </text>
<text text-anchor="start" x="1952.258" y="-1183.9" font-family="Arial" font-size="14.00" fill="#666666">[varchar(250)]</text>
<polygon fill="none" stroke="#000000" points="1750,-1142.5 1750,-1172.5 2181,-1172.5 2181,-1142.5 1750,-1142.5"/>
<text text-anchor="start" x="1757" y="-1153.9" font-family="Arial" font-size="14.00" fill="#000000">entitlement_dimension    </text>
<text text-anchor="start" x="1931.2328" y="-1153.9" font-family="Arial" font-size="14.00" fill="#666666">[varchar(250)]</text>
<polygon fill="none" stroke="#000000" points="1750,-1112.5 1750,-1142.5 2181,-1142.5 2181,-1112.5 1750,-1112.5"/>
<text text-anchor="start" x="1757" y="-1123.9" font-family="Arial" font-size="14.00" fill="#000000">entitlement_value    </text>
<text text-anchor="start" x="1900.9004" y="-1123.9" font-family="Arial" font-size="14.00" fill="#666666">[integer]</text>
<polygon fill="none" stroke="#000000" points="1750,-1082.5 1750,-1112.5 2181,-1112.5 2181,-1082.5 1750,-1082.5"/>
<text text-anchor="start" x="1757" y="-1093.9" font-family="Arial" font-size="14.00" fill="#000000">entitlement_value_used    </text>
<text text-anchor="start" x="1939.0308" y="-1093.9" font-family="Arial" font-size="14.00" fill="#666666">[integer]</text>
<polygon fill="none" stroke="#000000" points="1750,-1052.5 1750,-1082.5 2181,-1082.5 2181,-1052.5 1750,-1052.5"/>
<text text-anchor="start" x="1757" y="-1063.9" font-family="Arial" font-size="14.00" fill="#000000">entitlement_expiration_date    </text>
<text text-anchor="start" x="1963.1444" y="-1063.9" font-family="Arial" font-size="14.00" fill="#666666">[timestamp without time zone]</text>
<polygon fill="none" stroke="#000000" points="1750,-1022.5 1750,-1052.5 2181,-1052.5 2181,-1022.5 1750,-1022.5"/>
<text text-anchor="start" x="1757" y="-1033.9" font-family="Arial" font-size="14.00" fill="#000000">ts_created    </text>
<text text-anchor="start" x="1856.5596" y="-1033.9" font-family="Arial" font-size="14.00" fill="#666666">[timestamp without time zone]</text>
<polygon fill="none" stroke="#000000" points="1750,-992.5 1750,-1022.5 2181,-1022.5 2181,-992.5 1750,-992.5"/>
<text text-anchor="start" x="1757" y="-1003.9" font-family="Arial" font-size="14.00" fill="#000000">ts_modified    </text>
<text text-anchor="start" x="1862.7728" y="-1003.9" font-family="Arial" font-size="14.00" fill="#666666">[timestamp without time zone]</text>
</g>
<!-- sr.amazon_marketplace_entitlement&#45;&gt;sr.organization -->
<g id="edge5" class="edge">
<title>sr.amazon_marketplace_entitlement:organization_uuid&#45;&gt;sr.organization:organization_uuid</title>
<path fill="none" stroke="#000000" d="M1739.7244,-1275.7877C1670.1437,-1250.6953 1745.9278,-957.2659 1697,-890 1617.1956,-780.2848 1557.6694,-757.5 1422,-757.5"/>
<polygon fill="#000000" stroke="#000000" points="1740.136,-1275.8562 1749.2603,-1281.9388 1745.068,-1276.6781 1750,-1277.5 1750,-1277.5 1750,-1277.5 1745.068,-1276.6781 1750.7397,-1273.0612 1740.136,-1275.8562 1740.136,-1275.8562"/>
<text text-anchor="start" x="1757.1415" y="-1287.5" font-family="Arial" font-size="10.00" fill="#000000">FOREIGN KEY (organization_uuid) REFERENCES sr.organization(organization_uuid)</text>
</g>
<!-- sr.stripe_payment -->
<g id="node7" class="node">
<title>sr.stripe_payment</title>
<polygon fill="#efefef" stroke="transparent" points="2285,-1262.5 2285,-1297.5 2589,-1297.5 2589,-1262.5 2285,-1262.5"/>
<polygon fill="none" stroke="#000000" points="2285,-1262.5 2285,-1297.5 2589,-1297.5 2589,-1262.5 2285,-1262.5"/>
<text text-anchor="start" x="2301.7056" y="-1275.3" font-family="Arial Bold" font-size="18.00" fill="#000000">sr.stripe_payment</text>
<text text-anchor="start" x="2444.7264" y="-1275.3" font-family="Arial" font-size="14.00" fill="#000000">    </text>
<text text-anchor="start" x="2478.9312" y="-1275.3" font-family="Arial" font-size="14.00" fill="#666666">[BASE TABLE]</text>
<polygon fill="none" stroke="#000000" points="2285,-1232.5 2285,-1262.5 2589,-1262.5 2589,-1232.5 2285,-1232.5"/>
<text text-anchor="start" x="2292" y="-1243.9" font-family="Arial" font-size="14.00" fill="#000000">payment_intent_id    </text>
<text text-anchor="start" x="2440.5764" y="-1243.9" font-family="Arial" font-size="14.00" fill="#666666">[varchar(250)]</text>
<polygon fill="none" stroke="#000000" points="2285,-1202.5 2285,-1232.5 2589,-1232.5 2589,-1202.5 2285,-1202.5"/>
<text text-anchor="start" x="2292" y="-1213.9" font-family="Arial" font-size="14.00" fill="#000000">payment_intent_status    </text>
<text text-anchor="start" x="2467.0336" y="-1213.9" font-family="Arial" font-size="14.00" fill="#666666">[varchar(100)]</text>
<polygon fill="none" stroke="#000000" points="2285,-1172.5 2285,-1202.5 2589,-1202.5 2589,-1172.5 2285,-1172.5"/>
<text text-anchor="start" x="2292" y="-1183.9" font-family="Arial" font-size="14.00" fill="#000000">payment_intent_amount    </text>
<text text-anchor="start" x="2476.3688" y="-1183.9" font-family="Arial" font-size="14.00" fill="#666666">[numeric(7,2)]</text>
<polygon fill="none" stroke="#000000" points="2285,-1142.5 2285,-1172.5 2589,-1172.5 2589,-1142.5 2285,-1142.5"/>
<text text-anchor="start" x="2292" y="-1153.9" font-family="Arial" font-size="14.00" fill="#000000">payment_intent_currency    </text>
<text text-anchor="start" x="2483.3562" y="-1153.9" font-family="Arial" font-size="14.00" fill="#666666">[varchar(10)]</text>
<polygon fill="none" stroke="#000000" points="2285,-1112.5 2285,-1142.5 2589,-1142.5 2589,-1112.5 2285,-1112.5"/>
<text text-anchor="start" x="2292" y="-1123.9" font-family="Arial" font-size="14.00" fill="#000000">organization_uuid    </text>
<text text-anchor="start" x="2436.6844" y="-1123.9" font-family="Arial" font-size="14.00" fill="#666666">[uuid]</text>
<polygon fill="none" stroke="#000000" points="2285,-1082.5 2285,-1112.5 2589,-1112.5 2589,-1082.5 2285,-1082.5"/>
<text text-anchor="start" x="2292" y="-1093.9" font-family="Arial" font-size="14.00" fill="#000000">ts_created    </text>
<text text-anchor="start" x="2391.5596" y="-1093.9" font-family="Arial" font-size="14.00" fill="#666666">[timestamp without time zone]</text>
<polygon fill="none" stroke="#000000" points="2285,-1052.5 2285,-1082.5 2589,-1082.5 2589,-1052.5 2285,-1052.5"/>
<text text-anchor="start" x="2291.5435" y="-1063.9" font-family="Arial" font-size="14.00" fill="#000000">ts_modified    </text>
<text text-anchor="start" x="2397.3163" y="-1063.9" font-family="Arial" font-size="14.00" fill="#666666">[timestamp without time zone]</text>
</g>
<!-- sr.stripe_payment&#45;&gt;sr.organization -->
<g id="edge6" class="edge">
<title>sr.stripe_payment:organization_uuid&#45;&gt;sr.organization:organization_uuid</title>
<path fill="none" stroke="#000000" d="M2274.7519,-1126.9382C2185.8884,-1116.4497 2308.7465,-961.7916 2233,-890 2100.4604,-764.3805 1604.6117,-757.5 1422,-757.5"/>
<polygon fill="#000000" stroke="#000000" points="2275.015,-1126.9525 2284.7536,-1131.9933 2280.0075,-1127.2263 2285,-1127.5 2285,-1127.5 2285,-1127.5 2280.0075,-1127.2263 2285.2464,-1123.0067 2275.015,-1126.9525 2275.015,-1126.9525"/>
<text text-anchor="start" x="2292.1415" y="-1137.5" font-family="Arial" font-size="10.00" fill="#000000">FOREIGN KEY (organization_uuid) REFERENCES sr.organization(organization_uuid)</text>
</g>
</g>
</svg>
