<?xml version="1.0" encoding="UTF-8" standalone="no"?>
<!DOCTYPE svg PUBLIC "-//W3C//DTD SVG 1.1//EN"
 "http://www.w3.org/Graphics/SVG/1.1/DTD/svg11.dtd">
<!-- Generated by graphviz version 2.40.1 (20161225.0304)
 -->
<!-- Title: sr.organization_status Pages: 1 -->
<svg width="834pt" height="862pt"
 viewBox="0.00 0.00 833.50 862.00" xmlns="http://www.w3.org/2000/svg" xmlns:xlink="http://www.w3.org/1999/xlink">
<g id="graph0" class="graph" transform="scale(1 1) rotate(0) translate(4 858)">
<title>sr.organization_status</title>
<polygon fill="#ffffff" stroke="transparent" points="-4,4 -4,-858 829.5,-858 829.5,4 -4,4"/>
<!-- sr.organization_status -->
<g id="node1" class="node">
<title>sr.organization_status</title>
<polygon fill="#efefef" stroke="transparent" points="463,-195.5 463,-230.5 780,-230.5 780,-195.5 463,-195.5"/>
<polygon fill="none" stroke="#000000" points="463,-195.5 463,-230.5 780,-230.5 780,-195.5 463,-195.5"/>
<text text-anchor="start" x="469.6942" y="-208.3" font-family="Arial Bold" font-size="18.00" fill="#000000">sr.organization_status</text>
<text text-anchor="start" x="645.7378" y="-208.3" font-family="Arial" font-size="14.00" fill="#000000">    </text>
<text text-anchor="start" x="679.9426" y="-208.3" font-family="Arial" font-size="14.00" fill="#666666">[BASE TABLE]</text>
<polygon fill="none" stroke="#000000" points="463,-165.5 463,-195.5 780,-195.5 780,-165.5 463,-165.5"/>
<text text-anchor="start" x="470" y="-176.9" font-family="Arial" font-size="14.00" fill="#000000">organization_status_id </text>
<text text-anchor="start" x="613.934" y="-176.9" font-family="Arial" font-size="14.00" fill="#666666">[integer]</text>
<polygon fill="none" stroke="#000000" points="463,-135.5 463,-165.5 780,-165.5 780,-135.5 463,-135.5"/>
<text text-anchor="start" x="470" y="-146.9" font-family="Arial" font-size="14.00" fill="#000000">organization_status_name </text>
<text text-anchor="start" x="638.0532" y="-146.9" font-family="Arial" font-size="14.00" fill="#666666">[varchar(50)]</text>
<polygon fill="none" stroke="#000000" points="463,-105.5 463,-135.5 780,-135.5 780,-105.5 463,-105.5"/>
<text text-anchor="start" x="470" y="-116.9" font-family="Arial" font-size="14.00" fill="#000000">organization_status_description </text>
<text text-anchor="start" x="670.7222" y="-116.9" font-family="Arial" font-size="14.00" fill="#666666">[varchar(512)]</text>
<polygon fill="none" stroke="#000000" points="463,-75.5 463,-105.5 780,-105.5 780,-75.5 463,-75.5"/>
<text text-anchor="start" x="470" y="-86.9" font-family="Arial" font-size="14.00" fill="#000000">ts_created </text>
<text text-anchor="start" x="539.2454" y="-86.9" font-family="Arial" font-size="14.00" fill="#666666">[timestamp without time zone]</text>
<polygon fill="none" stroke="#000000" points="463,-45.5 463,-75.5 780,-75.5 780,-45.5 463,-45.5"/>
<text text-anchor="start" x="470" y="-56.9" font-family="Arial" font-size="14.00" fill="#000000">ts_modified </text>
<text text-anchor="start" x="545.4586" y="-56.9" font-family="Arial" font-size="14.00" fill="#666666">[timestamp without time zone]</text>
<polygon fill="none" stroke="#000000" stroke-width="3" points="461,-44.5 461,-232.5 781,-232.5 781,-44.5 461,-44.5"/>
</g>
<!-- sr.organization -->
<g id="node2" class="node">
<title>sr.organization</title>
<polygon fill="#efefef" stroke="transparent" points="470,-775.5 470,-810.5 774,-810.5 774,-775.5 470,-775.5"/>
<polygon fill="none" stroke="#000000" points="470,-775.5 470,-810.5 774,-810.5 774,-775.5 470,-775.5"/>
<text text-anchor="start" x="499.2057" y="-788.3" font-family="Arial Bold" font-size="18.00" fill="#000000">sr.organization</text>
<text text-anchor="start" x="617.2263" y="-788.3" font-family="Arial" font-size="14.00" fill="#000000">    </text>
<text text-anchor="start" x="651.4311" y="-788.3" font-family="Arial" font-size="14.00" fill="#666666">[BASE TABLE]</text>
<polygon fill="none" stroke="#000000" points="470,-745.5 470,-775.5 774,-775.5 774,-745.5 470,-745.5"/>
<text text-anchor="start" x="477" y="-756.9" font-family="Arial" font-size="14.00" fill="#000000">organization_uuid    </text>
<text text-anchor="start" x="621.6844" y="-756.9" font-family="Arial" font-size="14.00" fill="#666666">[uuid]</text>
<polygon fill="none" stroke="#000000" points="470,-715.5 470,-745.5 774,-745.5 774,-715.5 470,-715.5"/>
<text text-anchor="start" x="477" y="-726.9" font-family="Arial" font-size="14.00" fill="#000000">organization_name    </text>
<text text-anchor="start" x="630.2384" y="-726.9" font-family="Arial" font-size="14.00" fill="#666666">[varchar(255)]</text>
<polygon fill="none" stroke="#000000" points="470,-685.5 470,-715.5 774,-715.5 774,-685.5 470,-685.5"/>
<text text-anchor="start" x="477" y="-696.9" font-family="Arial" font-size="14.00" fill="#000000">organization_status_id    </text>
<text text-anchor="start" x="651.2482" y="-696.9" font-family="Arial" font-size="14.00" fill="#666666">[integer]</text>
<polygon fill="none" stroke="#000000" points="470,-655.5 470,-685.5 774,-685.5 774,-655.5 470,-655.5"/>
<text text-anchor="start" x="477" y="-666.9" font-family="Arial" font-size="14.00" fill="#000000">organization_domain    </text>
<text text-anchor="start" x="641.1276" y="-666.9" font-family="Arial" font-size="14.00" fill="#666666">[varchar(255)]</text>
<polygon fill="none" stroke="#000000" points="470,-625.5 470,-655.5 774,-655.5 774,-625.5 470,-625.5"/>
<text text-anchor="start" x="477" y="-636.9" font-family="Arial" font-size="14.00" fill="#000000">organization_logo_image    </text>
<text text-anchor="start" x="667.582" y="-636.9" font-family="Arial" font-size="14.00" fill="#666666">[bytea]</text>
<polygon fill="none" stroke="#000000" points="470,-595.5 470,-625.5 774,-625.5 774,-595.5 470,-595.5"/>
<text text-anchor="start" x="477" y="-606.9" font-family="Arial" font-size="14.00" fill="#000000">primary_contact_email    </text>
<text text-anchor="start" x="651.9916" y="-606.9" font-family="Arial" font-size="14.00" fill="#666666">[varchar(100)]</text>
<polygon fill="none" stroke="#000000" points="470,-565.5 470,-595.5 774,-595.5 774,-565.5 470,-565.5"/>
<text text-anchor="start" x="477" y="-576.9" font-family="Arial" font-size="14.00" fill="#000000">street_address_1    </text>
<text text-anchor="start" x="619.3506" y="-576.9" font-family="Arial" font-size="14.00" fill="#666666">[varchar(100)]</text>
<polygon fill="none" stroke="#000000" points="470,-535.5 470,-565.5 774,-565.5 774,-535.5 470,-535.5"/>
<text text-anchor="start" x="477" y="-546.9" font-family="Arial" font-size="14.00" fill="#000000">street_address_2    </text>
<text text-anchor="start" x="619.3506" y="-546.9" font-family="Arial" font-size="14.00" fill="#666666">[varchar(100)]</text>
<polygon fill="none" stroke="#000000" points="470,-505.5 470,-535.5 774,-535.5 774,-505.5 470,-505.5"/>
<text text-anchor="start" x="477" y="-516.9" font-family="Arial" font-size="14.00" fill="#000000">city    </text>
<text text-anchor="start" x="532.202" y="-516.9" font-family="Arial" font-size="14.00" fill="#666666">[varchar(100)]</text>
<polygon fill="none" stroke="#000000" points="470,-475.5 470,-505.5 774,-505.5 774,-475.5 470,-475.5"/>
<text text-anchor="start" x="477" y="-486.9" font-family="Arial" font-size="14.00" fill="#000000">state_region    </text>
<text text-anchor="start" x="588.2314" y="-486.9" font-family="Arial" font-size="14.00" fill="#666666">[varchar(100)]</text>
<polygon fill="none" stroke="#000000" points="470,-445.5 470,-475.5 774,-475.5 774,-445.5 470,-445.5"/>
<text text-anchor="start" x="477" y="-456.9" font-family="Arial" font-size="14.00" fill="#000000">postal_code    </text>
<text text-anchor="start" x="586.6802" y="-456.9" font-family="Arial" font-size="14.00" fill="#666666">[varchar(25)]</text>
<polygon fill="none" stroke="#000000" points="470,-415.5 470,-445.5 774,-445.5 774,-415.5 470,-415.5"/>
<text text-anchor="start" x="477" y="-426.9" font-family="Arial" font-size="14.00" fill="#000000">phone    </text>
<text text-anchor="start" x="550.1178" y="-426.9" font-family="Arial" font-size="14.00" fill="#666666">[varchar(20)]</text>
<polygon fill="none" stroke="#000000" points="470,-385.5 470,-415.5 774,-415.5 774,-385.5 470,-385.5"/>
<text text-anchor="start" x="477" y="-396.9" font-family="Arial" font-size="14.00" fill="#000000">ts_created    </text>
<text text-anchor="start" x="576.5596" y="-396.9" font-family="Arial" font-size="14.00" fill="#666666">[timestamp without time zone]</text>
<polygon fill="none" stroke="#000000" points="470,-355.5 470,-385.5 774,-385.5 774,-355.5 470,-355.5"/>
<text text-anchor="start" x="476.5435" y="-366.9" font-family="Arial" font-size="14.00" fill="#000000">ts_modified    </text>
<text text-anchor="start" x="582.3163" y="-366.9" font-family="Arial" font-size="14.00" fill="#666666">[timestamp without time zone]</text>
</g>
<!-- sr.organization&#45;&gt;sr.organization_status -->
<g id="edge1" class="edge">
<title>sr.organization:organization_status_id&#45;&gt;sr.organization_status:organization_status_id</title>
<path fill="none" stroke="#000000" d="M459.9785,-698.9091C386.3026,-674.4235 415.0787,-374.6683 470,-313 562.2482,-209.4192 687.7518,-380.5808 780,-277 808.5243,-244.9715 822.8889,-180.5 780,-180.5"/>
<polygon fill="#000000" stroke="#000000" points="460.1237,-698.932 469.2944,-704.9443 465.0618,-699.716 470,-700.5 470,-700.5 470,-700.5 465.0618,-699.716 470.7056,-696.0557 460.1237,-698.932 460.1237,-698.932"/>
<text text-anchor="start" x="6.907" y="-710.5" font-family="Arial" font-size="10.00" fill="#000000">FOREIGN KEY (organization_status_id) REFERENCES sr.organization_status(organization_status_id)</text>
</g>
</g>
</svg>
