<?xml version="1.0" encoding="UTF-8" standalone="no"?>
<!DOCTYPE svg PUBLIC "-//W3C//DTD SVG 1.1//EN"
 "http://www.w3.org/Graphics/SVG/1.1/DTD/svg11.dtd">
<!-- Generated by graphviz version 2.40.1 (20161225.0304)
 -->
<!-- Title: sr.organization_invitation_status Pages: 1 -->
<svg width="1028pt" height="802pt"
 viewBox="0.00 0.00 1028.00 802.00" xmlns="http://www.w3.org/2000/svg" xmlns:xlink="http://www.w3.org/1999/xlink">
<g id="graph0" class="graph" transform="scale(1 1) rotate(0) translate(4 798)">
<title>sr.organization_invitation_status</title>
<polygon fill="#ffffff" stroke="transparent" points="-4,4 -4,-798 1024,-798 1024,4 -4,4"/>
<!-- sr.organization_invitation_status -->
<g id="node1" class="node">
<title>sr.organization_invitation_status</title>
<polygon fill="#efefef" stroke="transparent" points="46,-195.5 46,-230.5 444,-230.5 444,-195.5 46,-195.5"/>
<polygon fill="none" stroke="#000000" points="46,-195.5 46,-230.5 444,-230.5 444,-195.5 46,-195.5"/>
<text text-anchor="start" x="52.6852" y="-208.3" font-family="Arial Bold" font-size="18.00" fill="#000000">sr.organization_invitation_status</text>
<text text-anchor="start" x="309.7468" y="-208.3" font-family="Arial" font-size="14.00" fill="#000000">    </text>
<text text-anchor="start" x="343.9516" y="-208.3" font-family="Arial" font-size="14.00" fill="#666666">[BASE TABLE]</text>
<polygon fill="none" stroke="#000000" points="46,-165.5 46,-195.5 444,-195.5 444,-165.5 46,-165.5"/>
<text text-anchor="start" x="53" y="-176.9" font-family="Arial" font-size="14.00" fill="#000000">organization_invitation_status_id </text>
<text text-anchor="start" x="259.948" y="-176.9" font-family="Arial" font-size="14.00" fill="#666666">[integer]</text>
<polygon fill="none" stroke="#000000" points="46,-135.5 46,-165.5 444,-165.5 444,-135.5 46,-135.5"/>
<text text-anchor="start" x="53" y="-146.9" font-family="Arial" font-size="14.00" fill="#000000">organization_invitation_status_name </text>
<text text-anchor="start" x="284.0672" y="-146.9" font-family="Arial" font-size="14.00" fill="#666666">[varchar(50)]</text>
<polygon fill="none" stroke="#000000" points="46,-105.5 46,-135.5 444,-135.5 444,-105.5 46,-105.5"/>
<text text-anchor="start" x="53" y="-116.9" font-family="Arial" font-size="14.00" fill="#000000">organization_invitation_status_description </text>
<text text-anchor="start" x="316.7362" y="-116.9" font-family="Arial" font-size="14.00" fill="#666666">[varchar(512)]</text>
<polygon fill="none" stroke="#000000" points="46,-75.5 46,-105.5 444,-105.5 444,-75.5 46,-75.5"/>
<text text-anchor="start" x="53" y="-86.9" font-family="Arial" font-size="14.00" fill="#000000">ts_created </text>
<text text-anchor="start" x="122.2454" y="-86.9" font-family="Arial" font-size="14.00" fill="#666666">[timestamp without time zone]</text>
<polygon fill="none" stroke="#000000" points="46,-45.5 46,-75.5 444,-75.5 444,-45.5 46,-45.5"/>
<text text-anchor="start" x="53" y="-56.9" font-family="Arial" font-size="14.00" fill="#000000">ts_modified </text>
<text text-anchor="start" x="128.4586" y="-56.9" font-family="Arial" font-size="14.00" fill="#666666">[timestamp without time zone]</text>
<polygon fill="none" stroke="#000000" stroke-width="3" points="44.5,-44.5 44.5,-232.5 445.5,-232.5 445.5,-44.5 44.5,-44.5"/>
</g>
<!-- sr.organization_invitation -->
<g id="node2" class="node">
<title>sr.organization_invitation</title>
<polygon fill="#efefef" stroke="transparent" points="75,-715.5 75,-750.5 415,-750.5 415,-715.5 75,-715.5"/>
<polygon fill="none" stroke="#000000" points="75,-715.5 75,-750.5 415,-750.5 415,-715.5 75,-715.5"/>
<text text-anchor="start" x="81.6967" y="-728.3" font-family="Arial Bold" font-size="18.00" fill="#000000">sr.organization_invitation</text>
<text text-anchor="start" x="280.7353" y="-728.3" font-family="Arial" font-size="14.00" fill="#000000">    </text>
<text text-anchor="start" x="314.9401" y="-728.3" font-family="Arial" font-size="14.00" fill="#666666">[BASE TABLE]</text>
<polygon fill="none" stroke="#000000" points="75,-685.5 75,-715.5 415,-715.5 415,-685.5 75,-685.5"/>
<text text-anchor="start" x="82" y="-696.9" font-family="Arial" font-size="14.00" fill="#000000">organization_invitation_uuid    </text>
<text text-anchor="start" x="289.6984" y="-696.9" font-family="Arial" font-size="14.00" fill="#666666">[uuid]</text>
<polygon fill="none" stroke="#000000" points="75,-655.5 75,-685.5 415,-685.5 415,-655.5 75,-655.5"/>
<text text-anchor="start" x="82" y="-666.9" font-family="Arial" font-size="14.00" fill="#000000">organization_uuid    </text>
<text text-anchor="start" x="226.6844" y="-666.9" font-family="Arial" font-size="14.00" fill="#666666">[uuid]</text>
<polygon fill="none" stroke="#000000" points="75,-625.5 75,-655.5 415,-655.5 415,-625.5 75,-625.5"/>
<text text-anchor="start" x="82" y="-636.9" font-family="Arial" font-size="14.00" fill="#000000">invitation_email    </text>
<text text-anchor="start" x="212.6578" y="-636.9" font-family="Arial" font-size="14.00" fill="#666666">[varchar(100)]</text>
<polygon fill="none" stroke="#000000" points="75,-595.5 75,-625.5 415,-625.5 415,-595.5 75,-595.5"/>
<text text-anchor="start" x="82" y="-606.9" font-family="Arial" font-size="14.00" fill="#000000">invitation_code    </text>
<text text-anchor="start" x="209.5666" y="-606.9" font-family="Arial" font-size="14.00" fill="#666666">[varchar(25)]</text>
<polygon fill="none" stroke="#000000" points="75,-565.5 75,-595.5 415,-595.5 415,-565.5 75,-565.5"/>
<text text-anchor="start" x="82" y="-576.9" font-family="Arial" font-size="14.00" fill="#000000">creator_user_uuid    </text>
<text text-anchor="start" x="229.0098" y="-576.9" font-family="Arial" font-size="14.00" fill="#666666">[uuid]</text>
<polygon fill="none" stroke="#000000" points="75,-535.5 75,-565.5 415,-565.5 415,-535.5 75,-535.5"/>
<text text-anchor="start" x="82" y="-546.9" font-family="Arial" font-size="14.00" fill="#000000">claiming_user_uuid    </text>
<text text-anchor="start" x="236.7784" y="-546.9" font-family="Arial" font-size="14.00" fill="#666666">[uuid]</text>
<polygon fill="none" stroke="#000000" points="75,-505.5 75,-535.5 415,-535.5 415,-505.5 75,-505.5"/>
<text text-anchor="start" x="82" y="-516.9" font-family="Arial" font-size="14.00" fill="#000000">organization_invitation_status_id    </text>
<text text-anchor="start" x="319.2622" y="-516.9" font-family="Arial" font-size="14.00" fill="#666666">[integer]</text>
<polygon fill="none" stroke="#000000" points="75,-475.5 75,-505.5 415,-505.5 415,-475.5 75,-475.5"/>
<text text-anchor="start" x="82" y="-486.9" font-family="Arial" font-size="14.00" fill="#000000">send_count    </text>
<text text-anchor="start" x="188.5736" y="-486.9" font-family="Arial" font-size="14.00" fill="#666666">[integer]</text>
<polygon fill="none" stroke="#000000" points="75,-445.5 75,-475.5 415,-475.5 415,-445.5 75,-445.5"/>
<text text-anchor="start" x="82" y="-456.9" font-family="Arial" font-size="14.00" fill="#000000">ts_claimed    </text>
<text text-anchor="start" x="183.0996" y="-456.9" font-family="Arial" font-size="14.00" fill="#666666">[timestamp without time zone]</text>
<polygon fill="none" stroke="#000000" points="75,-415.5 75,-445.5 415,-445.5 415,-415.5 75,-415.5"/>
<text text-anchor="start" x="82" y="-426.9" font-family="Arial" font-size="14.00" fill="#000000">ts_expires    </text>
<text text-anchor="start" x="179.993" y="-426.9" font-family="Arial" font-size="14.00" fill="#666666">[timestamp without time zone]</text>
<polygon fill="none" stroke="#000000" points="75,-385.5 75,-415.5 415,-415.5 415,-385.5 75,-385.5"/>
<text text-anchor="start" x="82" y="-396.9" font-family="Arial" font-size="14.00" fill="#000000">ts_created    </text>
<text text-anchor="start" x="181.5596" y="-396.9" font-family="Arial" font-size="14.00" fill="#666666">[timestamp without time zone]</text>
<polygon fill="none" stroke="#000000" points="75,-355.5 75,-385.5 415,-385.5 415,-355.5 75,-355.5"/>
<text text-anchor="start" x="82" y="-366.9" font-family="Arial" font-size="14.00" fill="#000000">ts_modified    </text>
<text text-anchor="start" x="187.7728" y="-366.9" font-family="Arial" font-size="14.00" fill="#666666">[timestamp without time zone]</text>
</g>
<!-- sr.organization_invitation&#45;&gt;sr.organization_invitation_status -->
<g id="edge1" class="edge">
<title>sr.organization_invitation:organization_invitation_status_id&#45;&gt;sr.organization_invitation_status:organization_invitation_status_id</title>
<path fill="none" stroke="#000000" d="M424.9305,-518.5033C493.2238,-490.6392 516.4235,-180.5 444,-180.5"/>
<polygon fill="#000000" stroke="#000000" points="424.8038,-518.5287 414.1129,-516.0883 419.9019,-519.5144 415,-520.5 415,-520.5 415,-520.5 419.9019,-519.5144 415.8871,-524.9117 424.8038,-518.5287 424.8038,-518.5287"/>
<text text-anchor="start" x="422.392" y="-530.5" font-family="Arial" font-size="10.00" fill="#000000">FOREIGN KEY (organization_invitation_status_id) REFERENCES sr.organization_invitation_status(organization_invitation_status_id)</text>
</g>
</g>
</svg>
