<?xml version="1.0" encoding="UTF-8" standalone="no"?>
<!DOCTYPE svg PUBLIC "-//W3C//DTD SVG 1.1//EN"
 "http://www.w3.org/Graphics/SVG/1.1/DTD/svg11.dtd">
<!-- Generated by graphviz version 2.40.1 (20161225.0304)
 -->
<!-- Title: sr.participant_role Pages: 1 -->
<svg width="826pt" height="622pt"
 viewBox="0.00 0.00 826.00 622.00" xmlns="http://www.w3.org/2000/svg" xmlns:xlink="http://www.w3.org/1999/xlink">
<g id="graph0" class="graph" transform="scale(1 1) rotate(0) translate(4 618)">
<title>sr.participant_role</title>
<polygon fill="#ffffff" stroke="transparent" points="-4,4 -4,-618 822,-618 822,4 -4,4"/>
<!-- sr.participant_role -->
<g id="node1" class="node">
<title>sr.participant_role</title>
<polygon fill="#efefef" stroke="transparent" points="81,-225.5 81,-260.5 365,-260.5 365,-225.5 81,-225.5"/>
<polygon fill="none" stroke="#000000" points="81,-225.5 81,-260.5 365,-260.5 365,-225.5 81,-225.5"/>
<text text-anchor="start" x="87.7083" y="-238.3" font-family="Arial Bold" font-size="18.00" fill="#000000">sr.participant_role</text>
<text text-anchor="start" x="230.7237" y="-238.3" font-family="Arial" font-size="14.00" fill="#000000">    </text>
<text text-anchor="start" x="264.9285" y="-238.3" font-family="Arial" font-size="14.00" fill="#666666">[BASE TABLE]</text>
<polygon fill="none" stroke="#000000" points="81,-195.5 81,-225.5 365,-225.5 365,-195.5 81,-195.5"/>
<text text-anchor="start" x="88" y="-206.9" font-family="Arial" font-size="14.00" fill="#000000">participant_role_id </text>
<text text-anchor="start" x="206.2454" y="-206.9" font-family="Arial" font-size="14.00" fill="#666666">[integer]</text>
<polygon fill="none" stroke="#000000" points="81,-165.5 81,-195.5 365,-195.5 365,-165.5 81,-165.5"/>
<text text-anchor="start" x="88" y="-176.9" font-family="Arial" font-size="14.00" fill="#000000">participant_role_name </text>
<text text-anchor="start" x="230.3646" y="-176.9" font-family="Arial" font-size="14.00" fill="#666666">[varchar(50)]</text>
<polygon fill="none" stroke="#000000" points="81,-135.5 81,-165.5 365,-165.5 365,-135.5 81,-135.5"/>
<text text-anchor="start" x="88" y="-146.9" font-family="Arial" font-size="14.00" fill="#000000">participant_role_description </text>
<text text-anchor="start" x="263.0336" y="-146.9" font-family="Arial" font-size="14.00" fill="#666666">[varchar(512)]</text>
<polygon fill="none" stroke="#000000" points="81,-105.5 81,-135.5 365,-135.5 365,-105.5 81,-105.5"/>
<text text-anchor="start" x="88" y="-116.9" font-family="Arial" font-size="14.00" fill="#000000">participant_role_grants </text>
<text text-anchor="start" x="234.2552" y="-116.9" font-family="Arial" font-size="14.00" fill="#666666">[jsonb]</text>
<polygon fill="none" stroke="#000000" points="81,-75.5 81,-105.5 365,-105.5 365,-75.5 81,-75.5"/>
<text text-anchor="start" x="88" y="-86.9" font-family="Arial" font-size="14.00" fill="#000000">ts_created </text>
<text text-anchor="start" x="157.2454" y="-86.9" font-family="Arial" font-size="14.00" fill="#666666">[timestamp without time zone]</text>
<polygon fill="none" stroke="#000000" points="81,-45.5 81,-75.5 365,-75.5 365,-45.5 81,-45.5"/>
<text text-anchor="start" x="88" y="-56.9" font-family="Arial" font-size="14.00" fill="#000000">ts_modified </text>
<text text-anchor="start" x="163.4586" y="-56.9" font-family="Arial" font-size="14.00" fill="#666666">[timestamp without time zone]</text>
<polygon fill="none" stroke="#000000" stroke-width="3" points="79.5,-44.5 79.5,-262.5 366.5,-262.5 366.5,-44.5 79.5,-44.5"/>
</g>
<!-- sr.participant_role_member -->
<g id="node2" class="node">
<title>sr.participant_role_member</title>
<polygon fill="#efefef" stroke="transparent" points="43,-535.5 43,-570.5 403,-570.5 403,-535.5 43,-535.5"/>
<polygon fill="none" stroke="#000000" points="43,-535.5 43,-570.5 403,-570.5 403,-535.5 43,-535.5"/>
<text text-anchor="start" x="49.7076" y="-548.3" font-family="Arial Bold" font-size="18.00" fill="#000000">sr.participant_role_member</text>
<text text-anchor="start" x="268.7244" y="-548.3" font-family="Arial" font-size="14.00" fill="#000000">    </text>
<text text-anchor="start" x="302.9292" y="-548.3" font-family="Arial" font-size="14.00" fill="#666666">[BASE TABLE]</text>
<polygon fill="none" stroke="#000000" points="43,-505.5 43,-535.5 403,-535.5 403,-505.5 43,-505.5"/>
<text text-anchor="start" x="50" y="-516.9" font-family="Arial" font-size="14.00" fill="#000000">participant_role_member_uuid    </text>
<text text-anchor="start" x="273.237" y="-516.9" font-family="Arial" font-size="14.00" fill="#666666">[uuid]</text>
<polygon fill="none" stroke="#000000" points="43,-475.5 43,-505.5 403,-505.5 403,-475.5 43,-475.5"/>
<text text-anchor="start" x="50" y="-486.9" font-family="Arial" font-size="14.00" fill="#000000">participant_uuid    </text>
<text text-anchor="start" x="183.0098" y="-486.9" font-family="Arial" font-size="14.00" fill="#666666">[uuid]</text>
<polygon fill="none" stroke="#000000" points="43,-445.5 43,-475.5 403,-475.5 403,-445.5 43,-445.5"/>
<text text-anchor="start" x="50" y="-456.9" font-family="Arial" font-size="14.00" fill="#000000">participant_role_id    </text>
<text text-anchor="start" x="198.5596" y="-456.9" font-family="Arial" font-size="14.00" fill="#666666">[integer]</text>
<polygon fill="none" stroke="#000000" points="43,-415.5 43,-445.5 403,-445.5 403,-415.5 43,-415.5"/>
<text text-anchor="start" x="50" y="-426.9" font-family="Arial" font-size="14.00" fill="#000000">ts_created    </text>
<text text-anchor="start" x="149.5596" y="-426.9" font-family="Arial" font-size="14.00" fill="#666666">[timestamp without time zone]</text>
<polygon fill="none" stroke="#000000" points="43,-385.5 43,-415.5 403,-415.5 403,-385.5 43,-385.5"/>
<text text-anchor="start" x="50" y="-396.9" font-family="Arial" font-size="14.00" fill="#000000">ts_modified    </text>
<text text-anchor="start" x="155.7728" y="-396.9" font-family="Arial" font-size="14.00" fill="#666666">[timestamp without time zone]</text>
</g>
<!-- sr.participant_role_member&#45;&gt;sr.participant_role -->
<g id="edge1" class="edge">
<title>sr.participant_role_member:participant_role_id&#45;&gt;sr.participant_role:participant_role_id</title>
<path fill="none" stroke="#000000" d="M413.098,-459.7828C512.9397,-445.1191 473.8752,-210.5 365,-210.5"/>
<polygon fill="#000000" stroke="#000000" points="412.9749,-459.7915 402.6812,-456.0113 407.9874,-460.1457 403,-460.5 403,-460.5 403,-460.5 407.9874,-460.1457 403.3188,-464.9887 412.9749,-459.7915 412.9749,-459.7915"/>
<text text-anchor="start" x="410.4305" y="-470.5" font-family="Arial" font-size="10.00" fill="#000000">FOREIGN KEY (participant_role_id) REFERENCES sr.participant_role(participant_role_id)</text>
</g>
</g>
</svg>
