<?xml version="1.0" encoding="UTF-8" standalone="no"?>
<!DOCTYPE svg PUBLIC "-//W3C//DTD SVG 1.1//EN"
 "http://www.w3.org/Graphics/SVG/1.1/DTD/svg11.dtd">
<!-- Generated by graphviz version 2.40.1 (20161225.0304)
 -->
<!-- Title: sr.participant_role_member Pages: 1 -->
<svg width="1153pt" height="652pt"
 viewBox="0.00 0.00 1153.00 652.00" xmlns="http://www.w3.org/2000/svg" xmlns:xlink="http://www.w3.org/1999/xlink">
<g id="graph0" class="graph" transform="scale(1 1) rotate(0) translate(4 648)">
<title>sr.participant_role_member</title>
<polygon fill="#ffffff" stroke="transparent" points="-4,4 -4,-648 1149,-648 1149,4 -4,4"/>
<!-- sr.participant_role_member -->
<g id="node1" class="node">
<title>sr.participant_role_member</title>
<polygon fill="#efefef" stroke="transparent" points="370,-562.5 370,-597.5 730,-597.5 730,-562.5 370,-562.5"/>
<polygon fill="none" stroke="#000000" points="370,-562.5 370,-597.5 730,-597.5 730,-562.5 370,-562.5"/>
<text text-anchor="start" x="376.7076" y="-575.3" font-family="Arial Bold" font-size="18.00" fill="#000000">sr.participant_role_member</text>
<text text-anchor="start" x="595.7244" y="-575.3" font-family="Arial" font-size="14.00" fill="#000000">    </text>
<text text-anchor="start" x="629.9292" y="-575.3" font-family="Arial" font-size="14.00" fill="#666666">[BASE TABLE]</text>
<polygon fill="none" stroke="#000000" points="370,-532.5 370,-562.5 730,-562.5 730,-532.5 370,-532.5"/>
<text text-anchor="start" x="377" y="-543.9" font-family="Arial" font-size="14.00" fill="#000000">participant_role_member_uuid </text>
<text text-anchor="start" x="569.9228" y="-543.9" font-family="Arial" font-size="14.00" fill="#666666">[uuid]</text>
<polygon fill="none" stroke="#000000" points="370,-502.5 370,-532.5 730,-532.5 730,-502.5 370,-502.5"/>
<text text-anchor="start" x="377" y="-513.9" font-family="Arial" font-size="14.00" fill="#000000">participant_uuid </text>
<text text-anchor="start" x="479.6956" y="-513.9" font-family="Arial" font-size="14.00" fill="#666666">[uuid]</text>
<polygon fill="none" stroke="#000000" points="370,-472.5 370,-502.5 730,-502.5 730,-472.5 370,-472.5"/>
<text text-anchor="start" x="377" y="-483.9" font-family="Arial" font-size="14.00" fill="#000000">participant_role_id </text>
<text text-anchor="start" x="495.2454" y="-483.9" font-family="Arial" font-size="14.00" fill="#666666">[integer]</text>
<polygon fill="none" stroke="#000000" points="370,-442.5 370,-472.5 730,-472.5 730,-442.5 370,-442.5"/>
<text text-anchor="start" x="377" y="-453.9" font-family="Arial" font-size="14.00" fill="#000000">ts_created </text>
<text text-anchor="start" x="446.2454" y="-453.9" font-family="Arial" font-size="14.00" fill="#666666">[timestamp without time zone]</text>
<polygon fill="none" stroke="#000000" points="370,-412.5 370,-442.5 730,-442.5 730,-412.5 370,-412.5"/>
<text text-anchor="start" x="377" y="-423.9" font-family="Arial" font-size="14.00" fill="#000000">ts_modified </text>
<text text-anchor="start" x="452.4586" y="-423.9" font-family="Arial" font-size="14.00" fill="#666666">[timestamp without time zone]</text>
<polygon fill="none" stroke="#000000" stroke-width="3" points="368.5,-411.5 368.5,-599.5 731.5,-599.5 731.5,-411.5 368.5,-411.5"/>
</g>
<!-- sr.participant -->
<g id="node2" class="node">
<title>sr.participant</title>
<polygon fill="#efefef" stroke="transparent" points="194,-252.5 194,-287.5 498,-287.5 498,-252.5 194,-252.5"/>
<polygon fill="none" stroke="#000000" points="194,-252.5 194,-287.5 498,-287.5 498,-252.5 194,-252.5"/>
<text text-anchor="start" x="230.7108" y="-265.3" font-family="Arial Bold" font-size="18.00" fill="#000000">sr.participant</text>
<text text-anchor="start" x="333.7212" y="-265.3" font-family="Arial" font-size="14.00" fill="#000000">    </text>
<text text-anchor="start" x="367.926" y="-265.3" font-family="Arial" font-size="14.00" fill="#666666">[BASE TABLE]</text>
<polygon fill="none" stroke="#000000" points="194,-222.5 194,-252.5 498,-252.5 498,-222.5 194,-222.5"/>
<text text-anchor="start" x="201" y="-233.9" font-family="Arial" font-size="14.00" fill="#000000">participant_uuid    </text>
<text text-anchor="start" x="334.0098" y="-233.9" font-family="Arial" font-size="14.00" fill="#666666">[uuid]</text>
<polygon fill="none" stroke="#000000" points="194,-192.5 194,-222.5 498,-222.5 498,-192.5 194,-192.5"/>
<text text-anchor="start" x="201" y="-203.9" font-family="Arial" font-size="14.00" fill="#000000">user_uuid    </text>
<text text-anchor="start" x="296.6676" y="-203.9" font-family="Arial" font-size="14.00" fill="#666666">[uuid]</text>
<polygon fill="none" stroke="#000000" points="194,-162.5 194,-192.5 498,-192.5 498,-162.5 194,-162.5"/>
<text text-anchor="start" x="201" y="-173.9" font-family="Arial" font-size="14.00" fill="#000000">event_uuid    </text>
<text text-anchor="start" x="303.6802" y="-173.9" font-family="Arial" font-size="14.00" fill="#666666">[uuid]</text>
<polygon fill="none" stroke="#000000" points="194,-132.5 194,-162.5 498,-162.5 498,-132.5 194,-132.5"/>
<text text-anchor="start" x="201" y="-143.9" font-family="Arial" font-size="14.00" fill="#000000">is_active    </text>
<text text-anchor="start" x="289.6564" y="-143.9" font-family="Arial" font-size="14.00" fill="#666666">[boolean]</text>
<polygon fill="none" stroke="#000000" points="194,-102.5 194,-132.5 498,-132.5 498,-102.5 194,-102.5"/>
<text text-anchor="start" x="201" y="-113.9" font-family="Arial" font-size="14.00" fill="#000000">ts_created    </text>
<text text-anchor="start" x="300.5596" y="-113.9" font-family="Arial" font-size="14.00" fill="#666666">[timestamp without time zone]</text>
<polygon fill="none" stroke="#000000" points="194,-72.5 194,-102.5 498,-102.5 498,-72.5 194,-72.5"/>
<text text-anchor="start" x="200.5435" y="-83.9" font-family="Arial" font-size="14.00" fill="#000000">ts_modified    </text>
<text text-anchor="start" x="306.3163" y="-83.9" font-family="Arial" font-size="14.00" fill="#666666">[timestamp without time zone]</text>
<polygon fill="none" stroke="#000000" points="194,-42.5 194,-72.5 498,-72.5 498,-42.5 194,-42.5"/>
<text text-anchor="start" x="201" y="-53.9" font-family="Arial" font-size="14.00" fill="#000000">tags    </text>
<text text-anchor="start" x="261.6606" y="-53.9" font-family="Arial" font-size="14.00" fill="#666666">[jsonb]</text>
</g>
<!-- sr.participant_role_member&#45;&gt;sr.participant -->
<g id="edge1" class="edge">
<title>sr.participant_role_member:participant_uuid&#45;&gt;sr.participant:participant_uuid</title>
<path fill="none" stroke="#000000" d="M359.8509,-516.6511C306.0509,-507.0018 331.8184,-417.4015 370,-367 405.6848,-319.8944 462.3152,-378.1056 498,-331 523.0931,-297.876 539.5556,-237.5 498,-237.5"/>
<polygon fill="#000000" stroke="#000000" points="360.0348,-516.6664 369.6249,-521.9843 365.0174,-517.0832 370,-517.5 370,-517.5 370,-517.5 365.0174,-517.0832 370.3751,-513.0157 360.0348,-516.6664 360.0348,-516.6664"/>
<text text-anchor="start" x="6.65" y="-527.5" font-family="Arial" font-size="10.00" fill="#000000">FOREIGN KEY (participant_uuid) REFERENCES sr.participant(participant_uuid)</text>
</g>
<!-- sr.participant_role -->
<g id="node3" class="node">
<title>sr.participant_role</title>
<polygon fill="#efefef" stroke="transparent" points="602,-237.5 602,-272.5 908,-272.5 908,-237.5 602,-237.5"/>
<polygon fill="none" stroke="#000000" points="602,-237.5 602,-272.5 908,-272.5 908,-237.5 602,-237.5"/>
<text text-anchor="start" x="619.7083" y="-250.3" font-family="Arial Bold" font-size="18.00" fill="#000000">sr.participant_role</text>
<text text-anchor="start" x="762.7237" y="-250.3" font-family="Arial" font-size="14.00" fill="#000000">    </text>
<text text-anchor="start" x="796.9285" y="-250.3" font-family="Arial" font-size="14.00" fill="#666666">[BASE TABLE]</text>
<polygon fill="none" stroke="#000000" points="602,-207.5 602,-237.5 908,-237.5 908,-207.5 602,-207.5"/>
<text text-anchor="start" x="609" y="-218.9" font-family="Arial" font-size="14.00" fill="#000000">participant_role_id    </text>
<text text-anchor="start" x="757.5596" y="-218.9" font-family="Arial" font-size="14.00" fill="#666666">[integer]</text>
<polygon fill="none" stroke="#000000" points="602,-177.5 602,-207.5 908,-207.5 908,-177.5 602,-177.5"/>
<text text-anchor="start" x="609" y="-188.9" font-family="Arial" font-size="14.00" fill="#000000">participant_role_name    </text>
<text text-anchor="start" x="781.6788" y="-188.9" font-family="Arial" font-size="14.00" fill="#666666">[varchar(50)]</text>
<polygon fill="none" stroke="#000000" points="602,-147.5 602,-177.5 908,-177.5 908,-147.5 602,-147.5"/>
<text text-anchor="start" x="608.7665" y="-158.9" font-family="Arial" font-size="14.00" fill="#000000">participant_role_description    </text>
<text text-anchor="start" x="814.1143" y="-158.9" font-family="Arial" font-size="14.00" fill="#666666">[varchar(512)]</text>
<polygon fill="none" stroke="#000000" points="602,-117.5 602,-147.5 908,-147.5 908,-117.5 602,-117.5"/>
<text text-anchor="start" x="609" y="-128.9" font-family="Arial" font-size="14.00" fill="#000000">participant_role_grants    </text>
<text text-anchor="start" x="785.5694" y="-128.9" font-family="Arial" font-size="14.00" fill="#666666">[jsonb]</text>
<polygon fill="none" stroke="#000000" points="602,-87.5 602,-117.5 908,-117.5 908,-87.5 602,-87.5"/>
<text text-anchor="start" x="609" y="-98.9" font-family="Arial" font-size="14.00" fill="#000000">ts_created    </text>
<text text-anchor="start" x="708.5596" y="-98.9" font-family="Arial" font-size="14.00" fill="#666666">[timestamp without time zone]</text>
<polygon fill="none" stroke="#000000" points="602,-57.5 602,-87.5 908,-87.5 908,-57.5 602,-57.5"/>
<text text-anchor="start" x="609" y="-68.9" font-family="Arial" font-size="14.00" fill="#000000">ts_modified    </text>
<text text-anchor="start" x="714.7728" y="-68.9" font-family="Arial" font-size="14.00" fill="#666666">[timestamp without time zone]</text>
</g>
<!-- sr.participant_role_member&#45;&gt;sr.participant_role -->
<g id="edge2" class="edge">
<title>sr.participant_role_member:participant_role_id&#45;&gt;sr.participant_role:participant_role_id</title>
<path fill="none" stroke="#000000" d="M740.1785,-486.4078C780.2183,-476.9457 757.9414,-408.2106 730,-367 695.6339,-316.3138 636.3661,-366.6862 602,-316 578.6796,-281.6049 560.4444,-222.5 602,-222.5"/>
<polygon fill="#000000" stroke="#000000" points="739.9429,-486.433 729.5198,-483.0257 734.9715,-486.9665 730,-487.5 730,-487.5 730,-487.5 734.9715,-486.9665 730.4802,-491.9743 739.9429,-486.433 739.9429,-486.433"/>
<text text-anchor="start" x="737.4305" y="-497.5" font-family="Arial" font-size="10.00" fill="#000000">FOREIGN KEY (participant_role_id) REFERENCES sr.participant_role(participant_role_id)</text>
</g>
</g>
</svg>
