<?xml version="1.0" encoding="UTF-8" standalone="no"?>
<!DOCTYPE svg PUBLIC "-//W3C//DTD SVG 1.1//EN"
 "http://www.w3.org/Graphics/SVG/1.1/DTD/svg11.dtd">
<!-- Generated by graphviz version 2.40.1 (20161225.0304)
 -->
<!-- Title: sr.participant Pages: 1 -->
<svg width="1712pt" height="1349pt"
 viewBox="0.00 0.00 1712.00 1349.00" xmlns="http://www.w3.org/2000/svg" xmlns:xlink="http://www.w3.org/1999/xlink">
<g id="graph0" class="graph" transform="scale(1 1) rotate(0) translate(4 1345)">
<title>sr.participant</title>
<polygon fill="#ffffff" stroke="transparent" points="-4,4 -4,-1345 1708,-1345 1708,4 -4,4"/>
<!-- sr.participant -->
<g id="node1" class="node">
<title>sr.participant</title>
<polygon fill="#efefef" stroke="transparent" points="726,-862.5 726,-897.5 1000,-897.5 1000,-862.5 726,-862.5"/>
<polygon fill="none" stroke="#000000" points="726,-862.5 726,-897.5 1000,-897.5 1000,-862.5 726,-862.5"/>
<text text-anchor="start" x="747.7108" y="-875.3" font-family="Arial Bold" font-size="18.00" fill="#000000">sr.participant</text>
<text text-anchor="start" x="850.7212" y="-875.3" font-family="Arial" font-size="14.00" fill="#000000">    </text>
<text text-anchor="start" x="884.926" y="-875.3" font-family="Arial" font-size="14.00" fill="#666666">[BASE TABLE]</text>
<polygon fill="none" stroke="#000000" points="726,-832.5 726,-862.5 1000,-862.5 1000,-832.5 726,-832.5"/>
<text text-anchor="start" x="733" y="-843.9" font-family="Arial" font-size="14.00" fill="#000000">participant_uuid </text>
<text text-anchor="start" x="835.6956" y="-843.9" font-family="Arial" font-size="14.00" fill="#666666">[uuid]</text>
<polygon fill="none" stroke="#000000" points="726,-802.5 726,-832.5 1000,-832.5 1000,-802.5 726,-802.5"/>
<text text-anchor="start" x="733" y="-813.9" font-family="Arial" font-size="14.00" fill="#000000">user_uuid </text>
<text text-anchor="start" x="798.3534" y="-813.9" font-family="Arial" font-size="14.00" fill="#666666">[uuid]</text>
<polygon fill="none" stroke="#000000" points="726,-772.5 726,-802.5 1000,-802.5 1000,-772.5 726,-772.5"/>
<text text-anchor="start" x="733" y="-783.9" font-family="Arial" font-size="14.00" fill="#000000">event_uuid </text>
<text text-anchor="start" x="805.366" y="-783.9" font-family="Arial" font-size="14.00" fill="#666666">[uuid]</text>
<polygon fill="none" stroke="#000000" points="726,-742.5 726,-772.5 1000,-772.5 1000,-742.5 726,-742.5"/>
<text text-anchor="start" x="733" y="-753.9" font-family="Arial" font-size="14.00" fill="#000000">is_active </text>
<text text-anchor="start" x="791.3422" y="-753.9" font-family="Arial" font-size="14.00" fill="#666666">[boolean]</text>
<polygon fill="none" stroke="#000000" points="726,-712.5 726,-742.5 1000,-742.5 1000,-712.5 726,-712.5"/>
<text text-anchor="start" x="733" y="-723.9" font-family="Arial" font-size="14.00" fill="#000000">ts_created </text>
<text text-anchor="start" x="802.2454" y="-723.9" font-family="Arial" font-size="14.00" fill="#666666">[timestamp without time zone]</text>
<polygon fill="none" stroke="#000000" points="726,-682.5 726,-712.5 1000,-712.5 1000,-682.5 726,-682.5"/>
<text text-anchor="start" x="732.7006" y="-693.9" font-family="Arial" font-size="14.00" fill="#000000">ts_modified </text>
<text text-anchor="start" x="808.1592" y="-693.9" font-family="Arial" font-size="14.00" fill="#666666">[timestamp without time zone]</text>
<polygon fill="none" stroke="#000000" points="726,-652.5 726,-682.5 1000,-682.5 1000,-652.5 726,-652.5"/>
<text text-anchor="start" x="733" y="-663.9" font-family="Arial" font-size="14.00" fill="#000000">tags </text>
<text text-anchor="start" x="763.3464" y="-663.9" font-family="Arial" font-size="14.00" fill="#666666">[jsonb]</text>
<polygon fill="none" stroke="#000000" stroke-width="3" points="724.5,-651.5 724.5,-899.5 1001.5,-899.5 1001.5,-651.5 724.5,-651.5"/>
</g>
<!-- sr.user -->
<g id="node6" class="node">
<title>sr.user</title>
<polygon fill="#efefef" stroke="transparent" points="497,-492.5 497,-527.5 808,-527.5 808,-492.5 497,-492.5"/>
<polygon fill="none" stroke="#000000" points="497,-492.5 497,-527.5 808,-527.5 808,-492.5 497,-492.5"/>
<text text-anchor="start" x="561.2165" y="-505.3" font-family="Arial Bold" font-size="18.00" fill="#000000">sr.user</text>
<text text-anchor="start" x="616.2155" y="-505.3" font-family="Arial" font-size="14.00" fill="#000000">    </text>
<text text-anchor="start" x="650.4203" y="-505.3" font-family="Arial" font-size="14.00" fill="#666666">[BASE TABLE]</text>
<polygon fill="none" stroke="#000000" points="497,-462.5 497,-492.5 808,-492.5 808,-462.5 497,-462.5"/>
<text text-anchor="start" x="504" y="-473.9" font-family="Arial" font-size="14.00" fill="#000000">user_uuid    </text>
<text text-anchor="start" x="599.6676" y="-473.9" font-family="Arial" font-size="14.00" fill="#666666">[uuid]</text>
<polygon fill="none" stroke="#000000" points="497,-432.5 497,-462.5 808,-462.5 808,-432.5 497,-432.5"/>
<text text-anchor="start" x="504" y="-443.9" font-family="Arial" font-size="14.00" fill="#000000">email_address    </text>
<text text-anchor="start" x="629.2174" y="-443.9" font-family="Arial" font-size="14.00" fill="#666666">[varchar(100)]</text>
<polygon fill="none" stroke="#000000" points="497,-402.5 497,-432.5 808,-432.5 808,-402.5 497,-402.5"/>
<text text-anchor="start" x="504" y="-413.9" font-family="Arial" font-size="14.00" fill="#000000">organization_uuid    </text>
<text text-anchor="start" x="648.6844" y="-413.9" font-family="Arial" font-size="14.00" fill="#666666">[uuid]</text>
<polygon fill="none" stroke="#000000" points="497,-372.5 497,-402.5 808,-402.5 808,-372.5 497,-372.5"/>
<text text-anchor="start" x="504" y="-383.9" font-family="Arial" font-size="14.00" fill="#000000">auth_provider_id    </text>
<text text-anchor="start" x="642.4558" y="-383.9" font-family="Arial" font-size="14.00" fill="#666666">[varchar(100)]</text>
<polygon fill="none" stroke="#000000" points="497,-342.5 497,-372.5 808,-372.5 808,-342.5 497,-342.5"/>
<text text-anchor="start" x="504" y="-353.9" font-family="Arial" font-size="14.00" fill="#000000">first_name    </text>
<text text-anchor="start" x="603.5442" y="-353.9" font-family="Arial" font-size="14.00" fill="#666666">[varchar(100)]</text>
<polygon fill="none" stroke="#000000" points="497,-312.5 497,-342.5 808,-342.5 808,-312.5 497,-312.5"/>
<text text-anchor="start" x="504" y="-323.9" font-family="Arial" font-size="14.00" fill="#000000">last_name    </text>
<text text-anchor="start" x="602.7756" y="-323.9" font-family="Arial" font-size="14.00" fill="#666666">[varchar(100)]</text>
<polygon fill="none" stroke="#000000" points="497,-282.5 497,-312.5 808,-312.5 808,-282.5 497,-282.5"/>
<text text-anchor="start" x="504" y="-293.9" font-family="Arial" font-size="14.00" fill="#000000">phone    </text>
<text text-anchor="start" x="577.1178" y="-293.9" font-family="Arial" font-size="14.00" fill="#666666">[varchar(20)]</text>
<polygon fill="none" stroke="#000000" points="497,-252.5 497,-282.5 808,-282.5 808,-252.5 497,-252.5"/>
<text text-anchor="start" x="504" y="-263.9" font-family="Arial" font-size="14.00" fill="#000000">email_verified    </text>
<text text-anchor="start" x="624.5386" y="-263.9" font-family="Arial" font-size="14.00" fill="#666666">[boolean]</text>
<polygon fill="none" stroke="#000000" points="497,-222.5 497,-252.5 808,-252.5 808,-222.5 497,-222.5"/>
<text text-anchor="start" x="504" y="-233.9" font-family="Arial" font-size="14.00" fill="#000000">registered    </text>
<text text-anchor="start" x="600.4362" y="-233.9" font-family="Arial" font-size="14.00" fill="#666666">[boolean]</text>
<polygon fill="none" stroke="#000000" points="497,-192.5 497,-222.5 808,-222.5 808,-192.5 497,-192.5"/>
<text text-anchor="start" x="504" y="-203.9" font-family="Arial" font-size="14.00" fill="#000000">settings    </text>
<text text-anchor="start" x="586.4404" y="-203.9" font-family="Arial" font-size="14.00" fill="#666666">[jsonb]</text>
<polygon fill="none" stroke="#000000" points="497,-162.5 497,-192.5 808,-192.5 808,-162.5 497,-162.5"/>
<text text-anchor="start" x="504" y="-173.9" font-family="Arial" font-size="14.00" fill="#000000">ts_created    </text>
<text text-anchor="start" x="603.5596" y="-173.9" font-family="Arial" font-size="14.00" fill="#666666">[timestamp without time zone]</text>
<polygon fill="none" stroke="#000000" points="497,-132.5 497,-162.5 808,-162.5 808,-132.5 497,-132.5"/>
<text text-anchor="start" x="504" y="-143.9" font-family="Arial" font-size="14.00" fill="#000000">ts_modified    </text>
<text text-anchor="start" x="609.7728" y="-143.9" font-family="Arial" font-size="14.00" fill="#666666">[timestamp without time zone]</text>
<polygon fill="none" stroke="#000000" points="497,-102.5 497,-132.5 808,-132.5 808,-102.5 497,-102.5"/>
<text text-anchor="start" x="504" y="-113.9" font-family="Arial" font-size="14.00" fill="#000000">tags    </text>
<text text-anchor="start" x="564.6606" y="-113.9" font-family="Arial" font-size="14.00" fill="#666666">[jsonb]</text>
<polygon fill="none" stroke="#000000" points="497,-72.5 497,-102.5 808,-102.5 808,-72.5 497,-72.5"/>
<text text-anchor="start" x="504" y="-83.9" font-family="Arial" font-size="14.00" fill="#000000">job_title    </text>
<text text-anchor="start" x="586.4362" y="-83.9" font-family="Arial" font-size="14.00" fill="#666666">[varchar(50)]</text>
<polygon fill="none" stroke="#000000" points="497,-42.5 497,-72.5 808,-72.5 808,-42.5 497,-42.5"/>
<text text-anchor="start" x="503.9292" y="-53.9" font-family="Arial" font-size="14.00" fill="#000000">ts_last_login    </text>
<text text-anchor="start" x="615.9306" y="-53.9" font-family="Arial" font-size="14.00" fill="#666666">[timestamp without time zone]</text>
</g>
<!-- sr.participant&#45;&gt;sr.user -->
<g id="edge5" class="edge">
<title>sr.participant:user_uuid&#45;&gt;sr.user:user_uuid</title>
<path fill="none" stroke="#000000" d="M715.6512,-816.9061C635.7702,-807.2564 676.8409,-682.27 726,-607 747.7643,-573.6756 786.2357,-604.3244 808,-571 830.7231,-536.2074 849.5556,-477.5 808,-477.5"/>
<polygon fill="#000000" stroke="#000000" points="716.0164,-816.9269 725.7421,-821.9926 721.0082,-817.2135 726,-817.5 726,-817.5 726,-817.5 721.0082,-817.2135 726.2579,-813.0074 716.0164,-816.9269 716.0164,-816.9269"/>
<text text-anchor="start" x="436.1105" y="-827.5" font-family="Arial" font-size="10.00" fill="#000000">FOREIGN KEY (user_uuid) REFERENCES sr.&quot;user&quot;(user_uuid)</text>
</g>
<!-- sr.event -->
<g id="node7" class="node">
<title>sr.event</title>
<polygon fill="#efefef" stroke="transparent" points="912,-447.5 912,-482.5 1233,-482.5 1233,-447.5 912,-447.5"/>
<polygon fill="none" stroke="#000000" points="912,-447.5 912,-482.5 1233,-482.5 1233,-447.5 912,-447.5"/>
<text text-anchor="start" x="976.7084" y="-460.3" font-family="Arial Bold" font-size="18.00" fill="#000000">sr.event</text>
<text text-anchor="start" x="1040.7236" y="-460.3" font-family="Arial" font-size="14.00" fill="#000000">    </text>
<text text-anchor="start" x="1074.9284" y="-460.3" font-family="Arial" font-size="14.00" fill="#666666">[BASE TABLE]</text>
<polygon fill="none" stroke="#000000" points="912,-417.5 912,-447.5 1233,-447.5 1233,-417.5 912,-417.5"/>
<text text-anchor="start" x="919" y="-428.9" font-family="Arial" font-size="14.00" fill="#000000">event_uuid    </text>
<text text-anchor="start" x="1021.6802" y="-428.9" font-family="Arial" font-size="14.00" fill="#666666">[uuid]</text>
<polygon fill="none" stroke="#000000" points="912,-387.5 912,-417.5 1233,-417.5 1233,-387.5 912,-387.5"/>
<text text-anchor="start" x="919" y="-398.9" font-family="Arial" font-size="14.00" fill="#000000">organization_uuid    </text>
<text text-anchor="start" x="1063.6844" y="-398.9" font-family="Arial" font-size="14.00" fill="#666666">[uuid]</text>
<polygon fill="none" stroke="#000000" points="912,-357.5 912,-387.5 1233,-387.5 1233,-357.5 912,-357.5"/>
<text text-anchor="start" x="919" y="-368.9" font-family="Arial" font-size="14.00" fill="#000000">event_status_id    </text>
<text text-anchor="start" x="1051.244" y="-368.9" font-family="Arial" font-size="14.00" fill="#666666">[integer]</text>
<polygon fill="none" stroke="#000000" points="912,-327.5 912,-357.5 1233,-357.5 1233,-327.5 912,-327.5"/>
<text text-anchor="start" x="919" y="-338.9" font-family="Arial" font-size="14.00" fill="#000000">cloud_accounts_enabled    </text>
<text text-anchor="start" x="1108.0476" y="-338.9" font-family="Arial" font-size="14.00" fill="#666666">[boolean]</text>
<polygon fill="none" stroke="#000000" points="912,-297.5 912,-327.5 1233,-327.5 1233,-297.5 912,-297.5"/>
<text text-anchor="start" x="918.8682" y="-308.9" font-family="Arial" font-size="14.00" fill="#000000">ts_event_start    </text>
<text text-anchor="start" x="1040.9916" y="-308.9" font-family="Arial" font-size="14.00" fill="#666666">[timestamp without time zone]</text>
<polygon fill="none" stroke="#000000" points="912,-267.5 912,-297.5 1233,-297.5 1233,-267.5 912,-267.5"/>
<text text-anchor="start" x="919" y="-278.9" font-family="Arial" font-size="14.00" fill="#000000">ts_event_end    </text>
<text text-anchor="start" x="1037.2468" y="-278.9" font-family="Arial" font-size="14.00" fill="#666666">[timestamp without time zone]</text>
<polygon fill="none" stroke="#000000" points="912,-237.5 912,-267.5 1233,-267.5 1233,-237.5 912,-237.5"/>
<text text-anchor="start" x="919" y="-248.9" font-family="Arial" font-size="14.00" fill="#000000">event_details    </text>
<text text-anchor="start" x="1035.6774" y="-248.9" font-family="Arial" font-size="14.00" fill="#666666">[jsonb]</text>
<polygon fill="none" stroke="#000000" points="912,-207.5 912,-237.5 1233,-237.5 1233,-207.5 912,-207.5"/>
<text text-anchor="start" x="919" y="-218.9" font-family="Arial" font-size="14.00" fill="#000000">ts_created    </text>
<text text-anchor="start" x="1018.5596" y="-218.9" font-family="Arial" font-size="14.00" fill="#666666">[timestamp without time zone]</text>
<polygon fill="none" stroke="#000000" points="912,-177.5 912,-207.5 1233,-207.5 1233,-177.5 912,-177.5"/>
<text text-anchor="start" x="919" y="-188.9" font-family="Arial" font-size="14.00" fill="#000000">ts_modified    </text>
<text text-anchor="start" x="1024.7728" y="-188.9" font-family="Arial" font-size="14.00" fill="#666666">[timestamp without time zone]</text>
<polygon fill="none" stroke="#000000" points="912,-147.5 912,-177.5 1233,-177.5 1233,-147.5 912,-147.5"/>
<text text-anchor="start" x="919" y="-158.9" font-family="Arial" font-size="14.00" fill="#000000">event_type_id    </text>
<text text-anchor="start" x="1040.3534" y="-158.9" font-family="Arial" font-size="14.00" fill="#666666">[integer]</text>
<polygon fill="none" stroke="#000000" points="912,-117.5 912,-147.5 1233,-147.5 1233,-117.5 912,-117.5"/>
<text text-anchor="start" x="919" y="-128.9" font-family="Arial" font-size="14.00" fill="#000000">event_team_form_mode_id    </text>
<text text-anchor="start" x="1123.582" y="-128.9" font-family="Arial" font-size="14.00" fill="#666666">[integer]</text>
<polygon fill="none" stroke="#000000" points="912,-87.5 912,-117.5 1233,-117.5 1233,-87.5 912,-87.5"/>
<text text-anchor="start" x="919" y="-98.9" font-family="Arial" font-size="14.00" fill="#000000">event_judging_minutes    </text>
<text text-anchor="start" x="1097.1402" y="-98.9" font-family="Arial" font-size="14.00" fill="#666666">[integer]</text>
</g>
<!-- sr.participant&#45;&gt;sr.event -->
<g id="edge6" class="edge">
<title>sr.participant:event_uuid&#45;&gt;sr.event:event_uuid</title>
<path fill="none" stroke="#000000" d="M1010.048,-786.8648C1075.942,-777.9513 1030.7794,-677.1643 1000,-607 978.6456,-558.3208 933.3544,-574.6792 912,-526 895.3062,-487.945 870.4444,-432.5 912,-432.5"/>
<polygon fill="#000000" stroke="#000000" points="1009.9801,-786.869 999.716,-783.009 1004.99,-787.1845 1000,-787.5 1000,-787.5 1000,-787.5 1004.99,-787.1845 1000.284,-791.991 1009.9801,-786.869 1009.9801,-786.869"/>
<text text-anchor="start" x="1007.146" y="-797.5" font-family="Arial" font-size="10.00" fill="#000000">FOREIGN KEY (event_uuid) REFERENCES sr.event(event_uuid)</text>
</g>
<!-- sr.participant_role_member -->
<g id="node2" class="node">
<title>sr.participant_role_member</title>
<polygon fill="#efefef" stroke="transparent" points="43,-1217.5 43,-1252.5 403,-1252.5 403,-1217.5 43,-1217.5"/>
<polygon fill="none" stroke="#000000" points="43,-1217.5 43,-1252.5 403,-1252.5 403,-1217.5 43,-1217.5"/>
<text text-anchor="start" x="49.7076" y="-1230.3" font-family="Arial Bold" font-size="18.00" fill="#000000">sr.participant_role_member</text>
<text text-anchor="start" x="268.7244" y="-1230.3" font-family="Arial" font-size="14.00" fill="#000000">    </text>
<text text-anchor="start" x="302.9292" y="-1230.3" font-family="Arial" font-size="14.00" fill="#666666">[BASE TABLE]</text>
<polygon fill="none" stroke="#000000" points="43,-1187.5 43,-1217.5 403,-1217.5 403,-1187.5 43,-1187.5"/>
<text text-anchor="start" x="50" y="-1198.9" font-family="Arial" font-size="14.00" fill="#000000">participant_role_member_uuid    </text>
<text text-anchor="start" x="273.237" y="-1198.9" font-family="Arial" font-size="14.00" fill="#666666">[uuid]</text>
<polygon fill="none" stroke="#000000" points="43,-1157.5 43,-1187.5 403,-1187.5 403,-1157.5 43,-1157.5"/>
<text text-anchor="start" x="50" y="-1168.9" font-family="Arial" font-size="14.00" fill="#000000">participant_uuid    </text>
<text text-anchor="start" x="183.0098" y="-1168.9" font-family="Arial" font-size="14.00" fill="#666666">[uuid]</text>
<polygon fill="none" stroke="#000000" points="43,-1127.5 43,-1157.5 403,-1157.5 403,-1127.5 43,-1127.5"/>
<text text-anchor="start" x="50" y="-1138.9" font-family="Arial" font-size="14.00" fill="#000000">participant_role_id    </text>
<text text-anchor="start" x="198.5596" y="-1138.9" font-family="Arial" font-size="14.00" fill="#666666">[integer]</text>
<polygon fill="none" stroke="#000000" points="43,-1097.5 43,-1127.5 403,-1127.5 403,-1097.5 43,-1097.5"/>
<text text-anchor="start" x="50" y="-1108.9" font-family="Arial" font-size="14.00" fill="#000000">ts_created    </text>
<text text-anchor="start" x="149.5596" y="-1108.9" font-family="Arial" font-size="14.00" fill="#666666">[timestamp without time zone]</text>
<polygon fill="none" stroke="#000000" points="43,-1067.5 43,-1097.5 403,-1097.5 403,-1067.5 43,-1067.5"/>
<text text-anchor="start" x="50" y="-1078.9" font-family="Arial" font-size="14.00" fill="#000000">ts_modified    </text>
<text text-anchor="start" x="155.7728" y="-1078.9" font-family="Arial" font-size="14.00" fill="#666666">[timestamp without time zone]</text>
</g>
<!-- sr.participant_role_member&#45;&gt;sr.participant -->
<g id="edge1" class="edge">
<title>sr.participant_role_member:participant_uuid&#45;&gt;sr.participant:participant_uuid</title>
<path fill="none" stroke="#000000" d="M413.0108,-1171.8859C484.2422,-1162.4099 400.9065,-1045.5494 455,-980 540.3342,-876.5938 591.93,-847.5 726,-847.5"/>
<polygon fill="#000000" stroke="#000000" points="412.9812,-1171.8876 402.7244,-1168.0084 407.9906,-1172.1938 403,-1172.5 403,-1172.5 403,-1172.5 407.9906,-1172.1938 403.2756,-1176.9916 412.9812,-1171.8876 412.9812,-1171.8876"/>
<text text-anchor="start" x="224.65" y="-1156.5" font-family="Arial" font-size="10.00" fill="#000000">FOREIGN KEY (participant_uuid) REFERENCES sr.participant(participant_uuid)</text>
</g>
<!-- sr.team_member -->
<g id="node3" class="node">
<title>sr.team_member</title>
<polygon fill="#efefef" stroke="transparent" points="507,-1232.5 507,-1267.5 811,-1267.5 811,-1232.5 507,-1232.5"/>
<polygon fill="none" stroke="#000000" points="507,-1232.5 507,-1267.5 811,-1267.5 811,-1232.5 507,-1232.5"/>
<text text-anchor="start" x="527.2147" y="-1245.3" font-family="Arial Bold" font-size="18.00" fill="#000000">sr.team_member</text>
<text text-anchor="start" x="663.2173" y="-1245.3" font-family="Arial" font-size="14.00" fill="#000000">    </text>
<text text-anchor="start" x="697.4221" y="-1245.3" font-family="Arial" font-size="14.00" fill="#666666">[BASE TABLE]</text>
<polygon fill="none" stroke="#000000" points="507,-1202.5 507,-1232.5 811,-1232.5 811,-1202.5 507,-1202.5"/>
<text text-anchor="start" x="514" y="-1213.9" font-family="Arial" font-size="14.00" fill="#000000">team_member_uuid    </text>
<text text-anchor="start" x="672.6704" y="-1213.9" font-family="Arial" font-size="14.00" fill="#666666">[uuid]</text>
<polygon fill="none" stroke="#000000" points="507,-1172.5 507,-1202.5 811,-1202.5 811,-1172.5 507,-1172.5"/>
<text text-anchor="start" x="514" y="-1183.9" font-family="Arial" font-size="14.00" fill="#000000">team_uuid    </text>
<text text-anchor="start" x="613.5582" y="-1183.9" font-family="Arial" font-size="14.00" fill="#666666">[uuid]</text>
<polygon fill="none" stroke="#000000" points="507,-1142.5 507,-1172.5 811,-1172.5 811,-1142.5 507,-1142.5"/>
<text text-anchor="start" x="514" y="-1153.9" font-family="Arial" font-size="14.00" fill="#000000">participant_uuid    </text>
<text text-anchor="start" x="647.0098" y="-1153.9" font-family="Arial" font-size="14.00" fill="#666666">[uuid]</text>
<polygon fill="none" stroke="#000000" points="507,-1112.5 507,-1142.5 811,-1142.5 811,-1112.5 507,-1112.5"/>
<text text-anchor="start" x="514" y="-1123.9" font-family="Arial" font-size="14.00" fill="#000000">ts_created    </text>
<text text-anchor="start" x="613.5596" y="-1123.9" font-family="Arial" font-size="14.00" fill="#666666">[timestamp without time zone]</text>
<polygon fill="none" stroke="#000000" points="507,-1082.5 507,-1112.5 811,-1112.5 811,-1082.5 507,-1082.5"/>
<text text-anchor="start" x="513.5435" y="-1093.9" font-family="Arial" font-size="14.00" fill="#000000">ts_modified    </text>
<text text-anchor="start" x="619.3163" y="-1093.9" font-family="Arial" font-size="14.00" fill="#666666">[timestamp without time zone]</text>
<polygon fill="none" stroke="#000000" points="507,-1052.5 507,-1082.5 811,-1082.5 811,-1052.5 507,-1052.5"/>
<text text-anchor="start" x="514" y="-1063.9" font-family="Arial" font-size="14.00" fill="#000000">tags    </text>
<text text-anchor="start" x="574.6606" y="-1063.9" font-family="Arial" font-size="14.00" fill="#666666">[jsonb]</text>
</g>
<!-- sr.team_member&#45;&gt;sr.participant -->
<g id="edge2" class="edge">
<title>sr.team_member:participant_uuid&#45;&gt;sr.participant:participant_uuid</title>
<path fill="none" stroke="#000000" d="M821.1749,-1156.6686C872.4201,-1147.5562 838.1932,-1065.5429 811,-1010 789.9688,-967.0431 747.0312,-986.9569 726,-944 707.141,-905.4799 683.1111,-847.5 726,-847.5"/>
<polygon fill="#000000" stroke="#000000" points="820.9668,-1156.6855 810.6335,-1153.0149 815.9834,-1157.0927 811,-1157.5 811,-1157.5 811,-1157.5 815.9834,-1157.0927 811.3665,-1161.9851 820.9668,-1156.6855 820.9668,-1156.6855"/>
<text text-anchor="start" x="817.65" y="-1167.5" font-family="Arial" font-size="10.00" fill="#000000">FOREIGN KEY (participant_uuid) REFERENCES sr.participant(participant_uuid)</text>
</g>
<!-- sr.team_score_item -->
<g id="node4" class="node">
<title>sr.team_score_item</title>
<polygon fill="#efefef" stroke="transparent" points="915,-1262.5 915,-1297.5 1219,-1297.5 1219,-1262.5 915,-1262.5"/>
<polygon fill="none" stroke="#000000" points="915,-1262.5 915,-1297.5 1219,-1297.5 1219,-1262.5 915,-1262.5"/>
<text text-anchor="start" x="924.2095" y="-1275.3" font-family="Arial Bold" font-size="18.00" fill="#000000">sr.team_score_item</text>
<text text-anchor="start" x="1082.2225" y="-1275.3" font-family="Arial" font-size="14.00" fill="#000000">    </text>
<text text-anchor="start" x="1116.4273" y="-1275.3" font-family="Arial" font-size="14.00" fill="#666666">[BASE TABLE]</text>
<polygon fill="none" stroke="#000000" points="915,-1232.5 915,-1262.5 1219,-1262.5 1219,-1232.5 915,-1232.5"/>
<text text-anchor="start" x="922" y="-1243.9" font-family="Arial" font-size="14.00" fill="#000000">team_score_item_uuid    </text>
<text text-anchor="start" x="1097.7896" y="-1243.9" font-family="Arial" font-size="14.00" fill="#666666">[uuid]</text>
<polygon fill="none" stroke="#000000" points="915,-1202.5 915,-1232.5 1219,-1232.5 1219,-1202.5 915,-1202.5"/>
<text text-anchor="start" x="922" y="-1213.9" font-family="Arial" font-size="14.00" fill="#000000">team_uuid    </text>
<text text-anchor="start" x="1021.5582" y="-1213.9" font-family="Arial" font-size="14.00" fill="#666666">[uuid]</text>
<polygon fill="none" stroke="#000000" points="915,-1172.5 915,-1202.5 1219,-1202.5 1219,-1172.5 915,-1172.5"/>
<text text-anchor="start" x="922" y="-1183.9" font-family="Arial" font-size="14.00" fill="#000000">judge_uuid    </text>
<text text-anchor="start" x="1024.6788" y="-1183.9" font-family="Arial" font-size="14.00" fill="#666666">[uuid]</text>
<polygon fill="none" stroke="#000000" points="915,-1142.5 915,-1172.5 1219,-1172.5 1219,-1142.5 915,-1142.5"/>
<text text-anchor="start" x="922" y="-1153.9" font-family="Arial" font-size="14.00" fill="#000000">judging_criterion_uuid    </text>
<text text-anchor="start" x="1093.1234" y="-1153.9" font-family="Arial" font-size="14.00" fill="#666666">[uuid]</text>
<polygon fill="none" stroke="#000000" points="915,-1112.5 915,-1142.5 1219,-1142.5 1219,-1112.5 915,-1112.5"/>
<text text-anchor="start" x="922" y="-1123.9" font-family="Arial" font-size="14.00" fill="#000000">team_score_item_value    </text>
<text text-anchor="start" x="1104.7896" y="-1123.9" font-family="Arial" font-size="14.00" fill="#666666">[numeric(2,1)]</text>
<polygon fill="none" stroke="#000000" points="915,-1082.5 915,-1112.5 1219,-1112.5 1219,-1082.5 915,-1082.5"/>
<text text-anchor="start" x="922" y="-1093.9" font-family="Arial" font-size="14.00" fill="#000000">team_score_item_details    </text>
<text text-anchor="start" x="1111.7868" y="-1093.9" font-family="Arial" font-size="14.00" fill="#666666">[jsonb]</text>
<polygon fill="none" stroke="#000000" points="915,-1052.5 915,-1082.5 1219,-1082.5 1219,-1052.5 915,-1052.5"/>
<text text-anchor="start" x="922" y="-1063.9" font-family="Arial" font-size="14.00" fill="#000000">ts_created    </text>
<text text-anchor="start" x="1021.5596" y="-1063.9" font-family="Arial" font-size="14.00" fill="#666666">[timestamp without time zone]</text>
<polygon fill="none" stroke="#000000" points="915,-1022.5 915,-1052.5 1219,-1052.5 1219,-1022.5 915,-1022.5"/>
<text text-anchor="start" x="921.5435" y="-1033.9" font-family="Arial" font-size="14.00" fill="#000000">ts_modified    </text>
<text text-anchor="start" x="1027.3163" y="-1033.9" font-family="Arial" font-size="14.00" fill="#666666">[timestamp without time zone]</text>
</g>
<!-- sr.team_score_item&#45;&gt;sr.participant -->
<g id="edge3" class="edge">
<title>sr.team_score_item:judge_uuid&#45;&gt;sr.participant:participant_uuid</title>
<path fill="none" stroke="#000000" d="M905.3855,-1184.5473C872.1441,-1161.8818 891.5237,-1015.438 915,-980 937.6577,-945.7978 977.3423,-978.2022 1000,-944 1023.6863,-908.2451 1042.8889,-847.5 1000,-847.5"/>
<polygon fill="#000000" stroke="#000000" points="905.4406,-1184.5642 913.6789,-1191.8017 910.2203,-1186.0321 915,-1187.5 915,-1187.5 915,-1187.5 910.2203,-1186.0321 916.3211,-1183.1983 905.4406,-1184.5642 905.4406,-1184.5642"/>
<text text-anchor="start" x="922.4825" y="-1197.5" font-family="Arial" font-size="10.00" fill="#000000">FOREIGN KEY (judge_uuid) REFERENCES sr.participant(participant_uuid)</text>
</g>
<!-- sr.team_event_feedback -->
<g id="node5" class="node">
<title>sr.team_event_feedback</title>
<polygon fill="#efefef" stroke="transparent" points="1323,-1247.5 1323,-1282.5 1661,-1282.5 1661,-1247.5 1323,-1247.5"/>
<polygon fill="none" stroke="#000000" points="1323,-1247.5 1323,-1282.5 1661,-1282.5 1661,-1247.5 1323,-1247.5"/>
<text text-anchor="start" x="1329.6822" y="-1260.3" font-family="Arial Bold" font-size="18.00" fill="#000000">sr.team_event_feedback</text>
<text text-anchor="start" x="1526.7498" y="-1260.3" font-family="Arial" font-size="14.00" fill="#000000">    </text>
<text text-anchor="start" x="1560.9546" y="-1260.3" font-family="Arial" font-size="14.00" fill="#666666">[BASE TABLE]</text>
<polygon fill="none" stroke="#000000" points="1323,-1217.5 1323,-1247.5 1661,-1247.5 1661,-1217.5 1323,-1217.5"/>
<text text-anchor="start" x="1330" y="-1228.9" font-family="Arial" font-size="14.00" fill="#000000">team_event_feedback_uuid    </text>
<text text-anchor="start" x="1536.1654" y="-1228.9" font-family="Arial" font-size="14.00" fill="#666666">[uuid]</text>
<polygon fill="none" stroke="#000000" points="1323,-1187.5 1323,-1217.5 1661,-1217.5 1661,-1187.5 1323,-1187.5"/>
<text text-anchor="start" x="1330" y="-1198.9" font-family="Arial" font-size="14.00" fill="#000000">participant_uuid    </text>
<text text-anchor="start" x="1463.0098" y="-1198.9" font-family="Arial" font-size="14.00" fill="#666666">[uuid]</text>
<polygon fill="none" stroke="#000000" points="1323,-1157.5 1323,-1187.5 1661,-1187.5 1661,-1157.5 1323,-1157.5"/>
<text text-anchor="start" x="1330" y="-1168.9" font-family="Arial" font-size="14.00" fill="#000000">event_uuid    </text>
<text text-anchor="start" x="1432.6802" y="-1168.9" font-family="Arial" font-size="14.00" fill="#666666">[uuid]</text>
<polygon fill="none" stroke="#000000" points="1323,-1127.5 1323,-1157.5 1661,-1157.5 1661,-1127.5 1323,-1127.5"/>
<text text-anchor="start" x="1330" y="-1138.9" font-family="Arial" font-size="14.00" fill="#000000">team_uuid    </text>
<text text-anchor="start" x="1429.5582" y="-1138.9" font-family="Arial" font-size="14.00" fill="#666666">[uuid]</text>
<polygon fill="none" stroke="#000000" points="1323,-1097.5 1323,-1127.5 1661,-1127.5 1661,-1097.5 1323,-1097.5"/>
<text text-anchor="start" x="1330" y="-1108.9" font-family="Arial" font-size="14.00" fill="#000000">feedback_text    </text>
<text text-anchor="start" x="1451.3548" y="-1108.9" font-family="Arial" font-size="14.00" fill="#666666">[varchar(2500)]</text>
<polygon fill="none" stroke="#000000" points="1323,-1067.5 1323,-1097.5 1661,-1097.5 1661,-1067.5 1323,-1067.5"/>
<text text-anchor="start" x="1330" y="-1078.9" font-family="Arial" font-size="14.00" fill="#000000">ts_created    </text>
<text text-anchor="start" x="1429.5596" y="-1078.9" font-family="Arial" font-size="14.00" fill="#666666">[timestamp without time zone]</text>
<polygon fill="none" stroke="#000000" points="1323,-1037.5 1323,-1067.5 1661,-1067.5 1661,-1037.5 1323,-1037.5"/>
<text text-anchor="start" x="1330" y="-1048.9" font-family="Arial" font-size="14.00" fill="#000000">ts_modified    </text>
<text text-anchor="start" x="1435.7728" y="-1048.9" font-family="Arial" font-size="14.00" fill="#666666">[timestamp without time zone]</text>
</g>
<!-- sr.team_event_feedback&#45;&gt;sr.participant -->
<g id="edge4" class="edge">
<title>sr.team_event_feedback:participant_uuid&#45;&gt;sr.participant:participant_uuid</title>
<path fill="none" stroke="#000000" d="M1312.8131,-1201.9494C1229.371,-1192.2435 1332.0005,-1056.5523 1271,-980 1187.4489,-875.1479 1134.07,-847.5 1000,-847.5"/>
<polygon fill="#000000" stroke="#000000" points="1313.0146,-1201.9602 1322.7571,-1206.9934 1318.0073,-1202.2301 1323,-1202.5 1323,-1202.5 1323,-1202.5 1318.0073,-1202.2301 1323.2429,-1198.0066 1313.0146,-1201.9602 1313.0146,-1201.9602"/>
<text text-anchor="start" x="1329.65" y="-1212.5" font-family="Arial" font-size="10.00" fill="#000000">FOREIGN KEY (participant_uuid) REFERENCES sr.participant(participant_uuid)</text>
</g>
</g>
</svg>
