<?xml version="1.0" encoding="UTF-8" standalone="no"?>
<!DOCTYPE svg PUBLIC "-//W3C//DTD SVG 1.1//EN"
 "http://www.w3.org/Graphics/SVG/1.1/DTD/svg11.dtd">
<!-- Generated by graphviz version 2.40.1 (20161225.0304)
 -->
<!-- Title: sr.stripe_payment Pages: 1 -->
<svg width="740pt" height="922pt"
 viewBox="0.00 0.00 740.00 922.00" xmlns="http://www.w3.org/2000/svg" xmlns:xlink="http://www.w3.org/1999/xlink">
<g id="graph0" class="graph" transform="scale(1 1) rotate(0) translate(4 918)">
<title>sr.stripe_payment</title>
<polygon fill="#ffffff" stroke="transparent" points="-4,4 -4,-918 736,-918 736,4 -4,4"/>
<!-- sr.stripe_payment -->
<g id="node1" class="node">
<title>sr.stripe_payment</title>
<polygon fill="#efefef" stroke="transparent" points="53,-832.5 53,-867.5 337,-867.5 337,-832.5 53,-832.5"/>
<polygon fill="none" stroke="#000000" points="53,-832.5 53,-867.5 337,-867.5 337,-832.5 53,-832.5"/>
<text text-anchor="start" x="59.7056" y="-845.3" font-family="Arial Bold" font-size="18.00" fill="#000000">sr.stripe_payment</text>
<text text-anchor="start" x="202.7264" y="-845.3" font-family="Arial" font-size="14.00" fill="#000000">    </text>
<text text-anchor="start" x="236.9312" y="-845.3" font-family="Arial" font-size="14.00" fill="#666666">[BASE TABLE]</text>
<polygon fill="none" stroke="#000000" points="53,-802.5 53,-832.5 337,-832.5 337,-802.5 53,-802.5"/>
<text text-anchor="start" x="60" y="-813.9" font-family="Arial" font-size="14.00" fill="#000000">payment_intent_id </text>
<text text-anchor="start" x="178.2622" y="-813.9" font-family="Arial" font-size="14.00" fill="#666666">[varchar(250)]</text>
<polygon fill="none" stroke="#000000" points="53,-772.5 53,-802.5 337,-802.5 337,-772.5 53,-772.5"/>
<text text-anchor="start" x="60" y="-783.9" font-family="Arial" font-size="14.00" fill="#000000">payment_intent_status </text>
<text text-anchor="start" x="204.7194" y="-783.9" font-family="Arial" font-size="14.00" fill="#666666">[varchar(100)]</text>
<polygon fill="none" stroke="#000000" points="53,-742.5 53,-772.5 337,-772.5 337,-742.5 53,-742.5"/>
<text text-anchor="start" x="60" y="-753.9" font-family="Arial" font-size="14.00" fill="#000000">payment_intent_amount </text>
<text text-anchor="start" x="214.0546" y="-753.9" font-family="Arial" font-size="14.00" fill="#666666">[numeric(7,2)]</text>
<polygon fill="none" stroke="#000000" points="53,-712.5 53,-742.5 337,-742.5 337,-712.5 53,-712.5"/>
<text text-anchor="start" x="60" y="-723.9" font-family="Arial" font-size="14.00" fill="#000000">payment_intent_currency </text>
<text text-anchor="start" x="221.042" y="-723.9" font-family="Arial" font-size="14.00" fill="#666666">[varchar(10)]</text>
<polygon fill="none" stroke="#000000" points="53,-682.5 53,-712.5 337,-712.5 337,-682.5 53,-682.5"/>
<text text-anchor="start" x="60" y="-693.9" font-family="Arial" font-size="14.00" fill="#000000">organization_uuid </text>
<text text-anchor="start" x="174.3702" y="-693.9" font-family="Arial" font-size="14.00" fill="#666666">[uuid]</text>
<polygon fill="none" stroke="#000000" points="53,-652.5 53,-682.5 337,-682.5 337,-652.5 53,-652.5"/>
<text text-anchor="start" x="60" y="-663.9" font-family="Arial" font-size="14.00" fill="#000000">ts_created </text>
<text text-anchor="start" x="129.2454" y="-663.9" font-family="Arial" font-size="14.00" fill="#666666">[timestamp without time zone]</text>
<polygon fill="none" stroke="#000000" points="53,-622.5 53,-652.5 337,-652.5 337,-622.5 53,-622.5"/>
<text text-anchor="start" x="60" y="-633.9" font-family="Arial" font-size="14.00" fill="#000000">ts_modified </text>
<text text-anchor="start" x="135.4586" y="-633.9" font-family="Arial" font-size="14.00" fill="#666666">[timestamp without time zone]</text>
<polygon fill="none" stroke="#000000" stroke-width="3" points="51.5,-621.5 51.5,-869.5 338.5,-869.5 338.5,-621.5 51.5,-621.5"/>
</g>
<!-- sr.organization -->
<g id="node2" class="node">
<title>sr.organization</title>
<polygon fill="#efefef" stroke="transparent" points="43,-462.5 43,-497.5 347,-497.5 347,-462.5 43,-462.5"/>
<polygon fill="none" stroke="#000000" points="43,-462.5 43,-497.5 347,-497.5 347,-462.5 43,-462.5"/>
<text text-anchor="start" x="72.2057" y="-475.3" font-family="Arial Bold" font-size="18.00" fill="#000000">sr.organization</text>
<text text-anchor="start" x="190.2263" y="-475.3" font-family="Arial" font-size="14.00" fill="#000000">    </text>
<text text-anchor="start" x="224.4311" y="-475.3" font-family="Arial" font-size="14.00" fill="#666666">[BASE TABLE]</text>
<polygon fill="none" stroke="#000000" points="43,-432.5 43,-462.5 347,-462.5 347,-432.5 43,-432.5"/>
<text text-anchor="start" x="50" y="-443.9" font-family="Arial" font-size="14.00" fill="#000000">organization_uuid    </text>
<text text-anchor="start" x="194.6844" y="-443.9" font-family="Arial" font-size="14.00" fill="#666666">[uuid]</text>
<polygon fill="none" stroke="#000000" points="43,-402.5 43,-432.5 347,-432.5 347,-402.5 43,-402.5"/>
<text text-anchor="start" x="50" y="-413.9" font-family="Arial" font-size="14.00" fill="#000000">organization_name    </text>
<text text-anchor="start" x="203.2384" y="-413.9" font-family="Arial" font-size="14.00" fill="#666666">[varchar(255)]</text>
<polygon fill="none" stroke="#000000" points="43,-372.5 43,-402.5 347,-402.5 347,-372.5 43,-372.5"/>
<text text-anchor="start" x="50" y="-383.9" font-family="Arial" font-size="14.00" fill="#000000">organization_status_id    </text>
<text text-anchor="start" x="224.2482" y="-383.9" font-family="Arial" font-size="14.00" fill="#666666">[integer]</text>
<polygon fill="none" stroke="#000000" points="43,-342.5 43,-372.5 347,-372.5 347,-342.5 43,-342.5"/>
<text text-anchor="start" x="50" y="-353.9" font-family="Arial" font-size="14.00" fill="#000000">organization_domain    </text>
<text text-anchor="start" x="214.1276" y="-353.9" font-family="Arial" font-size="14.00" fill="#666666">[varchar(255)]</text>
<polygon fill="none" stroke="#000000" points="43,-312.5 43,-342.5 347,-342.5 347,-312.5 43,-312.5"/>
<text text-anchor="start" x="50" y="-323.9" font-family="Arial" font-size="14.00" fill="#000000">organization_logo_image    </text>
<text text-anchor="start" x="240.582" y="-323.9" font-family="Arial" font-size="14.00" fill="#666666">[bytea]</text>
<polygon fill="none" stroke="#000000" points="43,-282.5 43,-312.5 347,-312.5 347,-282.5 43,-282.5"/>
<text text-anchor="start" x="50" y="-293.9" font-family="Arial" font-size="14.00" fill="#000000">primary_contact_email    </text>
<text text-anchor="start" x="224.9916" y="-293.9" font-family="Arial" font-size="14.00" fill="#666666">[varchar(100)]</text>
<polygon fill="none" stroke="#000000" points="43,-252.5 43,-282.5 347,-282.5 347,-252.5 43,-252.5"/>
<text text-anchor="start" x="50" y="-263.9" font-family="Arial" font-size="14.00" fill="#000000">street_address_1    </text>
<text text-anchor="start" x="192.3506" y="-263.9" font-family="Arial" font-size="14.00" fill="#666666">[varchar(100)]</text>
<polygon fill="none" stroke="#000000" points="43,-222.5 43,-252.5 347,-252.5 347,-222.5 43,-222.5"/>
<text text-anchor="start" x="50" y="-233.9" font-family="Arial" font-size="14.00" fill="#000000">street_address_2    </text>
<text text-anchor="start" x="192.3506" y="-233.9" font-family="Arial" font-size="14.00" fill="#666666">[varchar(100)]</text>
<polygon fill="none" stroke="#000000" points="43,-192.5 43,-222.5 347,-222.5 347,-192.5 43,-192.5"/>
<text text-anchor="start" x="50" y="-203.9" font-family="Arial" font-size="14.00" fill="#000000">city    </text>
<text text-anchor="start" x="105.202" y="-203.9" font-family="Arial" font-size="14.00" fill="#666666">[varchar(100)]</text>
<polygon fill="none" stroke="#000000" points="43,-162.5 43,-192.5 347,-192.5 347,-162.5 43,-162.5"/>
<text text-anchor="start" x="50" y="-173.9" font-family="Arial" font-size="14.00" fill="#000000">state_region    </text>
<text text-anchor="start" x="161.2314" y="-173.9" font-family="Arial" font-size="14.00" fill="#666666">[varchar(100)]</text>
<polygon fill="none" stroke="#000000" points="43,-132.5 43,-162.5 347,-162.5 347,-132.5 43,-132.5"/>
<text text-anchor="start" x="50" y="-143.9" font-family="Arial" font-size="14.00" fill="#000000">postal_code    </text>
<text text-anchor="start" x="159.6802" y="-143.9" font-family="Arial" font-size="14.00" fill="#666666">[varchar(25)]</text>
<polygon fill="none" stroke="#000000" points="43,-102.5 43,-132.5 347,-132.5 347,-102.5 43,-102.5"/>
<text text-anchor="start" x="50" y="-113.9" font-family="Arial" font-size="14.00" fill="#000000">phone    </text>
<text text-anchor="start" x="123.1178" y="-113.9" font-family="Arial" font-size="14.00" fill="#666666">[varchar(20)]</text>
<polygon fill="none" stroke="#000000" points="43,-72.5 43,-102.5 347,-102.5 347,-72.5 43,-72.5"/>
<text text-anchor="start" x="50" y="-83.9" font-family="Arial" font-size="14.00" fill="#000000">ts_created    </text>
<text text-anchor="start" x="149.5596" y="-83.9" font-family="Arial" font-size="14.00" fill="#666666">[timestamp without time zone]</text>
<polygon fill="none" stroke="#000000" points="43,-42.5 43,-72.5 347,-72.5 347,-42.5 43,-42.5"/>
<text text-anchor="start" x="49.5435" y="-53.9" font-family="Arial" font-size="14.00" fill="#000000">ts_modified    </text>
<text text-anchor="start" x="155.3163" y="-53.9" font-family="Arial" font-size="14.00" fill="#666666">[timestamp without time zone]</text>
</g>
<!-- sr.stripe_payment&#45;&gt;sr.organization -->
<g id="edge1" class="edge">
<title>sr.stripe_payment:organization_uuid&#45;&gt;sr.organization:organization_uuid</title>
<path fill="none" stroke="#000000" d="M346.8857,-694.6924C393.5937,-667.2266 399.125,-447.5 347,-447.5"/>
<polygon fill="#000000" stroke="#000000" points="346.6196,-694.7679 335.7706,-693.1712 341.8098,-696.134 337,-697.5 337,-697.5 337,-697.5 341.8098,-696.134 338.2294,-701.8288 346.6196,-694.7679 346.6196,-694.7679"/>
<text text-anchor="start" x="344.1415" y="-707.5" font-family="Arial" font-size="10.00" fill="#000000">FOREIGN KEY (organization_uuid) REFERENCES sr.organization(organization_uuid)</text>
</g>
</g>
</svg>
