<?xml version="1.0" encoding="UTF-8" standalone="no"?>
<!DOCTYPE svg PUBLIC "-//W3C//DTD SVG 1.1//EN"
 "http://www.w3.org/Graphics/SVG/1.1/DTD/svg11.dtd">
<!-- Generated by graphviz version 2.40.1 (20161225.0304)
 -->
<!-- Title: sr.team_codecommit Pages: 1 -->
<svg width="661pt" height="652pt"
 viewBox="0.00 0.00 661.00 652.00" xmlns="http://www.w3.org/2000/svg" xmlns:xlink="http://www.w3.org/1999/xlink">
<g id="graph0" class="graph" transform="scale(1 1) rotate(0) translate(4 648)">
<title>sr.team_codecommit</title>
<polygon fill="#ffffff" stroke="transparent" points="-4,4 -4,-648 657,-648 657,4 -4,4"/>
<!-- sr.team_codecommit -->
<g id="node1" class="node">
<title>sr.team_codecommit</title>
<polygon fill="#efefef" stroke="transparent" points="46,-562.5 46,-597.5 354,-597.5 354,-562.5 46,-562.5"/>
<polygon fill="none" stroke="#000000" points="46,-562.5 46,-597.5 354,-597.5 354,-562.5 46,-562.5"/>
<text text-anchor="start" x="52.7095" y="-575.3" font-family="Arial Bold" font-size="18.00" fill="#000000">sr.team_codecommit</text>
<text text-anchor="start" x="219.7225" y="-575.3" font-family="Arial" font-size="14.00" fill="#000000">    </text>
<text text-anchor="start" x="253.9273" y="-575.3" font-family="Arial" font-size="14.00" fill="#666666">[BASE TABLE]</text>
<polygon fill="none" stroke="#000000" points="46,-532.5 46,-562.5 354,-562.5 354,-532.5 46,-532.5"/>
<text text-anchor="start" x="53" y="-543.9" font-family="Arial" font-size="14.00" fill="#000000">team_uuid </text>
<text text-anchor="start" x="122.244" y="-543.9" font-family="Arial" font-size="14.00" fill="#666666">[uuid]</text>
<polygon fill="none" stroke="#000000" points="46,-502.5 46,-532.5 354,-532.5 354,-502.5 46,-502.5"/>
<text text-anchor="start" x="53" y="-513.9" font-family="Arial" font-size="14.00" fill="#000000">team_codecommit_repo_url </text>
<text text-anchor="start" x="230.3618" y="-513.9" font-family="Arial" font-size="14.00" fill="#666666">[varchar(255)]</text>
<polygon fill="none" stroke="#000000" points="46,-472.5 46,-502.5 354,-502.5 354,-472.5 46,-472.5"/>
<text text-anchor="start" x="53" y="-483.9" font-family="Arial" font-size="14.00" fill="#000000">team_codecommit_user </text>
<text text-anchor="start" x="206.2468" y="-483.9" font-family="Arial" font-size="14.00" fill="#666666">[varchar(100)]</text>
<polygon fill="none" stroke="#000000" points="46,-442.5 46,-472.5 354,-472.5 354,-442.5 46,-442.5"/>
<text text-anchor="start" x="53" y="-453.9" font-family="Arial" font-size="14.00" fill="#000000">team_codecommit_password </text>
<text text-anchor="start" x="238.9186" y="-453.9" font-family="Arial" font-size="14.00" fill="#666666">[varchar(100)]</text>
<polygon fill="none" stroke="#000000" points="46,-412.5 46,-442.5 354,-442.5 354,-412.5 46,-412.5"/>
<text text-anchor="start" x="53" y="-423.9" font-family="Arial" font-size="14.00" fill="#000000">ts_created </text>
<text text-anchor="start" x="122.2454" y="-423.9" font-family="Arial" font-size="14.00" fill="#666666">[timestamp without time zone]</text>
<polygon fill="none" stroke="#000000" points="46,-382.5 46,-412.5 354,-412.5 354,-382.5 46,-382.5"/>
<text text-anchor="start" x="53" y="-393.9" font-family="Arial" font-size="14.00" fill="#000000">ts_modified </text>
<text text-anchor="start" x="128.4586" y="-393.9" font-family="Arial" font-size="14.00" fill="#666666">[timestamp without time zone]</text>
<polygon fill="none" stroke="#000000" stroke-width="3" points="44.5,-381.5 44.5,-599.5 355.5,-599.5 355.5,-381.5 44.5,-381.5"/>
</g>
<!-- sr.team -->
<g id="node2" class="node">
<title>sr.team</title>
<polygon fill="#efefef" stroke="transparent" points="48,-222.5 48,-257.5 352,-257.5 352,-222.5 48,-222.5"/>
<polygon fill="none" stroke="#000000" points="48,-222.5 48,-257.5 352,-257.5 352,-222.5 48,-222.5"/>
<text text-anchor="start" x="106.2154" y="-235.3" font-family="Arial Bold" font-size="18.00" fill="#000000">sr.team</text>
<text text-anchor="start" x="166.2166" y="-235.3" font-family="Arial" font-size="14.00" fill="#000000">    </text>
<text text-anchor="start" x="200.4214" y="-235.3" font-family="Arial" font-size="14.00" fill="#666666">[BASE TABLE]</text>
<polygon fill="none" stroke="#000000" points="48,-192.5 48,-222.5 352,-222.5 352,-192.5 48,-192.5"/>
<text text-anchor="start" x="55" y="-203.9" font-family="Arial" font-size="14.00" fill="#000000">team_uuid    </text>
<text text-anchor="start" x="154.5582" y="-203.9" font-family="Arial" font-size="14.00" fill="#666666">[uuid]</text>
<polygon fill="none" stroke="#000000" points="48,-162.5 48,-192.5 352,-192.5 352,-162.5 48,-162.5"/>
<text text-anchor="start" x="55" y="-173.9" font-family="Arial" font-size="14.00" fill="#000000">event_uuid    </text>
<text text-anchor="start" x="157.6802" y="-173.9" font-family="Arial" font-size="14.00" fill="#666666">[uuid]</text>
<polygon fill="none" stroke="#000000" points="48,-132.5 48,-162.5 352,-162.5 352,-132.5 48,-132.5"/>
<text text-anchor="start" x="55" y="-143.9" font-family="Arial" font-size="14.00" fill="#000000">team_status_id    </text>
<text text-anchor="start" x="184.122" y="-143.9" font-family="Arial" font-size="14.00" fill="#666666">[integer]</text>
<polygon fill="none" stroke="#000000" points="48,-102.5 48,-132.5 352,-132.5 352,-102.5 48,-102.5"/>
<text text-anchor="start" x="55" y="-113.9" font-family="Arial" font-size="14.00" fill="#000000">team_details    </text>
<text text-anchor="start" x="168.5554" y="-113.9" font-family="Arial" font-size="14.00" fill="#666666">[jsonb]</text>
<polygon fill="none" stroke="#000000" points="48,-72.5 48,-102.5 352,-102.5 352,-72.5 48,-72.5"/>
<text text-anchor="start" x="55" y="-83.9" font-family="Arial" font-size="14.00" fill="#000000">ts_created    </text>
<text text-anchor="start" x="154.5596" y="-83.9" font-family="Arial" font-size="14.00" fill="#666666">[timestamp without time zone]</text>
<polygon fill="none" stroke="#000000" points="48,-42.5 48,-72.5 352,-72.5 352,-42.5 48,-42.5"/>
<text text-anchor="start" x="54.5435" y="-53.9" font-family="Arial" font-size="14.00" fill="#000000">ts_modified    </text>
<text text-anchor="start" x="160.3163" y="-53.9" font-family="Arial" font-size="14.00" fill="#666666">[timestamp without time zone]</text>
</g>
<!-- sr.team_codecommit&#45;&gt;sr.team -->
<g id="edge1" class="edge">
<title>sr.team_codecommit:team_uuid&#45;&gt;sr.team:team_uuid</title>
<path fill="none" stroke="#000000" d="M364.1144,-545.3288C429.2077,-516.3721 424.0151,-207.5 352,-207.5"/>
<polygon fill="#000000" stroke="#000000" points="363.7773,-545.4011 353.0555,-543.1002 358.8886,-546.4506 354,-547.5 354,-547.5 354,-547.5 358.8886,-546.4506 354.9445,-551.8998 363.7773,-545.4011 363.7773,-545.4011"/>
<text text-anchor="start" x="361.491" y="-557.5" font-family="Arial" font-size="10.00" fill="#000000">FOREIGN KEY (team_uuid) REFERENCES sr.team(team_uuid)</text>
</g>
</g>
</svg>
