<?xml version="1.0" encoding="UTF-8" standalone="no"?>
<!DOCTYPE svg PUBLIC "-//W3C//DTD SVG 1.1//EN"
 "http://www.w3.org/Graphics/SVG/1.1/DTD/svg11.dtd">
<!-- Generated by graphviz version 2.40.1 (20161225.0304)
 -->
<!-- Title: sr.team_member_role_member Pages: 1 -->
<svg width="1296pt" height="622pt"
 viewBox="0.00 0.00 1296.00 622.00" xmlns="http://www.w3.org/2000/svg" xmlns:xlink="http://www.w3.org/1999/xlink">
<g id="graph0" class="graph" transform="scale(1 1) rotate(0) translate(4 618)">
<title>sr.team_member_role_member</title>
<polygon fill="#ffffff" stroke="transparent" points="-4,4 -4,-618 1292,-618 1292,4 -4,4"/>
<!-- sr.team_member_role_member -->
<g id="node1" class="node">
<title>sr.team_member_role_member</title>
<polygon fill="#efefef" stroke="transparent" points="425,-532.5 425,-567.5 818,-567.5 818,-532.5 425,-532.5"/>
<polygon fill="none" stroke="#000000" points="425,-532.5 425,-567.5 818,-567.5 818,-532.5 425,-532.5"/>
<text text-anchor="start" x="431.7115" y="-545.3" font-family="Arial Bold" font-size="18.00" fill="#000000">sr.team_member_role_member</text>
<text text-anchor="start" x="683.7205" y="-545.3" font-family="Arial" font-size="14.00" fill="#000000">    </text>
<text text-anchor="start" x="717.9253" y="-545.3" font-family="Arial" font-size="14.00" fill="#666666">[BASE TABLE]</text>
<polygon fill="none" stroke="#000000" points="425,-502.5 425,-532.5 818,-532.5 818,-502.5 425,-502.5"/>
<text text-anchor="start" x="432" y="-513.9" font-family="Arial" font-size="14.00" fill="#000000">team_member_role_member_uuid </text>
<text text-anchor="start" x="650.5834" y="-513.9" font-family="Arial" font-size="14.00" fill="#666666">[uuid]</text>
<polygon fill="none" stroke="#000000" points="425,-472.5 425,-502.5 818,-502.5 818,-472.5 425,-472.5"/>
<text text-anchor="start" x="432" y="-483.9" font-family="Arial" font-size="14.00" fill="#000000">team_member_uuid </text>
<text text-anchor="start" x="560.3562" y="-483.9" font-family="Arial" font-size="14.00" fill="#666666">[uuid]</text>
<polygon fill="none" stroke="#000000" points="425,-442.5 425,-472.5 818,-472.5 818,-442.5 425,-442.5"/>
<text text-anchor="start" x="432" y="-453.9" font-family="Arial" font-size="14.00" fill="#000000">team_member_role_id </text>
<text text-anchor="start" x="575.906" y="-453.9" font-family="Arial" font-size="14.00" fill="#666666">[integer]</text>
<polygon fill="none" stroke="#000000" points="425,-412.5 425,-442.5 818,-442.5 818,-412.5 425,-412.5"/>
<text text-anchor="start" x="432" y="-423.9" font-family="Arial" font-size="14.00" fill="#000000">ts_created </text>
<text text-anchor="start" x="501.2454" y="-423.9" font-family="Arial" font-size="14.00" fill="#666666">[timestamp without time zone]</text>
<polygon fill="none" stroke="#000000" points="425,-382.5 425,-412.5 818,-412.5 818,-382.5 425,-382.5"/>
<text text-anchor="start" x="432" y="-393.9" font-family="Arial" font-size="14.00" fill="#000000">ts_modified </text>
<text text-anchor="start" x="507.4586" y="-393.9" font-family="Arial" font-size="14.00" fill="#666666">[timestamp without time zone]</text>
<polygon fill="none" stroke="#000000" stroke-width="3" points="423,-381.5 423,-569.5 819,-569.5 819,-381.5 423,-381.5"/>
</g>
<!-- sr.team_member -->
<g id="node2" class="node">
<title>sr.team_member</title>
<polygon fill="#efefef" stroke="transparent" points="259,-222.5 259,-257.5 563,-257.5 563,-222.5 259,-222.5"/>
<polygon fill="none" stroke="#000000" points="259,-222.5 259,-257.5 563,-257.5 563,-222.5 259,-222.5"/>
<text text-anchor="start" x="279.2147" y="-235.3" font-family="Arial Bold" font-size="18.00" fill="#000000">sr.team_member</text>
<text text-anchor="start" x="415.2173" y="-235.3" font-family="Arial" font-size="14.00" fill="#000000">    </text>
<text text-anchor="start" x="449.4221" y="-235.3" font-family="Arial" font-size="14.00" fill="#666666">[BASE TABLE]</text>
<polygon fill="none" stroke="#000000" points="259,-192.5 259,-222.5 563,-222.5 563,-192.5 259,-192.5"/>
<text text-anchor="start" x="266" y="-203.9" font-family="Arial" font-size="14.00" fill="#000000">team_member_uuid    </text>
<text text-anchor="start" x="424.6704" y="-203.9" font-family="Arial" font-size="14.00" fill="#666666">[uuid]</text>
<polygon fill="none" stroke="#000000" points="259,-162.5 259,-192.5 563,-192.5 563,-162.5 259,-162.5"/>
<text text-anchor="start" x="266" y="-173.9" font-family="Arial" font-size="14.00" fill="#000000">team_uuid    </text>
<text text-anchor="start" x="365.5582" y="-173.9" font-family="Arial" font-size="14.00" fill="#666666">[uuid]</text>
<polygon fill="none" stroke="#000000" points="259,-132.5 259,-162.5 563,-162.5 563,-132.5 259,-132.5"/>
<text text-anchor="start" x="266" y="-143.9" font-family="Arial" font-size="14.00" fill="#000000">participant_uuid    </text>
<text text-anchor="start" x="399.0098" y="-143.9" font-family="Arial" font-size="14.00" fill="#666666">[uuid]</text>
<polygon fill="none" stroke="#000000" points="259,-102.5 259,-132.5 563,-132.5 563,-102.5 259,-102.5"/>
<text text-anchor="start" x="266" y="-113.9" font-family="Arial" font-size="14.00" fill="#000000">ts_created    </text>
<text text-anchor="start" x="365.5596" y="-113.9" font-family="Arial" font-size="14.00" fill="#666666">[timestamp without time zone]</text>
<polygon fill="none" stroke="#000000" points="259,-72.5 259,-102.5 563,-102.5 563,-72.5 259,-72.5"/>
<text text-anchor="start" x="265.5435" y="-83.9" font-family="Arial" font-size="14.00" fill="#000000">ts_modified    </text>
<text text-anchor="start" x="371.3163" y="-83.9" font-family="Arial" font-size="14.00" fill="#666666">[timestamp without time zone]</text>
<polygon fill="none" stroke="#000000" points="259,-42.5 259,-72.5 563,-72.5 563,-42.5 259,-42.5"/>
<text text-anchor="start" x="266" y="-53.9" font-family="Arial" font-size="14.00" fill="#000000">tags    </text>
<text text-anchor="start" x="326.6606" y="-53.9" font-family="Arial" font-size="14.00" fill="#666666">[jsonb]</text>
</g>
<!-- sr.team_member_role_member&#45;&gt;sr.team_member -->
<g id="edge1" class="edge">
<title>sr.team_member_role_member:team_member_uuid&#45;&gt;sr.team_member:team_member_uuid</title>
<path fill="none" stroke="#000000" d="M414.8466,-486.6479C360.9988,-476.9619 386.3417,-387.0368 425,-337 463.7531,-286.8405 524.2469,-351.1595 563,-301 588.4064,-268.1156 604.5556,-207.5 563,-207.5"/>
<polygon fill="#000000" stroke="#000000" points="415.035,-486.6636 424.6236,-491.9842 420.0175,-487.0818 425,-487.5 425,-487.5 425,-487.5 420.0175,-487.0818 425.3764,-483.0158 415.035,-486.6636 415.035,-486.6636"/>
<text text-anchor="start" x="7.1565" y="-497.5" font-family="Arial" font-size="10.00" fill="#000000">FOREIGN KEY (team_member_uuid) REFERENCES sr.team_member(team_member_uuid)</text>
</g>
<!-- sr.team_member_role -->
<g id="node3" class="node">
<title>sr.team_member_role</title>
<polygon fill="#efefef" stroke="transparent" points="667,-222.5 667,-257.5 999,-257.5 999,-222.5 667,-222.5"/>
<polygon fill="none" stroke="#000000" points="667,-222.5 667,-257.5 999,-257.5 999,-222.5 667,-222.5"/>
<text text-anchor="start" x="681.2122" y="-235.3" font-family="Arial Bold" font-size="18.00" fill="#000000">sr.team_member_role</text>
<text text-anchor="start" x="857.2198" y="-235.3" font-family="Arial" font-size="14.00" fill="#000000">    </text>
<text text-anchor="start" x="891.4246" y="-235.3" font-family="Arial" font-size="14.00" fill="#666666">[BASE TABLE]</text>
<polygon fill="none" stroke="#000000" points="667,-192.5 667,-222.5 999,-222.5 999,-192.5 667,-192.5"/>
<text text-anchor="start" x="674" y="-203.9" font-family="Arial" font-size="14.00" fill="#000000">team_member_role_id    </text>
<text text-anchor="start" x="848.2202" y="-203.9" font-family="Arial" font-size="14.00" fill="#666666">[integer]</text>
<polygon fill="none" stroke="#000000" points="667,-162.5 667,-192.5 999,-192.5 999,-162.5 667,-162.5"/>
<text text-anchor="start" x="674" y="-173.9" font-family="Arial" font-size="14.00" fill="#000000">team_member_role_name    </text>
<text text-anchor="start" x="872.3394" y="-173.9" font-family="Arial" font-size="14.00" fill="#666666">[varchar(50)]</text>
<polygon fill="none" stroke="#000000" points="667,-132.5 667,-162.5 999,-162.5 999,-132.5 667,-132.5"/>
<text text-anchor="start" x="673.9362" y="-143.9" font-family="Arial" font-size="14.00" fill="#000000">team_member_role_description    </text>
<text text-anchor="start" x="904.9446" y="-143.9" font-family="Arial" font-size="14.00" fill="#666666">[varchar(512)]</text>
<polygon fill="none" stroke="#000000" points="667,-102.5 667,-132.5 999,-132.5 999,-102.5 667,-102.5"/>
<text text-anchor="start" x="674" y="-113.9" font-family="Arial" font-size="14.00" fill="#000000">ts_created    </text>
<text text-anchor="start" x="773.5596" y="-113.9" font-family="Arial" font-size="14.00" fill="#666666">[timestamp without time zone]</text>
<polygon fill="none" stroke="#000000" points="667,-72.5 667,-102.5 999,-102.5 999,-72.5 667,-72.5"/>
<text text-anchor="start" x="674" y="-83.9" font-family="Arial" font-size="14.00" fill="#000000">ts_modified    </text>
<text text-anchor="start" x="779.7728" y="-83.9" font-family="Arial" font-size="14.00" fill="#666666">[timestamp without time zone]</text>
<polygon fill="none" stroke="#000000" points="667,-42.5 667,-72.5 999,-72.5 999,-42.5 667,-42.5"/>
<text text-anchor="start" x="674" y="-53.9" font-family="Arial" font-size="14.00" fill="#000000">team_member_role_grants    </text>
<text text-anchor="start" x="876.23" y="-53.9" font-family="Arial" font-size="14.00" fill="#666666">[jsonb]</text>
</g>
<!-- sr.team_member_role_member&#45;&gt;sr.team_member_role -->
<g id="edge2" class="edge">
<title>sr.team_member_role_member:team_member_role_id&#45;&gt;sr.team_member_role:team_member_role_id</title>
<path fill="none" stroke="#000000" d="M827.9663,-456.4367C868.7112,-446.9422 848.9203,-376.1586 818,-337 775.2447,-282.8531 709.7553,-355.1469 667,-301 641.2475,-268.386 625.4444,-207.5 667,-207.5"/>
<polygon fill="#000000" stroke="#000000" points="827.9436,-456.439 817.5225,-453.0254 822.9718,-456.9695 818,-457.5 818,-457.5 818,-457.5 822.9718,-456.9695 818.4775,-461.9746 827.9436,-456.439 827.9436,-456.439"/>
<text text-anchor="start" x="824.937" y="-467.5" font-family="Arial" font-size="10.00" fill="#000000">FOREIGN KEY (team_member_role_id) REFERENCES sr.team_member_role(team_member_role_id)</text>
</g>
</g>
</svg>
