<?xml version="1.0" encoding="UTF-8" standalone="no"?>
<!DOCTYPE svg PUBLIC "-//W3C//DTD SVG 1.1//EN"
 "http://www.w3.org/Graphics/SVG/1.1/DTD/svg11.dtd">
<!-- Generated by graphviz version 2.40.1 (20161225.0304)
 -->
<!-- Title: sr.team_status Pages: 1 -->
<svg width="728pt" height="622pt"
 viewBox="0.00 0.00 728.00 622.00" xmlns="http://www.w3.org/2000/svg" xmlns:xlink="http://www.w3.org/1999/xlink">
<g id="graph0" class="graph" transform="scale(1 1) rotate(0) translate(4 618)">
<title>sr.team_status</title>
<polygon fill="#ffffff" stroke="transparent" points="-4,4 -4,-618 724,-618 724,4 -4,4"/>
<!-- sr.team_status -->
<g id="node1" class="node">
<title>sr.team_status</title>
<polygon fill="#efefef" stroke="transparent" points="58,-195.5 58,-230.5 332,-230.5 332,-195.5 58,-195.5"/>
<polygon fill="none" stroke="#000000" points="58,-195.5 58,-230.5 332,-230.5 332,-195.5 58,-195.5"/>
<text text-anchor="start" x="72.2039" y="-208.3" font-family="Arial Bold" font-size="18.00" fill="#000000">sr.team_status</text>
<text text-anchor="start" x="190.2281" y="-208.3" font-family="Arial" font-size="14.00" fill="#000000">    </text>
<text text-anchor="start" x="224.4329" y="-208.3" font-family="Arial" font-size="14.00" fill="#666666">[BASE TABLE]</text>
<polygon fill="none" stroke="#000000" points="58,-165.5 58,-195.5 332,-195.5 332,-165.5 58,-165.5"/>
<text text-anchor="start" x="65" y="-176.9" font-family="Arial" font-size="14.00" fill="#000000">team_status_id </text>
<text text-anchor="start" x="163.8078" y="-176.9" font-family="Arial" font-size="14.00" fill="#666666">[integer]</text>
<polygon fill="none" stroke="#000000" points="58,-135.5 58,-165.5 332,-165.5 332,-135.5 58,-135.5"/>
<text text-anchor="start" x="65" y="-146.9" font-family="Arial" font-size="14.00" fill="#000000">team_status_name </text>
<text text-anchor="start" x="187.927" y="-146.9" font-family="Arial" font-size="14.00" fill="#666666">[varchar(50)]</text>
<polygon fill="none" stroke="#000000" points="58,-105.5 58,-135.5 332,-135.5 332,-105.5 58,-105.5"/>
<text text-anchor="start" x="65" y="-116.9" font-family="Arial" font-size="14.00" fill="#000000">team_status_description </text>
<text text-anchor="start" x="220.596" y="-116.9" font-family="Arial" font-size="14.00" fill="#666666">[varchar(512)]</text>
<polygon fill="none" stroke="#000000" points="58,-75.5 58,-105.5 332,-105.5 332,-75.5 58,-75.5"/>
<text text-anchor="start" x="65" y="-86.9" font-family="Arial" font-size="14.00" fill="#000000">ts_created </text>
<text text-anchor="start" x="134.2454" y="-86.9" font-family="Arial" font-size="14.00" fill="#666666">[timestamp without time zone]</text>
<polygon fill="none" stroke="#000000" points="58,-45.5 58,-75.5 332,-75.5 332,-45.5 58,-45.5"/>
<text text-anchor="start" x="64.7006" y="-56.9" font-family="Arial" font-size="14.00" fill="#000000">ts_modified </text>
<text text-anchor="start" x="140.1592" y="-56.9" font-family="Arial" font-size="14.00" fill="#666666">[timestamp without time zone]</text>
<polygon fill="none" stroke="#000000" stroke-width="3" points="56.5,-44.5 56.5,-232.5 333.5,-232.5 333.5,-44.5 56.5,-44.5"/>
</g>
<!-- sr.team -->
<g id="node2" class="node">
<title>sr.team</title>
<polygon fill="#efefef" stroke="transparent" points="43,-535.5 43,-570.5 347,-570.5 347,-535.5 43,-535.5"/>
<polygon fill="none" stroke="#000000" points="43,-535.5 43,-570.5 347,-570.5 347,-535.5 43,-535.5"/>
<text text-anchor="start" x="101.2154" y="-548.3" font-family="Arial Bold" font-size="18.00" fill="#000000">sr.team</text>
<text text-anchor="start" x="161.2166" y="-548.3" font-family="Arial" font-size="14.00" fill="#000000">    </text>
<text text-anchor="start" x="195.4214" y="-548.3" font-family="Arial" font-size="14.00" fill="#666666">[BASE TABLE]</text>
<polygon fill="none" stroke="#000000" points="43,-505.5 43,-535.5 347,-535.5 347,-505.5 43,-505.5"/>
<text text-anchor="start" x="50" y="-516.9" font-family="Arial" font-size="14.00" fill="#000000">team_uuid    </text>
<text text-anchor="start" x="149.5582" y="-516.9" font-family="Arial" font-size="14.00" fill="#666666">[uuid]</text>
<polygon fill="none" stroke="#000000" points="43,-475.5 43,-505.5 347,-505.5 347,-475.5 43,-475.5"/>
<text text-anchor="start" x="50" y="-486.9" font-family="Arial" font-size="14.00" fill="#000000">event_uuid    </text>
<text text-anchor="start" x="152.6802" y="-486.9" font-family="Arial" font-size="14.00" fill="#666666">[uuid]</text>
<polygon fill="none" stroke="#000000" points="43,-445.5 43,-475.5 347,-475.5 347,-445.5 43,-445.5"/>
<text text-anchor="start" x="50" y="-456.9" font-family="Arial" font-size="14.00" fill="#000000">team_status_id    </text>
<text text-anchor="start" x="179.122" y="-456.9" font-family="Arial" font-size="14.00" fill="#666666">[integer]</text>
<polygon fill="none" stroke="#000000" points="43,-415.5 43,-445.5 347,-445.5 347,-415.5 43,-415.5"/>
<text text-anchor="start" x="50" y="-426.9" font-family="Arial" font-size="14.00" fill="#000000">team_details    </text>
<text text-anchor="start" x="163.5554" y="-426.9" font-family="Arial" font-size="14.00" fill="#666666">[jsonb]</text>
<polygon fill="none" stroke="#000000" points="43,-385.5 43,-415.5 347,-415.5 347,-385.5 43,-385.5"/>
<text text-anchor="start" x="50" y="-396.9" font-family="Arial" font-size="14.00" fill="#000000">ts_created    </text>
<text text-anchor="start" x="149.5596" y="-396.9" font-family="Arial" font-size="14.00" fill="#666666">[timestamp without time zone]</text>
<polygon fill="none" stroke="#000000" points="43,-355.5 43,-385.5 347,-385.5 347,-355.5 43,-355.5"/>
<text text-anchor="start" x="49.5435" y="-366.9" font-family="Arial" font-size="14.00" fill="#000000">ts_modified    </text>
<text text-anchor="start" x="155.3163" y="-366.9" font-family="Arial" font-size="14.00" fill="#666666">[timestamp without time zone]</text>
</g>
<!-- sr.team&#45;&gt;sr.team_status -->
<g id="edge1" class="edge">
<title>sr.team:team_status_id&#45;&gt;sr.team_status:team_status_id</title>
<path fill="none" stroke="#000000" d="M356.8494,-457.9069C407.4604,-429.6795 390.7821,-180.5 332,-180.5"/>
<polygon fill="#000000" stroke="#000000" points="356.6705,-457.954 345.8543,-456.1483 351.8352,-459.227 347,-460.5 347,-460.5 347,-460.5 351.8352,-459.227 348.1457,-464.8517 356.6705,-457.954 356.6705,-457.954"/>
<text text-anchor="start" x="354.2565" y="-470.5" font-family="Arial" font-size="10.00" fill="#000000">FOREIGN KEY (team_status_id) REFERENCES sr.team_status(team_status_id)</text>
</g>
</g>
</svg>
