<?xml version="1.0" encoding="UTF-8" standalone="no"?>
<!DOCTYPE svg PUBLIC "-//W3C//DTD SVG 1.1//EN"
 "http://www.w3.org/Graphics/SVG/1.1/DTD/svg11.dtd">
<!-- Generated by graphviz version 2.40.1 (20161225.0304)
 -->
<!-- Title: sr.team_member_role Pages: 1 -->
<svg width="914pt" height="622pt"
 viewBox="0.00 0.00 913.50 622.00" xmlns="http://www.w3.org/2000/svg" xmlns:xlink="http://www.w3.org/1999/xlink">
<g id="graph0" class="graph" transform="scale(1 1) rotate(0) translate(4 618)">
<title>sr.team_member_role</title>
<polygon fill="#ffffff" stroke="transparent" points="-4,4 -4,-618 909.5,-618 909.5,4 -4,4"/>
<!-- sr.team_member_role -->
<g id="node1" class="node">
<title>sr.team_member_role</title>
<polygon fill="#efefef" stroke="transparent" points="508,-225.5 508,-260.5 825,-260.5 825,-225.5 508,-225.5"/>
<polygon fill="none" stroke="#000000" points="508,-225.5 508,-260.5 825,-260.5 825,-225.5 508,-225.5"/>
<text text-anchor="start" x="514.7122" y="-238.3" font-family="Arial Bold" font-size="18.00" fill="#000000">sr.team_member_role</text>
<text text-anchor="start" x="690.7198" y="-238.3" font-family="Arial" font-size="14.00" fill="#000000">    </text>
<text text-anchor="start" x="724.9246" y="-238.3" font-family="Arial" font-size="14.00" fill="#666666">[BASE TABLE]</text>
<polygon fill="none" stroke="#000000" points="508,-195.5 508,-225.5 825,-225.5 825,-195.5 508,-195.5"/>
<text text-anchor="start" x="515" y="-206.9" font-family="Arial" font-size="14.00" fill="#000000">team_member_role_id </text>
<text text-anchor="start" x="658.906" y="-206.9" font-family="Arial" font-size="14.00" fill="#666666">[integer]</text>
<polygon fill="none" stroke="#000000" points="508,-165.5 508,-195.5 825,-195.5 825,-165.5 508,-165.5"/>
<text text-anchor="start" x="515" y="-176.9" font-family="Arial" font-size="14.00" fill="#000000">team_member_role_name </text>
<text text-anchor="start" x="683.0252" y="-176.9" font-family="Arial" font-size="14.00" fill="#666666">[varchar(50)]</text>
<polygon fill="none" stroke="#000000" points="508,-135.5 508,-165.5 825,-165.5 825,-135.5 508,-135.5"/>
<text text-anchor="start" x="515" y="-146.9" font-family="Arial" font-size="14.00" fill="#000000">team_member_role_description </text>
<text text-anchor="start" x="715.6942" y="-146.9" font-family="Arial" font-size="14.00" fill="#666666">[varchar(512)]</text>
<polygon fill="none" stroke="#000000" points="508,-105.5 508,-135.5 825,-135.5 825,-105.5 508,-105.5"/>
<text text-anchor="start" x="515" y="-116.9" font-family="Arial" font-size="14.00" fill="#000000">ts_created </text>
<text text-anchor="start" x="584.2454" y="-116.9" font-family="Arial" font-size="14.00" fill="#666666">[timestamp without time zone]</text>
<polygon fill="none" stroke="#000000" points="508,-75.5 508,-105.5 825,-105.5 825,-75.5 508,-75.5"/>
<text text-anchor="start" x="515" y="-86.9" font-family="Arial" font-size="14.00" fill="#000000">ts_modified </text>
<text text-anchor="start" x="590.4586" y="-86.9" font-family="Arial" font-size="14.00" fill="#666666">[timestamp without time zone]</text>
<polygon fill="none" stroke="#000000" points="508,-45.5 508,-75.5 825,-75.5 825,-45.5 508,-45.5"/>
<text text-anchor="start" x="515" y="-56.9" font-family="Arial" font-size="14.00" fill="#000000">team_member_role_grants </text>
<text text-anchor="start" x="686.9158" y="-56.9" font-family="Arial" font-size="14.00" fill="#666666">[jsonb]</text>
<polygon fill="none" stroke="#000000" stroke-width="3" points="506,-44.5 506,-262.5 826,-262.5 826,-44.5 506,-44.5"/>
</g>
<!-- sr.team_member_role_member -->
<g id="node2" class="node">
<title>sr.team_member_role_member</title>
<polygon fill="#efefef" stroke="transparent" points="470,-535.5 470,-570.5 863,-570.5 863,-535.5 470,-535.5"/>
<polygon fill="none" stroke="#000000" points="470,-535.5 470,-570.5 863,-570.5 863,-535.5 470,-535.5"/>
<text text-anchor="start" x="476.7115" y="-548.3" font-family="Arial Bold" font-size="18.00" fill="#000000">sr.team_member_role_member</text>
<text text-anchor="start" x="728.7205" y="-548.3" font-family="Arial" font-size="14.00" fill="#000000">    </text>
<text text-anchor="start" x="762.9253" y="-548.3" font-family="Arial" font-size="14.00" fill="#666666">[BASE TABLE]</text>
<polygon fill="none" stroke="#000000" points="470,-505.5 470,-535.5 863,-535.5 863,-505.5 470,-505.5"/>
<text text-anchor="start" x="477" y="-516.9" font-family="Arial" font-size="14.00" fill="#000000">team_member_role_member_uuid    </text>
<text text-anchor="start" x="725.8976" y="-516.9" font-family="Arial" font-size="14.00" fill="#666666">[uuid]</text>
<polygon fill="none" stroke="#000000" points="470,-475.5 470,-505.5 863,-505.5 863,-475.5 470,-475.5"/>
<text text-anchor="start" x="477" y="-486.9" font-family="Arial" font-size="14.00" fill="#000000">team_member_uuid    </text>
<text text-anchor="start" x="635.6704" y="-486.9" font-family="Arial" font-size="14.00" fill="#666666">[uuid]</text>
<polygon fill="none" stroke="#000000" points="470,-445.5 470,-475.5 863,-475.5 863,-445.5 470,-445.5"/>
<text text-anchor="start" x="477" y="-456.9" font-family="Arial" font-size="14.00" fill="#000000">team_member_role_id    </text>
<text text-anchor="start" x="651.2202" y="-456.9" font-family="Arial" font-size="14.00" fill="#666666">[integer]</text>
<polygon fill="none" stroke="#000000" points="470,-415.5 470,-445.5 863,-445.5 863,-415.5 470,-415.5"/>
<text text-anchor="start" x="477" y="-426.9" font-family="Arial" font-size="14.00" fill="#000000">ts_created    </text>
<text text-anchor="start" x="576.5596" y="-426.9" font-family="Arial" font-size="14.00" fill="#666666">[timestamp without time zone]</text>
<polygon fill="none" stroke="#000000" points="470,-385.5 470,-415.5 863,-415.5 863,-385.5 470,-385.5"/>
<text text-anchor="start" x="477" y="-396.9" font-family="Arial" font-size="14.00" fill="#000000">ts_modified    </text>
<text text-anchor="start" x="582.7728" y="-396.9" font-family="Arial" font-size="14.00" fill="#666666">[timestamp without time zone]</text>
</g>
<!-- sr.team_member_role_member&#45;&gt;sr.team_member_role -->
<g id="edge1" class="edge">
<title>sr.team_member_role_member:team_member_role_id&#45;&gt;sr.team_member_role:team_member_role_id</title>
<path fill="none" stroke="#000000" d="M459.902,-459.7828C360.0603,-445.1191 399.1248,-210.5 508,-210.5"/>
<polygon fill="#000000" stroke="#000000" points="460.0251,-459.7915 469.6812,-464.9887 465.0126,-460.1457 470,-460.5 470,-460.5 470,-460.5 465.0126,-460.1457 470.3188,-456.0113 460.0251,-459.7915 460.0251,-459.7915"/>
<text text-anchor="start" x="6.937" y="-470.5" font-family="Arial" font-size="10.00" fill="#000000">FOREIGN KEY (team_member_role_id) REFERENCES sr.team_member_role(team_member_role_id)</text>
</g>
</g>
</svg>
