<?xml version="1.0" encoding="UTF-8" standalone="no"?>
<!DOCTYPE svg PUBLIC "-//W3C//DTD SVG 1.1//EN"
 "http://www.w3.org/Graphics/SVG/1.1/DTD/svg11.dtd">
<!-- Generated by graphviz version 2.40.1 (20161225.0304)
 -->
<!-- Title: sr.team_event_feedback Pages: 1 -->
<svg width="1232pt" height="862pt"
 viewBox="0.00 0.00 1232.00 862.00" xmlns="http://www.w3.org/2000/svg" xmlns:xlink="http://www.w3.org/1999/xlink">
<g id="graph0" class="graph" transform="scale(1 1) rotate(0) translate(4 858)">
<title>sr.team_event_feedback</title>
<polygon fill="#ffffff" stroke="transparent" points="-4,4 -4,-858 1228,-858 1228,4 -4,4"/>
<!-- sr.team_event_feedback -->
<g id="node1" class="node">
<title>sr.team_event_feedback</title>
<polygon fill="#efefef" stroke="transparent" points="444,-772.5 444,-807.5 782,-807.5 782,-772.5 444,-772.5"/>
<polygon fill="none" stroke="#000000" points="444,-772.5 444,-807.5 782,-807.5 782,-772.5 444,-772.5"/>
<text text-anchor="start" x="450.6822" y="-785.3" font-family="Arial Bold" font-size="18.00" fill="#000000">sr.team_event_feedback</text>
<text text-anchor="start" x="647.7498" y="-785.3" font-family="Arial" font-size="14.00" fill="#000000">    </text>
<text text-anchor="start" x="681.9546" y="-785.3" font-family="Arial" font-size="14.00" fill="#666666">[BASE TABLE]</text>
<polygon fill="none" stroke="#000000" points="444,-742.5 444,-772.5 782,-772.5 782,-742.5 444,-742.5"/>
<text text-anchor="start" x="451" y="-753.9" font-family="Arial" font-size="14.00" fill="#000000">team_event_feedback_uuid </text>
<text text-anchor="start" x="626.8512" y="-753.9" font-family="Arial" font-size="14.00" fill="#666666">[uuid]</text>
<polygon fill="none" stroke="#000000" points="444,-712.5 444,-742.5 782,-742.5 782,-712.5 444,-712.5"/>
<text text-anchor="start" x="451" y="-723.9" font-family="Arial" font-size="14.00" fill="#000000">participant_uuid </text>
<text text-anchor="start" x="553.6956" y="-723.9" font-family="Arial" font-size="14.00" fill="#666666">[uuid]</text>
<polygon fill="none" stroke="#000000" points="444,-682.5 444,-712.5 782,-712.5 782,-682.5 444,-682.5"/>
<text text-anchor="start" x="451" y="-693.9" font-family="Arial" font-size="14.00" fill="#000000">event_uuid </text>
<text text-anchor="start" x="523.366" y="-693.9" font-family="Arial" font-size="14.00" fill="#666666">[uuid]</text>
<polygon fill="none" stroke="#000000" points="444,-652.5 444,-682.5 782,-682.5 782,-652.5 444,-652.5"/>
<text text-anchor="start" x="451" y="-663.9" font-family="Arial" font-size="14.00" fill="#000000">team_uuid </text>
<text text-anchor="start" x="520.244" y="-663.9" font-family="Arial" font-size="14.00" fill="#666666">[uuid]</text>
<polygon fill="none" stroke="#000000" points="444,-622.5 444,-652.5 782,-652.5 782,-622.5 444,-622.5"/>
<text text-anchor="start" x="451" y="-633.9" font-family="Arial" font-size="14.00" fill="#000000">feedback_text </text>
<text text-anchor="start" x="542.0406" y="-633.9" font-family="Arial" font-size="14.00" fill="#666666">[varchar(2500)]</text>
<polygon fill="none" stroke="#000000" points="444,-592.5 444,-622.5 782,-622.5 782,-592.5 444,-592.5"/>
<text text-anchor="start" x="451" y="-603.9" font-family="Arial" font-size="14.00" fill="#000000">ts_created </text>
<text text-anchor="start" x="520.2454" y="-603.9" font-family="Arial" font-size="14.00" fill="#666666">[timestamp without time zone]</text>
<polygon fill="none" stroke="#000000" points="444,-562.5 444,-592.5 782,-592.5 782,-562.5 444,-562.5"/>
<text text-anchor="start" x="451" y="-573.9" font-family="Arial" font-size="14.00" fill="#000000">ts_modified </text>
<text text-anchor="start" x="526.4586" y="-573.9" font-family="Arial" font-size="14.00" fill="#666666">[timestamp without time zone]</text>
<polygon fill="none" stroke="#000000" stroke-width="3" points="442.5,-561.5 442.5,-809.5 783.5,-809.5 783.5,-561.5 442.5,-561.5"/>
</g>
<!-- sr.participant -->
<g id="node2" class="node">
<title>sr.participant</title>
<polygon fill="#efefef" stroke="transparent" points="43,-327.5 43,-362.5 347,-362.5 347,-327.5 43,-327.5"/>
<polygon fill="none" stroke="#000000" points="43,-327.5 43,-362.5 347,-362.5 347,-327.5 43,-327.5"/>
<text text-anchor="start" x="79.7108" y="-340.3" font-family="Arial Bold" font-size="18.00" fill="#000000">sr.participant</text>
<text text-anchor="start" x="182.7212" y="-340.3" font-family="Arial" font-size="14.00" fill="#000000">    </text>
<text text-anchor="start" x="216.926" y="-340.3" font-family="Arial" font-size="14.00" fill="#666666">[BASE TABLE]</text>
<polygon fill="none" stroke="#000000" points="43,-297.5 43,-327.5 347,-327.5 347,-297.5 43,-297.5"/>
<text text-anchor="start" x="50" y="-308.9" font-family="Arial" font-size="14.00" fill="#000000">participant_uuid    </text>
<text text-anchor="start" x="183.0098" y="-308.9" font-family="Arial" font-size="14.00" fill="#666666">[uuid]</text>
<polygon fill="none" stroke="#000000" points="43,-267.5 43,-297.5 347,-297.5 347,-267.5 43,-267.5"/>
<text text-anchor="start" x="50" y="-278.9" font-family="Arial" font-size="14.00" fill="#000000">user_uuid    </text>
<text text-anchor="start" x="145.6676" y="-278.9" font-family="Arial" font-size="14.00" fill="#666666">[uuid]</text>
<polygon fill="none" stroke="#000000" points="43,-237.5 43,-267.5 347,-267.5 347,-237.5 43,-237.5"/>
<text text-anchor="start" x="50" y="-248.9" font-family="Arial" font-size="14.00" fill="#000000">event_uuid    </text>
<text text-anchor="start" x="152.6802" y="-248.9" font-family="Arial" font-size="14.00" fill="#666666">[uuid]</text>
<polygon fill="none" stroke="#000000" points="43,-207.5 43,-237.5 347,-237.5 347,-207.5 43,-207.5"/>
<text text-anchor="start" x="50" y="-218.9" font-family="Arial" font-size="14.00" fill="#000000">is_active    </text>
<text text-anchor="start" x="138.6564" y="-218.9" font-family="Arial" font-size="14.00" fill="#666666">[boolean]</text>
<polygon fill="none" stroke="#000000" points="43,-177.5 43,-207.5 347,-207.5 347,-177.5 43,-177.5"/>
<text text-anchor="start" x="50" y="-188.9" font-family="Arial" font-size="14.00" fill="#000000">ts_created    </text>
<text text-anchor="start" x="149.5596" y="-188.9" font-family="Arial" font-size="14.00" fill="#666666">[timestamp without time zone]</text>
<polygon fill="none" stroke="#000000" points="43,-147.5 43,-177.5 347,-177.5 347,-147.5 43,-147.5"/>
<text text-anchor="start" x="49.5435" y="-158.9" font-family="Arial" font-size="14.00" fill="#000000">ts_modified    </text>
<text text-anchor="start" x="155.3163" y="-158.9" font-family="Arial" font-size="14.00" fill="#666666">[timestamp without time zone]</text>
<polygon fill="none" stroke="#000000" points="43,-117.5 43,-147.5 347,-147.5 347,-117.5 43,-117.5"/>
<text text-anchor="start" x="50" y="-128.9" font-family="Arial" font-size="14.00" fill="#000000">tags    </text>
<text text-anchor="start" x="110.6606" y="-128.9" font-family="Arial" font-size="14.00" fill="#666666">[jsonb]</text>
</g>
<!-- sr.team_event_feedback&#45;&gt;sr.participant -->
<g id="edge1" class="edge">
<title>sr.team_event_feedback:participant_uuid&#45;&gt;sr.participant:participant_uuid</title>
<path fill="none" stroke="#000000" d="M433.7357,-725.6498C356.2266,-695.7114 438.0083,-312.5 347,-312.5"/>
<polygon fill="#000000" stroke="#000000" points="434.1586,-725.7259 443.2017,-731.9286 439.0793,-726.613 444,-727.5 444,-727.5 444,-727.5 439.0793,-726.613 444.7983,-723.0714 434.1586,-725.7259 434.1586,-725.7259"/>
<text text-anchor="start" x="80.65" y="-737.5" font-family="Arial" font-size="10.00" fill="#000000">FOREIGN KEY (participant_uuid) REFERENCES sr.participant(participant_uuid)</text>
</g>
<!-- sr.event -->
<g id="node3" class="node">
<title>sr.event</title>
<polygon fill="#efefef" stroke="transparent" points="452,-402.5 452,-437.5 773,-437.5 773,-402.5 452,-402.5"/>
<polygon fill="none" stroke="#000000" points="452,-402.5 452,-437.5 773,-437.5 773,-402.5 452,-402.5"/>
<text text-anchor="start" x="516.7084" y="-415.3" font-family="Arial Bold" font-size="18.00" fill="#000000">sr.event</text>
<text text-anchor="start" x="580.7236" y="-415.3" font-family="Arial" font-size="14.00" fill="#000000">    </text>
<text text-anchor="start" x="614.9284" y="-415.3" font-family="Arial" font-size="14.00" fill="#666666">[BASE TABLE]</text>
<polygon fill="none" stroke="#000000" points="452,-372.5 452,-402.5 773,-402.5 773,-372.5 452,-372.5"/>
<text text-anchor="start" x="459" y="-383.9" font-family="Arial" font-size="14.00" fill="#000000">event_uuid    </text>
<text text-anchor="start" x="561.6802" y="-383.9" font-family="Arial" font-size="14.00" fill="#666666">[uuid]</text>
<polygon fill="none" stroke="#000000" points="452,-342.5 452,-372.5 773,-372.5 773,-342.5 452,-342.5"/>
<text text-anchor="start" x="459" y="-353.9" font-family="Arial" font-size="14.00" fill="#000000">organization_uuid    </text>
<text text-anchor="start" x="603.6844" y="-353.9" font-family="Arial" font-size="14.00" fill="#666666">[uuid]</text>
<polygon fill="none" stroke="#000000" points="452,-312.5 452,-342.5 773,-342.5 773,-312.5 452,-312.5"/>
<text text-anchor="start" x="459" y="-323.9" font-family="Arial" font-size="14.00" fill="#000000">event_status_id    </text>
<text text-anchor="start" x="591.244" y="-323.9" font-family="Arial" font-size="14.00" fill="#666666">[integer]</text>
<polygon fill="none" stroke="#000000" points="452,-282.5 452,-312.5 773,-312.5 773,-282.5 452,-282.5"/>
<text text-anchor="start" x="459" y="-293.9" font-family="Arial" font-size="14.00" fill="#000000">cloud_accounts_enabled    </text>
<text text-anchor="start" x="648.0476" y="-293.9" font-family="Arial" font-size="14.00" fill="#666666">[boolean]</text>
<polygon fill="none" stroke="#000000" points="452,-252.5 452,-282.5 773,-282.5 773,-252.5 452,-252.5"/>
<text text-anchor="start" x="458.8682" y="-263.9" font-family="Arial" font-size="14.00" fill="#000000">ts_event_start    </text>
<text text-anchor="start" x="580.9916" y="-263.9" font-family="Arial" font-size="14.00" fill="#666666">[timestamp without time zone]</text>
<polygon fill="none" stroke="#000000" points="452,-222.5 452,-252.5 773,-252.5 773,-222.5 452,-222.5"/>
<text text-anchor="start" x="459" y="-233.9" font-family="Arial" font-size="14.00" fill="#000000">ts_event_end    </text>
<text text-anchor="start" x="577.2468" y="-233.9" font-family="Arial" font-size="14.00" fill="#666666">[timestamp without time zone]</text>
<polygon fill="none" stroke="#000000" points="452,-192.5 452,-222.5 773,-222.5 773,-192.5 452,-192.5"/>
<text text-anchor="start" x="459" y="-203.9" font-family="Arial" font-size="14.00" fill="#000000">event_details    </text>
<text text-anchor="start" x="575.6774" y="-203.9" font-family="Arial" font-size="14.00" fill="#666666">[jsonb]</text>
<polygon fill="none" stroke="#000000" points="452,-162.5 452,-192.5 773,-192.5 773,-162.5 452,-162.5"/>
<text text-anchor="start" x="459" y="-173.9" font-family="Arial" font-size="14.00" fill="#000000">ts_created    </text>
<text text-anchor="start" x="558.5596" y="-173.9" font-family="Arial" font-size="14.00" fill="#666666">[timestamp without time zone]</text>
<polygon fill="none" stroke="#000000" points="452,-132.5 452,-162.5 773,-162.5 773,-132.5 452,-132.5"/>
<text text-anchor="start" x="459" y="-143.9" font-family="Arial" font-size="14.00" fill="#000000">ts_modified    </text>
<text text-anchor="start" x="564.7728" y="-143.9" font-family="Arial" font-size="14.00" fill="#666666">[timestamp without time zone]</text>
<polygon fill="none" stroke="#000000" points="452,-102.5 452,-132.5 773,-132.5 773,-102.5 452,-102.5"/>
<text text-anchor="start" x="459" y="-113.9" font-family="Arial" font-size="14.00" fill="#000000">event_type_id    </text>
<text text-anchor="start" x="580.3534" y="-113.9" font-family="Arial" font-size="14.00" fill="#666666">[integer]</text>
<polygon fill="none" stroke="#000000" points="452,-72.5 452,-102.5 773,-102.5 773,-72.5 452,-72.5"/>
<text text-anchor="start" x="459" y="-83.9" font-family="Arial" font-size="14.00" fill="#000000">event_team_form_mode_id    </text>
<text text-anchor="start" x="663.582" y="-83.9" font-family="Arial" font-size="14.00" fill="#666666">[integer]</text>
<polygon fill="none" stroke="#000000" points="452,-42.5 452,-72.5 773,-72.5 773,-42.5 452,-42.5"/>
<text text-anchor="start" x="459" y="-53.9" font-family="Arial" font-size="14.00" fill="#000000">event_judging_minutes    </text>
<text text-anchor="start" x="637.1402" y="-53.9" font-family="Arial" font-size="14.00" fill="#666666">[integer]</text>
</g>
<!-- sr.team_event_feedback&#45;&gt;sr.event -->
<g id="edge2" class="edge">
<title>sr.team_event_feedback:event_uuid&#45;&gt;sr.event:event_uuid</title>
<path fill="none" stroke="#000000" d="M433.8287,-696.7854C366.2282,-686.7728 392.8539,-574.0479 444,-517 493.0961,-462.2386 723.9039,-535.7614 773,-481 800.7401,-450.0589 814.5556,-387.5 773,-387.5"/>
<polygon fill="#000000" stroke="#000000" points="434.0246,-696.799 443.6846,-701.9889 439.0123,-697.1495 444,-697.5 444,-697.5 444,-697.5 439.0123,-697.1495 444.3154,-693.0111 434.0246,-696.799 434.0246,-696.799"/>
<text text-anchor="start" x="146.146" y="-707.5" font-family="Arial" font-size="10.00" fill="#000000">FOREIGN KEY (event_uuid) REFERENCES sr.event(event_uuid)</text>
</g>
<!-- sr.team -->
<g id="node4" class="node">
<title>sr.team</title>
<polygon fill="#efefef" stroke="transparent" points="877,-312.5 877,-347.5 1181,-347.5 1181,-312.5 877,-312.5"/>
<polygon fill="none" stroke="#000000" points="877,-312.5 877,-347.5 1181,-347.5 1181,-312.5 877,-312.5"/>
<text text-anchor="start" x="935.2154" y="-325.3" font-family="Arial Bold" font-size="18.00" fill="#000000">sr.team</text>
<text text-anchor="start" x="995.2166" y="-325.3" font-family="Arial" font-size="14.00" fill="#000000">    </text>
<text text-anchor="start" x="1029.4214" y="-325.3" font-family="Arial" font-size="14.00" fill="#666666">[BASE TABLE]</text>
<polygon fill="none" stroke="#000000" points="877,-282.5 877,-312.5 1181,-312.5 1181,-282.5 877,-282.5"/>
<text text-anchor="start" x="884" y="-293.9" font-family="Arial" font-size="14.00" fill="#000000">team_uuid    </text>
<text text-anchor="start" x="983.5582" y="-293.9" font-family="Arial" font-size="14.00" fill="#666666">[uuid]</text>
<polygon fill="none" stroke="#000000" points="877,-252.5 877,-282.5 1181,-282.5 1181,-252.5 877,-252.5"/>
<text text-anchor="start" x="884" y="-263.9" font-family="Arial" font-size="14.00" fill="#000000">event_uuid    </text>
<text text-anchor="start" x="986.6802" y="-263.9" font-family="Arial" font-size="14.00" fill="#666666">[uuid]</text>
<polygon fill="none" stroke="#000000" points="877,-222.5 877,-252.5 1181,-252.5 1181,-222.5 877,-222.5"/>
<text text-anchor="start" x="884" y="-233.9" font-family="Arial" font-size="14.00" fill="#000000">team_status_id    </text>
<text text-anchor="start" x="1013.122" y="-233.9" font-family="Arial" font-size="14.00" fill="#666666">[integer]</text>
<polygon fill="none" stroke="#000000" points="877,-192.5 877,-222.5 1181,-222.5 1181,-192.5 877,-192.5"/>
<text text-anchor="start" x="884" y="-203.9" font-family="Arial" font-size="14.00" fill="#000000">team_details    </text>
<text text-anchor="start" x="997.5554" y="-203.9" font-family="Arial" font-size="14.00" fill="#666666">[jsonb]</text>
<polygon fill="none" stroke="#000000" points="877,-162.5 877,-192.5 1181,-192.5 1181,-162.5 877,-162.5"/>
<text text-anchor="start" x="884" y="-173.9" font-family="Arial" font-size="14.00" fill="#000000">ts_created    </text>
<text text-anchor="start" x="983.5596" y="-173.9" font-family="Arial" font-size="14.00" fill="#666666">[timestamp without time zone]</text>
<polygon fill="none" stroke="#000000" points="877,-132.5 877,-162.5 1181,-162.5 1181,-132.5 877,-132.5"/>
<text text-anchor="start" x="883.5435" y="-143.9" font-family="Arial" font-size="14.00" fill="#000000">ts_modified    </text>
<text text-anchor="start" x="989.3163" y="-143.9" font-family="Arial" font-size="14.00" fill="#666666">[timestamp without time zone]</text>
</g>
<!-- sr.team_event_feedback&#45;&gt;sr.team -->
<g id="edge3" class="edge">
<title>sr.team_event_feedback:team_uuid&#45;&gt;sr.team:team_uuid</title>
<path fill="none" stroke="#000000" d="M792.0837,-665.5093C860.7577,-636.3863 795.7584,-297.5 877,-297.5"/>
<polygon fill="#000000" stroke="#000000" points="791.8106,-665.5631 781.1284,-663.0852 786.9053,-666.5316 782,-667.5 782,-667.5 782,-667.5 786.9053,-666.5316 782.8716,-671.9148 791.8106,-665.5631 791.8106,-665.5631"/>
<text text-anchor="start" x="789.491" y="-677.5" font-family="Arial" font-size="10.00" fill="#000000">FOREIGN KEY (team_uuid) REFERENCES sr.team(team_uuid)</text>
</g>
</g>
</svg>
