<?xml version="1.0" encoding="UTF-8" standalone="no"?>
<!DOCTYPE svg PUBLIC "-//W3C//DTD SVG 1.1//EN"
 "http://www.w3.org/Graphics/SVG/1.1/DTD/svg11.dtd">
<!-- Generated by graphviz version 2.40.1 (20161225.0304)
 -->
<!-- Title: sr.team Pages: 1 -->
<svg width="2520pt" height="1229pt"
 viewBox="0.00 0.00 2520.00 1229.00" xmlns="http://www.w3.org/2000/svg" xmlns:xlink="http://www.w3.org/1999/xlink">
<g id="graph0" class="graph" transform="scale(1 1) rotate(0) translate(4 1225)">
<title>sr.team</title>
<polygon fill="#ffffff" stroke="transparent" points="-4,4 -4,-1225 2516,-1225 2516,4 -4,4"/>
<!-- sr.team -->
<g id="node1" class="node">
<title>sr.team</title>
<polygon fill="#efefef" stroke="transparent" points="1094,-742.5 1094,-777.5 1368,-777.5 1368,-742.5 1094,-742.5"/>
<polygon fill="none" stroke="#000000" points="1094,-742.5 1094,-777.5 1368,-777.5 1368,-742.5 1094,-742.5"/>
<text text-anchor="start" x="1137.2154" y="-755.3" font-family="Arial Bold" font-size="18.00" fill="#000000">sr.team</text>
<text text-anchor="start" x="1197.2166" y="-755.3" font-family="Arial" font-size="14.00" fill="#000000">    </text>
<text text-anchor="start" x="1231.4214" y="-755.3" font-family="Arial" font-size="14.00" fill="#666666">[BASE TABLE]</text>
<polygon fill="none" stroke="#000000" points="1094,-712.5 1094,-742.5 1368,-742.5 1368,-712.5 1094,-712.5"/>
<text text-anchor="start" x="1101" y="-723.9" font-family="Arial" font-size="14.00" fill="#000000">team_uuid </text>
<text text-anchor="start" x="1170.244" y="-723.9" font-family="Arial" font-size="14.00" fill="#666666">[uuid]</text>
<polygon fill="none" stroke="#000000" points="1094,-682.5 1094,-712.5 1368,-712.5 1368,-682.5 1094,-682.5"/>
<text text-anchor="start" x="1101" y="-693.9" font-family="Arial" font-size="14.00" fill="#000000">event_uuid </text>
<text text-anchor="start" x="1173.366" y="-693.9" font-family="Arial" font-size="14.00" fill="#666666">[uuid]</text>
<polygon fill="none" stroke="#000000" points="1094,-652.5 1094,-682.5 1368,-682.5 1368,-652.5 1094,-652.5"/>
<text text-anchor="start" x="1101" y="-663.9" font-family="Arial" font-size="14.00" fill="#000000">team_status_id </text>
<text text-anchor="start" x="1199.8078" y="-663.9" font-family="Arial" font-size="14.00" fill="#666666">[integer]</text>
<polygon fill="none" stroke="#000000" points="1094,-622.5 1094,-652.5 1368,-652.5 1368,-622.5 1094,-622.5"/>
<text text-anchor="start" x="1101" y="-633.9" font-family="Arial" font-size="14.00" fill="#000000">team_details </text>
<text text-anchor="start" x="1184.2412" y="-633.9" font-family="Arial" font-size="14.00" fill="#666666">[jsonb]</text>
<polygon fill="none" stroke="#000000" points="1094,-592.5 1094,-622.5 1368,-622.5 1368,-592.5 1094,-592.5"/>
<text text-anchor="start" x="1101" y="-603.9" font-family="Arial" font-size="14.00" fill="#000000">ts_created </text>
<text text-anchor="start" x="1170.2454" y="-603.9" font-family="Arial" font-size="14.00" fill="#666666">[timestamp without time zone]</text>
<polygon fill="none" stroke="#000000" points="1094,-562.5 1094,-592.5 1368,-592.5 1368,-562.5 1094,-562.5"/>
<text text-anchor="start" x="1100.7006" y="-573.9" font-family="Arial" font-size="14.00" fill="#000000">ts_modified </text>
<text text-anchor="start" x="1176.1592" y="-573.9" font-family="Arial" font-size="14.00" fill="#666666">[timestamp without time zone]</text>
<polygon fill="none" stroke="#000000" stroke-width="3" points="1092.5,-561.5 1092.5,-779.5 1369.5,-779.5 1369.5,-561.5 1092.5,-561.5"/>
</g>
<!-- sr.event -->
<g id="node8" class="node">
<title>sr.event</title>
<polygon fill="#efefef" stroke="transparent" points="862,-402.5 862,-437.5 1183,-437.5 1183,-402.5 862,-402.5"/>
<polygon fill="none" stroke="#000000" points="862,-402.5 862,-437.5 1183,-437.5 1183,-402.5 862,-402.5"/>
<text text-anchor="start" x="926.7084" y="-415.3" font-family="Arial Bold" font-size="18.00" fill="#000000">sr.event</text>
<text text-anchor="start" x="990.7236" y="-415.3" font-family="Arial" font-size="14.00" fill="#000000">    </text>
<text text-anchor="start" x="1024.9284" y="-415.3" font-family="Arial" font-size="14.00" fill="#666666">[BASE TABLE]</text>
<polygon fill="none" stroke="#000000" points="862,-372.5 862,-402.5 1183,-402.5 1183,-372.5 862,-372.5"/>
<text text-anchor="start" x="869" y="-383.9" font-family="Arial" font-size="14.00" fill="#000000">event_uuid    </text>
<text text-anchor="start" x="971.6802" y="-383.9" font-family="Arial" font-size="14.00" fill="#666666">[uuid]</text>
<polygon fill="none" stroke="#000000" points="862,-342.5 862,-372.5 1183,-372.5 1183,-342.5 862,-342.5"/>
<text text-anchor="start" x="869" y="-353.9" font-family="Arial" font-size="14.00" fill="#000000">organization_uuid    </text>
<text text-anchor="start" x="1013.6844" y="-353.9" font-family="Arial" font-size="14.00" fill="#666666">[uuid]</text>
<polygon fill="none" stroke="#000000" points="862,-312.5 862,-342.5 1183,-342.5 1183,-312.5 862,-312.5"/>
<text text-anchor="start" x="869" y="-323.9" font-family="Arial" font-size="14.00" fill="#000000">event_status_id    </text>
<text text-anchor="start" x="1001.244" y="-323.9" font-family="Arial" font-size="14.00" fill="#666666">[integer]</text>
<polygon fill="none" stroke="#000000" points="862,-282.5 862,-312.5 1183,-312.5 1183,-282.5 862,-282.5"/>
<text text-anchor="start" x="869" y="-293.9" font-family="Arial" font-size="14.00" fill="#000000">cloud_accounts_enabled    </text>
<text text-anchor="start" x="1058.0476" y="-293.9" font-family="Arial" font-size="14.00" fill="#666666">[boolean]</text>
<polygon fill="none" stroke="#000000" points="862,-252.5 862,-282.5 1183,-282.5 1183,-252.5 862,-252.5"/>
<text text-anchor="start" x="868.8682" y="-263.9" font-family="Arial" font-size="14.00" fill="#000000">ts_event_start    </text>
<text text-anchor="start" x="990.9916" y="-263.9" font-family="Arial" font-size="14.00" fill="#666666">[timestamp without time zone]</text>
<polygon fill="none" stroke="#000000" points="862,-222.5 862,-252.5 1183,-252.5 1183,-222.5 862,-222.5"/>
<text text-anchor="start" x="869" y="-233.9" font-family="Arial" font-size="14.00" fill="#000000">ts_event_end    </text>
<text text-anchor="start" x="987.2468" y="-233.9" font-family="Arial" font-size="14.00" fill="#666666">[timestamp without time zone]</text>
<polygon fill="none" stroke="#000000" points="862,-192.5 862,-222.5 1183,-222.5 1183,-192.5 862,-192.5"/>
<text text-anchor="start" x="869" y="-203.9" font-family="Arial" font-size="14.00" fill="#000000">event_details    </text>
<text text-anchor="start" x="985.6774" y="-203.9" font-family="Arial" font-size="14.00" fill="#666666">[jsonb]</text>
<polygon fill="none" stroke="#000000" points="862,-162.5 862,-192.5 1183,-192.5 1183,-162.5 862,-162.5"/>
<text text-anchor="start" x="869" y="-173.9" font-family="Arial" font-size="14.00" fill="#000000">ts_created    </text>
<text text-anchor="start" x="968.5596" y="-173.9" font-family="Arial" font-size="14.00" fill="#666666">[timestamp without time zone]</text>
<polygon fill="none" stroke="#000000" points="862,-132.5 862,-162.5 1183,-162.5 1183,-132.5 862,-132.5"/>
<text text-anchor="start" x="869" y="-143.9" font-family="Arial" font-size="14.00" fill="#000000">ts_modified    </text>
<text text-anchor="start" x="974.7728" y="-143.9" font-family="Arial" font-size="14.00" fill="#666666">[timestamp without time zone]</text>
<polygon fill="none" stroke="#000000" points="862,-102.5 862,-132.5 1183,-132.5 1183,-102.5 862,-102.5"/>
<text text-anchor="start" x="869" y="-113.9" font-family="Arial" font-size="14.00" fill="#000000">event_type_id    </text>
<text text-anchor="start" x="990.3534" y="-113.9" font-family="Arial" font-size="14.00" fill="#666666">[integer]</text>
<polygon fill="none" stroke="#000000" points="862,-72.5 862,-102.5 1183,-102.5 1183,-72.5 862,-72.5"/>
<text text-anchor="start" x="869" y="-83.9" font-family="Arial" font-size="14.00" fill="#000000">event_team_form_mode_id    </text>
<text text-anchor="start" x="1073.582" y="-83.9" font-family="Arial" font-size="14.00" fill="#666666">[integer]</text>
<polygon fill="none" stroke="#000000" points="862,-42.5 862,-72.5 1183,-72.5 1183,-42.5 862,-42.5"/>
<text text-anchor="start" x="869" y="-53.9" font-family="Arial" font-size="14.00" fill="#000000">event_judging_minutes    </text>
<text text-anchor="start" x="1047.1402" y="-53.9" font-family="Arial" font-size="14.00" fill="#666666">[integer]</text>
</g>
<!-- sr.team&#45;&gt;sr.event -->
<g id="edge7" class="edge">
<title>sr.team:event_uuid&#45;&gt;sr.event:event_uuid</title>
<path fill="none" stroke="#000000" d="M1083.879,-696.8246C1016.9752,-687.3551 1051.1683,-580.5282 1094,-517 1117.8531,-481.621 1159.1469,-516.379 1183,-481 1206.2306,-446.5442 1224.5556,-387.5 1183,-387.5"/>
<polygon fill="#000000" stroke="#000000" points="1084.0222,-696.8341 1093.7003,-701.99 1089.0111,-697.167 1094,-697.5 1094,-697.5 1094,-697.5 1089.0111,-697.167 1094.2997,-693.01 1084.0222,-696.8341 1084.0222,-696.8341"/>
<text text-anchor="start" x="796.146" y="-707.5" font-family="Arial" font-size="10.00" fill="#000000">FOREIGN KEY (event_uuid) REFERENCES sr.event(event_uuid)</text>
</g>
<!-- sr.team_status -->
<g id="node9" class="node">
<title>sr.team_status</title>
<polygon fill="#efefef" stroke="transparent" points="1287,-297.5 1287,-332.5 1591,-332.5 1591,-297.5 1287,-297.5"/>
<polygon fill="none" stroke="#000000" points="1287,-297.5 1287,-332.5 1591,-332.5 1591,-297.5 1287,-297.5"/>
<text text-anchor="start" x="1316.2039" y="-310.3" font-family="Arial Bold" font-size="18.00" fill="#000000">sr.team_status</text>
<text text-anchor="start" x="1434.2281" y="-310.3" font-family="Arial" font-size="14.00" fill="#000000">    </text>
<text text-anchor="start" x="1468.4329" y="-310.3" font-family="Arial" font-size="14.00" fill="#666666">[BASE TABLE]</text>
<polygon fill="none" stroke="#000000" points="1287,-267.5 1287,-297.5 1591,-297.5 1591,-267.5 1287,-267.5"/>
<text text-anchor="start" x="1294" y="-278.9" font-family="Arial" font-size="14.00" fill="#000000">team_status_id    </text>
<text text-anchor="start" x="1423.122" y="-278.9" font-family="Arial" font-size="14.00" fill="#666666">[integer]</text>
<polygon fill="none" stroke="#000000" points="1287,-237.5 1287,-267.5 1591,-267.5 1591,-237.5 1287,-237.5"/>
<text text-anchor="start" x="1294" y="-248.9" font-family="Arial" font-size="14.00" fill="#000000">team_status_name    </text>
<text text-anchor="start" x="1447.2412" y="-248.9" font-family="Arial" font-size="14.00" fill="#666666">[varchar(50)]</text>
<polygon fill="none" stroke="#000000" points="1287,-207.5 1287,-237.5 1591,-237.5 1591,-207.5 1287,-207.5"/>
<text text-anchor="start" x="1294" y="-218.9" font-family="Arial" font-size="14.00" fill="#000000">team_status_description    </text>
<text text-anchor="start" x="1479.9102" y="-218.9" font-family="Arial" font-size="14.00" fill="#666666">[varchar(512)]</text>
<polygon fill="none" stroke="#000000" points="1287,-177.5 1287,-207.5 1591,-207.5 1591,-177.5 1287,-177.5"/>
<text text-anchor="start" x="1294" y="-188.9" font-family="Arial" font-size="14.00" fill="#000000">ts_created    </text>
<text text-anchor="start" x="1393.5596" y="-188.9" font-family="Arial" font-size="14.00" fill="#666666">[timestamp without time zone]</text>
<polygon fill="none" stroke="#000000" points="1287,-147.5 1287,-177.5 1591,-177.5 1591,-147.5 1287,-147.5"/>
<text text-anchor="start" x="1293.5435" y="-158.9" font-family="Arial" font-size="14.00" fill="#000000">ts_modified    </text>
<text text-anchor="start" x="1399.3163" y="-158.9" font-family="Arial" font-size="14.00" fill="#666666">[timestamp without time zone]</text>
</g>
<!-- sr.team&#45;&gt;sr.team_status -->
<g id="edge8" class="edge">
<title>sr.team:team_status_id&#45;&gt;sr.team_status:team_status_id</title>
<path fill="none" stroke="#000000" d="M1378.2076,-667.0379C1500.2907,-655.3053 1299.7148,-423.6583 1287,-376 1276.2881,-335.8488 1245.4444,-282.5 1287,-282.5"/>
<polygon fill="#000000" stroke="#000000" points="1377.9898,-667.0477 1367.7965,-663.0046 1372.9949,-667.2739 1368,-667.5 1368,-667.5 1368,-667.5 1372.9949,-667.2739 1368.2035,-671.9954 1377.9898,-667.0477 1377.9898,-667.0477"/>
<text text-anchor="start" x="1375.2565" y="-677.5" font-family="Arial" font-size="10.00" fill="#000000">FOREIGN KEY (team_status_id) REFERENCES sr.team_status(team_status_id)</text>
</g>
<!-- sr.team_member -->
<g id="node2" class="node">
<title>sr.team_member</title>
<polygon fill="#efefef" stroke="transparent" points="43,-1112.5 43,-1147.5 347,-1147.5 347,-1112.5 43,-1112.5"/>
<polygon fill="none" stroke="#000000" points="43,-1112.5 43,-1147.5 347,-1147.5 347,-1112.5 43,-1112.5"/>
<text text-anchor="start" x="63.2147" y="-1125.3" font-family="Arial Bold" font-size="18.00" fill="#000000">sr.team_member</text>
<text text-anchor="start" x="199.2173" y="-1125.3" font-family="Arial" font-size="14.00" fill="#000000">    </text>
<text text-anchor="start" x="233.4221" y="-1125.3" font-family="Arial" font-size="14.00" fill="#666666">[BASE TABLE]</text>
<polygon fill="none" stroke="#000000" points="43,-1082.5 43,-1112.5 347,-1112.5 347,-1082.5 43,-1082.5"/>
<text text-anchor="start" x="50" y="-1093.9" font-family="Arial" font-size="14.00" fill="#000000">team_member_uuid    </text>
<text text-anchor="start" x="208.6704" y="-1093.9" font-family="Arial" font-size="14.00" fill="#666666">[uuid]</text>
<polygon fill="none" stroke="#000000" points="43,-1052.5 43,-1082.5 347,-1082.5 347,-1052.5 43,-1052.5"/>
<text text-anchor="start" x="50" y="-1063.9" font-family="Arial" font-size="14.00" fill="#000000">team_uuid    </text>
<text text-anchor="start" x="149.5582" y="-1063.9" font-family="Arial" font-size="14.00" fill="#666666">[uuid]</text>
<polygon fill="none" stroke="#000000" points="43,-1022.5 43,-1052.5 347,-1052.5 347,-1022.5 43,-1022.5"/>
<text text-anchor="start" x="50" y="-1033.9" font-family="Arial" font-size="14.00" fill="#000000">participant_uuid    </text>
<text text-anchor="start" x="183.0098" y="-1033.9" font-family="Arial" font-size="14.00" fill="#666666">[uuid]</text>
<polygon fill="none" stroke="#000000" points="43,-992.5 43,-1022.5 347,-1022.5 347,-992.5 43,-992.5"/>
<text text-anchor="start" x="50" y="-1003.9" font-family="Arial" font-size="14.00" fill="#000000">ts_created    </text>
<text text-anchor="start" x="149.5596" y="-1003.9" font-family="Arial" font-size="14.00" fill="#666666">[timestamp without time zone]</text>
<polygon fill="none" stroke="#000000" points="43,-962.5 43,-992.5 347,-992.5 347,-962.5 43,-962.5"/>
<text text-anchor="start" x="49.5435" y="-973.9" font-family="Arial" font-size="14.00" fill="#000000">ts_modified    </text>
<text text-anchor="start" x="155.3163" y="-973.9" font-family="Arial" font-size="14.00" fill="#666666">[timestamp without time zone]</text>
<polygon fill="none" stroke="#000000" points="43,-932.5 43,-962.5 347,-962.5 347,-932.5 43,-932.5"/>
<text text-anchor="start" x="50" y="-943.9" font-family="Arial" font-size="14.00" fill="#000000">tags    </text>
<text text-anchor="start" x="110.6606" y="-943.9" font-family="Arial" font-size="14.00" fill="#666666">[jsonb]</text>
</g>
<!-- sr.team_member&#45;&gt;sr.team -->
<g id="edge1" class="edge">
<title>sr.team_member:team_uuid&#45;&gt;sr.team:team_uuid</title>
<path fill="none" stroke="#000000" d="M357.2158,-1066.862C433.5854,-1056.5064 332.579,-922.729 399,-860 513.3072,-752.0466 936.7739,-727.5 1094,-727.5"/>
<polygon fill="#000000" stroke="#000000" points="356.9806,-1066.8766 346.7195,-1063.0087 351.9903,-1067.1883 347,-1067.5 347,-1067.5 347,-1067.5 351.9903,-1067.1883 347.2805,-1071.9913 356.9806,-1066.8766 356.9806,-1066.8766"/>
<text text-anchor="start" x="204.991" y="-1051.5" font-family="Arial" font-size="10.00" fill="#000000">FOREIGN KEY (team_uuid) REFERENCES sr.team(team_uuid)</text>
</g>
<!-- sr.team_external_link -->
<g id="node3" class="node">
<title>sr.team_external_link</title>
<polygon fill="#efefef" stroke="transparent" points="451,-1142.5 451,-1177.5 763,-1177.5 763,-1142.5 451,-1142.5"/>
<polygon fill="none" stroke="#000000" points="451,-1142.5 451,-1177.5 763,-1177.5 763,-1142.5 451,-1142.5"/>
<text text-anchor="start" x="457.7052" y="-1155.3" font-family="Arial Bold" font-size="18.00" fill="#000000">sr.team_external_link</text>
<text text-anchor="start" x="628.7268" y="-1155.3" font-family="Arial" font-size="14.00" fill="#000000">    </text>
<text text-anchor="start" x="662.9316" y="-1155.3" font-family="Arial" font-size="14.00" fill="#666666">[BASE TABLE]</text>
<polygon fill="none" stroke="#000000" points="451,-1112.5 451,-1142.5 763,-1142.5 763,-1112.5 451,-1112.5"/>
<text text-anchor="start" x="458" y="-1123.9" font-family="Arial" font-size="14.00" fill="#000000">team_external_link_uuid    </text>
<text text-anchor="start" x="643.9074" y="-1123.9" font-family="Arial" font-size="14.00" fill="#666666">[uuid]</text>
<polygon fill="none" stroke="#000000" points="451,-1082.5 451,-1112.5 763,-1112.5 763,-1082.5 451,-1082.5"/>
<text text-anchor="start" x="458" y="-1093.9" font-family="Arial" font-size="14.00" fill="#000000">team_uuid    </text>
<text text-anchor="start" x="557.5582" y="-1093.9" font-family="Arial" font-size="14.00" fill="#666666">[uuid]</text>
<polygon fill="none" stroke="#000000" points="451,-1052.5 451,-1082.5 763,-1082.5 763,-1052.5 451,-1052.5"/>
<text text-anchor="start" x="458" y="-1063.9" font-family="Arial" font-size="14.00" fill="#000000">external_link_type_id    </text>
<text text-anchor="start" x="623.6816" y="-1063.9" font-family="Arial" font-size="14.00" fill="#666666">[integer]</text>
<polygon fill="none" stroke="#000000" points="451,-1022.5 451,-1052.5 763,-1052.5 763,-1022.5 451,-1022.5"/>
<text text-anchor="start" x="458" y="-1033.9" font-family="Arial" font-size="14.00" fill="#000000">team_external_link_name    </text>
<text text-anchor="start" x="652.4614" y="-1033.9" font-family="Arial" font-size="14.00" fill="#666666">[varchar(50)]</text>
<polygon fill="none" stroke="#000000" points="451,-992.5 451,-1022.5 763,-1022.5 763,-992.5 451,-992.5"/>
<text text-anchor="start" x="458" y="-1003.9" font-family="Arial" font-size="14.00" fill="#000000">team_external_link_url    </text>
<text text-anchor="start" x="633.0028" y="-1003.9" font-family="Arial" font-size="14.00" fill="#666666">[varchar(1000)]</text>
<polygon fill="none" stroke="#000000" points="451,-962.5 451,-992.5 763,-992.5 763,-962.5 451,-962.5"/>
<text text-anchor="start" x="458" y="-973.9" font-family="Arial" font-size="14.00" fill="#000000">team_private    </text>
<text text-anchor="start" x="573.1094" y="-973.9" font-family="Arial" font-size="14.00" fill="#666666">[boolean]</text>
<polygon fill="none" stroke="#000000" points="451,-932.5 451,-962.5 763,-962.5 763,-932.5 451,-932.5"/>
<text text-anchor="start" x="458" y="-943.9" font-family="Arial" font-size="14.00" fill="#000000">ts_created    </text>
<text text-anchor="start" x="557.5596" y="-943.9" font-family="Arial" font-size="14.00" fill="#666666">[timestamp without time zone]</text>
<polygon fill="none" stroke="#000000" points="451,-902.5 451,-932.5 763,-932.5 763,-902.5 451,-902.5"/>
<text text-anchor="start" x="458" y="-913.9" font-family="Arial" font-size="14.00" fill="#000000">ts_modified    </text>
<text text-anchor="start" x="563.7728" y="-913.9" font-family="Arial" font-size="14.00" fill="#666666">[timestamp without time zone]</text>
</g>
<!-- sr.team_external_link&#45;&gt;sr.team -->
<g id="edge2" class="edge">
<title>sr.team_external_link:team_uuid&#45;&gt;sr.team:team_uuid</title>
<path fill="none" stroke="#000000" d="M773.0137,-1097.0024C863.0793,-1087.4216 750.0053,-941.7881 815,-860 900.4042,-752.529 956.7269,-727.5 1094,-727.5"/>
<polygon fill="#000000" stroke="#000000" points="772.9877,-1097.0036 762.7766,-1093.0055 767.9938,-1097.2518 763,-1097.5 763,-1097.5 763,-1097.5 767.9938,-1097.2518 763.2234,-1101.9945 772.9877,-1097.0036 772.9877,-1097.0036"/>
<text text-anchor="start" x="620.991" y="-1081.5" font-family="Arial" font-size="10.00" fill="#000000">FOREIGN KEY (team_uuid) REFERENCES sr.team(team_uuid)</text>
</g>
<!-- sr.team_score_item -->
<g id="node4" class="node">
<title>sr.team_score_item</title>
<polygon fill="#efefef" stroke="transparent" points="867,-1142.5 867,-1177.5 1171,-1177.5 1171,-1142.5 867,-1142.5"/>
<polygon fill="none" stroke="#000000" points="867,-1142.5 867,-1177.5 1171,-1177.5 1171,-1142.5 867,-1142.5"/>
<text text-anchor="start" x="876.2095" y="-1155.3" font-family="Arial Bold" font-size="18.00" fill="#000000">sr.team_score_item</text>
<text text-anchor="start" x="1034.2225" y="-1155.3" font-family="Arial" font-size="14.00" fill="#000000">    </text>
<text text-anchor="start" x="1068.4273" y="-1155.3" font-family="Arial" font-size="14.00" fill="#666666">[BASE TABLE]</text>
<polygon fill="none" stroke="#000000" points="867,-1112.5 867,-1142.5 1171,-1142.5 1171,-1112.5 867,-1112.5"/>
<text text-anchor="start" x="874" y="-1123.9" font-family="Arial" font-size="14.00" fill="#000000">team_score_item_uuid    </text>
<text text-anchor="start" x="1049.7896" y="-1123.9" font-family="Arial" font-size="14.00" fill="#666666">[uuid]</text>
<polygon fill="none" stroke="#000000" points="867,-1082.5 867,-1112.5 1171,-1112.5 1171,-1082.5 867,-1082.5"/>
<text text-anchor="start" x="874" y="-1093.9" font-family="Arial" font-size="14.00" fill="#000000">team_uuid    </text>
<text text-anchor="start" x="973.5582" y="-1093.9" font-family="Arial" font-size="14.00" fill="#666666">[uuid]</text>
<polygon fill="none" stroke="#000000" points="867,-1052.5 867,-1082.5 1171,-1082.5 1171,-1052.5 867,-1052.5"/>
<text text-anchor="start" x="874" y="-1063.9" font-family="Arial" font-size="14.00" fill="#000000">judge_uuid    </text>
<text text-anchor="start" x="976.6788" y="-1063.9" font-family="Arial" font-size="14.00" fill="#666666">[uuid]</text>
<polygon fill="none" stroke="#000000" points="867,-1022.5 867,-1052.5 1171,-1052.5 1171,-1022.5 867,-1022.5"/>
<text text-anchor="start" x="874" y="-1033.9" font-family="Arial" font-size="14.00" fill="#000000">judging_criterion_uuid    </text>
<text text-anchor="start" x="1045.1234" y="-1033.9" font-family="Arial" font-size="14.00" fill="#666666">[uuid]</text>
<polygon fill="none" stroke="#000000" points="867,-992.5 867,-1022.5 1171,-1022.5 1171,-992.5 867,-992.5"/>
<text text-anchor="start" x="874" y="-1003.9" font-family="Arial" font-size="14.00" fill="#000000">team_score_item_value    </text>
<text text-anchor="start" x="1056.7896" y="-1003.9" font-family="Arial" font-size="14.00" fill="#666666">[numeric(2,1)]</text>
<polygon fill="none" stroke="#000000" points="867,-962.5 867,-992.5 1171,-992.5 1171,-962.5 867,-962.5"/>
<text text-anchor="start" x="874" y="-973.9" font-family="Arial" font-size="14.00" fill="#000000">team_score_item_details    </text>
<text text-anchor="start" x="1063.7868" y="-973.9" font-family="Arial" font-size="14.00" fill="#666666">[jsonb]</text>
<polygon fill="none" stroke="#000000" points="867,-932.5 867,-962.5 1171,-962.5 1171,-932.5 867,-932.5"/>
<text text-anchor="start" x="874" y="-943.9" font-family="Arial" font-size="14.00" fill="#000000">ts_created    </text>
<text text-anchor="start" x="973.5596" y="-943.9" font-family="Arial" font-size="14.00" fill="#666666">[timestamp without time zone]</text>
<polygon fill="none" stroke="#000000" points="867,-902.5 867,-932.5 1171,-932.5 1171,-902.5 867,-902.5"/>
<text text-anchor="start" x="873.5435" y="-913.9" font-family="Arial" font-size="14.00" fill="#000000">ts_modified    </text>
<text text-anchor="start" x="979.3163" y="-913.9" font-family="Arial" font-size="14.00" fill="#666666">[timestamp without time zone]</text>
</g>
<!-- sr.team_score_item&#45;&gt;sr.team -->
<g id="edge3" class="edge">
<title>sr.team_score_item:team_uuid&#45;&gt;sr.team:team_uuid</title>
<path fill="none" stroke="#000000" d="M1181.013,-1094.7566C1220.3213,-1071.097 1197.3428,-901.3958 1171,-860 1150.718,-828.1283 1114.282,-855.8717 1094,-824 1070.974,-787.8163 1051.1111,-727.5 1094,-727.5"/>
<polygon fill="#000000" stroke="#000000" points="1180.6446,-1094.8575 1169.8109,-1093.1599 1175.8223,-1096.1787 1171,-1097.5 1171,-1097.5 1171,-1097.5 1175.8223,-1096.1787 1172.1891,-1101.8401 1180.6446,-1094.8575 1180.6446,-1094.8575"/>
<text text-anchor="start" x="1178.491" y="-1107.5" font-family="Arial" font-size="10.00" fill="#000000">FOREIGN KEY (team_uuid) REFERENCES sr.team(team_uuid)</text>
</g>
<!-- sr.team_event_feedback -->
<g id="node5" class="node">
<title>sr.team_event_feedback</title>
<polygon fill="#efefef" stroke="transparent" points="1275,-1127.5 1275,-1162.5 1613,-1162.5 1613,-1127.5 1275,-1127.5"/>
<polygon fill="none" stroke="#000000" points="1275,-1127.5 1275,-1162.5 1613,-1162.5 1613,-1127.5 1275,-1127.5"/>
<text text-anchor="start" x="1281.6822" y="-1140.3" font-family="Arial Bold" font-size="18.00" fill="#000000">sr.team_event_feedback</text>
<text text-anchor="start" x="1478.7498" y="-1140.3" font-family="Arial" font-size="14.00" fill="#000000">    </text>
<text text-anchor="start" x="1512.9546" y="-1140.3" font-family="Arial" font-size="14.00" fill="#666666">[BASE TABLE]</text>
<polygon fill="none" stroke="#000000" points="1275,-1097.5 1275,-1127.5 1613,-1127.5 1613,-1097.5 1275,-1097.5"/>
<text text-anchor="start" x="1282" y="-1108.9" font-family="Arial" font-size="14.00" fill="#000000">team_event_feedback_uuid    </text>
<text text-anchor="start" x="1488.1654" y="-1108.9" font-family="Arial" font-size="14.00" fill="#666666">[uuid]</text>
<polygon fill="none" stroke="#000000" points="1275,-1067.5 1275,-1097.5 1613,-1097.5 1613,-1067.5 1275,-1067.5"/>
<text text-anchor="start" x="1282" y="-1078.9" font-family="Arial" font-size="14.00" fill="#000000">participant_uuid    </text>
<text text-anchor="start" x="1415.0098" y="-1078.9" font-family="Arial" font-size="14.00" fill="#666666">[uuid]</text>
<polygon fill="none" stroke="#000000" points="1275,-1037.5 1275,-1067.5 1613,-1067.5 1613,-1037.5 1275,-1037.5"/>
<text text-anchor="start" x="1282" y="-1048.9" font-family="Arial" font-size="14.00" fill="#000000">event_uuid    </text>
<text text-anchor="start" x="1384.6802" y="-1048.9" font-family="Arial" font-size="14.00" fill="#666666">[uuid]</text>
<polygon fill="none" stroke="#000000" points="1275,-1007.5 1275,-1037.5 1613,-1037.5 1613,-1007.5 1275,-1007.5"/>
<text text-anchor="start" x="1282" y="-1018.9" font-family="Arial" font-size="14.00" fill="#000000">team_uuid    </text>
<text text-anchor="start" x="1381.5582" y="-1018.9" font-family="Arial" font-size="14.00" fill="#666666">[uuid]</text>
<polygon fill="none" stroke="#000000" points="1275,-977.5 1275,-1007.5 1613,-1007.5 1613,-977.5 1275,-977.5"/>
<text text-anchor="start" x="1282" y="-988.9" font-family="Arial" font-size="14.00" fill="#000000">feedback_text    </text>
<text text-anchor="start" x="1403.3548" y="-988.9" font-family="Arial" font-size="14.00" fill="#666666">[varchar(2500)]</text>
<polygon fill="none" stroke="#000000" points="1275,-947.5 1275,-977.5 1613,-977.5 1613,-947.5 1275,-947.5"/>
<text text-anchor="start" x="1282" y="-958.9" font-family="Arial" font-size="14.00" fill="#000000">ts_created    </text>
<text text-anchor="start" x="1381.5596" y="-958.9" font-family="Arial" font-size="14.00" fill="#666666">[timestamp without time zone]</text>
<polygon fill="none" stroke="#000000" points="1275,-917.5 1275,-947.5 1613,-947.5 1613,-917.5 1275,-917.5"/>
<text text-anchor="start" x="1282" y="-928.9" font-family="Arial" font-size="14.00" fill="#000000">ts_modified    </text>
<text text-anchor="start" x="1387.7728" y="-928.9" font-family="Arial" font-size="14.00" fill="#666666">[timestamp without time zone]</text>
</g>
<!-- sr.team_event_feedback&#45;&gt;sr.team -->
<g id="edge4" class="edge">
<title>sr.team_event_feedback:team_uuid&#45;&gt;sr.team:team_uuid</title>
<path fill="none" stroke="#000000" d="M1264.7836,-1021.6461C1213.091,-1012.2924 1243.4917,-928.2138 1275,-875 1299.0178,-834.4368 1343.9822,-864.5632 1368,-824 1389.8516,-787.0952 1410.8889,-727.5 1368,-727.5"/>
<polygon fill="#000000" stroke="#000000" points="1265.0347,-1021.6671 1274.6252,-1026.9844 1270.0174,-1022.0835 1275,-1022.5 1275,-1022.5 1275,-1022.5 1270.0174,-1022.0835 1275.3748,-1018.0156 1265.0347,-1021.6671 1265.0347,-1021.6671"/>
<text text-anchor="start" x="1282.491" y="-1032.5" font-family="Arial" font-size="10.00" fill="#000000">FOREIGN KEY (team_uuid) REFERENCES sr.team(team_uuid)</text>
</g>
<!-- sr.team_codecommit -->
<g id="node6" class="node">
<title>sr.team_codecommit</title>
<polygon fill="#efefef" stroke="transparent" points="1718,-1112.5 1718,-1147.5 2035,-1147.5 2035,-1112.5 1718,-1112.5"/>
<polygon fill="none" stroke="#000000" points="1718,-1112.5 1718,-1147.5 2035,-1147.5 2035,-1112.5 1718,-1112.5"/>
<text text-anchor="start" x="1729.2095" y="-1125.3" font-family="Arial Bold" font-size="18.00" fill="#000000">sr.team_codecommit</text>
<text text-anchor="start" x="1896.2225" y="-1125.3" font-family="Arial" font-size="14.00" fill="#000000">    </text>
<text text-anchor="start" x="1930.4273" y="-1125.3" font-family="Arial" font-size="14.00" fill="#666666">[BASE TABLE]</text>
<polygon fill="none" stroke="#000000" points="1718,-1082.5 1718,-1112.5 2035,-1112.5 2035,-1082.5 1718,-1082.5"/>
<text text-anchor="start" x="1725" y="-1093.9" font-family="Arial" font-size="14.00" fill="#000000">team_uuid    </text>
<text text-anchor="start" x="1824.5582" y="-1093.9" font-family="Arial" font-size="14.00" fill="#666666">[uuid]</text>
<polygon fill="none" stroke="#000000" points="1718,-1052.5 1718,-1082.5 2035,-1082.5 2035,-1052.5 1718,-1052.5"/>
<text text-anchor="start" x="1725" y="-1063.9" font-family="Arial" font-size="14.00" fill="#000000">team_codecommit_repo_url    </text>
<text text-anchor="start" x="1932.676" y="-1063.9" font-family="Arial" font-size="14.00" fill="#666666">[varchar(255)]</text>
<polygon fill="none" stroke="#000000" points="1718,-1022.5 1718,-1052.5 2035,-1052.5 2035,-1022.5 1718,-1022.5"/>
<text text-anchor="start" x="1725" y="-1033.9" font-family="Arial" font-size="14.00" fill="#000000">team_codecommit_user    </text>
<text text-anchor="start" x="1908.561" y="-1033.9" font-family="Arial" font-size="14.00" fill="#666666">[varchar(100)]</text>
<polygon fill="none" stroke="#000000" points="1718,-992.5 1718,-1022.5 2035,-1022.5 2035,-992.5 1718,-992.5"/>
<text text-anchor="start" x="1724.824" y="-1003.9" font-family="Arial" font-size="14.00" fill="#000000">team_codecommit_password    </text>
<text text-anchor="start" x="1941.0568" y="-1003.9" font-family="Arial" font-size="14.00" fill="#666666">[varchar(100)]</text>
<polygon fill="none" stroke="#000000" points="1718,-962.5 1718,-992.5 2035,-992.5 2035,-962.5 1718,-962.5"/>
<text text-anchor="start" x="1725" y="-973.9" font-family="Arial" font-size="14.00" fill="#000000">ts_created    </text>
<text text-anchor="start" x="1824.5596" y="-973.9" font-family="Arial" font-size="14.00" fill="#666666">[timestamp without time zone]</text>
<polygon fill="none" stroke="#000000" points="1718,-932.5 1718,-962.5 2035,-962.5 2035,-932.5 1718,-932.5"/>
<text text-anchor="start" x="1725" y="-943.9" font-family="Arial" font-size="14.00" fill="#000000">ts_modified    </text>
<text text-anchor="start" x="1830.7728" y="-943.9" font-family="Arial" font-size="14.00" fill="#666666">[timestamp without time zone]</text>
</g>
<!-- sr.team_codecommit&#45;&gt;sr.team -->
<g id="edge5" class="edge">
<title>sr.team_codecommit:team_uuid&#45;&gt;sr.team:team_uuid</title>
<path fill="none" stroke="#000000" d="M1707.978,-1096.9996C1617.8446,-1087.3659 1731.1823,-940.9499 1665,-860 1573.5125,-748.0985 1512.5403,-727.5 1368,-727.5"/>
<polygon fill="#000000" stroke="#000000" points="1708.0124,-1097.0012 1717.7756,-1101.9944 1713.0062,-1097.2506 1718,-1097.5 1718,-1097.5 1718,-1097.5 1713.0062,-1097.2506 1718.2244,-1093.0056 1708.0124,-1097.0012 1708.0124,-1097.0012"/>
<text text-anchor="start" x="1501.241" y="-1081.5" font-family="Arial" font-size="10.00" fill="#000000">FOREIGN KEY (team_uuid) REFERENCES sr.team(team_uuid)</text>
</g>
<!-- sr.team_analysis_result -->
<g id="node7" class="node">
<title>sr.team_analysis_result</title>
<polygon fill="#efefef" stroke="transparent" points="2139,-1112.5 2139,-1147.5 2469,-1147.5 2469,-1112.5 2139,-1112.5"/>
<polygon fill="none" stroke="#000000" points="2139,-1112.5 2139,-1147.5 2469,-1147.5 2469,-1112.5 2139,-1112.5"/>
<text text-anchor="start" x="2145.7052" y="-1125.3" font-family="Arial Bold" font-size="18.00" fill="#000000">sr.team_analysis_result</text>
<text text-anchor="start" x="2334.7268" y="-1125.3" font-family="Arial" font-size="14.00" fill="#000000">    </text>
<text text-anchor="start" x="2368.9316" y="-1125.3" font-family="Arial" font-size="14.00" fill="#666666">[BASE TABLE]</text>
<polygon fill="none" stroke="#000000" points="2139,-1082.5 2139,-1112.5 2469,-1112.5 2469,-1082.5 2139,-1082.5"/>
<text text-anchor="start" x="2146" y="-1093.9" font-family="Arial" font-size="14.00" fill="#000000">team_analysis_result_uuid    </text>
<text text-anchor="start" x="2345.9074" y="-1093.9" font-family="Arial" font-size="14.00" fill="#666666">[uuid]</text>
<polygon fill="none" stroke="#000000" points="2139,-1052.5 2139,-1082.5 2469,-1082.5 2469,-1052.5 2139,-1052.5"/>
<text text-anchor="start" x="2146" y="-1063.9" font-family="Arial" font-size="14.00" fill="#000000">team_uuid    </text>
<text text-anchor="start" x="2245.5582" y="-1063.9" font-family="Arial" font-size="14.00" fill="#666666">[uuid]</text>
<polygon fill="none" stroke="#000000" points="2139,-1022.5 2139,-1052.5 2469,-1052.5 2469,-1022.5 2139,-1022.5"/>
<text text-anchor="start" x="2146" y="-1033.9" font-family="Arial" font-size="14.00" fill="#000000">team_analysis_result_source    </text>
<text text-anchor="start" x="2361.4614" y="-1033.9" font-family="Arial" font-size="14.00" fill="#666666">[varchar(50)]</text>
<polygon fill="none" stroke="#000000" points="2139,-992.5 2139,-1022.5 2469,-1022.5 2469,-992.5 2139,-992.5"/>
<text text-anchor="start" x="2146" y="-1003.9" font-family="Arial" font-size="14.00" fill="#000000">team_analysis_result_json    </text>
<text text-anchor="start" x="2345.1248" y="-1003.9" font-family="Arial" font-size="14.00" fill="#666666">[jsonb]</text>
<polygon fill="none" stroke="#000000" points="2139,-962.5 2139,-992.5 2469,-992.5 2469,-962.5 2139,-962.5"/>
<text text-anchor="start" x="2146" y="-973.9" font-family="Arial" font-size="14.00" fill="#000000">ts_created    </text>
<text text-anchor="start" x="2245.5596" y="-973.9" font-family="Arial" font-size="14.00" fill="#666666">[timestamp without time zone]</text>
<polygon fill="none" stroke="#000000" points="2139,-932.5 2139,-962.5 2469,-962.5 2469,-932.5 2139,-932.5"/>
<text text-anchor="start" x="2146" y="-943.9" font-family="Arial" font-size="14.00" fill="#000000">ts_modified    </text>
<text text-anchor="start" x="2251.7728" y="-943.9" font-family="Arial" font-size="14.00" fill="#666666">[timestamp without time zone]</text>
</g>
<!-- sr.team_analysis_result&#45;&gt;sr.team -->
<g id="edge6" class="edge">
<title>sr.team_analysis_result:team_uuid&#45;&gt;sr.team:team_uuid</title>
<path fill="none" stroke="#000000" d="M2128.785,-1066.8611C2052.4296,-1056.4904 2153.6135,-922.5245 2087,-860 1968.5394,-748.811 1530.4682,-727.5 1368,-727.5"/>
<polygon fill="#000000" stroke="#000000" points="2129.0195,-1066.8757 2138.719,-1071.9912 2134.0098,-1067.1878 2139,-1067.5 2139,-1067.5 2139,-1067.5 2134.0098,-1067.1878 2139.281,-1063.0088 2129.0195,-1066.8757 2129.0195,-1066.8757"/>
<text text-anchor="start" x="1847.491" y="-1077.5" font-family="Arial" font-size="10.00" fill="#000000">FOREIGN KEY (team_uuid) REFERENCES sr.team(team_uuid)</text>
</g>
</g>
</svg>
