<?xml version="1.0" encoding="UTF-8" standalone="no"?>
<!DOCTYPE svg PUBLIC "-//W3C//DTD SVG 1.1//EN"
 "http://www.w3.org/Graphics/SVG/1.1/DTD/svg11.dtd">
<!-- Generated by graphviz version 2.40.1 (20161225.0304)
 -->
<!-- Title: sr.team_analysis_result Pages: 1 -->
<svg width="683pt" height="652pt"
 viewBox="0.00 0.00 683.00 652.00" xmlns="http://www.w3.org/2000/svg" xmlns:xlink="http://www.w3.org/1999/xlink">
<g id="graph0" class="graph" transform="scale(1 1) rotate(0) translate(4 648)">
<title>sr.team_analysis_result</title>
<polygon fill="#ffffff" stroke="transparent" points="-4,4 -4,-648 679,-648 679,4 -4,4"/>
<!-- sr.team_analysis_result -->
<g id="node1" class="node">
<title>sr.team_analysis_result</title>
<polygon fill="#efefef" stroke="transparent" points="46,-562.5 46,-597.5 376,-597.5 376,-562.5 46,-562.5"/>
<polygon fill="none" stroke="#000000" points="46,-562.5 46,-597.5 376,-597.5 376,-562.5 46,-562.5"/>
<text text-anchor="start" x="52.7052" y="-575.3" font-family="Arial Bold" font-size="18.00" fill="#000000">sr.team_analysis_result</text>
<text text-anchor="start" x="241.7268" y="-575.3" font-family="Arial" font-size="14.00" fill="#000000">    </text>
<text text-anchor="start" x="275.9316" y="-575.3" font-family="Arial" font-size="14.00" fill="#666666">[BASE TABLE]</text>
<polygon fill="none" stroke="#000000" points="46,-532.5 46,-562.5 376,-562.5 376,-532.5 46,-532.5"/>
<text text-anchor="start" x="53" y="-543.9" font-family="Arial" font-size="14.00" fill="#000000">team_analysis_result_uuid </text>
<text text-anchor="start" x="222.5932" y="-543.9" font-family="Arial" font-size="14.00" fill="#666666">[uuid]</text>
<polygon fill="none" stroke="#000000" points="46,-502.5 46,-532.5 376,-532.5 376,-502.5 46,-502.5"/>
<text text-anchor="start" x="53" y="-513.9" font-family="Arial" font-size="14.00" fill="#000000">team_uuid </text>
<text text-anchor="start" x="122.244" y="-513.9" font-family="Arial" font-size="14.00" fill="#666666">[uuid]</text>
<polygon fill="none" stroke="#000000" points="46,-472.5 46,-502.5 376,-502.5 376,-472.5 46,-472.5"/>
<text text-anchor="start" x="53" y="-483.9" font-family="Arial" font-size="14.00" fill="#000000">team_analysis_result_source </text>
<text text-anchor="start" x="238.1472" y="-483.9" font-family="Arial" font-size="14.00" fill="#666666">[varchar(50)]</text>
<polygon fill="none" stroke="#000000" points="46,-442.5 46,-472.5 376,-472.5 376,-442.5 46,-442.5"/>
<text text-anchor="start" x="53" y="-453.9" font-family="Arial" font-size="14.00" fill="#000000">team_analysis_result_json </text>
<text text-anchor="start" x="221.8106" y="-453.9" font-family="Arial" font-size="14.00" fill="#666666">[jsonb]</text>
<polygon fill="none" stroke="#000000" points="46,-412.5 46,-442.5 376,-442.5 376,-412.5 46,-412.5"/>
<text text-anchor="start" x="53" y="-423.9" font-family="Arial" font-size="14.00" fill="#000000">ts_created </text>
<text text-anchor="start" x="122.2454" y="-423.9" font-family="Arial" font-size="14.00" fill="#666666">[timestamp without time zone]</text>
<polygon fill="none" stroke="#000000" points="46,-382.5 46,-412.5 376,-412.5 376,-382.5 46,-382.5"/>
<text text-anchor="start" x="53" y="-393.9" font-family="Arial" font-size="14.00" fill="#000000">ts_modified </text>
<text text-anchor="start" x="128.4586" y="-393.9" font-family="Arial" font-size="14.00" fill="#666666">[timestamp without time zone]</text>
<polygon fill="none" stroke="#000000" stroke-width="3" points="44.5,-381.5 44.5,-599.5 377.5,-599.5 377.5,-381.5 44.5,-381.5"/>
</g>
<!-- sr.team -->
<g id="node2" class="node">
<title>sr.team</title>
<polygon fill="#efefef" stroke="transparent" points="59,-222.5 59,-257.5 363,-257.5 363,-222.5 59,-222.5"/>
<polygon fill="none" stroke="#000000" points="59,-222.5 59,-257.5 363,-257.5 363,-222.5 59,-222.5"/>
<text text-anchor="start" x="117.2154" y="-235.3" font-family="Arial Bold" font-size="18.00" fill="#000000">sr.team</text>
<text text-anchor="start" x="177.2166" y="-235.3" font-family="Arial" font-size="14.00" fill="#000000">    </text>
<text text-anchor="start" x="211.4214" y="-235.3" font-family="Arial" font-size="14.00" fill="#666666">[BASE TABLE]</text>
<polygon fill="none" stroke="#000000" points="59,-192.5 59,-222.5 363,-222.5 363,-192.5 59,-192.5"/>
<text text-anchor="start" x="66" y="-203.9" font-family="Arial" font-size="14.00" fill="#000000">team_uuid    </text>
<text text-anchor="start" x="165.5582" y="-203.9" font-family="Arial" font-size="14.00" fill="#666666">[uuid]</text>
<polygon fill="none" stroke="#000000" points="59,-162.5 59,-192.5 363,-192.5 363,-162.5 59,-162.5"/>
<text text-anchor="start" x="66" y="-173.9" font-family="Arial" font-size="14.00" fill="#000000">event_uuid    </text>
<text text-anchor="start" x="168.6802" y="-173.9" font-family="Arial" font-size="14.00" fill="#666666">[uuid]</text>
<polygon fill="none" stroke="#000000" points="59,-132.5 59,-162.5 363,-162.5 363,-132.5 59,-132.5"/>
<text text-anchor="start" x="66" y="-143.9" font-family="Arial" font-size="14.00" fill="#000000">team_status_id    </text>
<text text-anchor="start" x="195.122" y="-143.9" font-family="Arial" font-size="14.00" fill="#666666">[integer]</text>
<polygon fill="none" stroke="#000000" points="59,-102.5 59,-132.5 363,-132.5 363,-102.5 59,-102.5"/>
<text text-anchor="start" x="66" y="-113.9" font-family="Arial" font-size="14.00" fill="#000000">team_details    </text>
<text text-anchor="start" x="179.5554" y="-113.9" font-family="Arial" font-size="14.00" fill="#666666">[jsonb]</text>
<polygon fill="none" stroke="#000000" points="59,-72.5 59,-102.5 363,-102.5 363,-72.5 59,-72.5"/>
<text text-anchor="start" x="66" y="-83.9" font-family="Arial" font-size="14.00" fill="#000000">ts_created    </text>
<text text-anchor="start" x="165.5596" y="-83.9" font-family="Arial" font-size="14.00" fill="#666666">[timestamp without time zone]</text>
<polygon fill="none" stroke="#000000" points="59,-42.5 59,-72.5 363,-72.5 363,-42.5 59,-42.5"/>
<text text-anchor="start" x="65.5435" y="-53.9" font-family="Arial" font-size="14.00" fill="#000000">ts_modified    </text>
<text text-anchor="start" x="171.3163" y="-53.9" font-family="Arial" font-size="14.00" fill="#666666">[timestamp without time zone]</text>
</g>
<!-- sr.team_analysis_result&#45;&gt;sr.team -->
<g id="edge1" class="edge">
<title>sr.team_analysis_result:team_uuid&#45;&gt;sr.team:team_uuid</title>
<path fill="none" stroke="#000000" d="M385.8734,-515.183C443.4848,-486.815 428.4481,-207.5 363,-207.5"/>
<polygon fill="#000000" stroke="#000000" points="385.7355,-515.2153 374.9719,-513.119 380.8678,-516.3576 376,-517.5 376,-517.5 376,-517.5 380.8678,-516.3576 377.0281,-521.881 385.7355,-515.2153 385.7355,-515.2153"/>
<text text-anchor="start" x="383.491" y="-527.5" font-family="Arial" font-size="10.00" fill="#000000">FOREIGN KEY (team_uuid) REFERENCES sr.team(team_uuid)</text>
</g>
</g>
</svg>
