<?xml version="1.0" encoding="UTF-8" standalone="no"?>
<!DOCTYPE svg PUBLIC "-//W3C//DTD SVG 1.1//EN"
 "http://www.w3.org/Graphics/SVG/1.1/DTD/svg11.dtd">
<!-- Generated by graphviz version 2.40.1 (20161225.0304)
 -->
<!-- Title: sr.team_external_link Pages: 1 -->
<svg width="1070pt" height="712pt"
 viewBox="0.00 0.00 1070.00 712.00" xmlns="http://www.w3.org/2000/svg" xmlns:xlink="http://www.w3.org/1999/xlink">
<g id="graph0" class="graph" transform="scale(1 1) rotate(0) translate(4 708)">
<title>sr.team_external_link</title>
<polygon fill="#ffffff" stroke="transparent" points="-4,4 -4,-708 1066,-708 1066,4 -4,4"/>
<!-- sr.team_external_link -->
<g id="node1" class="node">
<title>sr.team_external_link</title>
<polygon fill="#efefef" stroke="transparent" points="299,-622.5 299,-657.5 611,-657.5 611,-622.5 299,-622.5"/>
<polygon fill="none" stroke="#000000" points="299,-622.5 299,-657.5 611,-657.5 611,-622.5 299,-622.5"/>
<text text-anchor="start" x="305.7052" y="-635.3" font-family="Arial Bold" font-size="18.00" fill="#000000">sr.team_external_link</text>
<text text-anchor="start" x="476.7268" y="-635.3" font-family="Arial" font-size="14.00" fill="#000000">    </text>
<text text-anchor="start" x="510.9316" y="-635.3" font-family="Arial" font-size="14.00" fill="#666666">[BASE TABLE]</text>
<polygon fill="none" stroke="#000000" points="299,-592.5 299,-622.5 611,-622.5 611,-592.5 299,-592.5"/>
<text text-anchor="start" x="306" y="-603.9" font-family="Arial" font-size="14.00" fill="#000000">team_external_link_uuid </text>
<text text-anchor="start" x="461.5932" y="-603.9" font-family="Arial" font-size="14.00" fill="#666666">[uuid]</text>
<polygon fill="none" stroke="#000000" points="299,-562.5 299,-592.5 611,-592.5 611,-562.5 299,-562.5"/>
<text text-anchor="start" x="306" y="-573.9" font-family="Arial" font-size="14.00" fill="#000000">team_uuid </text>
<text text-anchor="start" x="375.244" y="-573.9" font-family="Arial" font-size="14.00" fill="#666666">[uuid]</text>
<polygon fill="none" stroke="#000000" points="299,-532.5 299,-562.5 611,-562.5 611,-532.5 299,-532.5"/>
<text text-anchor="start" x="306" y="-543.9" font-family="Arial" font-size="14.00" fill="#000000">external_link_type_id </text>
<text text-anchor="start" x="441.3674" y="-543.9" font-family="Arial" font-size="14.00" fill="#666666">[integer]</text>
<polygon fill="none" stroke="#000000" points="299,-502.5 299,-532.5 611,-532.5 611,-502.5 299,-502.5"/>
<text text-anchor="start" x="306" y="-513.9" font-family="Arial" font-size="14.00" fill="#000000">team_external_link_name </text>
<text text-anchor="start" x="470.1472" y="-513.9" font-family="Arial" font-size="14.00" fill="#666666">[varchar(50)]</text>
<polygon fill="none" stroke="#000000" points="299,-472.5 299,-502.5 611,-502.5 611,-472.5 299,-472.5"/>
<text text-anchor="start" x="306" y="-483.9" font-family="Arial" font-size="14.00" fill="#000000">team_external_link_url </text>
<text text-anchor="start" x="450.6886" y="-483.9" font-family="Arial" font-size="14.00" fill="#666666">[varchar(1000)]</text>
<polygon fill="none" stroke="#000000" points="299,-442.5 299,-472.5 611,-472.5 611,-442.5 299,-442.5"/>
<text text-anchor="start" x="306" y="-453.9" font-family="Arial" font-size="14.00" fill="#000000">team_private </text>
<text text-anchor="start" x="390.7952" y="-453.9" font-family="Arial" font-size="14.00" fill="#666666">[boolean]</text>
<polygon fill="none" stroke="#000000" points="299,-412.5 299,-442.5 611,-442.5 611,-412.5 299,-412.5"/>
<text text-anchor="start" x="306" y="-423.9" font-family="Arial" font-size="14.00" fill="#000000">ts_created </text>
<text text-anchor="start" x="375.2454" y="-423.9" font-family="Arial" font-size="14.00" fill="#666666">[timestamp without time zone]</text>
<polygon fill="none" stroke="#000000" points="299,-382.5 299,-412.5 611,-412.5 611,-382.5 299,-382.5"/>
<text text-anchor="start" x="306" y="-393.9" font-family="Arial" font-size="14.00" fill="#000000">ts_modified </text>
<text text-anchor="start" x="381.4586" y="-393.9" font-family="Arial" font-size="14.00" fill="#666666">[timestamp without time zone]</text>
<polygon fill="none" stroke="#000000" stroke-width="3" points="297.5,-381.5 297.5,-659.5 612.5,-659.5 612.5,-381.5 297.5,-381.5"/>
</g>
<!-- sr.team -->
<g id="node2" class="node">
<title>sr.team</title>
<polygon fill="#efefef" stroke="transparent" points="94,-222.5 94,-257.5 398,-257.5 398,-222.5 94,-222.5"/>
<polygon fill="none" stroke="#000000" points="94,-222.5 94,-257.5 398,-257.5 398,-222.5 94,-222.5"/>
<text text-anchor="start" x="152.2154" y="-235.3" font-family="Arial Bold" font-size="18.00" fill="#000000">sr.team</text>
<text text-anchor="start" x="212.2166" y="-235.3" font-family="Arial" font-size="14.00" fill="#000000">    </text>
<text text-anchor="start" x="246.4214" y="-235.3" font-family="Arial" font-size="14.00" fill="#666666">[BASE TABLE]</text>
<polygon fill="none" stroke="#000000" points="94,-192.5 94,-222.5 398,-222.5 398,-192.5 94,-192.5"/>
<text text-anchor="start" x="101" y="-203.9" font-family="Arial" font-size="14.00" fill="#000000">team_uuid    </text>
<text text-anchor="start" x="200.5582" y="-203.9" font-family="Arial" font-size="14.00" fill="#666666">[uuid]</text>
<polygon fill="none" stroke="#000000" points="94,-162.5 94,-192.5 398,-192.5 398,-162.5 94,-162.5"/>
<text text-anchor="start" x="101" y="-173.9" font-family="Arial" font-size="14.00" fill="#000000">event_uuid    </text>
<text text-anchor="start" x="203.6802" y="-173.9" font-family="Arial" font-size="14.00" fill="#666666">[uuid]</text>
<polygon fill="none" stroke="#000000" points="94,-132.5 94,-162.5 398,-162.5 398,-132.5 94,-132.5"/>
<text text-anchor="start" x="101" y="-143.9" font-family="Arial" font-size="14.00" fill="#000000">team_status_id    </text>
<text text-anchor="start" x="230.122" y="-143.9" font-family="Arial" font-size="14.00" fill="#666666">[integer]</text>
<polygon fill="none" stroke="#000000" points="94,-102.5 94,-132.5 398,-132.5 398,-102.5 94,-102.5"/>
<text text-anchor="start" x="101" y="-113.9" font-family="Arial" font-size="14.00" fill="#000000">team_details    </text>
<text text-anchor="start" x="214.5554" y="-113.9" font-family="Arial" font-size="14.00" fill="#666666">[jsonb]</text>
<polygon fill="none" stroke="#000000" points="94,-72.5 94,-102.5 398,-102.5 398,-72.5 94,-72.5"/>
<text text-anchor="start" x="101" y="-83.9" font-family="Arial" font-size="14.00" fill="#000000">ts_created    </text>
<text text-anchor="start" x="200.5596" y="-83.9" font-family="Arial" font-size="14.00" fill="#666666">[timestamp without time zone]</text>
<polygon fill="none" stroke="#000000" points="94,-42.5 94,-72.5 398,-72.5 398,-42.5 94,-42.5"/>
<text text-anchor="start" x="100.5435" y="-53.9" font-family="Arial" font-size="14.00" fill="#000000">ts_modified    </text>
<text text-anchor="start" x="206.3163" y="-53.9" font-family="Arial" font-size="14.00" fill="#666666">[timestamp without time zone]</text>
</g>
<!-- sr.team_external_link&#45;&gt;sr.team -->
<g id="edge1" class="edge">
<title>sr.team_external_link:team_uuid&#45;&gt;sr.team:team_uuid</title>
<path fill="none" stroke="#000000" d="M288.8521,-577.0021C195.1544,-567.4152 239.7142,-421.6423 299,-337 325.8598,-298.6522 371.1402,-339.3478 398,-301 421.8403,-266.9632 439.5556,-207.5 398,-207.5"/>
<polygon fill="#000000" stroke="#000000" points="289.012,-577.0099 298.7794,-581.9946 294.006,-577.2549 299,-577.5 299,-577.5 299,-577.5 294.006,-577.2549 299.2206,-573.0054 289.012,-577.0099 289.012,-577.0099"/>
<text text-anchor="start" x="7.491" y="-587.5" font-family="Arial" font-size="10.00" fill="#000000">FOREIGN KEY (team_uuid) REFERENCES sr.team(team_uuid)</text>
</g>
<!-- sr.external_link_type -->
<g id="node3" class="node">
<title>sr.external_link_type</title>
<polygon fill="#efefef" stroke="transparent" points="503,-207.5 503,-242.5 826,-242.5 826,-207.5 503,-207.5"/>
<polygon fill="none" stroke="#000000" points="503,-207.5 503,-242.5 826,-242.5 826,-207.5 503,-207.5"/>
<text text-anchor="start" x="518.2013" y="-220.3" font-family="Arial Bold" font-size="18.00" fill="#000000">sr.external_link_type</text>
<text text-anchor="start" x="683.2307" y="-220.3" font-family="Arial" font-size="14.00" fill="#000000">    </text>
<text text-anchor="start" x="717.4355" y="-220.3" font-family="Arial" font-size="14.00" fill="#666666">[BASE TABLE]</text>
<polygon fill="none" stroke="#000000" points="503,-177.5 503,-207.5 826,-207.5 826,-177.5 503,-177.5"/>
<text text-anchor="start" x="510" y="-188.9" font-family="Arial" font-size="14.00" fill="#000000">external_link_type_id    </text>
<text text-anchor="start" x="675.6816" y="-188.9" font-family="Arial" font-size="14.00" fill="#666666">[integer]</text>
<polygon fill="none" stroke="#000000" points="503,-147.5 503,-177.5 826,-177.5 826,-147.5 503,-147.5"/>
<text text-anchor="start" x="510" y="-158.9" font-family="Arial" font-size="14.00" fill="#000000">external_link_type_name    </text>
<text text-anchor="start" x="699.8008" y="-158.9" font-family="Arial" font-size="14.00" fill="#666666">[varchar(100)]</text>
<polygon fill="none" stroke="#000000" points="503,-117.5 503,-147.5 826,-147.5 826,-117.5 503,-117.5"/>
<text text-anchor="start" x="509.7055" y="-128.9" font-family="Arial" font-size="14.00" fill="#000000">external_link_type_description    </text>
<text text-anchor="start" x="732.1753" y="-128.9" font-family="Arial" font-size="14.00" fill="#666666">[varchar(512)]</text>
<polygon fill="none" stroke="#000000" points="503,-87.5 503,-117.5 826,-117.5 826,-87.5 503,-87.5"/>
<text text-anchor="start" x="510" y="-98.9" font-family="Arial" font-size="14.00" fill="#000000">ts_created    </text>
<text text-anchor="start" x="609.5596" y="-98.9" font-family="Arial" font-size="14.00" fill="#666666">[timestamp without time zone]</text>
<polygon fill="none" stroke="#000000" points="503,-57.5 503,-87.5 826,-87.5 826,-57.5 503,-57.5"/>
<text text-anchor="start" x="510" y="-68.9" font-family="Arial" font-size="14.00" fill="#000000">ts_modified    </text>
<text text-anchor="start" x="615.7728" y="-68.9" font-family="Arial" font-size="14.00" fill="#666666">[timestamp without time zone]</text>
</g>
<!-- sr.team_external_link&#45;&gt;sr.external_link_type -->
<g id="edge2" class="edge">
<title>sr.team_external_link:external_link_type_id&#45;&gt;sr.external_link_type:external_link_type_id</title>
<path fill="none" stroke="#000000" d="M621.344,-546.9091C701.1486,-537.3086 659.1199,-412.9386 611,-337 582.5872,-292.1615 531.4128,-330.8385 503,-286 480.7572,-250.8984 461.4444,-192.5 503,-192.5"/>
<polygon fill="#000000" stroke="#000000" points="620.9837,-546.9296 610.7433,-543.0073 615.9919,-547.2148 611,-547.5 611,-547.5 611,-547.5 615.9919,-547.2148 611.2567,-551.9927 620.9837,-546.9296 620.9837,-546.9296"/>
<text text-anchor="start" x="618.0855" y="-557.5" font-family="Arial" font-size="10.00" fill="#000000">FOREIGN KEY (external_link_type_id) REFERENCES sr.external_link_type(external_link_type_id)</text>
</g>
</g>
</svg>
