<?xml version="1.0" encoding="UTF-8" standalone="no"?>
<!DOCTYPE svg PUBLIC "-//W3C//DTD SVG 1.1//EN"
 "http://www.w3.org/Graphics/SVG/1.1/DTD/svg11.dtd">
<!-- Generated by graphviz version 2.40.1 (20161225.0304)
 -->
<!-- Title: sr.team_member Pages: 1 -->
<svg width="1209pt" height="1109pt"
 viewBox="0.00 0.00 1208.50 1109.00" xmlns="http://www.w3.org/2000/svg" xmlns:xlink="http://www.w3.org/1999/xlink">
<g id="graph0" class="graph" transform="scale(1 1) rotate(0) translate(4 1105)">
<title>sr.team_member</title>
<polygon fill="#ffffff" stroke="transparent" points="-4,4 -4,-1105 1204.5,-1105 1204.5,4 -4,4"/>
<!-- sr.team_member -->
<g id="node1" class="node">
<title>sr.team_member</title>
<polygon fill="#efefef" stroke="transparent" points="553.5,-592.5 553.5,-627.5 830.5,-627.5 830.5,-592.5 553.5,-592.5"/>
<polygon fill="none" stroke="#000000" points="553.5,-592.5 553.5,-627.5 830.5,-627.5 830.5,-592.5 553.5,-592.5"/>
<text text-anchor="start" x="560.2147" y="-605.3" font-family="Arial Bold" font-size="18.00" fill="#000000">sr.team_member</text>
<text text-anchor="start" x="696.2173" y="-605.3" font-family="Arial" font-size="14.00" fill="#000000">    </text>
<text text-anchor="start" x="730.4221" y="-605.3" font-family="Arial" font-size="14.00" fill="#666666">[BASE TABLE]</text>
<polygon fill="none" stroke="#000000" points="553.5,-562.5 553.5,-592.5 830.5,-592.5 830.5,-562.5 553.5,-562.5"/>
<text text-anchor="start" x="560.5" y="-573.9" font-family="Arial" font-size="14.00" fill="#000000">team_member_uuid </text>
<text text-anchor="start" x="688.8562" y="-573.9" font-family="Arial" font-size="14.00" fill="#666666">[uuid]</text>
<polygon fill="none" stroke="#000000" points="553.5,-532.5 553.5,-562.5 830.5,-562.5 830.5,-532.5 553.5,-532.5"/>
<text text-anchor="start" x="560.5" y="-543.9" font-family="Arial" font-size="14.00" fill="#000000">team_uuid </text>
<text text-anchor="start" x="629.744" y="-543.9" font-family="Arial" font-size="14.00" fill="#666666">[uuid]</text>
<polygon fill="none" stroke="#000000" points="553.5,-502.5 553.5,-532.5 830.5,-532.5 830.5,-502.5 553.5,-502.5"/>
<text text-anchor="start" x="560.5" y="-513.9" font-family="Arial" font-size="14.00" fill="#000000">participant_uuid </text>
<text text-anchor="start" x="663.1956" y="-513.9" font-family="Arial" font-size="14.00" fill="#666666">[uuid]</text>
<polygon fill="none" stroke="#000000" points="553.5,-472.5 553.5,-502.5 830.5,-502.5 830.5,-472.5 553.5,-472.5"/>
<text text-anchor="start" x="560.5" y="-483.9" font-family="Arial" font-size="14.00" fill="#000000">ts_created </text>
<text text-anchor="start" x="629.7454" y="-483.9" font-family="Arial" font-size="14.00" fill="#666666">[timestamp without time zone]</text>
<polygon fill="none" stroke="#000000" points="553.5,-442.5 553.5,-472.5 830.5,-472.5 830.5,-442.5 553.5,-442.5"/>
<text text-anchor="start" x="560.5" y="-453.9" font-family="Arial" font-size="14.00" fill="#000000">ts_modified </text>
<text text-anchor="start" x="635.9586" y="-453.9" font-family="Arial" font-size="14.00" fill="#666666">[timestamp without time zone]</text>
<polygon fill="none" stroke="#000000" points="553.5,-412.5 553.5,-442.5 830.5,-442.5 830.5,-412.5 553.5,-412.5"/>
<text text-anchor="start" x="560.5" y="-423.9" font-family="Arial" font-size="14.00" fill="#000000">tags </text>
<text text-anchor="start" x="590.8464" y="-423.9" font-family="Arial" font-size="14.00" fill="#666666">[jsonb]</text>
<polygon fill="none" stroke="#000000" stroke-width="3" points="551.5,-411.5 551.5,-629.5 831.5,-629.5 831.5,-411.5 551.5,-411.5"/>
</g>
<!-- sr.team -->
<g id="node4" class="node">
<title>sr.team</title>
<polygon fill="#efefef" stroke="transparent" points="336.5,-237.5 336.5,-272.5 640.5,-272.5 640.5,-237.5 336.5,-237.5"/>
<polygon fill="none" stroke="#000000" points="336.5,-237.5 336.5,-272.5 640.5,-272.5 640.5,-237.5 336.5,-237.5"/>
<text text-anchor="start" x="394.7154" y="-250.3" font-family="Arial Bold" font-size="18.00" fill="#000000">sr.team</text>
<text text-anchor="start" x="454.7166" y="-250.3" font-family="Arial" font-size="14.00" fill="#000000">    </text>
<text text-anchor="start" x="488.9214" y="-250.3" font-family="Arial" font-size="14.00" fill="#666666">[BASE TABLE]</text>
<polygon fill="none" stroke="#000000" points="336.5,-207.5 336.5,-237.5 640.5,-237.5 640.5,-207.5 336.5,-207.5"/>
<text text-anchor="start" x="343.5" y="-218.9" font-family="Arial" font-size="14.00" fill="#000000">team_uuid    </text>
<text text-anchor="start" x="443.0582" y="-218.9" font-family="Arial" font-size="14.00" fill="#666666">[uuid]</text>
<polygon fill="none" stroke="#000000" points="336.5,-177.5 336.5,-207.5 640.5,-207.5 640.5,-177.5 336.5,-177.5"/>
<text text-anchor="start" x="343.5" y="-188.9" font-family="Arial" font-size="14.00" fill="#000000">event_uuid    </text>
<text text-anchor="start" x="446.1802" y="-188.9" font-family="Arial" font-size="14.00" fill="#666666">[uuid]</text>
<polygon fill="none" stroke="#000000" points="336.5,-147.5 336.5,-177.5 640.5,-177.5 640.5,-147.5 336.5,-147.5"/>
<text text-anchor="start" x="343.5" y="-158.9" font-family="Arial" font-size="14.00" fill="#000000">team_status_id    </text>
<text text-anchor="start" x="472.622" y="-158.9" font-family="Arial" font-size="14.00" fill="#666666">[integer]</text>
<polygon fill="none" stroke="#000000" points="336.5,-117.5 336.5,-147.5 640.5,-147.5 640.5,-117.5 336.5,-117.5"/>
<text text-anchor="start" x="343.5" y="-128.9" font-family="Arial" font-size="14.00" fill="#000000">team_details    </text>
<text text-anchor="start" x="457.0554" y="-128.9" font-family="Arial" font-size="14.00" fill="#666666">[jsonb]</text>
<polygon fill="none" stroke="#000000" points="336.5,-87.5 336.5,-117.5 640.5,-117.5 640.5,-87.5 336.5,-87.5"/>
<text text-anchor="start" x="343.5" y="-98.9" font-family="Arial" font-size="14.00" fill="#000000">ts_created    </text>
<text text-anchor="start" x="443.0596" y="-98.9" font-family="Arial" font-size="14.00" fill="#666666">[timestamp without time zone]</text>
<polygon fill="none" stroke="#000000" points="336.5,-57.5 336.5,-87.5 640.5,-87.5 640.5,-57.5 336.5,-57.5"/>
<text text-anchor="start" x="343.0435" y="-68.9" font-family="Arial" font-size="14.00" fill="#000000">ts_modified    </text>
<text text-anchor="start" x="448.8163" y="-68.9" font-family="Arial" font-size="14.00" fill="#666666">[timestamp without time zone]</text>
</g>
<!-- sr.team_member&#45;&gt;sr.team -->
<g id="edge4" class="edge">
<title>sr.team_member:team_uuid&#45;&gt;sr.team:team_uuid</title>
<path fill="none" stroke="#000000" d="M543.4077,-546.8425C476.9013,-537.6203 515.4105,-433.4799 553.5,-367 575.7818,-328.1103 618.2182,-354.8897 640.5,-316 661.1586,-279.9433 682.0556,-222.5 640.5,-222.5"/>
<polygon fill="#000000" stroke="#000000" points="543.5212,-546.8498 553.2074,-551.9905 548.5106,-547.1749 553.5,-547.5 553.5,-547.5 553.5,-547.5 548.5106,-547.1749 553.7926,-543.0095 543.5212,-546.8498 543.5212,-546.8498"/>
<text text-anchor="start" x="261.991" y="-557.5" font-family="Arial" font-size="10.00" fill="#000000">FOREIGN KEY (team_uuid) REFERENCES sr.team(team_uuid)</text>
</g>
<!-- sr.participant -->
<g id="node5" class="node">
<title>sr.participant</title>
<polygon fill="#efefef" stroke="transparent" points="744.5,-252.5 744.5,-287.5 1048.5,-287.5 1048.5,-252.5 744.5,-252.5"/>
<polygon fill="none" stroke="#000000" points="744.5,-252.5 744.5,-287.5 1048.5,-287.5 1048.5,-252.5 744.5,-252.5"/>
<text text-anchor="start" x="781.2108" y="-265.3" font-family="Arial Bold" font-size="18.00" fill="#000000">sr.participant</text>
<text text-anchor="start" x="884.2212" y="-265.3" font-family="Arial" font-size="14.00" fill="#000000">    </text>
<text text-anchor="start" x="918.426" y="-265.3" font-family="Arial" font-size="14.00" fill="#666666">[BASE TABLE]</text>
<polygon fill="none" stroke="#000000" points="744.5,-222.5 744.5,-252.5 1048.5,-252.5 1048.5,-222.5 744.5,-222.5"/>
<text text-anchor="start" x="751.5" y="-233.9" font-family="Arial" font-size="14.00" fill="#000000">participant_uuid    </text>
<text text-anchor="start" x="884.5098" y="-233.9" font-family="Arial" font-size="14.00" fill="#666666">[uuid]</text>
<polygon fill="none" stroke="#000000" points="744.5,-192.5 744.5,-222.5 1048.5,-222.5 1048.5,-192.5 744.5,-192.5"/>
<text text-anchor="start" x="751.5" y="-203.9" font-family="Arial" font-size="14.00" fill="#000000">user_uuid    </text>
<text text-anchor="start" x="847.1676" y="-203.9" font-family="Arial" font-size="14.00" fill="#666666">[uuid]</text>
<polygon fill="none" stroke="#000000" points="744.5,-162.5 744.5,-192.5 1048.5,-192.5 1048.5,-162.5 744.5,-162.5"/>
<text text-anchor="start" x="751.5" y="-173.9" font-family="Arial" font-size="14.00" fill="#000000">event_uuid    </text>
<text text-anchor="start" x="854.1802" y="-173.9" font-family="Arial" font-size="14.00" fill="#666666">[uuid]</text>
<polygon fill="none" stroke="#000000" points="744.5,-132.5 744.5,-162.5 1048.5,-162.5 1048.5,-132.5 744.5,-132.5"/>
<text text-anchor="start" x="751.5" y="-143.9" font-family="Arial" font-size="14.00" fill="#000000">is_active    </text>
<text text-anchor="start" x="840.1564" y="-143.9" font-family="Arial" font-size="14.00" fill="#666666">[boolean]</text>
<polygon fill="none" stroke="#000000" points="744.5,-102.5 744.5,-132.5 1048.5,-132.5 1048.5,-102.5 744.5,-102.5"/>
<text text-anchor="start" x="751.5" y="-113.9" font-family="Arial" font-size="14.00" fill="#000000">ts_created    </text>
<text text-anchor="start" x="851.0596" y="-113.9" font-family="Arial" font-size="14.00" fill="#666666">[timestamp without time zone]</text>
<polygon fill="none" stroke="#000000" points="744.5,-72.5 744.5,-102.5 1048.5,-102.5 1048.5,-72.5 744.5,-72.5"/>
<text text-anchor="start" x="751.0435" y="-83.9" font-family="Arial" font-size="14.00" fill="#000000">ts_modified    </text>
<text text-anchor="start" x="856.8163" y="-83.9" font-family="Arial" font-size="14.00" fill="#666666">[timestamp without time zone]</text>
<polygon fill="none" stroke="#000000" points="744.5,-42.5 744.5,-72.5 1048.5,-72.5 1048.5,-42.5 744.5,-42.5"/>
<text text-anchor="start" x="751.5" y="-53.9" font-family="Arial" font-size="14.00" fill="#000000">tags    </text>
<text text-anchor="start" x="812.1606" y="-53.9" font-family="Arial" font-size="14.00" fill="#666666">[jsonb]</text>
</g>
<!-- sr.team_member&#45;&gt;sr.participant -->
<g id="edge5" class="edge">
<title>sr.team_member:participant_uuid&#45;&gt;sr.participant:participant_uuid</title>
<path fill="none" stroke="#000000" d="M840.6208,-516.6712C894.1045,-507.2467 865.5308,-419.6402 830.5,-367 807.5439,-332.5043 767.4561,-365.4957 744.5,-331 721.4777,-296.4047 702.9444,-237.5 744.5,-237.5"/>
<polygon fill="#000000" stroke="#000000" points="840.4666,-516.6837 830.1327,-513.015 835.4833,-517.0919 830.5,-517.5 830.5,-517.5 830.5,-517.5 835.4833,-517.0919 830.8673,-521.985 840.4666,-516.6837 840.4666,-516.6837"/>
<text text-anchor="start" x="837.15" y="-527.5" font-family="Arial" font-size="10.00" fill="#000000">FOREIGN KEY (participant_uuid) REFERENCES sr.participant(participant_uuid)</text>
</g>
<!-- sr.team_member_role_member -->
<g id="node2" class="node">
<title>sr.team_member_role_member</title>
<polygon fill="#efefef" stroke="transparent" points="43.5,-962.5 43.5,-997.5 436.5,-997.5 436.5,-962.5 43.5,-962.5"/>
<polygon fill="none" stroke="#000000" points="43.5,-962.5 43.5,-997.5 436.5,-997.5 436.5,-962.5 43.5,-962.5"/>
<text text-anchor="start" x="50.2115" y="-975.3" font-family="Arial Bold" font-size="18.00" fill="#000000">sr.team_member_role_member</text>
<text text-anchor="start" x="302.2205" y="-975.3" font-family="Arial" font-size="14.00" fill="#000000">    </text>
<text text-anchor="start" x="336.4253" y="-975.3" font-family="Arial" font-size="14.00" fill="#666666">[BASE TABLE]</text>
<polygon fill="none" stroke="#000000" points="43.5,-932.5 43.5,-962.5 436.5,-962.5 436.5,-932.5 43.5,-932.5"/>
<text text-anchor="start" x="50.5" y="-943.9" font-family="Arial" font-size="14.00" fill="#000000">team_member_role_member_uuid    </text>
<text text-anchor="start" x="299.3976" y="-943.9" font-family="Arial" font-size="14.00" fill="#666666">[uuid]</text>
<polygon fill="none" stroke="#000000" points="43.5,-902.5 43.5,-932.5 436.5,-932.5 436.5,-902.5 43.5,-902.5"/>
<text text-anchor="start" x="50.5" y="-913.9" font-family="Arial" font-size="14.00" fill="#000000">team_member_uuid    </text>
<text text-anchor="start" x="209.1704" y="-913.9" font-family="Arial" font-size="14.00" fill="#666666">[uuid]</text>
<polygon fill="none" stroke="#000000" points="43.5,-872.5 43.5,-902.5 436.5,-902.5 436.5,-872.5 43.5,-872.5"/>
<text text-anchor="start" x="50.5" y="-883.9" font-family="Arial" font-size="14.00" fill="#000000">team_member_role_id    </text>
<text text-anchor="start" x="224.7202" y="-883.9" font-family="Arial" font-size="14.00" fill="#666666">[integer]</text>
<polygon fill="none" stroke="#000000" points="43.5,-842.5 43.5,-872.5 436.5,-872.5 436.5,-842.5 43.5,-842.5"/>
<text text-anchor="start" x="50.5" y="-853.9" font-family="Arial" font-size="14.00" fill="#000000">ts_created    </text>
<text text-anchor="start" x="150.0596" y="-853.9" font-family="Arial" font-size="14.00" fill="#666666">[timestamp without time zone]</text>
<polygon fill="none" stroke="#000000" points="43.5,-812.5 43.5,-842.5 436.5,-842.5 436.5,-812.5 43.5,-812.5"/>
<text text-anchor="start" x="50.5" y="-823.9" font-family="Arial" font-size="14.00" fill="#000000">ts_modified    </text>
<text text-anchor="start" x="156.2728" y="-823.9" font-family="Arial" font-size="14.00" fill="#666666">[timestamp without time zone]</text>
</g>
<!-- sr.team_member_role_member&#45;&gt;sr.team_member -->
<g id="edge1" class="edge">
<title>sr.team_member_role_member:team_member_uuid&#45;&gt;sr.team_member:team_member_uuid</title>
<path fill="none" stroke="#000000" d="M446.8762,-916.9676C525.8217,-908.3085 457.1034,-795.7959 488.5,-710 511.0416,-648.4017 487.9068,-577.5 553.5,-577.5"/>
<polygon fill="#000000" stroke="#000000" points="446.4869,-916.9875 436.2694,-913.0059 441.4934,-917.2438 436.5,-917.5 436.5,-917.5 436.5,-917.5 441.4934,-917.2438 436.7306,-921.9941 446.4869,-916.9875 446.4869,-916.9875"/>
<text text-anchor="start" x="443.6565" y="-927.5" font-family="Arial" font-size="10.00" fill="#000000">FOREIGN KEY (team_member_uuid) REFERENCES sr.team_member(team_member_uuid)</text>
</g>
<!-- sr.kanban_item -->
<g id="node3" class="node">
<title>sr.kanban_item</title>
<polygon fill="#efefef" stroke="transparent" points="540.5,-1022.5 540.5,-1057.5 844.5,-1057.5 844.5,-1022.5 540.5,-1022.5"/>
<polygon fill="none" stroke="#000000" points="540.5,-1022.5 540.5,-1057.5 844.5,-1057.5 844.5,-1022.5 540.5,-1022.5"/>
<text text-anchor="start" x="567.2028" y="-1035.3" font-family="Arial Bold" font-size="18.00" fill="#000000">sr.kanban_item</text>
<text text-anchor="start" x="690.2292" y="-1035.3" font-family="Arial" font-size="14.00" fill="#000000">    </text>
<text text-anchor="start" x="724.434" y="-1035.3" font-family="Arial" font-size="14.00" fill="#666666">[BASE TABLE]</text>
<polygon fill="none" stroke="#000000" points="540.5,-992.5 540.5,-1022.5 844.5,-1022.5 844.5,-992.5 540.5,-992.5"/>
<text text-anchor="start" x="547.5" y="-1003.9" font-family="Arial" font-size="14.00" fill="#000000">kanban_item_uuid    </text>
<text text-anchor="start" x="696.0778" y="-1003.9" font-family="Arial" font-size="14.00" fill="#666666">[uuid]</text>
<polygon fill="none" stroke="#000000" points="540.5,-962.5 540.5,-992.5 844.5,-992.5 844.5,-962.5 540.5,-962.5"/>
<text text-anchor="start" x="547.5" y="-973.9" font-family="Arial" font-size="14.00" fill="#000000">team_uuid    </text>
<text text-anchor="start" x="647.0582" y="-973.9" font-family="Arial" font-size="14.00" fill="#666666">[uuid]</text>
<polygon fill="none" stroke="#000000" points="540.5,-932.5 540.5,-962.5 844.5,-962.5 844.5,-932.5 540.5,-932.5"/>
<text text-anchor="start" x="547.5" y="-943.9" font-family="Arial" font-size="14.00" fill="#000000">kanban_item_status_id    </text>
<text text-anchor="start" x="725.6416" y="-943.9" font-family="Arial" font-size="14.00" fill="#666666">[integer]</text>
<polygon fill="none" stroke="#000000" points="540.5,-902.5 540.5,-932.5 844.5,-932.5 844.5,-902.5 540.5,-902.5"/>
<text text-anchor="start" x="547.5" y="-913.9" font-family="Arial" font-size="14.00" fill="#000000">kanban_item_priority    </text>
<text text-anchor="start" x="711.6136" y="-913.9" font-family="Arial" font-size="14.00" fill="#666666">[integer]</text>
<polygon fill="none" stroke="#000000" points="540.5,-872.5 540.5,-902.5 844.5,-902.5 844.5,-872.5 540.5,-872.5"/>
<text text-anchor="start" x="547.5" y="-883.9" font-family="Arial" font-size="14.00" fill="#000000">kanban_item_issuer_uuid    </text>
<text text-anchor="start" x="741.1928" y="-883.9" font-family="Arial" font-size="14.00" fill="#666666">[uuid]</text>
<polygon fill="none" stroke="#000000" points="540.5,-842.5 540.5,-872.5 844.5,-872.5 844.5,-842.5 540.5,-842.5"/>
<text text-anchor="start" x="547.5" y="-853.9" font-family="Arial" font-size="14.00" fill="#000000">kanban_item_owner_uuid    </text>
<text text-anchor="start" x="741.9754" y="-853.9" font-family="Arial" font-size="14.00" fill="#666666">[uuid]</text>
<polygon fill="none" stroke="#000000" points="540.5,-812.5 540.5,-842.5 844.5,-842.5 844.5,-812.5 540.5,-812.5"/>
<text text-anchor="start" x="547.5" y="-823.9" font-family="Arial" font-size="14.00" fill="#000000">kanban_item_details    </text>
<text text-anchor="start" x="710.075" y="-823.9" font-family="Arial" font-size="14.00" fill="#666666">[jsonb]</text>
<polygon fill="none" stroke="#000000" points="540.5,-782.5 540.5,-812.5 844.5,-812.5 844.5,-782.5 540.5,-782.5"/>
<text text-anchor="start" x="547.5" y="-793.9" font-family="Arial" font-size="14.00" fill="#000000">ts_created    </text>
<text text-anchor="start" x="647.0596" y="-793.9" font-family="Arial" font-size="14.00" fill="#666666">[timestamp without time zone]</text>
<polygon fill="none" stroke="#000000" points="540.5,-752.5 540.5,-782.5 844.5,-782.5 844.5,-752.5 540.5,-752.5"/>
<text text-anchor="start" x="547.0435" y="-763.9" font-family="Arial" font-size="14.00" fill="#000000">ts_modified    </text>
<text text-anchor="start" x="652.8163" y="-763.9" font-family="Arial" font-size="14.00" fill="#666666">[timestamp without time zone]</text>
</g>
<!-- sr.kanban_item&#45;&gt;sr.team_member -->
<g id="edge2" class="edge">
<title>sr.kanban_item:kanban_item_issuer_uuid&#45;&gt;sr.team_member:team_member_uuid</title>
<path fill="none" stroke="#000000" d="M530.5002,-886.7994C464.0575,-876.9838 490.6125,-766.4634 540.5,-710 626.495,-612.6696 744.505,-771.3304 830.5,-674 858.8976,-641.8592 873.3889,-577.5 830.5,-577.5"/>
<polygon fill="#000000" stroke="#000000" points="530.5245,-886.801 540.1855,-891.989 535.5122,-887.1505 540.5,-887.5 540.5,-887.5 540.5,-887.5 535.5122,-887.1505 540.8145,-883.011 530.5245,-886.801 530.5245,-886.801"/>
<text text-anchor="start" x="547.1485" y="-897.5" font-family="Arial" font-size="10.00" fill="#000000">FOREIGN KEY (kanban_item_issuer_uuid) REFERENCES sr.team_member(team_member_uuid)</text>
</g>
<!-- sr.kanban_item&#45;&gt;sr.team_member -->
<g id="edge3" class="edge">
<title>sr.kanban_item:kanban_item_owner_uuid&#45;&gt;sr.team_member:team_member_uuid</title>
<path fill="none" stroke="#000000" d="M530.5208,-856.6415C477.4307,-846.8877 499.4681,-756.4405 540.5,-710 626.495,-612.6696 744.505,-771.3304 830.5,-674 858.8976,-641.8592 873.3889,-577.5 830.5,-577.5"/>
<polygon fill="#000000" stroke="#000000" points="530.5368,-856.6428 540.1143,-861.9834 535.5184,-857.0714 540.5,-857.5 540.5,-857.5 540.5,-857.5 535.5184,-857.0714 540.8857,-853.0166 530.5368,-856.6428 530.5368,-856.6428"/>
<text text-anchor="start" x="547.869" y="-867.5" font-family="Arial" font-size="10.00" fill="#000000">FOREIGN KEY (kanban_item_owner_uuid) REFERENCES sr.team_member(team_member_uuid)</text>
</g>
</g>
</svg>
