<?xml version="1.0" encoding="UTF-8" standalone="no"?>
<!DOCTYPE svg PUBLIC "-//W3C//DTD SVG 1.1//EN"
 "http://www.w3.org/Graphics/SVG/1.1/DTD/svg11.dtd">
<!-- Generated by graphviz version 2.40.1 (20161225.0304)
 -->
<!-- Title: sr.team_score_item Pages: 1 -->
<svg width="1214pt" height="802pt"
 viewBox="0.00 0.00 1214.00 802.00" xmlns="http://www.w3.org/2000/svg" xmlns:xlink="http://www.w3.org/1999/xlink">
<g id="graph0" class="graph" transform="scale(1 1) rotate(0) translate(4 798)">
<title>sr.team_score_item</title>
<polygon fill="#ffffff" stroke="transparent" points="-4,4 -4,-798 1210,-798 1210,4 -4,4"/>
<!-- sr.team_score_item -->
<g id="node1" class="node">
<title>sr.team_score_item</title>
<polygon fill="#efefef" stroke="transparent" points="453,-712.5 453,-747.5 752,-747.5 752,-712.5 453,-712.5"/>
<polygon fill="none" stroke="#000000" points="453,-712.5 453,-747.5 752,-747.5 752,-712.5 453,-712.5"/>
<text text-anchor="start" x="459.7095" y="-725.3" font-family="Arial Bold" font-size="18.00" fill="#000000">sr.team_score_item</text>
<text text-anchor="start" x="617.7225" y="-725.3" font-family="Arial" font-size="14.00" fill="#000000">    </text>
<text text-anchor="start" x="651.9273" y="-725.3" font-family="Arial" font-size="14.00" fill="#666666">[BASE TABLE]</text>
<polygon fill="none" stroke="#000000" points="453,-682.5 453,-712.5 752,-712.5 752,-682.5 453,-682.5"/>
<text text-anchor="start" x="460" y="-693.9" font-family="Arial" font-size="14.00" fill="#000000">team_score_item_uuid </text>
<text text-anchor="start" x="605.4754" y="-693.9" font-family="Arial" font-size="14.00" fill="#666666">[uuid]</text>
<polygon fill="none" stroke="#000000" points="453,-652.5 453,-682.5 752,-682.5 752,-652.5 453,-652.5"/>
<text text-anchor="start" x="460" y="-663.9" font-family="Arial" font-size="14.00" fill="#000000">team_uuid </text>
<text text-anchor="start" x="529.244" y="-663.9" font-family="Arial" font-size="14.00" fill="#666666">[uuid]</text>
<polygon fill="none" stroke="#000000" points="453,-622.5 453,-652.5 752,-652.5 752,-622.5 453,-622.5"/>
<text text-anchor="start" x="460" y="-633.9" font-family="Arial" font-size="14.00" fill="#000000">judge_uuid </text>
<text text-anchor="start" x="532.3646" y="-633.9" font-family="Arial" font-size="14.00" fill="#666666">[uuid]</text>
<polygon fill="none" stroke="#000000" points="453,-592.5 453,-622.5 752,-622.5 752,-592.5 453,-592.5"/>
<text text-anchor="start" x="460" y="-603.9" font-family="Arial" font-size="14.00" fill="#000000">judging_criterion_uuid </text>
<text text-anchor="start" x="600.8092" y="-603.9" font-family="Arial" font-size="14.00" fill="#666666">[uuid]</text>
<polygon fill="none" stroke="#000000" points="453,-562.5 453,-592.5 752,-592.5 752,-562.5 453,-562.5"/>
<text text-anchor="start" x="460" y="-573.9" font-family="Arial" font-size="14.00" fill="#000000">team_score_item_value </text>
<text text-anchor="start" x="612.4754" y="-573.9" font-family="Arial" font-size="14.00" fill="#666666">[numeric(2,1)]</text>
<polygon fill="none" stroke="#000000" points="453,-532.5 453,-562.5 752,-562.5 752,-532.5 453,-532.5"/>
<text text-anchor="start" x="460" y="-543.9" font-family="Arial" font-size="14.00" fill="#000000">team_score_item_details </text>
<text text-anchor="start" x="619.4726" y="-543.9" font-family="Arial" font-size="14.00" fill="#666666">[jsonb]</text>
<polygon fill="none" stroke="#000000" points="453,-502.5 453,-532.5 752,-532.5 752,-502.5 453,-502.5"/>
<text text-anchor="start" x="460" y="-513.9" font-family="Arial" font-size="14.00" fill="#000000">ts_created </text>
<text text-anchor="start" x="529.2454" y="-513.9" font-family="Arial" font-size="14.00" fill="#666666">[timestamp without time zone]</text>
<polygon fill="none" stroke="#000000" points="453,-472.5 453,-502.5 752,-502.5 752,-472.5 453,-472.5"/>
<text text-anchor="start" x="460" y="-483.9" font-family="Arial" font-size="14.00" fill="#000000">ts_modified </text>
<text text-anchor="start" x="535.4586" y="-483.9" font-family="Arial" font-size="14.00" fill="#666666">[timestamp without time zone]</text>
<polygon fill="none" stroke="#000000" stroke-width="3" points="451,-471.5 451,-749.5 753,-749.5 753,-471.5 451,-471.5"/>
</g>
<!-- sr.team -->
<g id="node2" class="node">
<title>sr.team</title>
<polygon fill="#efefef" stroke="transparent" points="43,-267.5 43,-302.5 347,-302.5 347,-267.5 43,-267.5"/>
<polygon fill="none" stroke="#000000" points="43,-267.5 43,-302.5 347,-302.5 347,-267.5 43,-267.5"/>
<text text-anchor="start" x="101.2154" y="-280.3" font-family="Arial Bold" font-size="18.00" fill="#000000">sr.team</text>
<text text-anchor="start" x="161.2166" y="-280.3" font-family="Arial" font-size="14.00" fill="#000000">    </text>
<text text-anchor="start" x="195.4214" y="-280.3" font-family="Arial" font-size="14.00" fill="#666666">[BASE TABLE]</text>
<polygon fill="none" stroke="#000000" points="43,-237.5 43,-267.5 347,-267.5 347,-237.5 43,-237.5"/>
<text text-anchor="start" x="50" y="-248.9" font-family="Arial" font-size="14.00" fill="#000000">team_uuid    </text>
<text text-anchor="start" x="149.5582" y="-248.9" font-family="Arial" font-size="14.00" fill="#666666">[uuid]</text>
<polygon fill="none" stroke="#000000" points="43,-207.5 43,-237.5 347,-237.5 347,-207.5 43,-207.5"/>
<text text-anchor="start" x="50" y="-218.9" font-family="Arial" font-size="14.00" fill="#000000">event_uuid    </text>
<text text-anchor="start" x="152.6802" y="-218.9" font-family="Arial" font-size="14.00" fill="#666666">[uuid]</text>
<polygon fill="none" stroke="#000000" points="43,-177.5 43,-207.5 347,-207.5 347,-177.5 43,-177.5"/>
<text text-anchor="start" x="50" y="-188.9" font-family="Arial" font-size="14.00" fill="#000000">team_status_id    </text>
<text text-anchor="start" x="179.122" y="-188.9" font-family="Arial" font-size="14.00" fill="#666666">[integer]</text>
<polygon fill="none" stroke="#000000" points="43,-147.5 43,-177.5 347,-177.5 347,-147.5 43,-147.5"/>
<text text-anchor="start" x="50" y="-158.9" font-family="Arial" font-size="14.00" fill="#000000">team_details    </text>
<text text-anchor="start" x="163.5554" y="-158.9" font-family="Arial" font-size="14.00" fill="#666666">[jsonb]</text>
<polygon fill="none" stroke="#000000" points="43,-117.5 43,-147.5 347,-147.5 347,-117.5 43,-117.5"/>
<text text-anchor="start" x="50" y="-128.9" font-family="Arial" font-size="14.00" fill="#000000">ts_created    </text>
<text text-anchor="start" x="149.5596" y="-128.9" font-family="Arial" font-size="14.00" fill="#666666">[timestamp without time zone]</text>
<polygon fill="none" stroke="#000000" points="43,-87.5 43,-117.5 347,-117.5 347,-87.5 43,-87.5"/>
<text text-anchor="start" x="49.5435" y="-98.9" font-family="Arial" font-size="14.00" fill="#000000">ts_modified    </text>
<text text-anchor="start" x="155.3163" y="-98.9" font-family="Arial" font-size="14.00" fill="#666666">[timestamp without time zone]</text>
</g>
<!-- sr.team_score_item&#45;&gt;sr.team -->
<g id="edge1" class="edge">
<title>sr.team_score_item:team_uuid&#45;&gt;sr.team:team_uuid</title>
<path fill="none" stroke="#000000" d="M443.1269,-665.8279C363.8313,-637.2707 438.6508,-252.5 347,-252.5"/>
<polygon fill="#000000" stroke="#000000" points="443.1404,-665.8301 452.2486,-671.9368 448.0702,-666.6651 453,-667.5 453,-667.5 453,-667.5 448.0702,-666.6651 453.7514,-663.0632 443.1404,-665.8301 443.1404,-665.8301"/>
<text text-anchor="start" x="161.491" y="-677.5" font-family="Arial" font-size="10.00" fill="#000000">FOREIGN KEY (team_uuid) REFERENCES sr.team(team_uuid)</text>
</g>
<!-- sr.participant -->
<g id="node3" class="node">
<title>sr.participant</title>
<polygon fill="#efefef" stroke="transparent" points="451,-282.5 451,-317.5 755,-317.5 755,-282.5 451,-282.5"/>
<polygon fill="none" stroke="#000000" points="451,-282.5 451,-317.5 755,-317.5 755,-282.5 451,-282.5"/>
<text text-anchor="start" x="487.7108" y="-295.3" font-family="Arial Bold" font-size="18.00" fill="#000000">sr.participant</text>
<text text-anchor="start" x="590.7212" y="-295.3" font-family="Arial" font-size="14.00" fill="#000000">    </text>
<text text-anchor="start" x="624.926" y="-295.3" font-family="Arial" font-size="14.00" fill="#666666">[BASE TABLE]</text>
<polygon fill="none" stroke="#000000" points="451,-252.5 451,-282.5 755,-282.5 755,-252.5 451,-252.5"/>
<text text-anchor="start" x="458" y="-263.9" font-family="Arial" font-size="14.00" fill="#000000">participant_uuid    </text>
<text text-anchor="start" x="591.0098" y="-263.9" font-family="Arial" font-size="14.00" fill="#666666">[uuid]</text>
<polygon fill="none" stroke="#000000" points="451,-222.5 451,-252.5 755,-252.5 755,-222.5 451,-222.5"/>
<text text-anchor="start" x="458" y="-233.9" font-family="Arial" font-size="14.00" fill="#000000">user_uuid    </text>
<text text-anchor="start" x="553.6676" y="-233.9" font-family="Arial" font-size="14.00" fill="#666666">[uuid]</text>
<polygon fill="none" stroke="#000000" points="451,-192.5 451,-222.5 755,-222.5 755,-192.5 451,-192.5"/>
<text text-anchor="start" x="458" y="-203.9" font-family="Arial" font-size="14.00" fill="#000000">event_uuid    </text>
<text text-anchor="start" x="560.6802" y="-203.9" font-family="Arial" font-size="14.00" fill="#666666">[uuid]</text>
<polygon fill="none" stroke="#000000" points="451,-162.5 451,-192.5 755,-192.5 755,-162.5 451,-162.5"/>
<text text-anchor="start" x="458" y="-173.9" font-family="Arial" font-size="14.00" fill="#000000">is_active    </text>
<text text-anchor="start" x="546.6564" y="-173.9" font-family="Arial" font-size="14.00" fill="#666666">[boolean]</text>
<polygon fill="none" stroke="#000000" points="451,-132.5 451,-162.5 755,-162.5 755,-132.5 451,-132.5"/>
<text text-anchor="start" x="458" y="-143.9" font-family="Arial" font-size="14.00" fill="#000000">ts_created    </text>
<text text-anchor="start" x="557.5596" y="-143.9" font-family="Arial" font-size="14.00" fill="#666666">[timestamp without time zone]</text>
<polygon fill="none" stroke="#000000" points="451,-102.5 451,-132.5 755,-132.5 755,-102.5 451,-102.5"/>
<text text-anchor="start" x="457.5435" y="-113.9" font-family="Arial" font-size="14.00" fill="#000000">ts_modified    </text>
<text text-anchor="start" x="563.3163" y="-113.9" font-family="Arial" font-size="14.00" fill="#666666">[timestamp without time zone]</text>
<polygon fill="none" stroke="#000000" points="451,-72.5 451,-102.5 755,-102.5 755,-72.5 451,-72.5"/>
<text text-anchor="start" x="458" y="-83.9" font-family="Arial" font-size="14.00" fill="#000000">tags    </text>
<text text-anchor="start" x="518.6606" y="-83.9" font-family="Arial" font-size="14.00" fill="#666666">[jsonb]</text>
</g>
<!-- sr.team_score_item&#45;&gt;sr.participant -->
<g id="edge2" class="edge">
<title>sr.team_score_item:judge_uuid&#45;&gt;sr.participant:participant_uuid</title>
<path fill="none" stroke="#000000" d="M762.3817,-636.8822C842.7918,-626.8483 808.3522,-497.0473 752,-427 666.1526,-320.2894 536.8474,-467.7106 451,-361 424.9519,-328.6216 409.4444,-267.5 451,-267.5"/>
<polygon fill="#000000" stroke="#000000" points="761.9823,-636.9058 751.7326,-633.0079 756.9912,-637.2029 752,-637.5 752,-637.5 752,-637.5 756.9912,-637.2029 752.2674,-641.9921 761.9823,-636.9058 761.9823,-636.9058"/>
<text text-anchor="start" x="759.4825" y="-647.5" font-family="Arial" font-size="10.00" fill="#000000">FOREIGN KEY (judge_uuid) REFERENCES sr.participant(participant_uuid)</text>
</g>
<!-- sr.judging_criterion -->
<g id="node4" class="node">
<title>sr.judging_criterion</title>
<polygon fill="#efefef" stroke="transparent" points="859,-312.5 859,-347.5 1163,-347.5 1163,-312.5 859,-312.5"/>
<polygon fill="none" stroke="#000000" points="859,-312.5 859,-347.5 1163,-347.5 1163,-312.5 859,-312.5"/>
<text text-anchor="start" x="871.2092" y="-325.3" font-family="Arial Bold" font-size="18.00" fill="#000000">sr.judging_criterion</text>
<text text-anchor="start" x="1023.2228" y="-325.3" font-family="Arial" font-size="14.00" fill="#000000">    </text>
<text text-anchor="start" x="1057.4276" y="-325.3" font-family="Arial" font-size="14.00" fill="#666666">[BASE TABLE]</text>
<polygon fill="none" stroke="#000000" points="859,-282.5 859,-312.5 1163,-312.5 1163,-282.5 859,-282.5"/>
<text text-anchor="start" x="866" y="-293.9" font-family="Arial" font-size="14.00" fill="#000000">judging_criterion_uuid    </text>
<text text-anchor="start" x="1037.1234" y="-293.9" font-family="Arial" font-size="14.00" fill="#666666">[uuid]</text>
<polygon fill="none" stroke="#000000" points="859,-252.5 859,-282.5 1163,-282.5 1163,-252.5 859,-252.5"/>
<text text-anchor="start" x="866" y="-263.9" font-family="Arial" font-size="14.00" fill="#000000">organization_uuid    </text>
<text text-anchor="start" x="1010.6844" y="-263.9" font-family="Arial" font-size="14.00" fill="#666666">[uuid]</text>
<polygon fill="none" stroke="#000000" points="859,-222.5 859,-252.5 1163,-252.5 1163,-222.5 859,-222.5"/>
<text text-anchor="start" x="866" y="-233.9" font-family="Arial" font-size="14.00" fill="#000000">event_uuid    </text>
<text text-anchor="start" x="968.6802" y="-233.9" font-family="Arial" font-size="14.00" fill="#666666">[uuid]</text>
<polygon fill="none" stroke="#000000" points="859,-192.5 859,-222.5 1163,-222.5 1163,-192.5 859,-192.5"/>
<text text-anchor="start" x="866" y="-203.9" font-family="Arial" font-size="14.00" fill="#000000">judging_criterion_status_id    </text>
<text text-anchor="start" x="1066.6872" y="-203.9" font-family="Arial" font-size="14.00" fill="#666666">[integer]</text>
<polygon fill="none" stroke="#000000" points="859,-162.5 859,-192.5 1163,-192.5 1163,-162.5 859,-162.5"/>
<text text-anchor="start" x="866" y="-173.9" font-family="Arial" font-size="14.00" fill="#000000">judging_criterion_category_id    </text>
<text text-anchor="start" x="1083.0224" y="-173.9" font-family="Arial" font-size="14.00" fill="#666666">[integer]</text>
<polygon fill="none" stroke="#000000" points="859,-132.5 859,-162.5 1163,-162.5 1163,-132.5 859,-132.5"/>
<text text-anchor="start" x="866" y="-143.9" font-family="Arial" font-size="14.00" fill="#000000">criterion_weight    </text>
<text text-anchor="start" x="998.2118" y="-143.9" font-family="Arial" font-size="14.00" fill="#666666">[integer]</text>
<polygon fill="none" stroke="#000000" points="859,-102.5 859,-132.5 1163,-132.5 1163,-102.5 859,-102.5"/>
<text text-anchor="start" x="866" y="-113.9" font-family="Arial" font-size="14.00" fill="#000000">criterion_details    </text>
<text text-anchor="start" x="998.2118" y="-113.9" font-family="Arial" font-size="14.00" fill="#666666">[jsonb]</text>
<polygon fill="none" stroke="#000000" points="859,-72.5 859,-102.5 1163,-102.5 1163,-72.5 859,-72.5"/>
<text text-anchor="start" x="866" y="-83.9" font-family="Arial" font-size="14.00" fill="#000000">ts_created    </text>
<text text-anchor="start" x="965.5596" y="-83.9" font-family="Arial" font-size="14.00" fill="#666666">[timestamp without time zone]</text>
<polygon fill="none" stroke="#000000" points="859,-42.5 859,-72.5 1163,-72.5 1163,-42.5 859,-42.5"/>
<text text-anchor="start" x="865.5435" y="-53.9" font-family="Arial" font-size="14.00" fill="#000000">ts_modified    </text>
<text text-anchor="start" x="971.3163" y="-53.9" font-family="Arial" font-size="14.00" fill="#666666">[timestamp without time zone]</text>
</g>
<!-- sr.team_score_item&#45;&gt;sr.judging_criterion -->
<g id="edge3" class="edge">
<title>sr.team_score_item:judging_criterion_uuid&#45;&gt;sr.judging_criterion:judging_criterion_uuid</title>
<path fill="none" stroke="#000000" d="M761.9029,-605.3549C821.3586,-577.9657 789.6814,-297.5 859,-297.5"/>
<polygon fill="#000000" stroke="#000000" points="761.7733,-605.3829 751.0473,-603.102 756.8867,-606.4414 752,-607.5 752,-607.5 752,-607.5 756.8867,-606.4414 752.9527,-611.898 761.7733,-605.3829 761.7733,-605.3829"/>
<text text-anchor="start" x="758.814" y="-617.5" font-family="Arial" font-size="10.00" fill="#000000">FOREIGN KEY (judging_criterion_uuid) REFERENCES sr.judging_criterion(judging_criterion_uuid)</text>
</g>
</g>
</svg>
