<?xml version="1.0" encoding="UTF-8" standalone="no"?>
<!DOCTYPE svg PUBLIC "-//W3C//DTD SVG 1.1//EN"
 "http://www.w3.org/Graphics/SVG/1.1/DTD/svg11.dtd">
<!-- Generated by graphviz version 2.40.1 (20161225.0304)
 -->
<!-- Title: sr.user_tag Pages: 1 -->
<svg width="374pt" height="315pt"
 viewBox="0.00 0.00 374.00 315.00" xmlns="http://www.w3.org/2000/svg" xmlns:xlink="http://www.w3.org/1999/xlink">
<g id="graph0" class="graph" transform="scale(1 1) rotate(0) translate(4 311)">
<title>sr.user_tag</title>
<polygon fill="#ffffff" stroke="transparent" points="-4,4 -4,-311 370,-311 370,4 -4,4"/>
<!-- sr.user_tag -->
<g id="node1" class="node">
<title>sr.user_tag</title>
<polygon fill="#efefef" stroke="transparent" points="46,-225.5 46,-260.5 320,-260.5 320,-225.5 46,-225.5"/>
<polygon fill="none" stroke="#000000" points="46,-225.5 46,-260.5 320,-260.5 320,-225.5 46,-225.5"/>
<text text-anchor="start" x="74.2061" y="-238.3" font-family="Arial Bold" font-size="18.00" fill="#000000">sr.user_tag</text>
<text text-anchor="start" x="164.2259" y="-238.3" font-family="Arial" font-size="14.00" fill="#000000">    </text>
<text text-anchor="start" x="198.4307" y="-238.3" font-family="Arial" font-size="14.00" fill="#666666">[BASE TABLE]</text>
<polygon fill="none" stroke="#000000" points="46,-195.5 46,-225.5 320,-225.5 320,-195.5 46,-195.5"/>
<text text-anchor="start" x="53" y="-206.9" font-family="Arial" font-size="14.00" fill="#000000">user_tag_id </text>
<text text-anchor="start" x="130.0266" y="-206.9" font-family="Arial" font-size="14.00" fill="#666666">[integer]</text>
<polygon fill="none" stroke="#000000" points="46,-165.5 46,-195.5 320,-195.5 320,-165.5 46,-165.5"/>
<text text-anchor="start" x="53" y="-176.9" font-family="Arial" font-size="14.00" fill="#000000">user_tag_name </text>
<text text-anchor="start" x="154.1458" y="-176.9" font-family="Arial" font-size="14.00" fill="#666666">[varchar(50)]</text>
<polygon fill="none" stroke="#000000" points="46,-135.5 46,-165.5 320,-165.5 320,-135.5 46,-135.5"/>
<text text-anchor="start" x="53" y="-146.9" font-family="Arial" font-size="14.00" fill="#000000">user_tag_category </text>
<text text-anchor="start" x="172.819" y="-146.9" font-family="Arial" font-size="14.00" fill="#666666">[varchar(50)]</text>
<polygon fill="none" stroke="#000000" points="46,-105.5 46,-135.5 320,-135.5 320,-105.5 46,-105.5"/>
<text text-anchor="start" x="53" y="-116.9" font-family="Arial" font-size="14.00" fill="#000000">user_tag_type </text>
<text text-anchor="start" x="145.5932" y="-116.9" font-family="Arial" font-size="14.00" fill="#666666">[varchar(50)]</text>
<polygon fill="none" stroke="#000000" points="46,-75.5 46,-105.5 320,-105.5 320,-75.5 46,-75.5"/>
<text text-anchor="start" x="53" y="-86.9" font-family="Arial" font-size="14.00" fill="#000000">ts_created </text>
<text text-anchor="start" x="122.2454" y="-86.9" font-family="Arial" font-size="14.00" fill="#666666">[timestamp without time zone]</text>
<polygon fill="none" stroke="#000000" points="46,-45.5 46,-75.5 320,-75.5 320,-45.5 46,-45.5"/>
<text text-anchor="start" x="52.7006" y="-56.9" font-family="Arial" font-size="14.00" fill="#000000">ts_modified </text>
<text text-anchor="start" x="128.1592" y="-56.9" font-family="Arial" font-size="14.00" fill="#666666">[timestamp without time zone]</text>
<polygon fill="none" stroke="#000000" stroke-width="3" points="44.5,-44.5 44.5,-262.5 321.5,-262.5 321.5,-44.5 44.5,-44.5"/>
</g>
</g>
</svg>
