<?xml version="1.0" encoding="UTF-8" standalone="no"?>
<!DOCTYPE svg PUBLIC "-//W3C//DTD SVG 1.1//EN"
 "http://www.w3.org/Graphics/SVG/1.1/DTD/svg11.dtd">
<!-- Generated by graphviz version 2.40.1 (20161225.0304)
 -->
<!-- Title: sr.user_role Pages: 1 -->
<svg width="698pt" height="652pt"
 viewBox="0.00 0.00 698.00 652.00" xmlns="http://www.w3.org/2000/svg" xmlns:xlink="http://www.w3.org/1999/xlink">
<g id="graph0" class="graph" transform="scale(1 1) rotate(0) translate(4 648)">
<title>sr.user_role</title>
<polygon fill="#ffffff" stroke="transparent" points="-4,4 -4,-648 694,-648 694,4 -4,4"/>
<!-- sr.user_role -->
<g id="node1" class="node">
<title>sr.user_role</title>
<polygon fill="#efefef" stroke="transparent" points="62,-225.5 62,-260.5 336,-260.5 336,-225.5 62,-225.5"/>
<polygon fill="none" stroke="#000000" points="62,-225.5 62,-260.5 336,-260.5 336,-225.5 62,-225.5"/>
<text text-anchor="start" x="87.714" y="-238.3" font-family="Arial Bold" font-size="18.00" fill="#000000">sr.user_role</text>
<text text-anchor="start" x="182.718" y="-238.3" font-family="Arial" font-size="14.00" fill="#000000">    </text>
<text text-anchor="start" x="216.9228" y="-238.3" font-family="Arial" font-size="14.00" fill="#666666">[BASE TABLE]</text>
<polygon fill="none" stroke="#000000" points="62,-195.5 62,-225.5 336,-225.5 336,-195.5 62,-195.5"/>
<text text-anchor="start" x="69" y="-206.9" font-family="Arial" font-size="14.00" fill="#000000">user_role_id </text>
<text text-anchor="start" x="149.9032" y="-206.9" font-family="Arial" font-size="14.00" fill="#666666">[integer]</text>
<polygon fill="none" stroke="#000000" points="62,-165.5 62,-195.5 336,-195.5 336,-165.5 62,-165.5"/>
<text text-anchor="start" x="69" y="-176.9" font-family="Arial" font-size="14.00" fill="#000000">user_role_name </text>
<text text-anchor="start" x="174.0224" y="-176.9" font-family="Arial" font-size="14.00" fill="#666666">[varchar(50)]</text>
<polygon fill="none" stroke="#000000" points="62,-135.5 62,-165.5 336,-165.5 336,-135.5 62,-135.5"/>
<text text-anchor="start" x="69" y="-146.9" font-family="Arial" font-size="14.00" fill="#000000">user_role_description </text>
<text text-anchor="start" x="206.6914" y="-146.9" font-family="Arial" font-size="14.00" fill="#666666">[varchar(512)]</text>
<polygon fill="none" stroke="#000000" points="62,-105.5 62,-135.5 336,-135.5 336,-105.5 62,-105.5"/>
<text text-anchor="start" x="69" y="-116.9" font-family="Arial" font-size="14.00" fill="#000000">user_role_grants </text>
<text text-anchor="start" x="177.913" y="-116.9" font-family="Arial" font-size="14.00" fill="#666666">[jsonb]</text>
<polygon fill="none" stroke="#000000" points="62,-75.5 62,-105.5 336,-105.5 336,-75.5 62,-75.5"/>
<text text-anchor="start" x="69" y="-86.9" font-family="Arial" font-size="14.00" fill="#000000">ts_created </text>
<text text-anchor="start" x="138.2454" y="-86.9" font-family="Arial" font-size="14.00" fill="#666666">[timestamp without time zone]</text>
<polygon fill="none" stroke="#000000" points="62,-45.5 62,-75.5 336,-75.5 336,-45.5 62,-45.5"/>
<text text-anchor="start" x="68.7006" y="-56.9" font-family="Arial" font-size="14.00" fill="#000000">ts_modified </text>
<text text-anchor="start" x="144.1592" y="-56.9" font-family="Arial" font-size="14.00" fill="#666666">[timestamp without time zone]</text>
<polygon fill="none" stroke="#000000" stroke-width="3" points="60.5,-44.5 60.5,-262.5 337.5,-262.5 337.5,-44.5 60.5,-44.5"/>
</g>
<!-- sr.user_role_member -->
<g id="node2" class="node">
<title>sr.user_role_member</title>
<polygon fill="#efefef" stroke="transparent" points="43,-565.5 43,-600.5 355,-600.5 355,-565.5 43,-565.5"/>
<polygon fill="none" stroke="#000000" points="43,-565.5 43,-600.5 355,-600.5 355,-565.5 43,-565.5"/>
<text text-anchor="start" x="49.7133" y="-578.3" font-family="Arial Bold" font-size="18.00" fill="#000000">sr.user_role_member</text>
<text text-anchor="start" x="220.7187" y="-578.3" font-family="Arial" font-size="14.00" fill="#000000">    </text>
<text text-anchor="start" x="254.9235" y="-578.3" font-family="Arial" font-size="14.00" fill="#666666">[BASE TABLE]</text>
<polygon fill="none" stroke="#000000" points="43,-535.5 43,-565.5 355,-565.5 355,-535.5 43,-535.5"/>
<text text-anchor="start" x="50" y="-546.9" font-family="Arial" font-size="14.00" fill="#000000">user_role_member_uuid    </text>
<text text-anchor="start" x="235.8948" y="-546.9" font-family="Arial" font-size="14.00" fill="#666666">[uuid]</text>
<polygon fill="none" stroke="#000000" points="43,-505.5 43,-535.5 355,-535.5 355,-505.5 43,-505.5"/>
<text text-anchor="start" x="50" y="-516.9" font-family="Arial" font-size="14.00" fill="#000000">user_uuid    </text>
<text text-anchor="start" x="145.6676" y="-516.9" font-family="Arial" font-size="14.00" fill="#666666">[uuid]</text>
<polygon fill="none" stroke="#000000" points="43,-475.5 43,-505.5 355,-505.5 355,-475.5 43,-475.5"/>
<text text-anchor="start" x="50" y="-486.9" font-family="Arial" font-size="14.00" fill="#000000">organization_uuid    </text>
<text text-anchor="start" x="194.6844" y="-486.9" font-family="Arial" font-size="14.00" fill="#666666">[uuid]</text>
<polygon fill="none" stroke="#000000" points="43,-445.5 43,-475.5 355,-475.5 355,-445.5 43,-445.5"/>
<text text-anchor="start" x="50" y="-456.9" font-family="Arial" font-size="14.00" fill="#000000">user_role_id    </text>
<text text-anchor="start" x="161.2174" y="-456.9" font-family="Arial" font-size="14.00" fill="#666666">[integer]</text>
<polygon fill="none" stroke="#000000" points="43,-415.5 43,-445.5 355,-445.5 355,-415.5 43,-415.5"/>
<text text-anchor="start" x="50" y="-426.9" font-family="Arial" font-size="14.00" fill="#000000">ts_created    </text>
<text text-anchor="start" x="149.5596" y="-426.9" font-family="Arial" font-size="14.00" fill="#666666">[timestamp without time zone]</text>
<polygon fill="none" stroke="#000000" points="43,-385.5 43,-415.5 355,-415.5 355,-385.5 43,-385.5"/>
<text text-anchor="start" x="50" y="-396.9" font-family="Arial" font-size="14.00" fill="#000000">ts_modified    </text>
<text text-anchor="start" x="155.7728" y="-396.9" font-family="Arial" font-size="14.00" fill="#666666">[timestamp without time zone]</text>
</g>
<!-- sr.user_role_member&#45;&gt;sr.user_role -->
<g id="edge1" class="edge">
<title>sr.user_role_member:user_role_id&#45;&gt;sr.user_role:user_role_id</title>
<path fill="none" stroke="#000000" d="M365.0657,-459.7828C465.1538,-445.1191 443.9493,-210.5 336,-210.5"/>
<polygon fill="#000000" stroke="#000000" points="364.9747,-459.7892 354.6802,-456.0114 359.9874,-460.1446 355,-460.5 355,-460.5 355,-460.5 359.9874,-460.1446 355.3198,-464.9886 364.9747,-459.7892 364.9747,-459.7892"/>
<text text-anchor="start" x="362.44" y="-470.5" font-family="Arial" font-size="10.00" fill="#000000">FOREIGN KEY (user_role_id) REFERENCES sr.user_role(user_role_id)</text>
</g>
</g>
</svg>
