<?xml version="1.0" encoding="UTF-8" standalone="no"?>
<!DOCTYPE svg PUBLIC "-//W3C//DTD SVG 1.1//EN"
 "http://www.w3.org/Graphics/SVG/1.1/DTD/svg11.dtd">
<!-- Generated by graphviz version 2.40.1 (20161225.0304)
 -->
<!-- Title: sr.user Pages: 1 -->
<svg width="1240pt" height="1529pt"
 viewBox="0.00 0.00 1240.00 1529.00" xmlns="http://www.w3.org/2000/svg" xmlns:xlink="http://www.w3.org/1999/xlink">
<g id="graph0" class="graph" transform="scale(1 1) rotate(0) translate(4 1525)">
<title>sr.user</title>
<polygon fill="#ffffff" stroke="transparent" points="-4,4 -4,-1525 1236,-1525 1236,4 -4,4"/>
<!-- sr.user -->
<g id="node1" class="node">
<title>sr.user</title>
<polygon fill="#efefef" stroke="transparent" points="471,-1072.5 471,-1107.5 751,-1107.5 751,-1072.5 471,-1072.5"/>
<polygon fill="none" stroke="#000000" points="471,-1072.5 471,-1107.5 751,-1107.5 751,-1072.5 471,-1072.5"/>
<text text-anchor="start" x="519.7165" y="-1085.3" font-family="Arial Bold" font-size="18.00" fill="#000000">sr.user</text>
<text text-anchor="start" x="574.7155" y="-1085.3" font-family="Arial" font-size="14.00" fill="#000000">    </text>
<text text-anchor="start" x="608.9203" y="-1085.3" font-family="Arial" font-size="14.00" fill="#666666">[BASE TABLE]</text>
<polygon fill="none" stroke="#000000" points="471,-1042.5 471,-1072.5 751,-1072.5 751,-1042.5 471,-1042.5"/>
<text text-anchor="start" x="478" y="-1053.9" font-family="Arial" font-size="14.00" fill="#000000">user_uuid </text>
<text text-anchor="start" x="543.3534" y="-1053.9" font-family="Arial" font-size="14.00" fill="#666666">[uuid]</text>
<polygon fill="none" stroke="#000000" points="471,-1012.5 471,-1042.5 751,-1042.5 751,-1012.5 471,-1012.5"/>
<text text-anchor="start" x="478" y="-1023.9" font-family="Arial" font-size="14.00" fill="#000000">email_address </text>
<text text-anchor="start" x="572.9032" y="-1023.9" font-family="Arial" font-size="14.00" fill="#666666">[varchar(100)]</text>
<polygon fill="none" stroke="#000000" points="471,-982.5 471,-1012.5 751,-1012.5 751,-982.5 471,-982.5"/>
<text text-anchor="start" x="478" y="-993.9" font-family="Arial" font-size="14.00" fill="#000000">organization_uuid </text>
<text text-anchor="start" x="592.3702" y="-993.9" font-family="Arial" font-size="14.00" fill="#666666">[uuid]</text>
<polygon fill="none" stroke="#000000" points="471,-952.5 471,-982.5 751,-982.5 751,-952.5 471,-952.5"/>
<text text-anchor="start" x="478" y="-963.9" font-family="Arial" font-size="14.00" fill="#000000">auth_provider_id </text>
<text text-anchor="start" x="586.1416" y="-963.9" font-family="Arial" font-size="14.00" fill="#666666">[varchar(100)]</text>
<polygon fill="none" stroke="#000000" points="471,-922.5 471,-952.5 751,-952.5 751,-922.5 471,-922.5"/>
<text text-anchor="start" x="478" y="-933.9" font-family="Arial" font-size="14.00" fill="#000000">first_name </text>
<text text-anchor="start" x="547.23" y="-933.9" font-family="Arial" font-size="14.00" fill="#666666">[varchar(100)]</text>
<polygon fill="none" stroke="#000000" points="471,-892.5 471,-922.5 751,-922.5 751,-892.5 471,-892.5"/>
<text text-anchor="start" x="478" y="-903.9" font-family="Arial" font-size="14.00" fill="#000000">last_name </text>
<text text-anchor="start" x="546.4614" y="-903.9" font-family="Arial" font-size="14.00" fill="#666666">[varchar(100)]</text>
<polygon fill="none" stroke="#000000" points="471,-862.5 471,-892.5 751,-892.5 751,-862.5 471,-862.5"/>
<text text-anchor="start" x="478" y="-873.9" font-family="Arial" font-size="14.00" fill="#000000">phone </text>
<text text-anchor="start" x="520.8036" y="-873.9" font-family="Arial" font-size="14.00" fill="#666666">[varchar(20)]</text>
<polygon fill="none" stroke="#000000" points="471,-832.5 471,-862.5 751,-862.5 751,-832.5 471,-832.5"/>
<text text-anchor="start" x="478" y="-843.9" font-family="Arial" font-size="14.00" fill="#000000">email_verified </text>
<text text-anchor="start" x="568.2244" y="-843.9" font-family="Arial" font-size="14.00" fill="#666666">[boolean]</text>
<polygon fill="none" stroke="#000000" points="471,-802.5 471,-832.5 751,-832.5 751,-802.5 471,-802.5"/>
<text text-anchor="start" x="478" y="-813.9" font-family="Arial" font-size="14.00" fill="#000000">registered </text>
<text text-anchor="start" x="544.122" y="-813.9" font-family="Arial" font-size="14.00" fill="#666666">[boolean]</text>
<polygon fill="none" stroke="#000000" points="471,-772.5 471,-802.5 751,-802.5 751,-772.5 471,-772.5"/>
<text text-anchor="start" x="478" y="-783.9" font-family="Arial" font-size="14.00" fill="#000000">settings </text>
<text text-anchor="start" x="530.1262" y="-783.9" font-family="Arial" font-size="14.00" fill="#666666">[jsonb]</text>
<polygon fill="none" stroke="#000000" points="471,-742.5 471,-772.5 751,-772.5 751,-742.5 471,-742.5"/>
<text text-anchor="start" x="478" y="-753.9" font-family="Arial" font-size="14.00" fill="#000000">ts_created </text>
<text text-anchor="start" x="547.2454" y="-753.9" font-family="Arial" font-size="14.00" fill="#666666">[timestamp without time zone]</text>
<polygon fill="none" stroke="#000000" points="471,-712.5 471,-742.5 751,-742.5 751,-712.5 471,-712.5"/>
<text text-anchor="start" x="478" y="-723.9" font-family="Arial" font-size="14.00" fill="#000000">ts_modified </text>
<text text-anchor="start" x="553.4586" y="-723.9" font-family="Arial" font-size="14.00" fill="#666666">[timestamp without time zone]</text>
<polygon fill="none" stroke="#000000" points="471,-682.5 471,-712.5 751,-712.5 751,-682.5 471,-682.5"/>
<text text-anchor="start" x="478" y="-693.9" font-family="Arial" font-size="14.00" fill="#000000">tags </text>
<text text-anchor="start" x="508.3464" y="-693.9" font-family="Arial" font-size="14.00" fill="#666666">[jsonb]</text>
<polygon fill="none" stroke="#000000" points="471,-652.5 471,-682.5 751,-682.5 751,-652.5 471,-652.5"/>
<text text-anchor="start" x="478" y="-663.9" font-family="Arial" font-size="14.00" fill="#000000">job_title </text>
<text text-anchor="start" x="530.122" y="-663.9" font-family="Arial" font-size="14.00" fill="#666666">[varchar(50)]</text>
<polygon fill="none" stroke="#000000" points="471,-622.5 471,-652.5 751,-652.5 751,-622.5 471,-622.5"/>
<text text-anchor="start" x="477.5863" y="-633.9" font-family="Arial" font-size="14.00" fill="#000000">ts_last_login </text>
<text text-anchor="start" x="559.2735" y="-633.9" font-family="Arial" font-size="14.00" fill="#666666">[timestamp without time zone]</text>
<polygon fill="none" stroke="#000000" stroke-width="3" points="469.5,-621.5 469.5,-1109.5 752.5,-1109.5 752.5,-621.5 469.5,-621.5"/>
</g>
<!-- sr.organization -->
<g id="node5" class="node">
<title>sr.organization</title>
<polygon fill="#efefef" stroke="transparent" points="459,-462.5 459,-497.5 763,-497.5 763,-462.5 459,-462.5"/>
<polygon fill="none" stroke="#000000" points="459,-462.5 459,-497.5 763,-497.5 763,-462.5 459,-462.5"/>
<text text-anchor="start" x="488.2057" y="-475.3" font-family="Arial Bold" font-size="18.00" fill="#000000">sr.organization</text>
<text text-anchor="start" x="606.2263" y="-475.3" font-family="Arial" font-size="14.00" fill="#000000">    </text>
<text text-anchor="start" x="640.4311" y="-475.3" font-family="Arial" font-size="14.00" fill="#666666">[BASE TABLE]</text>
<polygon fill="none" stroke="#000000" points="459,-432.5 459,-462.5 763,-462.5 763,-432.5 459,-432.5"/>
<text text-anchor="start" x="466" y="-443.9" font-family="Arial" font-size="14.00" fill="#000000">organization_uuid    </text>
<text text-anchor="start" x="610.6844" y="-443.9" font-family="Arial" font-size="14.00" fill="#666666">[uuid]</text>
<polygon fill="none" stroke="#000000" points="459,-402.5 459,-432.5 763,-432.5 763,-402.5 459,-402.5"/>
<text text-anchor="start" x="466" y="-413.9" font-family="Arial" font-size="14.00" fill="#000000">organization_name    </text>
<text text-anchor="start" x="619.2384" y="-413.9" font-family="Arial" font-size="14.00" fill="#666666">[varchar(255)]</text>
<polygon fill="none" stroke="#000000" points="459,-372.5 459,-402.5 763,-402.5 763,-372.5 459,-372.5"/>
<text text-anchor="start" x="466" y="-383.9" font-family="Arial" font-size="14.00" fill="#000000">organization_status_id    </text>
<text text-anchor="start" x="640.2482" y="-383.9" font-family="Arial" font-size="14.00" fill="#666666">[integer]</text>
<polygon fill="none" stroke="#000000" points="459,-342.5 459,-372.5 763,-372.5 763,-342.5 459,-342.5"/>
<text text-anchor="start" x="466" y="-353.9" font-family="Arial" font-size="14.00" fill="#000000">organization_domain    </text>
<text text-anchor="start" x="630.1276" y="-353.9" font-family="Arial" font-size="14.00" fill="#666666">[varchar(255)]</text>
<polygon fill="none" stroke="#000000" points="459,-312.5 459,-342.5 763,-342.5 763,-312.5 459,-312.5"/>
<text text-anchor="start" x="466" y="-323.9" font-family="Arial" font-size="14.00" fill="#000000">organization_logo_image    </text>
<text text-anchor="start" x="656.582" y="-323.9" font-family="Arial" font-size="14.00" fill="#666666">[bytea]</text>
<polygon fill="none" stroke="#000000" points="459,-282.5 459,-312.5 763,-312.5 763,-282.5 459,-282.5"/>
<text text-anchor="start" x="466" y="-293.9" font-family="Arial" font-size="14.00" fill="#000000">primary_contact_email    </text>
<text text-anchor="start" x="640.9916" y="-293.9" font-family="Arial" font-size="14.00" fill="#666666">[varchar(100)]</text>
<polygon fill="none" stroke="#000000" points="459,-252.5 459,-282.5 763,-282.5 763,-252.5 459,-252.5"/>
<text text-anchor="start" x="466" y="-263.9" font-family="Arial" font-size="14.00" fill="#000000">street_address_1    </text>
<text text-anchor="start" x="608.3506" y="-263.9" font-family="Arial" font-size="14.00" fill="#666666">[varchar(100)]</text>
<polygon fill="none" stroke="#000000" points="459,-222.5 459,-252.5 763,-252.5 763,-222.5 459,-222.5"/>
<text text-anchor="start" x="466" y="-233.9" font-family="Arial" font-size="14.00" fill="#000000">street_address_2    </text>
<text text-anchor="start" x="608.3506" y="-233.9" font-family="Arial" font-size="14.00" fill="#666666">[varchar(100)]</text>
<polygon fill="none" stroke="#000000" points="459,-192.5 459,-222.5 763,-222.5 763,-192.5 459,-192.5"/>
<text text-anchor="start" x="466" y="-203.9" font-family="Arial" font-size="14.00" fill="#000000">city    </text>
<text text-anchor="start" x="521.202" y="-203.9" font-family="Arial" font-size="14.00" fill="#666666">[varchar(100)]</text>
<polygon fill="none" stroke="#000000" points="459,-162.5 459,-192.5 763,-192.5 763,-162.5 459,-162.5"/>
<text text-anchor="start" x="466" y="-173.9" font-family="Arial" font-size="14.00" fill="#000000">state_region    </text>
<text text-anchor="start" x="577.2314" y="-173.9" font-family="Arial" font-size="14.00" fill="#666666">[varchar(100)]</text>
<polygon fill="none" stroke="#000000" points="459,-132.5 459,-162.5 763,-162.5 763,-132.5 459,-132.5"/>
<text text-anchor="start" x="466" y="-143.9" font-family="Arial" font-size="14.00" fill="#000000">postal_code    </text>
<text text-anchor="start" x="575.6802" y="-143.9" font-family="Arial" font-size="14.00" fill="#666666">[varchar(25)]</text>
<polygon fill="none" stroke="#000000" points="459,-102.5 459,-132.5 763,-132.5 763,-102.5 459,-102.5"/>
<text text-anchor="start" x="466" y="-113.9" font-family="Arial" font-size="14.00" fill="#000000">phone    </text>
<text text-anchor="start" x="539.1178" y="-113.9" font-family="Arial" font-size="14.00" fill="#666666">[varchar(20)]</text>
<polygon fill="none" stroke="#000000" points="459,-72.5 459,-102.5 763,-102.5 763,-72.5 459,-72.5"/>
<text text-anchor="start" x="466" y="-83.9" font-family="Arial" font-size="14.00" fill="#000000">ts_created    </text>
<text text-anchor="start" x="565.5596" y="-83.9" font-family="Arial" font-size="14.00" fill="#666666">[timestamp without time zone]</text>
<polygon fill="none" stroke="#000000" points="459,-42.5 459,-72.5 763,-72.5 763,-42.5 459,-42.5"/>
<text text-anchor="start" x="465.5435" y="-53.9" font-family="Arial" font-size="14.00" fill="#000000">ts_modified    </text>
<text text-anchor="start" x="571.3163" y="-53.9" font-family="Arial" font-size="14.00" fill="#666666">[timestamp without time zone]</text>
</g>
<!-- sr.user&#45;&gt;sr.organization -->
<g id="edge4" class="edge">
<title>sr.user:organization_uuid&#45;&gt;sr.organization:organization_uuid</title>
<path fill="none" stroke="#000000" d="M761.2467,-997.1723C995.791,-982.0341 1004.0404,-447.5 763,-447.5"/>
<polygon fill="#000000" stroke="#000000" points="760.9949,-997.1802 750.8561,-993.0023 755.9974,-997.3401 751,-997.5 751,-997.5 751,-997.5 755.9974,-997.3401 751.1439,-1001.9977 760.9949,-997.1802 760.9949,-997.1802"/>
<text text-anchor="start" x="758.1415" y="-1007.5" font-family="Arial" font-size="10.00" fill="#000000">FOREIGN KEY (organization_uuid) REFERENCES sr.organization(organization_uuid)</text>
</g>
<!-- sr.user_role_member -->
<g id="node2" class="node">
<title>sr.user_role_member</title>
<polygon fill="#efefef" stroke="transparent" points="43,-1427.5 43,-1462.5 355,-1462.5 355,-1427.5 43,-1427.5"/>
<polygon fill="none" stroke="#000000" points="43,-1427.5 43,-1462.5 355,-1462.5 355,-1427.5 43,-1427.5"/>
<text text-anchor="start" x="49.7133" y="-1440.3" font-family="Arial Bold" font-size="18.00" fill="#000000">sr.user_role_member</text>
<text text-anchor="start" x="220.7187" y="-1440.3" font-family="Arial" font-size="14.00" fill="#000000">    </text>
<text text-anchor="start" x="254.9235" y="-1440.3" font-family="Arial" font-size="14.00" fill="#666666">[BASE TABLE]</text>
<polygon fill="none" stroke="#000000" points="43,-1397.5 43,-1427.5 355,-1427.5 355,-1397.5 43,-1397.5"/>
<text text-anchor="start" x="50" y="-1408.9" font-family="Arial" font-size="14.00" fill="#000000">user_role_member_uuid    </text>
<text text-anchor="start" x="235.8948" y="-1408.9" font-family="Arial" font-size="14.00" fill="#666666">[uuid]</text>
<polygon fill="none" stroke="#000000" points="43,-1367.5 43,-1397.5 355,-1397.5 355,-1367.5 43,-1367.5"/>
<text text-anchor="start" x="50" y="-1378.9" font-family="Arial" font-size="14.00" fill="#000000">user_uuid    </text>
<text text-anchor="start" x="145.6676" y="-1378.9" font-family="Arial" font-size="14.00" fill="#666666">[uuid]</text>
<polygon fill="none" stroke="#000000" points="43,-1337.5 43,-1367.5 355,-1367.5 355,-1337.5 43,-1337.5"/>
<text text-anchor="start" x="50" y="-1348.9" font-family="Arial" font-size="14.00" fill="#000000">organization_uuid    </text>
<text text-anchor="start" x="194.6844" y="-1348.9" font-family="Arial" font-size="14.00" fill="#666666">[uuid]</text>
<polygon fill="none" stroke="#000000" points="43,-1307.5 43,-1337.5 355,-1337.5 355,-1307.5 43,-1307.5"/>
<text text-anchor="start" x="50" y="-1318.9" font-family="Arial" font-size="14.00" fill="#000000">user_role_id    </text>
<text text-anchor="start" x="161.2174" y="-1318.9" font-family="Arial" font-size="14.00" fill="#666666">[integer]</text>
<polygon fill="none" stroke="#000000" points="43,-1277.5 43,-1307.5 355,-1307.5 355,-1277.5 43,-1277.5"/>
<text text-anchor="start" x="50" y="-1288.9" font-family="Arial" font-size="14.00" fill="#000000">ts_created    </text>
<text text-anchor="start" x="149.5596" y="-1288.9" font-family="Arial" font-size="14.00" fill="#666666">[timestamp without time zone]</text>
<polygon fill="none" stroke="#000000" points="43,-1247.5 43,-1277.5 355,-1277.5 355,-1247.5 43,-1247.5"/>
<text text-anchor="start" x="50" y="-1258.9" font-family="Arial" font-size="14.00" fill="#000000">ts_modified    </text>
<text text-anchor="start" x="155.7728" y="-1258.9" font-family="Arial" font-size="14.00" fill="#666666">[timestamp without time zone]</text>
</g>
<!-- sr.user_role_member&#45;&gt;sr.user -->
<g id="edge1" class="edge">
<title>sr.user_role_member:user_uuid&#45;&gt;sr.user:user_uuid</title>
<path fill="none" stroke="#000000" d="M365.1339,-1381.9569C438.2439,-1373.5651 377.3078,-1269.6316 407,-1190 429.8485,-1128.7225 405.6013,-1057.5 471,-1057.5"/>
<polygon fill="#000000" stroke="#000000" points="364.9857,-1381.9648 354.7592,-1378.0064 359.9928,-1382.2324 355,-1382.5 355,-1382.5 355,-1382.5 359.9928,-1382.2324 355.2408,-1386.9936 364.9857,-1381.9648 364.9857,-1381.9648"/>
<text text-anchor="start" x="362.1105" y="-1392.5" font-family="Arial" font-size="10.00" fill="#000000">FOREIGN KEY (user_uuid) REFERENCES sr.&quot;user&quot;(user_uuid)</text>
</g>
<!-- sr.participant -->
<g id="node3" class="node">
<title>sr.participant</title>
<polygon fill="#efefef" stroke="transparent" points="459,-1442.5 459,-1477.5 763,-1477.5 763,-1442.5 459,-1442.5"/>
<polygon fill="none" stroke="#000000" points="459,-1442.5 459,-1477.5 763,-1477.5 763,-1442.5 459,-1442.5"/>
<text text-anchor="start" x="495.7108" y="-1455.3" font-family="Arial Bold" font-size="18.00" fill="#000000">sr.participant</text>
<text text-anchor="start" x="598.7212" y="-1455.3" font-family="Arial" font-size="14.00" fill="#000000">    </text>
<text text-anchor="start" x="632.926" y="-1455.3" font-family="Arial" font-size="14.00" fill="#666666">[BASE TABLE]</text>
<polygon fill="none" stroke="#000000" points="459,-1412.5 459,-1442.5 763,-1442.5 763,-1412.5 459,-1412.5"/>
<text text-anchor="start" x="466" y="-1423.9" font-family="Arial" font-size="14.00" fill="#000000">participant_uuid    </text>
<text text-anchor="start" x="599.0098" y="-1423.9" font-family="Arial" font-size="14.00" fill="#666666">[uuid]</text>
<polygon fill="none" stroke="#000000" points="459,-1382.5 459,-1412.5 763,-1412.5 763,-1382.5 459,-1382.5"/>
<text text-anchor="start" x="466" y="-1393.9" font-family="Arial" font-size="14.00" fill="#000000">user_uuid    </text>
<text text-anchor="start" x="561.6676" y="-1393.9" font-family="Arial" font-size="14.00" fill="#666666">[uuid]</text>
<polygon fill="none" stroke="#000000" points="459,-1352.5 459,-1382.5 763,-1382.5 763,-1352.5 459,-1352.5"/>
<text text-anchor="start" x="466" y="-1363.9" font-family="Arial" font-size="14.00" fill="#000000">event_uuid    </text>
<text text-anchor="start" x="568.6802" y="-1363.9" font-family="Arial" font-size="14.00" fill="#666666">[uuid]</text>
<polygon fill="none" stroke="#000000" points="459,-1322.5 459,-1352.5 763,-1352.5 763,-1322.5 459,-1322.5"/>
<text text-anchor="start" x="466" y="-1333.9" font-family="Arial" font-size="14.00" fill="#000000">is_active    </text>
<text text-anchor="start" x="554.6564" y="-1333.9" font-family="Arial" font-size="14.00" fill="#666666">[boolean]</text>
<polygon fill="none" stroke="#000000" points="459,-1292.5 459,-1322.5 763,-1322.5 763,-1292.5 459,-1292.5"/>
<text text-anchor="start" x="466" y="-1303.9" font-family="Arial" font-size="14.00" fill="#000000">ts_created    </text>
<text text-anchor="start" x="565.5596" y="-1303.9" font-family="Arial" font-size="14.00" fill="#666666">[timestamp without time zone]</text>
<polygon fill="none" stroke="#000000" points="459,-1262.5 459,-1292.5 763,-1292.5 763,-1262.5 459,-1262.5"/>
<text text-anchor="start" x="465.5435" y="-1273.9" font-family="Arial" font-size="14.00" fill="#000000">ts_modified    </text>
<text text-anchor="start" x="571.3163" y="-1273.9" font-family="Arial" font-size="14.00" fill="#666666">[timestamp without time zone]</text>
<polygon fill="none" stroke="#000000" points="459,-1232.5 459,-1262.5 763,-1262.5 763,-1232.5 459,-1232.5"/>
<text text-anchor="start" x="466" y="-1243.9" font-family="Arial" font-size="14.00" fill="#000000">tags    </text>
<text text-anchor="start" x="526.6606" y="-1243.9" font-family="Arial" font-size="14.00" fill="#666666">[jsonb]</text>
</g>
<!-- sr.participant&#45;&gt;sr.user -->
<g id="edge2" class="edge">
<title>sr.participant:user_uuid&#45;&gt;sr.user:user_uuid</title>
<path fill="none" stroke="#000000" d="M773.0566,-1395.3288C837.3378,-1366.3721 823.0587,-1057.5 751,-1057.5"/>
<polygon fill="#000000" stroke="#000000" points="772.7748,-1395.3896 762.0503,-1393.1013 767.8874,-1396.4448 763,-1397.5 763,-1397.5 763,-1397.5 767.8874,-1396.4448 763.9497,-1401.8987 772.7748,-1395.3896 772.7748,-1395.3896"/>
<text text-anchor="start" x="770.1105" y="-1407.5" font-family="Arial" font-size="10.00" fill="#000000">FOREIGN KEY (user_uuid) REFERENCES sr.&quot;user&quot;(user_uuid)</text>
</g>
<!-- sr.cloud_account_user -->
<g id="node4" class="node">
<title>sr.cloud_account_user</title>
<polygon fill="#efefef" stroke="transparent" points="867,-1427.5 867,-1462.5 1189,-1462.5 1189,-1427.5 867,-1427.5"/>
<polygon fill="none" stroke="#000000" points="867,-1427.5 867,-1462.5 1189,-1462.5 1189,-1427.5 867,-1427.5"/>
<text text-anchor="start" x="873.6904" y="-1440.3" font-family="Arial Bold" font-size="18.00" fill="#000000">sr.cloud_account_user</text>
<text text-anchor="start" x="1054.7416" y="-1440.3" font-family="Arial" font-size="14.00" fill="#000000">    </text>
<text text-anchor="start" x="1088.9464" y="-1440.3" font-family="Arial" font-size="14.00" fill="#666666">[BASE TABLE]</text>
<polygon fill="none" stroke="#000000" points="867,-1397.5 867,-1427.5 1189,-1427.5 1189,-1397.5 867,-1397.5"/>
<text text-anchor="start" x="874" y="-1408.9" font-family="Arial" font-size="14.00" fill="#000000">cloud_account_user_uuid    </text>
<text text-anchor="start" x="1067.7082" y="-1408.9" font-family="Arial" font-size="14.00" fill="#666666">[uuid]</text>
<polygon fill="none" stroke="#000000" points="867,-1367.5 867,-1397.5 1189,-1397.5 1189,-1367.5 867,-1367.5"/>
<text text-anchor="start" x="874" y="-1378.9" font-family="Arial" font-size="14.00" fill="#000000">user_uuid    </text>
<text text-anchor="start" x="969.6676" y="-1378.9" font-family="Arial" font-size="14.00" fill="#666666">[uuid]</text>
<polygon fill="none" stroke="#000000" points="867,-1337.5 867,-1367.5 1189,-1367.5 1189,-1337.5 867,-1337.5"/>
<text text-anchor="start" x="874" y="-1348.9" font-family="Arial" font-size="14.00" fill="#000000">cloud_account_uuid    </text>
<text text-anchor="start" x="1032.6998" y="-1348.9" font-family="Arial" font-size="14.00" fill="#666666">[uuid]</text>
<polygon fill="none" stroke="#000000" points="867,-1307.5 867,-1337.5 1189,-1337.5 1189,-1307.5 867,-1307.5"/>
<text text-anchor="start" x="874" y="-1318.9" font-family="Arial" font-size="14.00" fill="#000000">cloud_account_user_id    </text>
<text text-anchor="start" x="1052.143" y="-1318.9" font-family="Arial" font-size="14.00" fill="#666666">[varchar(250)]</text>
<polygon fill="none" stroke="#000000" points="867,-1277.5 867,-1307.5 1189,-1307.5 1189,-1277.5 867,-1277.5"/>
<text text-anchor="start" x="874" y="-1288.9" font-family="Arial" font-size="14.00" fill="#000000">ts_created    </text>
<text text-anchor="start" x="973.5596" y="-1288.9" font-family="Arial" font-size="14.00" fill="#666666">[timestamp without time zone]</text>
<polygon fill="none" stroke="#000000" points="867,-1247.5 867,-1277.5 1189,-1277.5 1189,-1247.5 867,-1247.5"/>
<text text-anchor="start" x="874" y="-1258.9" font-family="Arial" font-size="14.00" fill="#000000">ts_modified    </text>
<text text-anchor="start" x="979.7728" y="-1258.9" font-family="Arial" font-size="14.00" fill="#666666">[timestamp without time zone]</text>
</g>
<!-- sr.cloud_account_user&#45;&gt;sr.user -->
<g id="edge3" class="edge">
<title>sr.cloud_account_user:user_uuid&#45;&gt;sr.user:user_uuid</title>
<path fill="none" stroke="#000000" d="M856.8661,-1381.9569C783.7561,-1373.5651 844.6922,-1269.6316 815,-1190 792.1515,-1128.7225 816.3987,-1057.5 751,-1057.5"/>
<polygon fill="#000000" stroke="#000000" points="857.0143,-1381.9648 866.7592,-1386.9936 862.0072,-1382.2324 867,-1382.5 867,-1382.5 867,-1382.5 862.0072,-1382.2324 867.2408,-1378.0064 857.0143,-1381.9648 857.0143,-1381.9648"/>
<text text-anchor="start" x="874.1105" y="-1366.5" font-family="Arial" font-size="10.00" fill="#000000">FOREIGN KEY (user_uuid) REFERENCES sr.&quot;user&quot;(user_uuid)</text>
</g>
</g>
</svg>
