<?xml version="1.0" encoding="UTF-8" standalone="no"?>
<!DOCTYPE svg PUBLIC "-//W3C//DTD SVG 1.1//EN"
 "http://www.w3.org/Graphics/SVG/1.1/DTD/svg11.dtd">
<!-- Generated by graphviz version 2.40.1 (20161225.0304)
 -->
<!-- Title: sr.user_role_member Pages: 1 -->
<svg width="1222pt" height="922pt"
 viewBox="0.00 0.00 1221.50 922.00" xmlns="http://www.w3.org/2000/svg" xmlns:xlink="http://www.w3.org/1999/xlink">
<g id="graph0" class="graph" transform="scale(1 1) rotate(0) translate(4 918)">
<title>sr.user_role_member</title>
<polygon fill="#ffffff" stroke="transparent" points="-4,4 -4,-918 1217.5,-918 1217.5,4 -4,4"/>
<!-- sr.user_role_member -->
<g id="node1" class="node">
<title>sr.user_role_member</title>
<polygon fill="#efefef" stroke="transparent" points="454.5,-832.5 454.5,-867.5 766.5,-867.5 766.5,-832.5 454.5,-832.5"/>
<polygon fill="none" stroke="#000000" points="454.5,-832.5 454.5,-867.5 766.5,-867.5 766.5,-832.5 454.5,-832.5"/>
<text text-anchor="start" x="461.2133" y="-845.3" font-family="Arial Bold" font-size="18.00" fill="#000000">sr.user_role_member</text>
<text text-anchor="start" x="632.2187" y="-845.3" font-family="Arial" font-size="14.00" fill="#000000">    </text>
<text text-anchor="start" x="666.4235" y="-845.3" font-family="Arial" font-size="14.00" fill="#666666">[BASE TABLE]</text>
<polygon fill="none" stroke="#000000" points="454.5,-802.5 454.5,-832.5 766.5,-832.5 766.5,-802.5 454.5,-802.5"/>
<text text-anchor="start" x="461.5" y="-813.9" font-family="Arial" font-size="14.00" fill="#000000">user_role_member_uuid </text>
<text text-anchor="start" x="617.0806" y="-813.9" font-family="Arial" font-size="14.00" fill="#666666">[uuid]</text>
<polygon fill="none" stroke="#000000" points="454.5,-772.5 454.5,-802.5 766.5,-802.5 766.5,-772.5 454.5,-772.5"/>
<text text-anchor="start" x="461.5" y="-783.9" font-family="Arial" font-size="14.00" fill="#000000">user_uuid </text>
<text text-anchor="start" x="526.8534" y="-783.9" font-family="Arial" font-size="14.00" fill="#666666">[uuid]</text>
<polygon fill="none" stroke="#000000" points="454.5,-742.5 454.5,-772.5 766.5,-772.5 766.5,-742.5 454.5,-742.5"/>
<text text-anchor="start" x="461.5" y="-753.9" font-family="Arial" font-size="14.00" fill="#000000">organization_uuid </text>
<text text-anchor="start" x="575.8702" y="-753.9" font-family="Arial" font-size="14.00" fill="#666666">[uuid]</text>
<polygon fill="none" stroke="#000000" points="454.5,-712.5 454.5,-742.5 766.5,-742.5 766.5,-712.5 454.5,-712.5"/>
<text text-anchor="start" x="461.5" y="-723.9" font-family="Arial" font-size="14.00" fill="#000000">user_role_id </text>
<text text-anchor="start" x="542.4032" y="-723.9" font-family="Arial" font-size="14.00" fill="#666666">[integer]</text>
<polygon fill="none" stroke="#000000" points="454.5,-682.5 454.5,-712.5 766.5,-712.5 766.5,-682.5 454.5,-682.5"/>
<text text-anchor="start" x="461.5" y="-693.9" font-family="Arial" font-size="14.00" fill="#000000">ts_created </text>
<text text-anchor="start" x="530.7454" y="-693.9" font-family="Arial" font-size="14.00" fill="#666666">[timestamp without time zone]</text>
<polygon fill="none" stroke="#000000" points="454.5,-652.5 454.5,-682.5 766.5,-682.5 766.5,-652.5 454.5,-652.5"/>
<text text-anchor="start" x="461.5" y="-663.9" font-family="Arial" font-size="14.00" fill="#000000">ts_modified </text>
<text text-anchor="start" x="536.9586" y="-663.9" font-family="Arial" font-size="14.00" fill="#666666">[timestamp without time zone]</text>
<polygon fill="none" stroke="#000000" stroke-width="3" points="453,-651.5 453,-869.5 768,-869.5 768,-651.5 453,-651.5"/>
</g>
<!-- sr.user -->
<g id="node2" class="node">
<title>sr.user</title>
<polygon fill="#efefef" stroke="transparent" points="43.5,-492.5 43.5,-527.5 354.5,-527.5 354.5,-492.5 43.5,-492.5"/>
<polygon fill="none" stroke="#000000" points="43.5,-492.5 43.5,-527.5 354.5,-527.5 354.5,-492.5 43.5,-492.5"/>
<text text-anchor="start" x="107.7165" y="-505.3" font-family="Arial Bold" font-size="18.00" fill="#000000">sr.user</text>
<text text-anchor="start" x="162.7155" y="-505.3" font-family="Arial" font-size="14.00" fill="#000000">    </text>
<text text-anchor="start" x="196.9203" y="-505.3" font-family="Arial" font-size="14.00" fill="#666666">[BASE TABLE]</text>
<polygon fill="none" stroke="#000000" points="43.5,-462.5 43.5,-492.5 354.5,-492.5 354.5,-462.5 43.5,-462.5"/>
<text text-anchor="start" x="50.5" y="-473.9" font-family="Arial" font-size="14.00" fill="#000000">user_uuid    </text>
<text text-anchor="start" x="146.1676" y="-473.9" font-family="Arial" font-size="14.00" fill="#666666">[uuid]</text>
<polygon fill="none" stroke="#000000" points="43.5,-432.5 43.5,-462.5 354.5,-462.5 354.5,-432.5 43.5,-432.5"/>
<text text-anchor="start" x="50.5" y="-443.9" font-family="Arial" font-size="14.00" fill="#000000">email_address    </text>
<text text-anchor="start" x="175.7174" y="-443.9" font-family="Arial" font-size="14.00" fill="#666666">[varchar(100)]</text>
<polygon fill="none" stroke="#000000" points="43.5,-402.5 43.5,-432.5 354.5,-432.5 354.5,-402.5 43.5,-402.5"/>
<text text-anchor="start" x="50.5" y="-413.9" font-family="Arial" font-size="14.00" fill="#000000">organization_uuid    </text>
<text text-anchor="start" x="195.1844" y="-413.9" font-family="Arial" font-size="14.00" fill="#666666">[uuid]</text>
<polygon fill="none" stroke="#000000" points="43.5,-372.5 43.5,-402.5 354.5,-402.5 354.5,-372.5 43.5,-372.5"/>
<text text-anchor="start" x="50.5" y="-383.9" font-family="Arial" font-size="14.00" fill="#000000">auth_provider_id    </text>
<text text-anchor="start" x="188.9558" y="-383.9" font-family="Arial" font-size="14.00" fill="#666666">[varchar(100)]</text>
<polygon fill="none" stroke="#000000" points="43.5,-342.5 43.5,-372.5 354.5,-372.5 354.5,-342.5 43.5,-342.5"/>
<text text-anchor="start" x="50.5" y="-353.9" font-family="Arial" font-size="14.00" fill="#000000">first_name    </text>
<text text-anchor="start" x="150.0442" y="-353.9" font-family="Arial" font-size="14.00" fill="#666666">[varchar(100)]</text>
<polygon fill="none" stroke="#000000" points="43.5,-312.5 43.5,-342.5 354.5,-342.5 354.5,-312.5 43.5,-312.5"/>
<text text-anchor="start" x="50.5" y="-323.9" font-family="Arial" font-size="14.00" fill="#000000">last_name    </text>
<text text-anchor="start" x="149.2756" y="-323.9" font-family="Arial" font-size="14.00" fill="#666666">[varchar(100)]</text>
<polygon fill="none" stroke="#000000" points="43.5,-282.5 43.5,-312.5 354.5,-312.5 354.5,-282.5 43.5,-282.5"/>
<text text-anchor="start" x="50.5" y="-293.9" font-family="Arial" font-size="14.00" fill="#000000">phone    </text>
<text text-anchor="start" x="123.6178" y="-293.9" font-family="Arial" font-size="14.00" fill="#666666">[varchar(20)]</text>
<polygon fill="none" stroke="#000000" points="43.5,-252.5 43.5,-282.5 354.5,-282.5 354.5,-252.5 43.5,-252.5"/>
<text text-anchor="start" x="50.5" y="-263.9" font-family="Arial" font-size="14.00" fill="#000000">email_verified    </text>
<text text-anchor="start" x="171.0386" y="-263.9" font-family="Arial" font-size="14.00" fill="#666666">[boolean]</text>
<polygon fill="none" stroke="#000000" points="43.5,-222.5 43.5,-252.5 354.5,-252.5 354.5,-222.5 43.5,-222.5"/>
<text text-anchor="start" x="50.5" y="-233.9" font-family="Arial" font-size="14.00" fill="#000000">registered    </text>
<text text-anchor="start" x="146.9362" y="-233.9" font-family="Arial" font-size="14.00" fill="#666666">[boolean]</text>
<polygon fill="none" stroke="#000000" points="43.5,-192.5 43.5,-222.5 354.5,-222.5 354.5,-192.5 43.5,-192.5"/>
<text text-anchor="start" x="50.5" y="-203.9" font-family="Arial" font-size="14.00" fill="#000000">settings    </text>
<text text-anchor="start" x="132.9404" y="-203.9" font-family="Arial" font-size="14.00" fill="#666666">[jsonb]</text>
<polygon fill="none" stroke="#000000" points="43.5,-162.5 43.5,-192.5 354.5,-192.5 354.5,-162.5 43.5,-162.5"/>
<text text-anchor="start" x="50.5" y="-173.9" font-family="Arial" font-size="14.00" fill="#000000">ts_created    </text>
<text text-anchor="start" x="150.0596" y="-173.9" font-family="Arial" font-size="14.00" fill="#666666">[timestamp without time zone]</text>
<polygon fill="none" stroke="#000000" points="43.5,-132.5 43.5,-162.5 354.5,-162.5 354.5,-132.5 43.5,-132.5"/>
<text text-anchor="start" x="50.5" y="-143.9" font-family="Arial" font-size="14.00" fill="#000000">ts_modified    </text>
<text text-anchor="start" x="156.2728" y="-143.9" font-family="Arial" font-size="14.00" fill="#666666">[timestamp without time zone]</text>
<polygon fill="none" stroke="#000000" points="43.5,-102.5 43.5,-132.5 354.5,-132.5 354.5,-102.5 43.5,-102.5"/>
<text text-anchor="start" x="50.5" y="-113.9" font-family="Arial" font-size="14.00" fill="#000000">tags    </text>
<text text-anchor="start" x="111.1606" y="-113.9" font-family="Arial" font-size="14.00" fill="#666666">[jsonb]</text>
<polygon fill="none" stroke="#000000" points="43.5,-72.5 43.5,-102.5 354.5,-102.5 354.5,-72.5 43.5,-72.5"/>
<text text-anchor="start" x="50.5" y="-83.9" font-family="Arial" font-size="14.00" fill="#000000">job_title    </text>
<text text-anchor="start" x="132.9362" y="-83.9" font-family="Arial" font-size="14.00" fill="#666666">[varchar(50)]</text>
<polygon fill="none" stroke="#000000" points="43.5,-42.5 43.5,-72.5 354.5,-72.5 354.5,-42.5 43.5,-42.5"/>
<text text-anchor="start" x="50.4292" y="-53.9" font-family="Arial" font-size="14.00" fill="#000000">ts_last_login    </text>
<text text-anchor="start" x="162.4306" y="-53.9" font-family="Arial" font-size="14.00" fill="#666666">[timestamp without time zone]</text>
</g>
<!-- sr.user_role_member&#45;&gt;sr.user -->
<g id="edge1" class="edge">
<title>sr.user_role_member:user_uuid&#45;&gt;sr.user:user_uuid</title>
<path fill="none" stroke="#000000" d="M444.7075,-785.3549C386.2082,-757.9657 423.35,-477.5 354.5,-477.5"/>
<polygon fill="#000000" stroke="#000000" points="444.7316,-785.3601 453.537,-791.8958 449.6158,-786.43 454.5,-787.5 454.5,-787.5 454.5,-787.5 449.6158,-786.43 455.463,-783.1042 444.7316,-785.3601 444.7316,-785.3601"/>
<text text-anchor="start" x="164.6105" y="-797.5" font-family="Arial" font-size="10.00" fill="#000000">FOREIGN KEY (user_uuid) REFERENCES sr.&quot;user&quot;(user_uuid)</text>
</g>
<!-- sr.organization -->
<g id="node3" class="node">
<title>sr.organization</title>
<polygon fill="#efefef" stroke="transparent" points="458.5,-477.5 458.5,-512.5 762.5,-512.5 762.5,-477.5 458.5,-477.5"/>
<polygon fill="none" stroke="#000000" points="458.5,-477.5 458.5,-512.5 762.5,-512.5 762.5,-477.5 458.5,-477.5"/>
<text text-anchor="start" x="487.7057" y="-490.3" font-family="Arial Bold" font-size="18.00" fill="#000000">sr.organization</text>
<text text-anchor="start" x="605.7263" y="-490.3" font-family="Arial" font-size="14.00" fill="#000000">    </text>
<text text-anchor="start" x="639.9311" y="-490.3" font-family="Arial" font-size="14.00" fill="#666666">[BASE TABLE]</text>
<polygon fill="none" stroke="#000000" points="458.5,-447.5 458.5,-477.5 762.5,-477.5 762.5,-447.5 458.5,-447.5"/>
<text text-anchor="start" x="465.5" y="-458.9" font-family="Arial" font-size="14.00" fill="#000000">organization_uuid    </text>
<text text-anchor="start" x="610.1844" y="-458.9" font-family="Arial" font-size="14.00" fill="#666666">[uuid]</text>
<polygon fill="none" stroke="#000000" points="458.5,-417.5 458.5,-447.5 762.5,-447.5 762.5,-417.5 458.5,-417.5"/>
<text text-anchor="start" x="465.5" y="-428.9" font-family="Arial" font-size="14.00" fill="#000000">organization_name    </text>
<text text-anchor="start" x="618.7384" y="-428.9" font-family="Arial" font-size="14.00" fill="#666666">[varchar(255)]</text>
<polygon fill="none" stroke="#000000" points="458.5,-387.5 458.5,-417.5 762.5,-417.5 762.5,-387.5 458.5,-387.5"/>
<text text-anchor="start" x="465.5" y="-398.9" font-family="Arial" font-size="14.00" fill="#000000">organization_status_id    </text>
<text text-anchor="start" x="639.7482" y="-398.9" font-family="Arial" font-size="14.00" fill="#666666">[integer]</text>
<polygon fill="none" stroke="#000000" points="458.5,-357.5 458.5,-387.5 762.5,-387.5 762.5,-357.5 458.5,-357.5"/>
<text text-anchor="start" x="465.5" y="-368.9" font-family="Arial" font-size="14.00" fill="#000000">organization_domain    </text>
<text text-anchor="start" x="629.6276" y="-368.9" font-family="Arial" font-size="14.00" fill="#666666">[varchar(255)]</text>
<polygon fill="none" stroke="#000000" points="458.5,-327.5 458.5,-357.5 762.5,-357.5 762.5,-327.5 458.5,-327.5"/>
<text text-anchor="start" x="465.5" y="-338.9" font-family="Arial" font-size="14.00" fill="#000000">organization_logo_image    </text>
<text text-anchor="start" x="656.082" y="-338.9" font-family="Arial" font-size="14.00" fill="#666666">[bytea]</text>
<polygon fill="none" stroke="#000000" points="458.5,-297.5 458.5,-327.5 762.5,-327.5 762.5,-297.5 458.5,-297.5"/>
<text text-anchor="start" x="465.5" y="-308.9" font-family="Arial" font-size="14.00" fill="#000000">primary_contact_email    </text>
<text text-anchor="start" x="640.4916" y="-308.9" font-family="Arial" font-size="14.00" fill="#666666">[varchar(100)]</text>
<polygon fill="none" stroke="#000000" points="458.5,-267.5 458.5,-297.5 762.5,-297.5 762.5,-267.5 458.5,-267.5"/>
<text text-anchor="start" x="465.5" y="-278.9" font-family="Arial" font-size="14.00" fill="#000000">street_address_1    </text>
<text text-anchor="start" x="607.8506" y="-278.9" font-family="Arial" font-size="14.00" fill="#666666">[varchar(100)]</text>
<polygon fill="none" stroke="#000000" points="458.5,-237.5 458.5,-267.5 762.5,-267.5 762.5,-237.5 458.5,-237.5"/>
<text text-anchor="start" x="465.5" y="-248.9" font-family="Arial" font-size="14.00" fill="#000000">street_address_2    </text>
<text text-anchor="start" x="607.8506" y="-248.9" font-family="Arial" font-size="14.00" fill="#666666">[varchar(100)]</text>
<polygon fill="none" stroke="#000000" points="458.5,-207.5 458.5,-237.5 762.5,-237.5 762.5,-207.5 458.5,-207.5"/>
<text text-anchor="start" x="465.5" y="-218.9" font-family="Arial" font-size="14.00" fill="#000000">city    </text>
<text text-anchor="start" x="520.702" y="-218.9" font-family="Arial" font-size="14.00" fill="#666666">[varchar(100)]</text>
<polygon fill="none" stroke="#000000" points="458.5,-177.5 458.5,-207.5 762.5,-207.5 762.5,-177.5 458.5,-177.5"/>
<text text-anchor="start" x="465.5" y="-188.9" font-family="Arial" font-size="14.00" fill="#000000">state_region    </text>
<text text-anchor="start" x="576.7314" y="-188.9" font-family="Arial" font-size="14.00" fill="#666666">[varchar(100)]</text>
<polygon fill="none" stroke="#000000" points="458.5,-147.5 458.5,-177.5 762.5,-177.5 762.5,-147.5 458.5,-147.5"/>
<text text-anchor="start" x="465.5" y="-158.9" font-family="Arial" font-size="14.00" fill="#000000">postal_code    </text>
<text text-anchor="start" x="575.1802" y="-158.9" font-family="Arial" font-size="14.00" fill="#666666">[varchar(25)]</text>
<polygon fill="none" stroke="#000000" points="458.5,-117.5 458.5,-147.5 762.5,-147.5 762.5,-117.5 458.5,-117.5"/>
<text text-anchor="start" x="465.5" y="-128.9" font-family="Arial" font-size="14.00" fill="#000000">phone    </text>
<text text-anchor="start" x="538.6178" y="-128.9" font-family="Arial" font-size="14.00" fill="#666666">[varchar(20)]</text>
<polygon fill="none" stroke="#000000" points="458.5,-87.5 458.5,-117.5 762.5,-117.5 762.5,-87.5 458.5,-87.5"/>
<text text-anchor="start" x="465.5" y="-98.9" font-family="Arial" font-size="14.00" fill="#000000">ts_created    </text>
<text text-anchor="start" x="565.0596" y="-98.9" font-family="Arial" font-size="14.00" fill="#666666">[timestamp without time zone]</text>
<polygon fill="none" stroke="#000000" points="458.5,-57.5 458.5,-87.5 762.5,-87.5 762.5,-57.5 458.5,-57.5"/>
<text text-anchor="start" x="465.0435" y="-68.9" font-family="Arial" font-size="14.00" fill="#000000">ts_modified    </text>
<text text-anchor="start" x="570.8163" y="-68.9" font-family="Arial" font-size="14.00" fill="#666666">[timestamp without time zone]</text>
</g>
<!-- sr.user_role_member&#45;&gt;sr.organization -->
<g id="edge2" class="edge">
<title>sr.user_role_member:organization_uuid&#45;&gt;sr.organization:organization_uuid</title>
<path fill="none" stroke="#000000" d="M776.2929,-755.1254C831.4685,-727.2071 824.6042,-462.5 762.5,-462.5"/>
<polygon fill="#000000" stroke="#000000" points="776.2184,-755.1434 765.4395,-753.1267 771.3592,-756.3217 766.5,-757.5 766.5,-757.5 766.5,-757.5 771.3592,-756.3217 767.5605,-761.8733 776.2184,-755.1434 776.2184,-755.1434"/>
<text text-anchor="start" x="773.6415" y="-767.5" font-family="Arial" font-size="10.00" fill="#000000">FOREIGN KEY (organization_uuid) REFERENCES sr.organization(organization_uuid)</text>
</g>
<!-- sr.user_role -->
<g id="node4" class="node">
<title>sr.user_role</title>
<polygon fill="#efefef" stroke="transparent" points="866.5,-357.5 866.5,-392.5 1170.5,-392.5 1170.5,-357.5 866.5,-357.5"/>
<polygon fill="none" stroke="#000000" points="866.5,-357.5 866.5,-392.5 1170.5,-392.5 1170.5,-357.5 866.5,-357.5"/>
<text text-anchor="start" x="907.214" y="-370.3" font-family="Arial Bold" font-size="18.00" fill="#000000">sr.user_role</text>
<text text-anchor="start" x="1002.218" y="-370.3" font-family="Arial" font-size="14.00" fill="#000000">    </text>
<text text-anchor="start" x="1036.4228" y="-370.3" font-family="Arial" font-size="14.00" fill="#666666">[BASE TABLE]</text>
<polygon fill="none" stroke="#000000" points="866.5,-327.5 866.5,-357.5 1170.5,-357.5 1170.5,-327.5 866.5,-327.5"/>
<text text-anchor="start" x="873.5" y="-338.9" font-family="Arial" font-size="14.00" fill="#000000">user_role_id    </text>
<text text-anchor="start" x="984.7174" y="-338.9" font-family="Arial" font-size="14.00" fill="#666666">[integer]</text>
<polygon fill="none" stroke="#000000" points="866.5,-297.5 866.5,-327.5 1170.5,-327.5 1170.5,-297.5 866.5,-297.5"/>
<text text-anchor="start" x="873.5" y="-308.9" font-family="Arial" font-size="14.00" fill="#000000">user_role_name    </text>
<text text-anchor="start" x="1008.8366" y="-308.9" font-family="Arial" font-size="14.00" fill="#666666">[varchar(50)]</text>
<polygon fill="none" stroke="#000000" points="866.5,-267.5 866.5,-297.5 1170.5,-297.5 1170.5,-267.5 866.5,-267.5"/>
<text text-anchor="start" x="873.5" y="-278.9" font-family="Arial" font-size="14.00" fill="#000000">user_role_description    </text>
<text text-anchor="start" x="1041.5056" y="-278.9" font-family="Arial" font-size="14.00" fill="#666666">[varchar(512)]</text>
<polygon fill="none" stroke="#000000" points="866.5,-237.5 866.5,-267.5 1170.5,-267.5 1170.5,-237.5 866.5,-237.5"/>
<text text-anchor="start" x="873.5" y="-248.9" font-family="Arial" font-size="14.00" fill="#000000">user_role_grants    </text>
<text text-anchor="start" x="1012.7272" y="-248.9" font-family="Arial" font-size="14.00" fill="#666666">[jsonb]</text>
<polygon fill="none" stroke="#000000" points="866.5,-207.5 866.5,-237.5 1170.5,-237.5 1170.5,-207.5 866.5,-207.5"/>
<text text-anchor="start" x="873.5" y="-218.9" font-family="Arial" font-size="14.00" fill="#000000">ts_created    </text>
<text text-anchor="start" x="973.0596" y="-218.9" font-family="Arial" font-size="14.00" fill="#666666">[timestamp without time zone]</text>
<polygon fill="none" stroke="#000000" points="866.5,-177.5 866.5,-207.5 1170.5,-207.5 1170.5,-177.5 866.5,-177.5"/>
<text text-anchor="start" x="873.0435" y="-188.9" font-family="Arial" font-size="14.00" fill="#000000">ts_modified    </text>
<text text-anchor="start" x="978.8163" y="-188.9" font-family="Arial" font-size="14.00" fill="#666666">[timestamp without time zone]</text>
</g>
<!-- sr.user_role_member&#45;&gt;sr.user_role -->
<g id="edge3" class="edge">
<title>sr.user_role_member:user_role_id&#45;&gt;sr.user_role:user_role_id</title>
<path fill="none" stroke="#000000" d="M776.5658,-725.6101C848.8733,-696.5656 781.7311,-342.5 866.5,-342.5"/>
<polygon fill="#000000" stroke="#000000" points="776.3283,-725.6546 765.6696,-723.0773 771.4141,-726.5773 766.5,-727.5 766.5,-727.5 766.5,-727.5 771.4141,-726.5773 767.3304,-731.9227 776.3283,-725.6546 776.3283,-725.6546"/>
<text text-anchor="start" x="773.94" y="-737.5" font-family="Arial" font-size="10.00" fill="#000000">FOREIGN KEY (user_role_id) REFERENCES sr.user_role(user_role_id)</text>
</g>
</g>
</svg>
